<svg width="44" height="44" viewBox="0 0 44 44" fill="none" xmlns="http://www.w3.org/2000/svg">
<rect width="44" height="44" rx="10" fill="#42175B"/>
<g clip-path="url(#clip0_1242_2098)">
<path d="M29.3614 11.5H15.599C14.1761 11.5 13.0186 12.6578 13.0186 14.0804V16.1448C13.0186 16.4297 13.2497 16.6609 13.5346 16.6609H29.3614C29.6463 16.6609 29.8775 16.4297 29.8775 16.1448C29.8775 15.8599 29.6463 15.6287 29.3614 15.6287H14.0507V14.0804C14.0507 13.227 14.7452 12.5322 15.599 12.5322H29.3614C30.2152 12.5322 30.9097 13.227 30.9097 14.0804V29.2191C30.9097 30.0725 30.2152 30.7673 29.3614 30.7673H15.599C14.7452 30.7673 14.0507 30.0725 14.0507 29.2191V18.2092C14.0507 17.9242 13.8196 17.6931 13.5346 17.6931C13.2497 17.6931 13.0186 17.9242 13.0186 18.2092V29.2191C13.0186 30.6417 14.1761 31.7995 15.599 31.7995H29.3614C30.7843 31.7995 31.9418 30.6417 31.9418 29.2191V14.0804C31.9418 12.6578 30.7843 11.5 29.3614 11.5Z" fill="white"/>
<path d="M16.2866 14.5966C16.5716 14.5966 16.8027 14.3656 16.8027 14.0805C16.8027 13.7955 16.5716 13.5645 16.2866 13.5645C16.0016 13.5645 15.7705 13.7955 15.7705 14.0805C15.7705 14.3656 16.0016 14.5966 16.2866 14.5966Z" fill="white"/>
<path d="M18.3511 14.5966C18.6361 14.5966 18.8671 14.3656 18.8671 14.0805C18.8671 13.7955 18.6361 13.5645 18.3511 13.5645C18.066 13.5645 17.835 13.7955 17.835 14.0805C17.835 14.3656 18.066 14.5966 18.3511 14.5966Z" fill="white"/>
<path d="M20.4155 14.5966C20.7005 14.5966 20.9316 14.3656 20.9316 14.0805C20.9316 13.7955 20.7005 13.5645 20.4155 13.5645C20.1305 13.5645 19.8994 13.7955 19.8994 14.0805C19.8994 14.3656 20.1305 14.5966 20.4155 14.5966Z" fill="white"/>
<path d="M23.1171 17.6929H18.3513C17.308 17.6929 16.459 18.5416 16.459 19.5852V27.1545C16.459 28.1981 17.308 29.0468 18.3513 29.0468H23.1171C23.6399 29.0468 24.1419 28.8284 24.494 28.4474C24.6875 28.2384 24.6748 27.9119 24.4654 27.7183C24.2564 27.5261 23.9299 27.5375 23.736 27.7472C23.5787 27.9172 23.3529 28.0147 23.1171 28.0147H18.3513C17.8769 28.0147 17.4912 27.6289 17.4912 27.1545V19.5852C17.4912 19.1108 17.8769 18.7251 18.3513 18.7251H23.1171C23.447 18.7251 23.744 18.9125 23.8926 19.2143C24.0186 19.4703 24.328 19.5765 24.5834 19.4495C24.8391 19.3238 24.9446 19.0147 24.8186 18.7587C24.4953 18.1014 23.8432 17.6929 23.1171 17.6929V17.6929Z" fill="white"/>
<path d="M19.0395 26.9825H21.7409C21.7712 26.9825 24.2058 26.547 24.2058 26.547C24.3083 26.5282 24.4027 26.4798 24.4766 26.4066L28.0456 22.8887C28.7616 22.173 28.7438 20.9903 28.0059 20.2525C27.2687 19.5153 26.086 19.4965 25.372 20.2101L21.8061 23.7253C21.7302 23.7999 21.6791 23.8967 21.6603 24.0015L21.3094 25.9503H19.0395C18.7546 25.9503 18.5234 26.1815 18.5234 26.4664C18.5234 26.7513 18.7546 26.9825 19.0395 26.9825V26.9825ZM22.6471 24.3456L26.0991 20.9426C26.4126 20.6288 26.9411 20.6483 27.2761 20.9823C27.6115 21.3176 27.6293 21.8451 27.3185 22.1562L23.8658 25.5592L22.3803 25.8266L22.6471 24.3456Z" fill="white"/>
<path d="M19.0395 20.79H22.4291C22.714 20.79 22.9451 20.5588 22.9451 20.2739C22.9451 19.989 22.714 19.7578 22.4291 19.7578H19.0395C18.7546 19.7578 18.5234 19.989 18.5234 20.2739C18.5234 20.5588 18.7546 20.79 19.0395 20.79Z" fill="white"/>
<path d="M19.0395 22.854H20.3647C20.6496 22.854 20.8808 22.6228 20.8808 22.3379C20.8808 22.0529 20.6496 21.8218 20.3647 21.8218H19.0395C18.7546 21.8218 18.5234 22.0529 18.5234 22.3379C18.5234 22.6228 18.7546 22.854 19.0395 22.854Z" fill="white"/>
<path d="M19.0395 24.9184H20.3647C20.6496 24.9184 20.8808 24.6872 20.8808 24.4023C20.8808 24.1174 20.6496 23.8862 20.3647 23.8862H19.0395C18.7546 23.8862 18.5234 24.1174 18.5234 24.4023C18.5234 24.6872 18.7546 24.9184 19.0395 24.9184Z" fill="white"/>
</g>
<defs>
<clipPath id="clip0_1242_2098">
<rect width="21" height="21" fill="white" transform="translate(11.5 11.5)"/>
</clipPath>
</defs>
</svg>
