<svg width="31" height="31" viewBox="0 0 31 31" fill="none" xmlns="http://www.w3.org/2000/svg">
<g clip-path="url(#clip0_157_1269)">
<g clip-path="url(#clip1_157_1269)">
<g clip-path="url(#clip2_157_1269)">
<path d="M30.4072 5.88281H1.64857C1.292 5.88281 1.00293 6.17188 1.00293 6.52845C1.00293 6.88502 1.292 7.17409 1.64857 7.17409H3.62815V26.0986C3.62815 26.4552 3.91722 26.7443 4.27379 26.7443H14.1441L6.05634 34.8321C5.80425 35.0843 5.80425 35.4931 6.05634 35.7452C6.18242 35.8713 6.34764 35.9343 6.51287 35.9343C6.67809 35.9343 6.84332 35.8713 6.96939 35.7452L15.3823 27.3323V35.2871C15.3823 35.6436 15.6714 35.9327 16.0279 35.9327C16.3845 35.9327 16.6736 35.6436 16.6736 35.2871V27.3324L25.0827 35.7415C25.2088 35.8676 25.374 35.9306 25.5392 35.9306C25.7045 35.9306 25.8697 35.8676 25.9958 35.7415C26.2479 35.4894 26.2479 35.0806 25.9958 34.8284L17.9117 26.7443H27.782C28.1386 26.7443 28.4277 26.4552 28.4277 26.0986V7.17409H30.4073C30.7639 7.17409 31.0529 6.88502 31.0529 6.52845C31.0529 6.17188 30.7638 5.88281 30.4072 5.88281ZM27.1363 25.453H4.91943V7.17409H27.1363V25.453Z" fill="#42175B"/>
<path d="M15.305 21.9305H9.71844C9.52722 21.9305 9.37219 21.6181 9.37219 21.2328C9.37219 20.8475 9.52722 20.5352 9.71844 20.5352H15.305C15.4962 20.5352 15.6513 20.8475 15.6513 21.2328C15.6513 21.6181 15.4962 21.9305 15.305 21.9305Z" fill="#42175B"/>
<path d="M22.5561 24.7215H10.1415C9.71657 24.7215 9.37207 24.4092 9.37207 24.0238C9.37207 23.6385 9.71657 23.3262 10.1415 23.3262H22.5561C22.9811 23.3262 23.3256 23.6385 23.3256 24.0238C23.3256 24.4092 22.9811 24.7215 22.5561 24.7215Z" fill="#42175B"/>
<path d="M7.16911 18.4424L6.58142 17.9632L11.8395 13.4198C11.916 13.3538 12.0208 13.3163 12.1304 13.3156C12.2414 13.3146 12.3455 13.3512 12.4231 13.4163L14.4532 15.1203L20.3496 10.171C20.4264 10.1065 20.5306 10.0703 20.6392 10.0703C20.6404 10.0703 20.6415 10.0703 20.6427 10.0703C20.7526 10.0711 20.8574 10.1089 20.9338 10.1752L25.4186 14.0695L24.8295 14.5474L20.6343 10.9047L14.7429 15.8497C14.5829 15.984 14.3235 15.984 14.1635 15.8497L12.1376 14.1493L7.16911 18.4424Z" fill="#42175B"/>
<path d="M25.0139 19.1403H6.98613C6.76262 19.1403 6.58142 19.0014 6.58142 18.83V8.28783C6.58142 8.11646 6.76262 7.97754 6.98613 7.97754H25.0139C25.2374 7.97754 25.4186 8.11646 25.4186 8.28783V18.83C25.4186 19.0014 25.2374 19.1403 25.0139 19.1403ZM7.39083 18.5198H24.6092V8.59812H7.39083V18.5198Z" fill="#42175B"/>
<path d="M14.2919 12.9332C13.5026 12.9332 12.8605 12.2911 12.8605 11.5018C12.8605 10.7125 13.5026 10.0703 14.2919 10.0703C15.0812 10.0703 15.7234 10.7124 15.7234 11.5017C15.7234 12.291 15.0812 12.9332 14.2919 12.9332ZM14.2919 10.6699C13.8332 10.6699 13.46 11.0431 13.46 11.5017C13.46 11.9604 13.8332 12.3336 14.2919 12.3336C14.7507 12.3336 15.1238 11.9604 15.1238 11.5017C15.1238 11.0431 14.7506 10.6699 14.2919 10.6699Z" fill="#42175B"/>
</g>
</g>
</g>
<defs>
<clipPath id="clip0_157_1269">
<rect width="29.9631" height="29.9631" fill="white" transform="translate(0.857056 0.888672)"/>
</clipPath>
<clipPath id="clip1_157_1269">
<rect width="30" height="20.9302" fill="white" transform="translate(1 5.88379)"/>
</clipPath>
<clipPath id="clip2_157_1269">
<rect width="30.0515" height="30.0515" fill="white" transform="translate(1 5.88379)"/>
</clipPath>
</defs>
</svg>
