<svg width="31" height="31" viewBox="0 0 31 31" fill="none" xmlns="http://www.w3.org/2000/svg">
<g clip-path="url(#clip0_158_1812)">
<path d="M24.3177 1.11816H4.68133C2.65106 1.11816 0.999512 2.77019 0.999512 4.79998V7.74544C0.999512 8.15197 1.32934 8.4818 1.73588 8.4818H24.3177C24.7242 8.4818 25.0541 8.15197 25.0541 7.74544C25.0541 7.33891 24.7242 7.00907 24.3177 7.00907H2.47224V4.79998C2.47224 3.5823 3.46317 2.59089 4.68133 2.59089H24.3177C25.5359 2.59089 26.5268 3.5823 26.5268 4.79998V26.4C26.5268 27.6177 25.5359 28.6091 24.3177 28.6091H4.68133C3.46317 28.6091 2.47224 27.6177 2.47224 26.4V10.6909C2.47224 10.2844 2.14241 9.95453 1.73588 9.95453C1.32934 9.95453 0.999512 10.2844 0.999512 10.6909V26.4C0.999512 28.4298 2.65106 30.0818 4.68133 30.0818H24.3177C26.348 30.0818 27.9995 28.4298 27.9995 26.4V4.79998C27.9995 2.77019 26.348 1.11816 24.3177 1.11816Z" fill="#42175B"/>
<path d="M5.66312 5.5362C6.0698 5.5362 6.39948 5.20652 6.39948 4.79984C6.39948 4.39316 6.0698 4.06348 5.66312 4.06348C5.25644 4.06348 4.92676 4.39316 4.92676 4.79984C4.92676 5.20652 5.25644 5.5362 5.66312 5.5362Z" fill="#42175B"/>
<path d="M8.60843 5.5362C9.01512 5.5362 9.3448 5.20652 9.3448 4.79984C9.3448 4.39316 9.01512 4.06348 8.60843 4.06348C8.20175 4.06348 7.87207 4.39316 7.87207 4.79984C7.87207 5.20652 8.20175 5.5362 8.60843 5.5362Z" fill="#42175B"/>
<path d="M11.5542 5.5362C11.9609 5.5362 12.2906 5.20652 12.2906 4.79984C12.2906 4.39316 11.9609 4.06348 11.5542 4.06348C11.1476 4.06348 10.8179 4.39316 10.8179 4.79984C10.8179 5.20652 11.1476 5.5362 11.5542 5.5362Z" fill="#42175B"/>
<path d="M15.4085 9.9541H8.60869C7.12015 9.9541 5.90869 11.1651 5.90869 12.6541V23.4541C5.90869 24.9431 7.12015 26.1541 8.60869 26.1541H15.4085C16.1545 26.1541 16.8707 25.8425 17.3731 25.2988C17.6493 25.0007 17.6311 24.5347 17.3324 24.2585C17.0342 23.9843 16.5682 24.0006 16.2916 24.2998C16.0672 24.5423 15.7451 24.6814 15.4085 24.6814H8.60869C7.93178 24.6814 7.38142 24.131 7.38142 23.4541V12.6541C7.38142 11.9772 7.93178 11.4268 8.60869 11.4268H15.4085C15.8793 11.4268 16.3031 11.6943 16.515 12.1248C16.6948 12.4901 17.1363 12.6416 17.5007 12.4604C17.8655 12.2811 18.016 11.8401 17.8363 11.4748C17.3751 10.5371 16.4445 9.9541 15.4085 9.9541Z" fill="#42175B"/>
<path d="M9.59037 23.2091H13.4448C13.4879 23.2091 16.9617 22.5878 16.9617 22.5878C17.1079 22.5609 17.2426 22.4919 17.3481 22.3874L22.4403 17.368C23.4619 16.3469 23.4365 14.6594 22.3837 13.6066C21.3319 12.5548 19.6444 12.528 18.6257 13.5462L13.5378 18.5617C13.4294 18.6682 13.3565 18.8062 13.3297 18.9558L12.829 21.7363H9.59037C9.18384 21.7363 8.854 22.0662 8.854 22.4727C8.854 22.8792 9.18384 23.2091 9.59037 23.2091ZM14.7377 19.4467L19.6631 14.5913C20.1104 14.1436 20.8645 14.1714 21.3425 14.6479C21.8209 15.1263 21.8463 15.879 21.4029 16.3229L16.4765 21.1783L14.3571 21.5599L14.7377 19.4467Z" fill="#42175B"/>
<path d="M9.59037 14.3731H14.4266C14.8331 14.3731 15.163 14.0433 15.163 13.6368C15.163 13.2302 14.8331 12.9004 14.4266 12.9004H9.59037C9.18384 12.9004 8.854 13.2302 8.854 13.6368C8.854 14.0433 9.18384 14.3731 9.59037 14.3731Z" fill="#42175B"/>
<path d="M9.59037 17.3184H11.4811C11.8877 17.3184 12.2175 16.9886 12.2175 16.5821C12.2175 16.1755 11.8877 15.8457 11.4811 15.8457H9.59037C9.18384 15.8457 8.854 16.1755 8.854 16.5821C8.854 16.9886 9.18384 17.3184 9.59037 17.3184Z" fill="#42175B"/>
<path d="M9.59037 20.2637H11.4811C11.8877 20.2637 12.2175 19.9339 12.2175 19.5274C12.2175 19.1208 11.8877 18.791 11.4811 18.791H9.59037C9.18384 18.791 8.854 19.1208 8.854 19.5274C8.854 19.9339 9.18384 20.2637 9.59037 20.2637Z" fill="#42175B"/>
</g>
<defs>
<clipPath id="clip0_158_1812">
<rect width="29.9631" height="29.9631" fill="white" transform="translate(0.142578 0.888672)"/>
</clipPath>
</defs>
</svg>
