<?xml version="1.0" encoding="UTF-8"?>
<svg xmlns="http://www.w3.org/2000/svg" id="Outline" viewBox="0 0 64 64" width="512" height="512"><g id="_20-Advertising" data-name="20-Advertising"><path d="M31,44a1,1,0,0,1-1,1H28a1,1,0,0,1,0-2h2A1,1,0,0,1,31,44ZM62,17V49.94A3,3,0,0,1,59,53H41a3,3,0,0,1-3-3.06V49H35v7h7a3,3,0,0,1,0,6H15a3,3,0,0,1,0-6h8V49H4.79a2.8,2.8,0,0,1-2.56-1.84A2.91,2.91,0,0,1,2,46V10A2.91,2.91,0,0,1,4.79,7h15l3.3-4.58A1,1,0,0,1,23.85,2a.91.91,0,0,1,.8.37l3.68,4.47.75-.6a3,3,0,0,1,4.15.4c.1.13.18.25.25.36H53.21A2.91,2.91,0,0,1,56,10v4h3A3,3,0,0,1,62,17ZM40,46H60V21H40ZM59,16H41a1,1,0,0,0-1,1v2H60V17A1,1,0,0,0,59,16ZM30.32,7.8l-.72.58,1.18,1.45.75-.61a.91.91,0,0,0,.33-1,.63.63,0,0,0-.06-.17s-.07-.12-.13-.2A1,1,0,0,0,30.32,7.8Zm-15.8,9.93,4,4.8,14.86-6.45-3.47-4.21h0L23.93,4.64Zm-4.43,3.88A3,3,0,0,0,9,23.55a2.88,2.88,0,0,0,.63,2.09,2.92,2.92,0,0,0,4.1.39l3-2.42-3.66-4.44Zm6.47,4.73,4.29,5.21a1,1,0,0,0,1.35.13.89.89,0,0,0,.34-.64.87.87,0,0,0-.2-.67l-4.29-5.22ZM4,10V39H38V17a3,3,0,0,1,3-3H54V10a.94.94,0,0,0-.79-1H33.86a3,3,0,0,1-1.08,1.78l-.73.59,3.67,4.46a1,1,0,0,1-.37,1.56L19.8,24.14l4.09,5a2.94,2.94,0,0,1-.44,4.14,3,3,0,0,1-1.86.65,2.94,2.94,0,0,1-2.29-1.07L15,27.6a4.87,4.87,0,1,1-6.17-7.54l3.7-3L18.33,9H4.79A.94.94,0,0,0,4,10ZM42,58H15a1,1,0,0,0,0,2H42a1,1,0,0,0,0-2Zm-9-9H25v7h8Zm5-2V41H4v5a1.1,1.1,0,0,0,.08.4.81.81,0,0,0,.71.59H38Zm22,2.94V48H40v1.94A1,1,0,0,0,41,51H59A1,1,0,0,0,60,49.94ZM58,29v9a3,3,0,0,1-3,3H45a3,3,0,0,1-3-3V29a3,3,0,0,1,3-3H55A3,3,0,0,1,58,29Zm-2,0a1,1,0,0,0-1-1H45a1,1,0,0,0-1,1v9a1,1,0,0,0,1,1H55a1,1,0,0,0,1-1Zm-3,4.5a1,1,0,0,1-.43.82l-4,2.79a1,1,0,0,1-.57.18.93.93,0,0,1-.46-.12,1,1,0,0,1-.54-.88V30.71a1,1,0,0,1,1.57-.82l4,2.79A1,1,0,0,1,53,33.5Zm-2.75,0L49,32.63v1.74Z"/></g></svg>
