<svg width="49" height="49" viewBox="0 0 49 49" fill="none" xmlns="http://www.w3.org/2000/svg">
<rect x="0.493851" y="0.0650635" width="48.0123" height="48.0123" rx="11.5692" fill="#42175B"/>
<g clip-path="url(#clip0_653_2604)">
<g clip-path="url(#clip1_653_2604)">
<path d="M35.0126 11.7434H26.8901C26.4856 11.7434 26.1576 12.0713 26.1576 12.4758V15.8429C26.1576 16.1318 26.3275 16.3937 26.5912 16.5116C26.8549 16.6295 27.1633 16.5813 27.3786 16.3886C27.573 16.2146 27.824 16.1241 28.0861 16.1347C28.6037 16.1551 29.0245 16.5766 29.044 17.0942C29.0544 17.3693 28.9554 17.6296 28.7653 17.8271C28.575 18.0247 28.3192 18.1335 28.0448 18.1335C27.7987 18.1336 27.562 18.0431 27.3785 17.8788C27.1633 17.6862 26.8549 17.6379 26.5911 17.7559C26.3274 17.8737 26.1576 18.1356 26.1576 18.4245V21.7532C26.1576 22.1577 26.4855 22.4856 26.89 22.4856H29.0807C29.0513 22.656 29.0397 22.8306 29.0467 23.0072C29.0972 24.2844 30.1373 25.3227 31.4146 25.3709C31.4468 25.3722 31.4789 25.3728 31.5111 25.3728C32.1519 25.3728 32.7551 25.1301 33.2189 24.6836C33.706 24.2146 33.9742 23.584 33.9742 22.9081C33.9742 22.7655 33.9619 22.6242 33.9378 22.4856H36.1674C36.5719 22.4856 36.8998 22.1577 36.8998 21.7532V13.6307C36.8998 12.59 36.0532 11.7434 35.0126 11.7434V11.7434ZM35.435 21.0208H32.8003C32.5114 21.0208 32.2495 21.1906 32.1317 21.4543C32.0138 21.7181 32.0619 22.0265 32.2547 22.2417C32.4189 22.4252 32.5094 22.6619 32.5094 22.9081C32.5094 23.1823 32.4006 23.4381 32.2029 23.6285C32.0055 23.8186 31.7462 23.9171 31.47 23.9072C30.9524 23.8876 30.531 23.4668 30.5105 22.9494C30.5002 22.6875 30.5903 22.4362 30.7644 22.2417C30.957 22.0265 31.0052 21.7181 30.8874 21.4543C30.7695 21.1906 30.5075 21.0208 30.2186 21.0208H27.6225V19.5621C27.761 19.5861 27.9022 19.5984 28.0446 19.5984H28.0449C28.721 19.5984 29.3516 19.3302 29.8205 18.8431C30.2894 18.3562 30.5335 17.7155 30.5078 17.0389C30.4596 15.7616 29.4213 14.7215 28.144 14.671C27.9672 14.6639 27.7928 14.6757 27.6225 14.7051V13.2083H35.0126C35.2455 13.2083 35.435 13.3978 35.435 13.6307V21.0208Z" fill="white"/>
<path d="M31.1869 26.0012H27.8198C27.5309 26.0012 27.2691 26.171 27.1512 26.4348C27.0333 26.6985 27.0815 27.007 27.2742 27.2222C27.4384 27.4057 27.5289 27.6423 27.5289 27.8885C27.5289 28.1627 27.4201 28.4186 27.2224 28.6089C27.025 28.7991 26.766 28.8974 26.4896 28.8876C25.9719 28.8681 25.5505 28.4473 25.53 27.9298C25.5197 27.668 25.6099 27.4167 25.7839 27.2222C25.9766 27.007 26.0248 26.6985 25.9069 26.4348C25.789 26.1711 25.527 26.0012 25.2381 26.0012H22.642V24.5429C22.8124 24.5723 22.9871 24.584 23.1636 24.577C24.4408 24.5265 25.4791 23.4863 25.5274 22.209C25.5529 21.5325 25.3089 20.8917 24.8401 20.4048C24.3711 19.9177 23.7404 19.6495 23.0645 19.6495C22.9219 19.6495 22.7806 19.6618 22.6421 19.6859V17.4563C22.6421 17.0518 22.3141 16.7239 21.9096 16.7239H13.7871C12.7464 16.7239 11.8998 17.5705 11.8998 18.6111V34.8561C11.8998 35.8968 12.7464 36.7434 13.7871 36.7434H30.032C31.0727 36.7434 31.9193 35.8968 31.9193 34.8562V26.7336C31.9193 26.3292 31.5914 26.0012 31.1869 26.0012ZM13.3647 18.6111C13.3647 18.3782 13.5542 18.1887 13.7871 18.1887H21.1772V20.8234C21.1772 21.1123 21.347 21.3742 21.6108 21.492C21.8744 21.61 22.183 21.5618 22.3982 21.369C22.5816 21.2048 22.8183 21.1143 23.0645 21.1143C23.3387 21.1143 23.5945 21.2231 23.7849 21.4208C23.975 21.6183 24.074 21.8785 24.0636 22.1537C24.0441 22.6712 23.6233 23.0927 23.1057 23.1132C22.844 23.1235 22.5926 23.0333 22.3982 22.8593C22.1829 22.6667 21.8746 22.6184 21.6108 22.7363C21.347 22.8542 21.1772 23.1161 21.1772 23.405V26.0012H19.7186C19.7426 25.8626 19.7549 25.7214 19.7549 25.5788C19.7549 24.9028 19.4867 24.2722 18.9996 23.8032C18.5127 23.3344 17.8715 23.0895 17.1954 23.1159C15.9181 23.1642 14.8779 24.2025 14.8275 25.4797C14.8205 25.6562 14.8321 25.8309 14.8615 26.0013H13.3647V18.6111ZM13.3647 34.8562V27.4661H15.9993C16.2882 27.4661 16.5501 27.2962 16.668 27.0325C16.7859 26.7688 16.7377 26.4603 16.5449 26.2451C16.3709 26.0507 16.2807 25.7994 16.2911 25.5375C16.3115 25.02 16.733 24.5992 17.2506 24.5797C17.5251 24.5703 17.786 24.6682 17.9835 24.8584C18.1811 25.0487 18.29 25.3045 18.29 25.5788C18.29 25.825 18.1995 26.0617 18.0352 26.2451C17.8426 26.4604 17.7944 26.7688 17.9123 27.0325C18.0301 27.2962 18.2922 27.4661 18.581 27.4661H21.1772V28.9244C21.0068 28.895 20.8321 28.8833 20.6556 28.8903C19.3784 28.9408 18.3401 29.981 18.2918 31.2583C18.2662 31.9348 18.5103 32.5756 18.9791 33.0625C19.4481 33.5496 20.0787 33.8178 20.7547 33.8178C20.8973 33.8178 21.0385 33.8055 21.1771 33.7814V35.2786H13.7871C13.5542 35.2786 13.3647 35.0891 13.3647 34.8562ZM30.4545 34.8562C30.4545 35.0891 30.265 35.2786 30.0321 35.2786H22.642V32.6439C22.642 32.355 22.4722 32.0931 22.2084 31.9752C21.9447 31.8573 21.6362 31.9056 21.421 32.0982C21.2376 32.2625 21.0009 32.353 20.7547 32.353C20.4805 32.353 20.2246 32.2441 20.0343 32.0465C19.8442 31.849 19.7452 31.5888 19.7556 31.3136C19.7751 30.796 20.1959 30.3746 20.7134 30.3541C20.9746 30.3438 21.2265 30.4339 21.421 30.608C21.6362 30.8006 21.9446 30.8489 22.2084 30.731C22.4721 30.6131 22.642 30.3512 22.642 30.0623V27.4661H24.1003C24.0709 27.6364 24.0592 27.8111 24.0662 27.9876C24.1167 29.2648 25.1568 30.3032 26.4341 30.3514C27.1104 30.3777 27.7515 30.1329 28.2383 29.6641C28.7255 29.1951 28.9937 28.5645 28.9937 27.8885C28.9937 27.7459 28.9814 27.6047 28.9573 27.4661H30.4545V34.8562Z" fill="white"/>
</g>
</g>
<defs>
<clipPath id="clip0_653_2604">
<rect width="24.8738" height="24.8738" fill="white" transform="translate(12.063 11.634)"/>
</clipPath>
<clipPath id="clip1_653_2604">
<rect width="25" height="25" fill="white" transform="translate(11.8998 11.7434)"/>
</clipPath>
</defs>
</svg>
