<svg width="31" height="30" viewBox="0 0 31 30" fill="none" xmlns="http://www.w3.org/2000/svg">
<g clip-path="url(#clip0_158_1786)">
<path d="M25.3349 6.91151L20.9853 2.55938C20.1754 1.74555 19.2123 1.10034 18.1515 0.661038C17.0908 0.22174 15.9535 -0.00292624 14.8054 2.87754e-05H9.16858C7.51362 0.00201115 5.92702 0.660318 4.75679 1.83055C3.58656 3.00078 2.92825 4.58738 2.92627 6.24234V23.7208C2.92825 25.3758 3.58656 26.9624 4.75679 28.1326C5.92702 29.3028 7.51362 29.9611 9.16858 29.9631H21.6532C23.3081 29.9611 24.8948 29.3028 26.065 28.1326C27.2352 26.9624 27.8935 25.3758 27.8955 23.7208V13.0901C27.8986 11.9421 27.6739 10.8048 27.2344 9.74424C26.7948 8.68365 26.1492 7.72082 25.3349 6.91151ZM23.5696 8.67684C23.9508 9.06904 24.2787 9.5098 24.5446 9.98772H19.1563C18.8252 9.98772 18.5076 9.85619 18.2735 9.62206C18.0393 9.38792 17.9078 9.07037 17.9078 8.73926V3.3509C18.3859 3.61673 18.827 3.94412 19.2199 4.3247L23.5696 8.67684ZM25.3986 23.7208C25.3986 24.7141 25.004 25.6668 24.3016 26.3692C23.5992 27.0716 22.6465 27.4662 21.6532 27.4662H9.16858C8.17524 27.4662 7.22259 27.0716 6.52019 26.3692C5.8178 25.6668 5.42319 24.7141 5.42319 23.7208V6.24234C5.42319 5.249 5.8178 4.29635 6.52019 3.59395C7.22259 2.89155 8.17524 2.49695 9.16858 2.49695H14.8054C15.0101 2.49695 15.2086 2.5369 15.4109 2.55563V8.73926C15.4109 9.7326 15.8055 10.6853 16.5079 11.3876C17.2103 12.09 18.1629 12.4846 19.1563 12.4846H25.3399C25.3586 12.6869 25.3986 12.8842 25.3986 13.0901V23.7208Z" fill="#42175B"/>
</g>
<defs>
<clipPath id="clip0_158_1786">
<rect width="29.9631" height="29.9631" fill="white" transform="translate(0.428711)"/>
</clipPath>
</defs>
</svg>
