<svg width="44" height="44" viewBox="0 0 44 44" fill="none" xmlns="http://www.w3.org/2000/svg">
<rect width="44" height="44" rx="10" fill="#42175B"/>
<g clip-path="url(#clip0_1463_4524)">
<path d="M31.2402 12.7604C29.6652 11.1854 26.9352 11.1854 25.2552 12.7604L14.3352 23.6804C14.3352 23.6804 14.1252 23.9954 14.1252 24.1004L11.6052 31.1354C11.3952 31.7654 11.9202 32.8154 12.9702 32.5004L19.9002 29.8754C20.1102 29.7704 20.3202 29.6654 20.3202 29.6654L31.2402 18.6404C33.5502 16.0154 32.0802 13.4954 31.2402 12.7604V12.7604ZM14.3352 29.6654L15.4902 26.3054L17.5902 28.4054L14.3352 29.6654ZM29.7702 17.1704L19.5852 27.3554L16.6452 24.4154L26.8302 14.2304C27.6702 13.3904 29.0352 13.3904 29.7702 14.2304C30.1902 14.6504 30.9252 15.9104 29.7702 17.1704V17.1704Z" fill="white"/>
</g>
<defs>
<clipPath id="clip0_1463_4524">
<rect width="21" height="21" fill="white" transform="translate(11.5 11.5)"/>
</clipPath>
</defs>
</svg>
