<svg width="44" height="44" viewBox="0 0 44 44" fill="none" xmlns="http://www.w3.org/2000/svg">
<rect width="44" height="44" rx="10" fill="#42175B"/>
<g clip-path="url(#clip0_1462_4175)">
<path d="M26.0085 16.3457H18.6101C18.1564 16.3457 17.7881 16.7075 17.7881 17.1534C17.7881 17.5992 18.1564 17.9611 18.6101 17.9611H26.0085C26.4622 17.9611 26.8305 17.5992 26.8305 17.1534C26.8305 16.7075 26.4622 16.3457 26.0085 16.3457Z" fill="white"/>
<path d="M26.0085 19.5767H18.6101C18.1564 19.5767 17.7881 19.9385 17.7881 20.3844C17.7881 20.8302 18.1564 21.192 18.6101 21.192H26.0085C26.4622 21.192 26.8305 20.8302 26.8305 20.3844C26.8305 19.9385 26.4622 19.5767 26.0085 19.5767Z" fill="white"/>
<path d="M26.0085 22.8076H18.6101C18.1564 22.8076 17.7881 23.1687 17.7881 23.6153C17.7881 24.062 18.1564 24.423 18.6101 24.423H26.0085C26.4622 24.423 26.8305 24.062 26.8305 23.6153C26.8305 23.1687 26.4622 22.8076 26.0085 22.8076Z" fill="white"/>
<path d="M26.0085 26.0386H18.6101C18.1564 26.0386 17.7881 26.3996 17.7881 26.8463C17.7881 27.2929 18.1564 27.654 18.6101 27.654H26.0085C26.4622 27.654 26.8305 27.2929 26.8305 26.8463C26.8305 26.3996 26.4622 26.0386 26.0085 26.0386Z" fill="white"/>
<path d="M14.5 13.9231V30.0769C14.5 31.4128 15.6065 32.5 16.9661 32.5H27.6526C29.0123 32.5 30.1188 31.4128 30.1188 30.0769V13.9231C30.1188 12.5872 29.0123 11.5 27.6526 11.5H16.9661C15.6065 11.5 14.5 12.5872 14.5 13.9231ZM27.6526 30.8846H16.9661C16.5132 30.8846 16.1441 30.5228 16.1441 30.0769V13.9231C16.1441 13.478 16.5132 13.1154 16.9661 13.1154H27.6526C28.1056 13.1154 28.4747 13.478 28.4747 13.9231V30.0769C28.4747 30.5228 28.1056 30.8846 27.6526 30.8846Z" fill="white"/>
</g>
<defs>
<clipPath id="clip0_1462_4175">
<rect width="21" height="21" fill="white" transform="translate(11.5 11.5)"/>
</clipPath>
</defs>
</svg>
