<svg width="31" height="30" viewBox="0 0 31 30" fill="none" xmlns="http://www.w3.org/2000/svg">
<g clip-path="url(#clip0_157_1238)">
<g clip-path="url(#clip1_157_1238)">
<path d="M28.8672 15.7506C29.4928 15.7506 30 16.985 30 16.3594V5.03125C30 2.53272 27.9673 0.5 25.4688 0.5H9.59782C8.20939 0.5 7.11979 1.59379 7.11719 2.99009V2.99168V8.54297H5.53125C3.03272 8.54297 1 10.5757 1 13.0742V24.9688C1 27.4673 3.03272 29.5 5.53125 29.5H18.6719C21.1704 29.5 23.2031 27.4673 23.2031 24.9688V20.8906H25.4688C27.9673 20.8906 30 18.8579 30 16.3594C30 15.7337 29.4928 15.2266 28.8672 15.2266C28.2415 15.2266 27.7344 15.7337 27.7344 16.3594C27.7344 17.6086 26.718 18.625 25.4688 18.625H23.2031V8.4029C23.2031 6.58887 21.6196 6.02229 21.5467 6.00496L9.4433 3.13396C9.40473 3.10326 9.3827 3.06203 9.38281 2.99428C9.38298 2.90893 9.41113 2.76562 9.59782 2.76562H25.4688C26.718 2.76562 27.7344 3.78198 27.7344 5.03125V16.3594C27.7344 16.985 28.2415 15.7506 28.8672 15.7506ZM20.9375 24.9688C20.9375 26.218 19.9211 27.2344 18.6719 27.2344H5.53125C4.28198 27.2344 3.26562 26.218 3.26562 24.9688V13.0742C3.26562 11.825 4.28198 10.8086 5.53125 10.8086H20.7225C20.795 10.8086 20.8667 10.8057 20.9375 10.8V24.9688ZM20.8772 8.17463C20.9065 8.19859 20.9375 8.22414 20.9375 8.33045C20.9375 8.51816 20.7782 8.54297 20.7225 8.54297H9.38281V5.44812L20.8772 8.17463ZM18.7285 14.4902C18.7285 15.1159 18.2214 15.623 17.5957 15.623H6.66406C6.03841 15.623 5.53125 15.1159 5.53125 14.4902C5.53125 13.8646 6.03841 13.3574 6.66406 13.3574H17.5957C18.2214 13.3574 18.7285 13.8646 18.7285 14.4902ZM18.7285 19.0215C18.7285 19.6471 18.2214 20.1543 17.5957 20.1543H6.66406C6.03841 20.1543 5.53125 19.6471 5.53125 19.0215C5.53125 18.3958 6.03841 17.8887 6.66406 17.8887H17.5957C18.2214 17.8887 18.7285 18.3958 18.7285 19.0215ZM13.6309 23.5527C13.6309 24.1784 13.1237 24.6855 12.498 24.6855H6.66406C6.03841 24.6855 5.53125 24.1784 5.53125 23.5527C5.53125 22.9271 6.03841 22.4199 6.66406 22.4199H12.498C13.1237 22.4199 13.6309 22.9271 13.6309 23.5527Z" fill="#42175B"/>
</g>
</g>
<defs>
<clipPath id="clip0_157_1238">
<rect width="29.9631" height="29.9631" fill="white" transform="translate(0.428955)"/>
</clipPath>
<clipPath id="clip1_157_1238">
<rect width="29" height="29" fill="white" transform="translate(1 0.5)"/>
</clipPath>
</defs>
</svg>
