<svg width="44" height="44" viewBox="0 0 44 44" fill="none" xmlns="http://www.w3.org/2000/svg">
<rect width="44" height="44" rx="10" fill="#42175B"/>
<path d="M28.9554 16.344L25.9069 13.2938C25.3393 12.7234 24.6643 12.2712 23.9208 11.9633C23.1774 11.6554 22.3803 11.4979 21.5756 11.5H17.625C16.4651 11.5014 15.3531 11.9628 14.5329 12.783C13.7128 13.6031 13.2514 14.7151 13.25 15.875V28.125C13.2514 29.2849 13.7128 30.3969 14.5329 31.2171C15.3531 32.0372 16.4651 32.4986 17.625 32.5H26.375C27.5349 32.4986 28.6469 32.0372 29.4671 31.2171C30.2872 30.3969 30.7486 29.2849 30.75 28.125V20.6744C30.7522 19.8698 30.5947 19.0727 30.2866 18.3294C29.9786 17.586 29.5261 16.9112 28.9554 16.344V16.344ZM27.7181 17.5813C27.9853 17.8561 28.2151 18.1651 28.4015 18.5H24.625C24.3929 18.5 24.1704 18.4078 24.0063 18.2437C23.8422 18.0796 23.75 17.8571 23.75 17.625V13.8485C24.0851 14.0348 24.3942 14.2643 24.6696 14.531L27.7181 17.5813ZM29 28.125C29 28.8212 28.7234 29.4889 28.2312 29.9812C27.7389 30.4735 27.0712 30.75 26.375 30.75H17.625C16.9288 30.75 16.2611 30.4735 15.7688 29.9812C15.2766 29.4889 15 28.8212 15 28.125V15.875C15 15.1788 15.2766 14.5111 15.7688 14.0189C16.2611 13.5266 16.9288 13.25 17.625 13.25H21.5756C21.7191 13.25 21.8582 13.278 22 13.2911V17.625C22 18.3212 22.2766 18.9889 22.7688 19.4812C23.2611 19.9735 23.9288 20.25 24.625 20.25H28.9589C28.972 20.3918 29 20.53 29 20.6744V28.125Z" fill="white"/>
</svg>
