<svg width="53" height="53" viewBox="0 0 53 53" fill="none" xmlns="http://www.w3.org/2000/svg">
<rect x="0.361816" y="0.628906" width="52.0294" height="52.0294" rx="7.2263" fill="#42175B"/>
<g clip-path="url(#clip0_661_604)">
<g clip-path="url(#clip1_661_604)">
<g clip-path="url(#clip2_661_604)">
<path d="M19.9385 28.0872C18.6405 28.0872 17.3717 27.7024 16.2925 26.9813C15.2133 26.2602 14.3722 25.2352 13.8755 24.0361C13.3788 22.837 13.2489 21.5175 13.5021 20.2445C13.7553 18.9715 14.3803 17.8021 15.2981 16.8844C16.2159 15.9666 17.3852 15.3416 18.6582 15.0883C19.9312 14.8351 21.2507 14.9651 22.4498 15.4618C23.649 15.9585 24.6739 16.7996 25.395 17.8788C26.1161 18.958 26.501 20.2268 26.501 21.5247C26.499 23.2646 25.807 24.9327 24.5767 26.163C23.3464 27.3933 21.6784 28.0853 19.9385 28.0872ZM19.9385 17.8789C19.2174 17.8789 18.5125 18.0927 17.913 18.4933C17.3134 18.894 16.8461 19.4634 16.5702 20.1295C16.2942 20.7957 16.222 21.5288 16.3627 22.236C16.5034 22.9432 16.8506 23.5929 17.3605 24.1027C17.8704 24.6126 18.52 24.9598 19.2272 25.1005C19.9344 25.2412 20.6675 25.169 21.3337 24.8931C21.9999 24.6171 22.5693 24.1498 22.9699 23.5503C23.3705 22.9507 23.5843 22.2458 23.5843 21.5247C23.5843 20.5578 23.2002 19.6305 22.5165 18.9467C21.8327 18.263 20.9054 17.8789 19.9385 17.8789ZM30.876 42.6706V41.9414C30.876 39.0406 29.7236 36.2586 27.6725 34.2074C25.6213 32.1562 22.8393 31.0039 19.9385 31.0039C17.0377 31.0039 14.2557 32.1562 12.2045 34.2074C10.1533 36.2586 9.00098 39.0406 9.00098 41.9414L9.00098 42.6706C9.00098 43.0574 9.15462 43.4283 9.42811 43.7018C9.7016 43.9753 10.0725 44.1289 10.4593 44.1289C10.8461 44.1289 11.217 43.9753 11.4905 43.7018C11.764 43.4283 11.9176 43.0574 11.9176 42.6706V41.9414C11.9176 39.8142 12.7627 37.774 14.2669 36.2698C15.7711 34.7656 17.8112 33.9206 19.9385 33.9206C22.0657 33.9206 24.1059 34.7656 25.6101 36.2698C27.1143 37.774 27.9593 39.8142 27.9593 41.9414V42.6706C27.9593 43.0574 28.113 43.4283 28.3864 43.7018C28.6599 43.9753 29.0309 44.1289 29.4176 44.1289C29.8044 44.1289 30.1754 43.9753 30.4488 43.7018C30.7223 43.4283 30.876 43.0574 30.876 42.6706ZM44.001 35.3789C44.0009 33.4082 43.4305 31.4797 42.3585 29.8261C41.2865 28.1725 39.7588 26.8646 37.9598 26.0601C36.1607 25.2557 34.1674 24.9891 32.2202 25.2927C30.273 25.5962 28.4554 26.4569 26.9866 27.7708C26.8419 27.898 26.7238 28.0525 26.6392 28.2256C26.5545 28.3987 26.505 28.5868 26.4935 28.7791C26.482 28.9714 26.5087 29.1641 26.5721 29.346C26.6354 29.5279 26.7342 29.6955 26.8627 29.839C26.9912 29.9825 27.1469 30.0992 27.3207 30.1822C27.4946 30.2652 27.6831 30.313 27.8756 30.3227C28.068 30.3325 28.2604 30.304 28.4417 30.2389C28.623 30.1739 28.7897 30.0735 28.932 29.9437C29.9812 29.0054 31.2796 28.3909 32.6703 28.1742C34.0611 27.9576 35.4848 28.1481 36.7697 28.7228C38.0546 29.2975 39.1457 30.2317 39.9113 31.4128C40.6769 32.5939 41.0843 33.9714 41.0843 35.3789C41.0843 35.7657 41.238 36.1366 41.5114 36.4101C41.7849 36.6836 42.1559 36.8372 42.5426 36.8372C42.9294 36.8372 43.3004 36.6836 43.5738 36.4101C43.8473 36.1366 44.001 35.7657 44.001 35.3789ZM34.5218 22.2539C33.2239 22.2539 31.9551 21.869 30.8759 21.1479C29.7967 20.4268 28.9556 19.4019 28.4589 18.2028C27.9622 17.0036 27.8322 15.6841 28.0854 14.4111C28.3386 13.1381 28.9636 11.9688 29.8814 11.051C30.7992 10.1332 31.9685 9.50822 33.2415 9.25501C34.5145 9.00179 35.834 9.13175 37.0332 9.62845C38.2323 10.1251 39.2572 10.9663 39.9783 12.0455C40.6994 13.1247 41.0843 14.3935 41.0843 15.6914C41.0824 17.4313 40.3904 19.0994 39.1601 20.3297C37.9298 21.56 36.2617 22.252 34.5218 22.2539ZM34.5218 12.0456C33.8007 12.0456 33.0958 12.2594 32.4963 12.66C31.8967 13.0606 31.4294 13.63 31.1535 14.2962C30.8776 14.9624 30.8054 15.6955 30.946 16.4027C31.0867 17.1099 31.4339 17.7595 31.9438 18.2694C32.4537 18.7793 33.1033 19.1265 33.8105 19.2672C34.5178 19.4079 35.2508 19.3357 35.917 19.0597C36.5832 18.7838 37.1526 18.3165 37.5532 17.7169C37.9538 17.1174 38.1676 16.4125 38.1676 15.6914C38.1676 14.7245 37.7835 13.7971 37.0998 13.1134C36.4161 12.4297 35.4887 12.0456 34.5218 12.0456Z" fill="white"/>
</g>
</g>
</g>
<defs>
<clipPath id="clip0_661_604">
<rect width="34.6862" height="34.6862" fill="white" transform="translate(9.0332 9.30078)"/>
</clipPath>
<clipPath id="clip1_661_604">
<rect width="34.6862" height="34.6862" fill="white" transform="translate(9.03223 9.30078)"/>
</clipPath>
<clipPath id="clip2_661_604">
<rect width="35" height="35" fill="white" transform="translate(9.00098 9.12891)"/>
</clipPath>
</defs>
</svg>
