<svg width="43" height="44" viewBox="0 0 43 44" fill="none" xmlns="http://www.w3.org/2000/svg">
<path d="M21.4328 37.6195C12.9672 37.6195 6.04688 30.6992 6.04688 22.2336C6.04688 13.768 12.9672 6.84766 21.4328 6.84766C29.8984 6.84766 36.8187 13.768 36.8187 22.2336C36.8859 30.6992 29.9656 37.6195 21.4328 37.6195ZM21.4328 8.46015C13.8406 8.46015 7.72656 14.6414 7.72656 22.1664C7.72656 29.6914 13.9078 35.8726 21.4328 35.8726C28.9578 35.8726 35.1391 29.6914 35.1391 22.1664C35.1391 14.6414 29.025 8.46015 21.4328 8.46015Z" fill="#42175B"/>
<path d="M26.2702 30.0947L20.5593 24.3838V13.9697H22.3734V23.6447L27.5468 28.8181L26.2702 30.0947Z" fill="#42175B"/>
</svg>
