<svg id="Layer_1" enable-background="new 0 0 512 512" height="512" viewBox="0 0 512 512" width="512" xmlns="http://www.w3.org/2000/svg"><path d="m506.4 385.1h-70.6v-220.6h-32.8v-155.1h-62.1-46.9-62.1v155h-32.8v220.7h-54.6v-385.1h-138.9v49h89.9v423.4h41 8 30.5c3.8 22.5 23.4 39.7 47 39.7s43.2-17.2 47-39.7h96.9c3.8 22.5 23.4 39.7 47 39.7s43.2-17.2 47-39.7h46.5zm-377.9 71.2h-17v-423.3h-89.9v-17h106.9zm196.4-430.9v14.9h-14.9v-14.9zm-77 0h46.1v30.9h46.9v-30.9h46.1v139h-39.5-59.9-39.5v-139zm55.6 155.1h27.9v27.9h-27.9zm-88.4 0h72.4v43.9h59.9v-43.9h72.4v204.7h-204.7zm6.9 315.5c-17.5 0-31.7-14.2-31.7-31.7s14.2-31.7 31.7-31.7 31.7 14.2 31.7 31.7-14.2 31.7-31.7 31.7zm190.9 0c-17.5 0-31.7-14.2-31.7-31.7s14.2-31.7 31.7-31.7 31.7 14.2 31.7 31.7-14.3 31.7-31.7 31.7zm77.5-39.7h-30.5c-3.8-22.5-23.4-39.7-47-39.7s-43.2 17.2-47 39.7h-96.9c-3.8-22.5-23.4-39.7-47-39.7s-43.2 17.2-47 39.7h-30.5v-55.2h54.6 236.7 54.6zm-268.4-15.2c-12.8 0-23.2 10.4-23.2 23.2s10.4 23.2 23.2 23.2 23.2-10.4 23.2-23.2-10.4-23.2-23.2-23.2zm0 30.5c-4 0-7.2-3.2-7.2-7.2s3.2-7.2 7.2-7.2 7.2 3.2 7.2 7.2-3.2 7.2-7.2 7.2zm190.9-30.5c-12.8 0-23.2 10.4-23.2 23.2s10.4 23.2 23.2 23.2 23.2-10.4 23.2-23.2-10.4-23.2-23.2-23.2zm0 30.5c-4 0-7.2-3.2-7.2-7.2s3.2-7.2 7.2-7.2 7.2 3.2 7.2 7.2-3.2 7.2-7.2 7.2zm-74.6-156.6h57.4v16h-57.4zm0 31.2h57.4v16h-57.4zm34.1-215h-40.3v-16h40.3zm0 21.9h-40.3v-16h40.3z"/></svg>