<svg width="48" height="48" viewBox="0 0 48 48" fill="none" xmlns="http://www.w3.org/2000/svg">
<rect width="48" height="48" rx="5" fill="#42175B"/>
<path d="M36.4167 27.726C36.0129 27.726 35.6856 28.0533 35.6856 28.4572V34.9491C35.6841 36.1601 34.7031 37.1415 33.4921 37.1427H12.9762C11.7652 37.1415 10.7841 36.1601 10.7827 34.9491V15.8956C10.7841 14.6849 11.7652 13.7035 12.9762 13.7021H19.4682C19.872 13.7021 20.1993 13.3748 20.1993 12.9709C20.1993 12.5673 19.872 12.2397 19.4682 12.2397H12.9762C10.958 12.242 9.3226 13.8775 9.32031 15.8956V34.9494C9.3226 36.9676 10.958 38.603 12.9762 38.6053H33.4921C35.5102 38.603 37.1456 36.9676 37.1479 34.9494V28.4572C37.1479 28.0533 36.8206 27.726 36.4167 27.726V27.726Z" fill="white"/>
<path d="M36.8579 10.3584C35.573 9.07344 33.4897 9.07344 32.2047 10.3584L19.1602 23.4029C19.0708 23.4923 19.0062 23.6032 18.9725 23.7248L17.2571 29.9178C17.1866 30.1717 17.2583 30.4436 17.4445 30.6301C17.631 30.8163 17.9029 30.888 18.1568 30.8178L24.3498 29.1021C24.4715 29.0684 24.5823 29.0038 24.6717 28.9144L37.7159 15.8696C38.9989 14.5838 38.9989 12.5022 37.7159 11.2164L36.8579 10.3584ZM20.7533 23.8782L31.4293 13.202L34.8723 16.645L24.1961 27.3213L20.7533 23.8782ZM20.0656 25.2583L22.8163 28.0093L19.0114 29.0635L20.0656 25.2583ZM36.682 14.8357L35.9066 15.6111L32.4632 12.1678L33.2389 11.3923C33.9527 10.6786 35.11 10.6786 35.8237 11.3923L36.682 12.2503C37.3946 12.9649 37.3946 14.1214 36.682 14.8357V14.8357Z" fill="white"/>
</svg>
