<svg width="54" height="54" viewBox="0 0 54 54" fill="none" xmlns="http://www.w3.org/2000/svg">
<rect x="0.874512" y="0.77832" width="52.3643" height="52.3643" rx="7.27282" fill="#42175B"/>
<g clip-path="url(#clip0_661_585)">
<g clip-path="url(#clip1_661_585)">
<path d="M36.4505 11.2969L19.0312 28.7162C18.3659 29.3779 17.8384 30.165 17.4794 31.032C17.1203 31.8989 16.9368 32.8285 16.9395 33.7668V35.6857C16.9395 36.0646 17.09 36.428 17.358 36.6959C17.6259 36.9639 17.9893 37.1144 18.3682 37.1144H20.287C21.2254 37.1171 22.1549 36.9336 23.0219 36.5745C23.8888 36.2155 24.676 35.688 25.3377 35.0227L42.757 17.6034C43.592 16.7664 44.0609 15.6324 44.0609 14.4501C44.0609 13.2679 43.592 12.1339 42.757 11.2969C41.9079 10.4852 40.7784 10.0322 39.6038 10.0322C38.4291 10.0322 37.2996 10.4852 36.4505 11.2969ZM40.7368 15.5831L23.3174 33.0025C22.5118 33.8032 21.4229 34.2539 20.287 34.2569H19.797V33.7668C19.8 32.631 20.2507 31.5421 21.0514 30.7365L38.4708 13.3171C38.7759 13.0256 39.1817 12.8629 39.6038 12.8629C40.0258 12.8629 40.4316 13.0256 40.7368 13.3171C41.0367 13.6179 41.2052 14.0254 41.2052 14.4501C41.2052 14.8749 41.0367 15.2824 40.7368 15.5831Z" fill="white"/>
<path d="M42.6581 22.7965C42.2792 22.7965 41.9158 22.9471 41.6479 23.215C41.3799 23.4829 41.2294 23.8463 41.2294 24.2253V31.399H35.5144C34.3776 31.399 33.2874 31.8506 32.4835 32.6544C31.6797 33.4583 31.2281 34.5485 31.2281 35.6853V41.4003H16.9406C15.8038 41.4003 14.7136 40.9487 13.9098 40.1449C13.106 39.341 12.6544 38.2508 12.6544 37.114V17.1115C12.6544 15.9747 13.106 14.8845 13.9098 14.0807C14.7136 13.2769 15.8038 12.8253 16.9406 12.8253H29.8594C30.2383 12.8253 30.6017 12.6747 30.8697 12.4068C31.1376 12.1389 31.2881 11.7755 31.2881 11.3965C31.2881 11.0176 31.1376 10.6542 30.8697 10.3862C30.6017 10.1183 30.2383 9.96777 29.8594 9.96777H16.9406C15.0467 9.97004 13.231 10.7234 11.8917 12.0626C10.5525 13.4019 9.79914 15.2176 9.79688 17.1115L9.79688 37.114C9.79914 39.008 10.5525 40.8237 11.8917 42.1629C13.231 43.5022 15.0467 44.2555 16.9406 44.2578H33.1469C34.0855 44.2605 35.0153 44.077 35.8825 43.7179C36.7497 43.3589 37.537 42.8315 38.199 42.1661L41.9938 38.3685C42.6592 37.7068 43.1868 36.9197 43.5461 36.0528C43.9054 35.1858 44.0892 34.2563 44.0869 33.3178V24.2253C44.0869 23.8463 43.9364 23.4829 43.6684 23.215C43.4005 22.9471 43.0371 22.7965 42.6581 22.7965ZM36.1788 40.1458C35.6044 40.7188 34.8781 41.1154 34.0856 41.2888V35.6853C34.0856 35.3064 34.2362 34.9429 34.5041 34.675C34.7721 34.4071 35.1355 34.2565 35.5144 34.2565H41.1222C40.9455 35.0474 40.5493 35.7723 39.9792 36.3482L36.1788 40.1458Z" fill="white"/>
</g>
</g>
<defs>
<clipPath id="clip0_661_585">
<rect width="34.9096" height="34.9096" fill="white" transform="translate(9.60254 9.50586)"/>
</clipPath>
<clipPath id="clip1_661_585">
<rect width="34.29" height="34.29" fill="white" transform="translate(9.79736 9.96777)"/>
</clipPath>
</defs>
</svg>
