<svg width="53" height="53" viewBox="0 0 53 53" fill="none" xmlns="http://www.w3.org/2000/svg">
<rect x="0.364746" y="0.628906" width="52.0294" height="52.0294" rx="7.2263" fill="#42175B"/>
<g clip-path="url(#clip0_661_596)">
<path d="M30.876 13.5039C30.876 12.3436 30.415 11.2308 29.5946 10.4103C28.7741 9.58984 27.6613 9.12891 26.501 9.12891H9.00098V44.1289H11.9176V28.0872H23.5843V29.5456C23.5843 30.7059 24.0452 31.8187 24.8657 32.6392C25.6862 33.4596 26.799 33.9206 27.9593 33.9206H44.001V14.9622H30.876V13.5039ZM11.9176 12.0456H26.501C26.8878 12.0456 27.2587 12.1992 27.5322 12.4727C27.8057 12.7462 27.9593 13.1171 27.9593 13.5039V25.1706H11.9176V12.0456ZM41.0843 17.8789V31.0039H27.9593C27.5725 31.0039 27.2016 30.8503 26.9281 30.5768C26.6546 30.3033 26.501 29.9323 26.501 29.5456V28.0872H30.876V17.8789H41.0843Z" fill="white"/>
</g>
<defs>
<clipPath id="clip0_661_596">
<rect width="35" height="35" fill="white" transform="translate(9.00098 9.12891)"/>
</clipPath>
</defs>
</svg>
