<svg width="44" height="44" viewBox="0 0 44 44" fill="none" xmlns="http://www.w3.org/2000/svg">
<rect width="44" height="44" rx="10" fill="#42175B"/>
<g clip-path="url(#clip0_1462_4438)">
<path d="M23.792 11.8076C23.6943 11.71 23.5788 11.6323 23.4518 11.5798C23.3237 11.5273 23.1872 11.5 23.0496 11.5H15.6996C14.5415 11.5 13.5996 12.4418 13.5996 13.6V30.4C13.5996 31.5581 14.5415 32.5 15.6996 32.5H28.2996C29.4578 32.5 30.3996 31.5581 30.3996 30.4V18.85C30.3996 18.7124 30.3723 18.5759 30.3198 18.4478C30.2673 18.3208 30.1896 18.2042 30.092 18.1076L23.792 11.8076ZM15.6996 13.6H22.6149L28.2996 19.2847L28.3017 28.9174L25.6053 26.221C25.9728 25.5962 26.1996 24.8759 26.1996 24.1C26.1996 21.7837 24.3159 19.9 21.9996 19.9C19.6833 19.9 17.7996 21.7837 17.7996 24.1C17.7996 26.4163 19.6833 28.3 21.9996 28.3C22.7756 28.3 23.4959 28.0732 24.1206 27.7057L26.8149 30.4H15.6996V13.6ZM21.9996 26.2C20.8415 26.2 19.8996 25.2581 19.8996 24.1C19.8996 22.9418 20.8415 22 21.9996 22C23.1578 22 24.0996 22.9418 24.0996 24.1C24.0996 25.2581 23.1578 26.2 21.9996 26.2Z" fill="white"/>
</g>
<defs>
<clipPath id="clip0_1462_4438">
<rect width="21" height="21" fill="white" transform="translate(11.5 11.5)"/>
</clipPath>
</defs>
</svg>
