<svg width="227" height="174" viewBox="0 0 227 174" fill="none" xmlns="http://www.w3.org/2000/svg">
<rect x="1.27742" y="1.05013" width="224.529" height="171.459" rx="15.3088" stroke="#42175B" stroke-width="2.04118"/>
<rect x="16.5859" y="44.9351" width="95.9353" height="6.12353" fill="#42175B"/>
<rect x="16.5859" y="57.1821" width="79.6059" height="6.12353" fill="#ECE7EE"/>
<rect x="16.5859" y="69.4292" width="89.8118" height="6.12353" fill="#ECE7EE"/>
<rect x="16.5859" y="85.7588" width="97.9765" height="6.12353" fill="#ECE7EE"/>
<rect x="16.5859" y="95.9646" width="67.3588" height="6.12353" fill="#ECE7EE"/>
<rect x="16.5859" y="112.294" width="67.3588" height="6.12353" fill="#ECE7EE"/>
<rect x="16.5859" y="122.5" width="67.3588" height="6.12353" fill="#ECE7EE"/>
<rect x="16.5859" y="132.706" width="67.3588" height="6.12353" fill="#ECE7EE"/>
<rect x="128.851" y="44.9351" width="81.6471" height="89.8118" fill="#ECE7EE"/>
<path d="M2.29785 16.3588C2.29785 8.46762 8.69491 2.07056 16.5861 2.07056H210.498C218.389 2.07056 224.786 8.46762 224.786 16.3588V30.647H2.29785V16.3588Z" fill="#ECE7EE"/>
<rect x="12.5039" y="12.2766" width="6.12353" height="6.12353" fill="#42175B"/>
<rect x="20.6689" y="12.2766" width="6.12353" height="6.12353" fill="#42175B"/>
<rect x="28.833" y="12.2766" width="6.12353" height="6.12353" fill="#42175B"/>
<g clip-path="url(#clip0_720_5587)">
<path d="M180.962 78.4246H160.428C158.773 78.4246 157.427 79.7701 157.427 81.4273V100.3C157.427 101.955 158.773 103.299 160.428 103.299H180.962C182.617 103.299 183.962 101.955 183.962 100.3V81.4273C183.962 79.7701 182.617 78.4246 180.962 78.4246ZM174.586 82.8902C176.186 82.8902 177.485 84.1884 177.485 85.7889C177.485 87.3895 176.186 88.6877 174.586 88.6877C172.985 88.6877 171.687 87.3895 171.687 85.7889C171.687 84.1884 172.985 82.8902 174.586 82.8902ZM180.021 100.525H170.694H161.783C160.982 100.525 160.626 99.9454 160.987 99.2308L165.961 89.3772C166.322 88.6627 167.009 88.5989 167.495 89.2346L172.498 95.7719C172.984 96.4078 173.835 96.4619 174.397 95.8922L175.621 94.653C176.183 94.0833 177.012 94.1539 177.471 94.8095L180.64 99.336C181.098 99.9926 180.822 100.525 180.021 100.525Z" fill="#42175B"/>
</g>
<defs>
<clipPath id="clip0_720_5587">
<rect width="26.5353" height="26.5353" fill="white" transform="translate(157.428 77.594)"/>
</clipPath>
</defs>
</svg>
