<svg width="49" height="49" viewBox="0 0 49 49" fill="none" xmlns="http://www.w3.org/2000/svg">
<rect y="0.0527344" width="48.0123" height="48.0123" rx="11.5692" fill="#42175B"/>
<g clip-path="url(#clip0_653_2560)">
<path d="M36 33.5C36 34.879 34.878 36 33.5 36H28.5C28.224 36 28 35.776 28 35.5C28 35.224 28.224 35 28.5 35H33.5C34.327 35 35 34.327 35 33.5C35 32.636 34.379 32.019 33.489 32H28.5C28.224 32 28 31.776 28 31.5C28 31.224 28.224 31 28.5 31H33V23H28V29.5C28 29.776 27.776 30 27.5 30C27.224 30 27 29.776 27 29.5V22.914C26.418 22.708 26 22.152 26 21.5V20.5C26 20.224 26.224 20 26.5 20C26.776 20 27 20.224 27 20.5V21.5C27 21.776 27.224 22 27.5 22H30V20.5C30 20.224 30.224 20 30.5 20C30.776 20 31 20.224 31 20.5V22H33.5C33.776 22 34 21.776 34 21.5V20.5C34 20.224 34.224 20 34.5 20C34.776 20 35 20.224 35 20.5V21.5C35 22.152 34.582 22.708 34 22.914V31.054C35.187 31.287 36 32.251 36 33.5V33.5ZM27.1 33.5C27.1 34.879 25.978 36 24.6 36H15C13.613 36 12 34.908 12 33.5C12 32.248 12.924 31.209 14.126 31.028C14.511 29.789 15.886 25.106 15.994 21H15.501C15.225 21 15.001 20.776 15.001 20.5C15.001 20.224 15.225 20 15.501 20H15.695L14.208 17.003C13.896 16.339 13.943 15.585 14.331 14.974C14.718 14.364 15.381 14 16.103 14H19V12.5C19 12.224 19.224 12 19.5 12C19.776 12 20 12.224 20 12.5V14H23C23.723 14 24.386 14.364 24.773 14.975C25.16 15.586 25.208 16.34 24.899 16.994L23.421 20H23.6C23.876 20 24.1 20.224 24.1 20.5C24.1 20.776 23.876 21 23.6 21H23.108C23.219 25.1 24.59 29.787 24.975 31.028C26.176 31.209 27.1 32.248 27.1 33.5V33.5ZM15.108 16.568L16.81 20H22.307L23.998 16.56C24.158 16.22 24.134 15.835 23.928 15.511C23.722 15.186 23.384 15 22.999 15H16.103C15.719 15 15.381 15.186 15.175 15.51C14.969 15.834 14.945 16.22 15.109 16.568H15.108ZM16.994 21C16.897 24.982 15.68 29.362 15.182 31H23.919C23.423 29.362 22.208 24.974 22.107 21H16.994ZM26.1 33.5C26.1 32.673 25.427 32 24.6 32H14.5C13.673 32 13 32.673 13 33.5C13 34.272 14.127 35 15 35H24.6C25.427 35 26.1 34.327 26.1 33.5Z" fill="white"/>
</g>
<defs>
<clipPath id="clip0_653_2560">
<rect width="24" height="24" fill="white" transform="translate(12 12)"/>
</clipPath>
</defs>
</svg>
