<svg width="31" height="30" viewBox="0 0 31 30" fill="none" xmlns="http://www.w3.org/2000/svg">
<g clip-path="url(#clip0_158_1796)">
<g clip-path="url(#clip1_158_1796)">
<path d="M28.492 9.63777C26.8245 7.72981 24.4501 7.4966 22.1458 8.95023C19.8415 7.4966 17.466 7.73223 15.7997 9.63777C15.6063 9.85769 15.5 10.1404 15.5 10.4329V20.0995C15.5 20.6034 15.8117 21.0541 16.283 21.2305C16.753 21.4069 17.2859 21.2752 17.617 20.8946C18.8386 19.4978 20.3442 20.2046 21.3906 21.0432C21.8317 21.3961 22.46 21.3961 22.901 21.0432C23.9462 20.2059 25.4506 19.499 26.6747 20.8946C27.0021 21.2704 27.5314 21.4094 28.0087 21.2305C28.4799 21.0541 28.7917 20.6034 28.7917 20.0995V10.4329C28.7917 10.1404 28.6853 9.85769 28.492 9.63777ZM17.9167 17.8701V10.9319C18.9063 10.0933 20.0312 10.4498 20.9375 11.0491V18.0236C20.3454 17.8013 19.757 17.6768 19.1866 17.6768C18.7504 17.6768 18.3251 17.7409 17.9167 17.8701ZM26.375 17.8701C25.4301 17.5717 24.3982 17.6297 23.3542 18.0224V11.0491C24.2604 10.4486 25.3854 10.0921 26.375 10.9319V17.8701Z" fill="#42175B"/>
<path d="M21.5418 5.99868V4.3916C21.5418 2.39785 19.9106 0.766602 17.9168 0.766602H5.8335C3.83975 0.766602 2.2085 2.39785 2.2085 4.3916V26.1416C2.2085 28.1354 3.83975 29.7666 5.8335 29.7666H17.9168C19.9106 29.7666 21.5418 28.1354 21.5418 26.1416V23.6766C20.9497 23.5679 20.3818 23.3262 19.8864 22.9274C19.6568 22.7462 19.4756 22.6374 19.3547 22.577C19.2822 22.6495 19.1977 22.722 19.1252 22.7945V24.9333H4.62516V4.3916C4.62516 3.72702 5.16891 3.18327 5.8335 3.18327H17.9168C18.5814 3.18327 19.1252 3.72702 19.1252 4.3916V5.59994C19.9227 5.59994 20.7322 5.72077 21.5418 5.99868Z" fill="#42175B"/>
</g>
</g>
<defs>
<clipPath id="clip0_158_1796">
<rect width="29.9631" height="29.9631" fill="white" transform="translate(0.856934)"/>
</clipPath>
<clipPath id="clip1_158_1796">
<rect width="29" height="29" fill="white" transform="translate(1 0.766602)"/>
</clipPath>
</defs>
</svg>
