<svg width="44" height="44" viewBox="0 0 44 44" fill="none" xmlns="http://www.w3.org/2000/svg">
<rect width="44" height="44" rx="10" fill="#42175B"/>
<g clip-path="url(#clip0_1463_4497)">
<path d="M27.5782 16.094C27.2914 16.0939 27.0051 16.1187 26.7226 16.1682C26.3693 14.8079 25.5668 13.6069 24.4452 12.7599C23.3237 11.913 21.9489 11.4697 20.5438 11.5021C19.1388 11.5346 17.7859 12.0407 16.7046 12.9385C15.6233 13.8363 14.877 15.0731 14.5868 16.4482C13.752 16.7865 13.0247 17.3452 12.4827 18.0647C11.9505 18.7751 11.6203 19.6163 11.5272 20.4991C11.434 21.3819 11.5814 22.2735 11.9536 23.0794C12.3258 23.8853 12.9091 24.5755 13.6416 25.077C14.3741 25.5784 15.2286 25.8724 16.1145 25.9279L16.0938 30.2034C16.0944 30.7253 16.302 31.2258 16.6711 31.5949C17.0402 31.9639 17.5406 32.1715 18.0626 32.1721H25.9376C26.1116 32.1721 26.2785 32.103 26.4016 31.9799C26.5247 31.8568 26.5938 31.6899 26.5938 31.5159V25.9377H27.5782C28.8836 25.9377 30.1355 25.4192 31.0585 24.4962C31.9815 23.5731 32.5001 22.3212 32.5001 21.0159C32.5001 19.7105 31.9815 18.4586 31.0585 17.5356C30.1355 16.6125 28.8836 16.094 27.5782 16.094ZM25.2813 22.0002H18.0626C17.8886 22 17.7218 21.9308 17.5988 21.8078C17.4757 21.6848 17.4065 21.518 17.4063 21.344V21.0159C17.4065 20.8419 17.4757 20.6751 17.5988 20.5521C17.7218 20.429 17.8886 20.3598 18.0626 20.3596H25.2813V22.0002ZM19.7032 23.3127H21.0157V25.5321L20.6529 25.3508C20.5618 25.3052 20.4613 25.2815 20.3594 25.2815C20.2576 25.2815 20.1571 25.3052 20.066 25.3508L19.7032 25.5321V23.3127ZM18.0626 30.8596C17.8891 30.8596 17.7226 30.7909 17.5997 30.6685C17.4767 30.5462 17.4072 30.3801 17.4063 30.2066L17.4403 23.2114C17.6409 23.2785 17.851 23.3128 18.0626 23.3127H18.3907V26.594C18.3907 26.7059 18.4193 26.8159 18.4738 26.9136C18.5282 27.0113 18.6068 27.0934 18.7019 27.1522C18.7971 27.211 18.9057 27.2445 19.0174 27.2496C19.1292 27.2546 19.2404 27.231 19.3404 27.181L20.3594 26.6715L21.3785 27.181C21.4785 27.231 21.5897 27.2546 21.7015 27.2496C21.8132 27.2445 21.9218 27.211 22.017 27.1522C22.1121 27.0934 22.1907 27.0113 22.2451 26.9136C22.2996 26.8159 22.3282 26.7059 22.3282 26.594V23.3127H25.2813V30.8596H18.0626ZM27.5782 24.6252H26.5938V19.7034C26.5938 19.5293 26.5247 19.3624 26.4016 19.2393C26.2785 19.1163 26.1116 19.0471 25.9376 19.0471H18.0626C17.5406 19.0477 17.0402 19.2553 16.6711 19.6244C16.302 19.9935 16.0944 20.4939 16.0938 21.0159V21.344C16.0938 21.4786 16.1075 21.6128 16.1348 21.7445L16.1209 24.6126C15.2856 24.5425 14.5006 24.1839 13.9008 23.5983C13.3009 23.0127 12.9236 22.2365 12.8335 21.4031C12.7434 20.5696 12.9462 19.7308 13.4071 19.0305C13.868 18.3303 14.5582 17.8123 15.3594 17.5653C15.4783 17.5288 15.5844 17.4591 15.6653 17.3645C15.7462 17.2698 15.7985 17.1542 15.8161 17.031C16.1598 14.6262 18.2541 12.8127 20.6876 12.8127C23.1367 12.8127 25.2328 14.6396 25.5634 17.062C25.5764 17.1578 25.6105 17.2496 25.6631 17.3307C25.7158 17.4118 25.7857 17.4803 25.8679 17.5312C25.9501 17.5822 26.0426 17.6143 26.1386 17.6254C26.2347 17.6364 26.3321 17.6261 26.4237 17.5952C26.9197 17.4278 27.4462 17.3703 27.9667 17.4267C28.4871 17.4831 28.9891 17.652 29.4378 17.9217C29.8864 18.1914 30.2711 18.5555 30.565 18.9887C30.8589 19.4219 31.0551 19.9139 31.1399 20.4305C31.2248 20.9471 31.1962 21.4759 31.0563 21.9804C30.9164 22.4848 30.6684 22.9528 30.3295 23.3519C29.9907 23.7509 29.5691 24.0715 29.094 24.2914C28.6189 24.5113 28.1017 24.6252 27.5782 24.6252V24.6252Z" fill="white"/>
</g>
<defs>
<clipPath id="clip0_1463_4497">
<rect width="21" height="21" fill="white" transform="translate(11.5 11.5)"/>
</clipPath>
</defs>
</svg>
