<svg width="49" height="46" viewBox="0 0 49 46" fill="none" xmlns="http://www.w3.org/2000/svg">
<rect y="0.733398" width="48.5" height="44.5" rx="10" fill="#42175B"/>
<path d="M30.7344 12.6562H18.2656C17.8305 12.6562 17.4132 12.8291 17.1055 13.1368C16.7979 13.4445 16.625 13.8618 16.625 14.2969V30.7031C16.625 31.1382 16.7979 31.5555 17.1055 31.8632C17.4132 32.1709 17.8305 32.3438 18.2656 32.3438H30.7344C31.1695 32.3438 31.5868 32.1709 31.8945 31.8632C32.2021 31.5555 32.375 31.1382 32.375 30.7031V14.2969C32.375 13.8618 32.2021 13.4445 31.8945 13.1368C31.5868 12.8291 31.1695 12.6562 30.7344 12.6562V12.6562ZM31.7188 30.7031C31.718 30.964 31.614 31.2139 31.4296 31.3983C31.2451 31.5828 30.9952 31.6867 30.7344 31.6875H18.2656C18.0048 31.6867 17.7549 31.5828 17.5704 31.3983C17.386 31.2139 17.282 30.964 17.2812 30.7031V14.2969C17.282 14.036 17.386 13.7861 17.5704 13.6017C17.7549 13.4172 18.0048 13.3133 18.2656 13.3125H30.7344C30.9952 13.3133 31.2451 13.4172 31.4296 13.6017C31.614 13.7861 31.718 14.036 31.7188 14.2969V30.7031Z" fill="white"/>
<path d="M30.4062 13.9688H18.5938C18.4199 13.9693 18.2532 14.0386 18.1303 14.1615C18.0073 14.2845 17.938 14.4511 17.9375 14.625V27.75C17.938 27.9239 18.0073 28.0905 18.1303 28.2135C18.2532 28.3364 18.4199 28.4057 18.5938 28.4062H30.4062C30.5801 28.4057 30.7468 28.3364 30.8697 28.2135C30.9927 28.0905 31.062 27.9239 31.0625 27.75V14.625C31.062 14.4511 30.9927 14.2845 30.8697 14.1615C30.7468 14.0386 30.5801 13.9693 30.4062 13.9688V13.9688ZM30.4062 27.75H18.5938V14.625H30.4062V27.75Z" fill="white"/>
<path d="M25.1562 29.0625H23.8438C23.5827 29.0625 23.3323 29.1662 23.1477 29.3508C22.9631 29.5354 22.8594 29.7858 22.8594 30.0469C22.8594 30.3079 22.9631 30.5583 23.1477 30.7429C23.3323 30.9275 23.5827 31.0312 23.8438 31.0312H25.1562C25.4173 31.0312 25.6677 30.9275 25.8523 30.7429C26.0369 30.5583 26.1406 30.3079 26.1406 30.0469C26.1406 29.7858 26.0369 29.5354 25.8523 29.3508C25.6677 29.1662 25.4173 29.0625 25.1562 29.0625ZM25.1562 30.375H23.8438C23.7567 30.375 23.6733 30.3404 23.6117 30.2789C23.5502 30.2174 23.5156 30.1339 23.5156 30.0469C23.5156 29.9599 23.5502 29.8764 23.6117 29.8149C23.6733 29.7533 23.7567 29.7188 23.8438 29.7188H25.1562C25.2433 29.7188 25.3267 29.7533 25.3883 29.8149C25.4498 29.8764 25.4844 29.9599 25.4844 30.0469C25.4844 30.1339 25.4498 30.2174 25.3883 30.2789C25.3267 30.3404 25.2433 30.375 25.1562 30.375Z" fill="white"/>
<path d="M28.4375 17.5781H25.8125C25.5569 17.5791 25.3052 17.6399 25.0773 17.7555C24.8494 17.8712 24.6517 18.0385 24.5 18.2442C24.3483 18.0385 24.1506 17.8712 23.9227 17.7555C23.6948 17.6399 23.4431 17.5791 23.1875 17.5781H20.5625C20.4755 17.5781 20.392 17.6127 20.3305 17.6742C20.2689 17.7358 20.2344 17.8192 20.2344 17.9062V24.4688C20.2344 24.5558 20.2689 24.6392 20.3305 24.7008C20.392 24.7623 20.4755 24.7969 20.5625 24.7969H28.4375C28.5245 24.7969 28.608 24.7623 28.6695 24.7008C28.7311 24.6392 28.7656 24.5558 28.7656 24.4688V17.9062C28.7656 17.8192 28.7311 17.7358 28.6695 17.6742C28.608 17.6127 28.5245 17.5781 28.4375 17.5781ZM20.8906 24.1406V23.4844H23.1875C23.391 23.4849 23.5894 23.5483 23.7555 23.6657C23.9217 23.7831 24.0476 23.949 24.1161 24.1406H20.8906ZM24.1719 23.1661C23.89 22.9479 23.5439 22.8291 23.1875 22.8281H20.8906V18.2344H23.1875C23.4483 18.2352 23.6983 18.3391 23.8827 18.5236C24.0671 18.708 24.1711 18.9579 24.1719 19.2188V23.1661ZM28.1094 24.1406H24.8839C24.9524 23.949 25.0783 23.7831 25.2445 23.6657C25.4106 23.5483 25.609 23.4849 25.8125 23.4844H28.1094V24.1406ZM28.1094 22.8281H25.8125C25.4561 22.8291 25.11 22.9479 24.8281 23.1661V19.2188C24.8289 18.9579 24.9329 18.708 25.1173 18.5236C25.3017 18.3391 25.5517 18.2352 25.8125 18.2344H28.1094V22.8281Z" fill="white"/>
<path d="M21.5469 18.8906H23.5156V19.5469H21.5469V18.8906Z" fill="white"/>
<path d="M21.5469 20.2031H23.5156V20.8594H21.5469V20.2031Z" fill="white"/>
<path d="M21.5469 21.5156H23.5156V22.1719H21.5469V21.5156Z" fill="white"/>
<path d="M25.4844 18.8906H27.4531V19.5469H25.4844V18.8906Z" fill="white"/>
<path d="M25.4844 20.2031H27.4531V20.8594H25.4844V20.2031Z" fill="white"/>
<path d="M25.4844 21.5156H27.4531V22.1719H25.4844V21.5156Z" fill="white"/>
</svg>
