<svg width="44" height="44" viewBox="0 0 44 44" fill="none" xmlns="http://www.w3.org/2000/svg">
<rect width="44" height="44" rx="10" fill="#42175B"/>
<path d="M29.6562 14.6562H14.3438C13.0514 14.6562 12 15.7077 12 17V27C12 28.2923 13.0514 29.3438 14.3438 29.3438H29.6562C30.9486 29.3438 32 28.2923 32 27V17C32 15.7077 30.9486 14.6562 29.6562 14.6562ZM30.4375 27C30.4375 27.4308 30.087 27.7812 29.6562 27.7812H14.3438C13.913 27.7812 13.5625 27.4308 13.5625 27V17C13.5625 16.5692 13.913 16.2188 14.3438 16.2188H29.6562C30.087 16.2188 30.4375 16.5692 30.4375 17V27Z" fill="white"/>
<path d="M30.305 15.6304L22.0001 21.8076L13.6953 15.6304L12.7627 16.8841L22.0001 23.7549L31.2375 16.8841L30.305 15.6304Z" fill="white"/>
</svg>
