<svg width="44" height="44" viewBox="0 0 44 44" fill="none" xmlns="http://www.w3.org/2000/svg">
<rect width="44" height="44" rx="10" fill="#42175B"/>
<g clip-path="url(#clip0_1462_4289)">
<path d="M27.9612 32.5C28.4833 32.5 28.9841 32.2926 29.3533 31.9234C29.7225 31.5542 29.9299 31.0534 29.9299 30.5312V16.7697C29.93 16.6831 29.9129 16.5973 29.8797 16.5174C29.8465 16.4374 29.7977 16.3648 29.7363 16.3038L25.1229 11.6936C25.0004 11.5704 24.834 11.5007 24.6602 11.5H16.0371C15.515 11.5 15.0142 11.7074 14.645 12.0766C14.2758 12.4458 14.0684 12.9466 14.0684 13.4688V30.5312C14.0684 31.0534 14.2758 31.5542 14.645 31.9234C15.0142 32.2926 15.515 32.5 16.0371 32.5H27.9612ZM25.3165 13.7411L27.6888 16.1134H25.9727C25.7987 16.1134 25.6318 16.0443 25.5087 15.9212C25.3856 15.7982 25.3165 15.6312 25.3165 15.4572V13.7411ZM15.3809 30.5312V13.4688C15.3809 13.2947 15.45 13.1278 15.5731 13.0047C15.6961 12.8816 15.8631 12.8125 16.0371 12.8125H24.004V15.4572C24.004 15.9793 24.2114 16.4801 24.5806 16.8493C24.9498 17.2185 25.4506 17.4259 25.9727 17.4259H28.6174V30.5312C28.6174 30.7053 28.5483 30.8722 28.4252 30.9953C28.3021 31.1184 28.1352 31.1875 27.9612 31.1875H16.0371C15.8631 31.1875 15.6961 31.1184 15.5731 30.9953C15.45 30.8722 15.3809 30.7053 15.3809 30.5312Z" fill="white"/>
<path d="M16.714 29.0745C16.8365 29.1977 17.0028 29.2673 17.1766 29.2681C17.2632 29.2681 17.349 29.2511 17.4289 29.2178C17.5089 29.1846 17.5815 29.1359 17.6425 29.0745L18.4957 28.2345L19.3521 29.0909C19.4752 29.214 19.6422 29.2832 19.8164 29.2832C19.9905 29.2832 20.1575 29.214 20.2807 29.0909C20.4038 28.9677 20.473 28.8007 20.473 28.6266C20.473 28.4524 20.4038 28.2854 20.2807 28.1623L19.4243 27.3092L20.2807 26.4527C20.4038 26.3296 20.473 26.1626 20.473 25.9884C20.473 25.8143 20.4038 25.6473 20.2807 25.5242C20.1575 25.401 19.9905 25.3318 19.8164 25.3318C19.6422 25.3318 19.4752 25.401 19.3521 25.5242L18.4957 26.3642L17.6425 25.5077C17.5194 25.3846 17.3524 25.3154 17.1783 25.3154C17.0041 25.3154 16.8371 25.3846 16.714 25.5077C16.5908 25.6309 16.5216 25.7979 16.5216 25.972C16.5216 26.1462 16.5908 26.3132 16.714 26.4363L17.5704 27.2927L16.714 28.1459C16.6529 28.2068 16.6045 28.2792 16.5715 28.3589C16.5385 28.4385 16.5215 28.5239 16.5215 28.6102C16.5215 28.6964 16.5385 28.7818 16.5715 28.8615C16.6045 28.9411 16.6529 29.0135 16.714 29.0745V29.0745Z" fill="white"/>
<path d="M23.6114 29.0678C23.7339 29.1911 23.9003 29.2607 24.074 29.2614C24.2441 29.2616 24.4077 29.1957 24.5301 29.0777L27.2765 26.4527C27.3388 26.393 27.3887 26.3216 27.4234 26.2427C27.4581 26.1637 27.4769 26.0787 27.4787 25.9925C27.4805 25.9062 27.4653 25.8205 27.434 25.7401C27.4027 25.6598 27.3559 25.5864 27.2962 25.5241C27.2365 25.4618 27.1652 25.4119 27.0862 25.3772C27.0073 25.3425 26.9222 25.3238 26.836 25.3219C26.7498 25.3201 26.664 25.3353 26.5837 25.3666C26.5033 25.3979 26.4299 25.4447 26.3676 25.5044L24.0708 27.693L23.2078 26.8267C23.1482 26.7608 23.0758 26.7076 22.9951 26.6704C22.9143 26.6332 22.8269 26.6129 22.738 26.6105C22.6491 26.6082 22.5607 26.6239 22.4781 26.6568C22.3955 26.6896 22.3205 26.7389 22.2575 26.8017C22.1945 26.8644 22.1449 26.9393 22.1118 27.0218C22.0786 27.1043 22.0626 27.1926 22.0646 27.2815C22.0667 27.3704 22.0867 27.4579 22.1236 27.5388C22.1605 27.6197 22.2134 27.6922 22.2792 27.7521L23.6114 29.0678Z" fill="white"/>
</g>
<defs>
<clipPath id="clip0_1462_4289">
<rect width="21" height="21" fill="white" transform="translate(11.5 11.5)"/>
</clipPath>
</defs>
</svg>
