<svg id="Capa_1" enable-background="new 0 0 512 512" height="512" viewBox="0 0 512 512" width="512" xmlns="http://www.w3.org/2000/svg"><g><g id="Page-1"><g id="_x30_01---Whey-Protein"><path id="Shape" d="m110.933 512h290.133c32.974-.038 59.696-26.759 59.733-59.733v-290.134c-.035-29.667-21.837-54.813-51.2-59.051v-17.749c14.138 0 25.6-11.462 25.6-25.6v-34.133c0-14.138-11.462-25.6-25.6-25.6h-307.199c-14.138 0-25.6 11.462-25.6 25.6v34.133c0 14.138 11.462 25.6 25.6 25.6v17.749c-29.363 4.238-51.165 29.384-51.2 59.051v290.133c.038 32.975 26.759 59.696 59.733 59.734zm-42.666-298.667h375.467v187.733h-375.467zm25.6-153.6v-34.133c0-4.713 3.821-8.533 8.533-8.533h307.2c4.713 0 8.533 3.821 8.533 8.533v34.133c0 4.713-3.821 8.533-8.533 8.533h-307.2c-4.713.001-8.533-3.82-8.533-8.533zm298.666 25.6v17.067h-273.066v-17.067zm-281.6 34.134h290.133c23.552.028 42.638 19.114 42.667 42.667v34.133h-375.466v-34.133c.028-23.553 19.114-42.639 42.666-42.667zm-42.666 298.666h375.467v34.133c-.028 23.552-19.114 42.638-42.667 42.667h-290.134c-23.552-.028-42.638-19.114-42.667-42.667v-34.133z"/><g clip-rule="evenodd" fill-rule="evenodd"><path id="Path" d="m110.933 477.867h8.533c4.713 0 8.533-3.821 8.533-8.533 0-4.713-3.82-8.533-8.533-8.533h-8.533c-4.713 0-8.533-3.82-8.533-8.533v-8.533c0-4.713-3.821-8.533-8.533-8.533s-8.533 3.821-8.533 8.533v8.533c-.001 14.137 11.461 25.599 25.599 25.599z"/><path id="Path_1_" d="m119.467 59.733c4.713 0 8.533-3.821 8.533-8.533v-17.067c0-4.713-3.82-8.533-8.533-8.533s-8.533 3.821-8.533 8.533v17.067c-.001 4.713 3.82 8.533 8.533 8.533z"/><path id="Path_2_" d="m153.6 59.733c4.713 0 8.533-3.821 8.533-8.533v-17.067c0-4.713-3.821-8.533-8.533-8.533s-8.533 3.821-8.533 8.533v17.067c0 4.713 3.82 8.533 8.533 8.533z"/><path id="Path_3_" d="m187.733 59.733c4.713 0 8.533-3.821 8.533-8.533v-17.067c0-4.713-3.821-8.533-8.533-8.533-4.713 0-8.533 3.821-8.533 8.533v17.067c0 4.713 3.821 8.533 8.533 8.533z"/><path id="Path_4_" d="m221.867 59.733c4.713 0 8.533-3.821 8.533-8.533v-17.067c0-4.713-3.821-8.533-8.533-8.533-4.713 0-8.533 3.821-8.533 8.533v17.067c-.001 4.713 3.82 8.533 8.533 8.533z"/><path id="Path_5_" d="m256 59.733c4.713 0 8.533-3.821 8.533-8.533v-17.067c0-4.713-3.821-8.533-8.533-8.533-4.713 0-8.533 3.821-8.533 8.533v17.067c0 4.713 3.82 8.533 8.533 8.533z"/><path id="Path_6_" d="m290.133 59.733c4.713 0 8.533-3.821 8.533-8.533v-17.067c0-4.713-3.821-8.533-8.533-8.533-4.713 0-8.533 3.821-8.533 8.533v17.067c0 4.713 3.821 8.533 8.533 8.533z"/><path id="Path_7_" d="m324.267 59.733c4.713 0 8.533-3.821 8.533-8.533v-17.067c0-4.713-3.82-8.533-8.533-8.533s-8.533 3.821-8.533 8.533v17.067c-.001 4.713 3.82 8.533 8.533 8.533z"/><path id="Path_8_" d="m358.4 59.733c4.713 0 8.533-3.821 8.533-8.533v-17.067c0-4.713-3.82-8.533-8.533-8.533s-8.533 3.821-8.533 8.533v17.067c0 4.713 3.82 8.533 8.533 8.533z"/><path id="Path_9_" d="m392.533 59.733c4.713 0 8.533-3.821 8.533-8.533v-17.067c0-4.713-3.82-8.533-8.533-8.533s-8.533 3.821-8.533 8.533v17.067c0 4.713 3.821 8.533 8.533 8.533z"/><path id="Path_10_" d="m180.907 256.171c-4.618-.921-9.109 2.073-10.035 6.69l-10.769 53.82-6.903-20.71c-1.151-3.502-4.421-5.869-8.107-5.869s-6.956 2.367-8.107 5.869l-6.903 20.71-10.786-53.854c-1.056-4.476-5.469-7.309-9.979-6.407-4.509.902-7.493 5.215-6.747 9.752l17.067 85.333c.761 3.792 3.977 6.598 7.837 6.839s7.399-2.146 8.624-5.815l8.969-26.88 8.969 26.914c1.161 3.486 4.424 5.838 8.098 5.837h.529c3.855-.24 7.068-3.04 7.834-6.827l17.067-85.333c.453-2.218.006-4.525-1.242-6.414-1.251-1.888-3.198-3.203-5.416-3.655z"/><path id="Path_11_" d="m332.8 273.067c4.713 0 8.533-3.82 8.533-8.533s-3.82-8.534-8.533-8.534h-42.667c-4.713 0-8.533 3.821-8.533 8.533v85.333c0 4.713 3.821 8.533 8.533 8.533h42.667c4.713 0 8.533-3.821 8.533-8.533 0-4.713-3.82-8.533-8.533-8.533h-34.133v-25.6h25.6c4.713 0 8.533-3.82 8.533-8.533s-3.82-8.533-8.533-8.533h-25.6v-25.6z"/><path id="Path_12_" d="m413.995 257.22c-4.039-2.426-9.28-1.12-11.708 2.918l-18.287 30.473-18.287-30.473c-1.541-2.673-4.405-4.306-7.49-4.27-3.085.035-5.911 1.734-7.39 4.441-1.479 2.708-1.382 6.003.255 8.618l24.38 40.636v40.303c0 4.713 3.821 8.533 8.533 8.533s8.533-3.821 8.533-8.533v-40.303l24.38-40.636c2.425-4.038 1.119-9.279-2.919-11.707z"/><path id="Path_13_" d="m256 256c-4.713 0-8.533 3.821-8.533 8.533v34.133h-25.6v-34.133c0-4.713-3.821-8.533-8.533-8.533s-8.533 3.821-8.533 8.533v85.333c0 4.713 3.82 8.533 8.533 8.533s8.533-3.821 8.533-8.533v-34.133h25.6v34.133c0 4.713 3.821 8.533 8.533 8.533 4.713 0 8.533-3.821 8.533-8.533v-85.333c0-4.712-3.82-8.533-8.533-8.533z"/></g></g></g></g></svg>