<svg width="34" height="33" viewBox="0 0 34 33" fill="none" xmlns="http://www.w3.org/2000/svg">
<rect x="0.972656" width="32.0547" height="32.0656" rx="7.5" fill="white"/>
<path d="M25.3682 9.22786L21.7005 5.55803C21.0176 4.87179 20.2054 4.32773 19.311 3.95731C18.4165 3.58688 17.4575 3.39743 16.4894 3.39993H11.7363C10.3408 3.4016 9.00296 3.9567 8.0162 4.94347C7.02943 5.93023 6.47433 7.2681 6.47266 8.6636V23.4019C6.47433 24.7974 7.02943 26.1352 8.0162 27.122C9.00296 28.1088 10.3408 28.6639 11.7363 28.6656H22.2637C23.6592 28.6639 24.997 28.1088 25.9838 27.122C26.9706 26.1352 27.5257 24.7974 27.5273 23.4019V14.4378C27.53 13.4698 27.3405 12.5108 26.9698 11.6165C26.5992 10.7222 26.0548 9.91029 25.3682 9.22786ZM23.8796 10.7164C24.2011 11.0471 24.4775 11.4188 24.7018 11.8218H20.1582C19.879 11.8218 19.6112 11.7109 19.4138 11.5135C19.2164 11.316 19.1055 11.0483 19.1055 10.7691V6.22547C19.5086 6.44962 19.8806 6.72568 20.2119 7.0466L23.8796 10.7164ZM25.4219 23.4019C25.4219 24.2395 25.0891 25.0428 24.4969 25.6351C23.9046 26.2273 23.1013 26.5601 22.2637 26.5601H11.7363C10.8987 26.5601 10.0954 26.2273 9.50314 25.6351C8.91086 25.0428 8.57812 24.2395 8.57812 23.4019V8.6636C8.57812 7.82599 8.91086 7.02269 9.50314 6.43041C10.0954 5.83813 10.8987 5.5054 11.7363 5.5054H16.4894C16.6621 5.5054 16.8295 5.53908 17 5.55487V10.7691C17 11.6067 17.3327 12.41 17.925 13.0023C18.5173 13.5945 19.3206 13.9273 20.1582 13.9273H25.3724C25.3882 14.0978 25.4219 14.2641 25.4219 14.4378V23.4019Z" fill="#42175B"/>
</svg>
