<svg id="Layer_1" enable-background="new 0 0 512 512" height="512" viewBox="0 0 512 512" width="512" xmlns="http://www.w3.org/2000/svg"><path d="m450.528 221.928c4.696-7.235 10.019-15.435 8.257-25.421-1.122-6.362-4.671-11.837-8.103-17.131-2.846-4.389-5.532-8.533-6.181-12.209-.648-3.68.46-8.496 1.634-13.597 1.631-7.084 3.479-15.113.751-22.632-2.804-7.727-9.507-12.794-15.421-17.265-3.891-2.941-7.913-5.982-9.655-8.999-1.82-3.152-2.428-8.011-3.071-13.155-.909-7.27-1.94-15.51-7.136-21.691-5.232-6.227-13.223-8.677-20.271-10.839-4.706-1.442-9.571-2.935-12.292-5.215-2.736-2.294-5.062-6.838-7.312-11.231-3.354-6.551-7.154-13.975-14.17-18.03-6.994-4.043-15.31-3.632-22.65-3.27-4.942.246-10.054.497-13.432-.735-3.308-1.207-7.017-4.661-10.604-8.001-5.41-5.038-11.543-10.749-19.596-12.17-7.891-1.393-15.567 1.84-22.337 4.691-4.586 1.933-9.328 3.931-12.938 3.935-.004 0-.008 0-.012 0-3.444 0-7.857-1.865-12.529-3.841-6.841-2.892-14.593-6.17-22.73-4.733-8.137 1.435-14.301 7.166-19.739 12.223-3.719 3.457-7.231 6.723-10.471 7.898-3.394 1.229-8.531.977-13.505.728-7.335-.365-15.649-.779-22.595 3.231-7.077 4.087-10.886 11.548-14.246 18.131-2.229 4.366-4.533 8.882-7.231 11.15-2.751 2.313-7.642 3.824-12.37 5.285-7.02 2.169-14.976 4.627-20.165 10.818-5.205 6.21-6.237 14.487-7.148 21.79-.611 4.899-1.244 9.965-3.03 13.056-1.774 3.069-5.836 6.136-9.764 9.101-5.887 4.444-12.559 9.481-15.347 17.122-2.768 7.583-.918 15.68.713 22.822 1.155 5.056 2.246 9.831 1.613 13.413-.611 3.465-3.217 7.478-5.975 11.726-4.695 7.233-10.018 15.431-8.256 25.423 1.122 6.362 4.671 11.837 8.103 17.131 2.845 4.389 5.531 8.534 6.18 12.208.648 3.679-.46 8.495-1.633 13.594-1.63 7.084-3.478 15.113-.751 22.633 2.801 7.726 9.502 12.792 15.414 17.262 3.892 2.941 7.916 5.984 9.662 9.006 1.818 3.148 2.427 8.009 3.07 13.155.91 7.271 1.941 15.514 7.136 21.692 4.609 5.482 11.352 8.034 17.708 10.042l-52.38 112.509c-1.258 2.702-.909 5.879.904 8.244 1.812 2.364 4.79 3.527 7.726 3.014l61.488-10.744 31.36 53.968c1.437 2.472 4.075 3.98 6.916 3.98.121 0 .242-.003.363-.008 2.978-.136 5.633-1.914 6.89-4.615l50.018-107.429c4.082-.973 8.007-2.622 11.667-4.165 4.587-1.933 9.329-3.931 12.94-3.935h.01c3.443 0 7.856 1.865 12.529 3.841 6.842 2.892 14.598 6.172 22.732 4.734.303-.053.598-.125.896-.19l37.05 86.021c1.179 2.736 3.781 4.592 6.753 4.812.2.016.398.022.597.022 2.752 0 5.33-1.42 6.796-3.782l32.912-53.037 61.148 12.523c2.923.604 5.931-.477 7.811-2.787 1.881-2.312 2.321-5.478 1.143-8.215l-42.531-98.748c2.888-1.54 5.565-3.479 7.75-6.085 5.203-6.207 6.235-14.482 7.146-21.783.611-4.9 1.243-9.967 3.031-13.061 1.777-3.075 5.841-6.143 9.771-9.109 5.885-4.442 12.554-9.477 15.34-17.113 2.769-7.587.919-15.68-.713-22.821-1.156-5.054-2.247-9.828-1.614-13.415.612-3.463 3.218-7.477 5.976-11.727zm-277.192 264.801-26.462-45.537c-1.683-2.896-4.994-4.436-8.294-3.861l-51.882 9.065 46.258-99.358s.001.001.001.001c2.737 2.295 5.064 6.839 7.313 11.232 3.354 6.55 7.154 13.974 14.172 18.029 6.994 4.043 15.31 3.634 22.65 3.269 4.939-.246 10.052-.499 13.428.735 3.312 1.209 7.021 4.663 10.608 8.004 3.912 3.643 8.206 7.628 13.328 10.098zm200.684-69.252c-3.281-.675-6.636.771-8.403 3.619l-27.771 44.751-31.597-73.361c1.66-1.41 3.239-2.873 4.759-4.285 3.72-3.458 7.232-6.724 10.473-7.898 3.394-1.23 8.535-.975 13.504-.729 7.337.366 15.65.778 22.594-3.231 7.081-4.09 10.889-11.551 14.247-18.134 2.228-4.365 4.531-8.879 7.229-11.146 2.246-1.888 5.917-3.239 9.759-4.467l36.803 85.448zm63.087-204.26c-3.344 5.152-7.135 10.992-8.311 17.658-1.195 6.776.381 13.675 1.772 19.761 1.194 5.224 2.429 10.626 1.281 13.771-1.168 3.198-5.632 6.568-9.95 9.828-4.96 3.745-10.582 7.989-13.982 13.872-3.411 5.901-4.285 12.906-5.057 19.087-.668 5.355-1.358 10.894-3.531 13.485-2.159 2.575-7.48 4.22-12.627 5.81-5.959 1.842-12.713 3.928-17.944 8.325-5.18 4.354-8.37 10.605-11.185 16.121-2.466 4.832-5.016 9.828-7.998 11.552-2.857 1.651-8.42 1.373-13.796 1.106-6.251-.312-13.331-.663-19.756 1.667-6.296 2.283-11.184 6.827-15.91 11.222-4.004 3.722-8.144 7.57-11.624 8.185-3.489.611-8.69-1.587-13.725-3.716-5.936-2.509-12.073-5.104-18.759-5.104-.009 0-.019 0-.027 0-6.836.008-13.37 2.762-19.136 5.19-4.962 2.091-10.093 4.252-13.343 3.68-3.392-.599-7.497-4.422-11.468-8.119-4.531-4.22-9.668-9.003-16.022-11.324-4.165-1.521-8.6-1.908-12.902-1.908-2.329 0-4.619.113-6.806.222-5.378.268-10.942.542-13.853-1.14-2.933-1.695-5.477-6.664-7.937-11.469-2.838-5.543-6.055-11.824-11.277-16.202-5.208-4.366-11.941-6.432-17.882-8.253-5.171-1.585-10.519-3.225-12.713-5.834-2.151-2.561-2.84-8.062-3.506-13.383-.775-6.196-1.653-13.22-5.093-19.173-3.366-5.827-8.945-10.045-13.867-13.766-4.344-3.283-8.835-6.679-10.021-9.951-1.117-3.081.113-8.424 1.302-13.592 1.411-6.132 3.011-13.082 1.797-19.961-1.212-6.872-5.089-12.854-8.51-18.131-2.682-4.137-5.214-8.043-5.772-11.207-.667-3.786 2.532-8.715 5.92-13.933 3.344-5.15 7.134-10.989 8.311-17.655 1.195-6.771-.38-13.67-1.771-19.758-1.194-5.227-2.429-10.632-1.282-13.774 1.169-3.203 5.637-6.576 9.957-9.838 4.958-3.742 10.577-7.985 13.976-13.863 3.41-5.898 4.284-12.902 5.055-19.082.669-5.357 1.36-10.898 3.534-13.493 2.158-2.574 7.479-4.219 12.626-5.809 5.96-1.841 12.714-3.929 17.944-8.326 5.178-4.354 8.369-10.606 11.186-16.122 2.467-4.832 5.018-9.829 7.996-11.55 2.86-1.65 8.422-1.374 13.799-1.107 6.251.313 13.328.663 19.754-1.666 6.298-2.284 11.186-6.828 15.911-11.223 4.002-3.721 8.141-7.569 11.623-8.184 3.485-.617 8.688 1.587 13.722 3.715 5.936 2.509 12.072 5.104 18.76 5.104h.029c6.833-.008 13.367-2.761 19.133-5.189 4.963-2.092 10.101-4.248 13.345-3.681 3.392.599 7.499 4.424 11.472 8.123 4.532 4.22 9.668 9.003 16.021 11.321 6.42 2.343 13.48 1.992 19.708 1.687 5.38-.267 10.944-.541 13.853 1.141 2.932 1.694 5.476 6.664 7.937 11.47 2.838 5.543 6.054 11.825 11.276 16.202 5.205 4.364 11.938 6.429 17.879 8.25 5.172 1.586 10.521 3.227 12.714 5.835 2.154 2.564 2.843 8.064 3.508 13.385.775 6.193 1.653 13.215 5.092 19.17 3.363 5.823 8.941 10.04 13.862 13.761 4.346 3.285 8.84 6.683 10.028 9.959 1.117 3.077-.112 8.42-1.302 13.587-1.411 6.133-3.012 13.084-1.798 19.963 1.211 6.874 5.09 12.856 8.512 18.135 2.681 4.136 5.213 8.042 5.771 11.206.666 3.779-2.534 8.71-5.923 13.93zm-181.107-157c-79.506 0-144.188 64.683-144.188 144.188s64.682 144.19 144.188 144.19 144.189-64.684 144.189-144.189-64.683-144.189-144.189-144.189zm0 272.378c-70.684 0-128.188-57.506-128.188-128.189s57.504-128.189 128.188-128.189 128.189 57.505 128.189 128.188-57.505 128.19-128.189 128.19zm45.146-148.968c-8.045-1.995-16.084-3.449-24.101-4.391 12.373-9.097 20.704-25.942 20.704-45.191 0-26.598-15.998-43.12-41.75-43.12-25.753 0-41.751 16.522-41.751 43.12 0 19.208 8.296 36.022 20.625 45.133-8.086.941-16.122 2.417-24.086 4.465-24.367 6.265-37.787 19.799-37.787 38.112v68.131c0 4.418 3.582 8 8 8h150c4.418 0 8-3.582 8-8v-68.131c0-18.264-13.797-32.161-37.854-38.128zm-45.146-76.702c11.747 0 25.75 4.705 25.75 27.12 0 19.708-11.792 36.358-25.75 36.358-13.959 0-25.751-16.65-25.751-36.358 0-23.597 16.134-27.12 25.751-27.12zm67 174.961h-18.081v-44.469c0-4.418-3.582-8-8-8s-8 3.582-8 8v44.469h-65.839v-44.469c0-4.418-3.582-8-8-8s-8 3.582-8 8v44.469h-18.08v-60.131c0-13.216 14.015-19.593 25.771-22.615 26.865-6.91 54.629-6.902 82.523.017 9.6 2.381 25.705 8.483 25.705 22.599v60.13z"/></svg>