<svg width="37" height="37" viewBox="0 0 37 37" fill="none" xmlns="http://www.w3.org/2000/svg">
<g clip-path="url(#clip0_274_122)">
<path d="M18.5 8.2334C20.9252 8.2334 23.1519 9.06369 24.9295 10.4445L30.3852 5.23953C27.2132 2.44333 23.061 0.733398 18.5 0.733398C11.5886 0.733398 5.59503 4.63327 2.57874 10.3482L8.64539 15.1376C10.115 11.1125 13.9662 8.2334 18.5 8.2334Z" fill="#F44336"/>
<path d="M36.3441 20.9861C36.4378 20.2487 36.5 19.4964 36.5 18.7334C36.5 17.4466 36.3595 16.1936 36.1028 14.9834H18.5V22.4834H28.2293C27.4422 24.5291 26.0408 26.26 24.257 27.4626L30.3462 32.2698C33.5741 29.4366 35.783 25.4689 36.3441 20.9861Z" fill="#2196F3"/>
<path d="M8 18.7339C8 17.4687 8.23529 16.2613 8.64536 15.138L2.5787 10.3486C1.2565 12.8539 0.5 15.7041 0.5 18.7339C0.5 21.7297 1.24258 24.5484 2.53732 27.0333L8.61166 22.2378C8.22266 21.1405 8 19.9645 8 18.7339Z" fill="#FFC107"/>
<path d="M18.5 29.2334C13.9317 29.2334 10.0557 26.3107 8.61169 22.2373L2.53735 27.0328C5.53891 32.7936 11.5547 36.7334 18.5 36.7334C23.0417 36.7334 27.1832 35.0462 30.3462 32.2698L24.257 27.4626C22.6118 28.5717 20.6426 29.2334 18.5 29.2334Z" fill="#00B060"/>
<path opacity="0.1" d="M18.5 36.3585C13.2025 36.3585 8.43906 34.1727 5.07129 30.6904C8.36801 34.3902 13.1547 36.7335 18.5 36.7335C23.7958 36.7335 28.5428 34.4364 31.8322 30.7946C28.4744 34.2204 23.7471 36.3585 18.5 36.3585Z" fill="black"/>
<path opacity="0.1" d="M18.5 22.1084V22.4834H28.2293L28.3812 22.1084H18.5Z" fill="black"/>
<path d="M36.4917 18.9536C36.4929 18.8797 36.5 18.8071 36.5 18.7331C36.5 18.7121 36.4967 18.6919 36.4966 18.6709C36.4956 18.7654 36.4908 18.8588 36.4917 18.9536Z" fill="#E6E6E6"/>
<path opacity="0.2" d="M18.5 14.9834V15.3584H36.1784C36.1547 15.2346 36.1289 15.1063 36.1028 14.9834H18.5Z" fill="white"/>
<path d="M36.1028 14.9834H18.5V22.4834H28.2293C26.7163 26.4158 22.9658 29.2334 18.5 29.2334C12.701 29.2334 8 24.5323 8 18.7334C8 12.9344 12.701 8.2334 18.5 8.2334C20.6028 8.2334 22.5409 8.87939 24.1828 9.94443C24.4341 10.1078 24.6934 10.2611 24.9295 10.4445L30.3852 5.23953L30.2621 5.14487C27.1054 2.409 23.0053 0.733398 18.5 0.733398C8.55884 0.733398 0.5 8.79224 0.5 18.7334C0.5 28.6745 8.55884 36.7334 18.5 36.7334C27.6765 36.7334 35.2332 29.8615 36.3441 20.9861C36.4378 20.2487 36.5 19.4964 36.5 18.7334C36.5 17.4466 36.3595 16.1936 36.1028 14.9834Z" fill="url(#paint0_linear_274_122)"/>
<path opacity="0.1" d="M24.1828 9.56915C22.5409 8.50412 20.6028 7.85812 18.5 7.85812C12.701 7.85812 8 12.5591 8 18.3581C8 18.4214 8.00085 18.4708 8.00195 18.5339C8.10312 12.8224 12.7643 8.23312 18.5 8.23312C20.6028 8.23312 22.5409 8.87912 24.1828 9.94415C24.4341 10.1075 24.6934 10.2608 24.9295 10.4442L30.3852 5.23926L24.9295 10.0692C24.6934 9.88583 24.4341 9.73248 24.1828 9.56915Z" fill="black"/>
<path opacity="0.2" d="M18.5 1.1084C22.9626 1.1084 27.0244 2.75598 30.1689 5.4458L30.3852 5.23953L30.2202 5.09581C27.0634 2.35994 23.0053 0.733398 18.5 0.733398C8.55884 0.733398 0.5 8.79224 0.5 18.7334C0.5 18.7967 0.508789 18.8577 0.50943 18.9209C0.611053 9.06717 8.6221 1.1084 18.5 1.1084Z" fill="white"/>
</g>
<defs>
<linearGradient id="paint0_linear_274_122" x1="0.5" y1="18.7334" x2="36.5" y2="18.7334" gradientUnits="userSpaceOnUse">
<stop stop-color="white" stop-opacity="0.2"/>
<stop offset="1" stop-color="white" stop-opacity="0"/>
</linearGradient>
<clipPath id="clip0_274_122">
<rect width="36" height="36" fill="white" transform="translate(0.5 0.733398)"/>
</clipPath>
</defs>
</svg>
