<svg width="49" height="49" viewBox="0 0 49 49" fill="none" xmlns="http://www.w3.org/2000/svg">
<rect y="0.0650635" width="48.0123" height="48.0123" rx="11.5692" fill="#42175B"/>
<g clip-path="url(#clip0_653_2590)">
<path d="M29.115 20.0501C28.8283 20.1262 28.5706 20.2857 28.3745 20.5083C28.1785 20.7309 28.0528 21.0067 28.0134 21.3007C27.9741 21.5947 28.0228 21.8938 28.1534 22.1602C28.284 22.4265 28.4907 22.6482 28.7472 22.7971C29.0038 22.946 29.2988 23.0155 29.5948 22.9968C29.8909 22.978 30.1747 22.872 30.4105 22.6919C30.6463 22.5119 30.8234 22.266 30.9194 21.9853C31.0154 21.7046 31.0261 21.4018 30.95 21.1151C30.8995 20.9246 30.8119 20.746 30.6923 20.5894C30.5728 20.4328 30.4235 20.3013 30.2531 20.2024C30.0827 20.1035 29.8945 20.0392 29.6992 20.013C29.5039 19.9869 29.3054 19.9995 29.115 20.0501Z" fill="white"/>
<path d="M24.115 17.0501C23.8283 17.1262 23.5706 17.2857 23.3745 17.5083C23.1785 17.7309 23.0528 18.0067 23.0134 18.3007C22.9741 18.5947 23.0228 18.8938 23.1534 19.1602C23.284 19.4265 23.4907 19.6482 23.7472 19.7971C24.0038 19.946 24.2988 20.0155 24.5948 19.9968C24.8909 19.978 25.1747 19.872 25.4105 19.6919C25.6463 19.5119 25.8234 19.266 25.9194 18.9853C26.0154 18.7046 26.0261 18.4018 25.95 18.1151C25.8995 17.9246 25.8119 17.746 25.6923 17.5894C25.5728 17.4328 25.4235 17.3013 25.2531 17.2024C25.0827 17.1035 24.8945 17.0392 24.6992 17.013C24.5039 16.9869 24.3054 16.9995 24.115 17.0501V17.0501Z" fill="white"/>
<path d="M19.115 20.0501C18.8283 20.1262 18.5706 20.2857 18.3745 20.5083C18.1785 20.7309 18.0528 21.0067 18.0134 21.3007C17.9741 21.5947 18.0228 21.8938 18.1534 22.1602C18.284 22.4265 18.4907 22.6482 18.7472 22.7971C19.0038 22.946 19.2988 23.0155 19.5948 22.9968C19.8909 22.978 20.1747 22.872 20.4105 22.6919C20.6463 22.5119 20.8234 22.266 20.9194 21.9853C21.0154 21.7046 21.0261 21.4018 20.95 21.1151C20.8995 20.9246 20.8119 20.746 20.6923 20.5894C20.5728 20.4328 20.4235 20.3013 20.2531 20.2024C20.0827 20.1035 19.8945 20.0392 19.6992 20.013C19.5039 19.9869 19.3054 19.9995 19.115 20.0501Z" fill="white"/>
<path d="M19.115 26.0501C18.8283 26.1262 18.5706 26.2857 18.3745 26.5083C18.1785 26.7309 18.0528 27.0067 18.0134 27.3007C17.9741 27.5947 18.0228 27.8938 18.1534 28.1602C18.284 28.4265 18.4907 28.6482 18.7472 28.7971C19.0038 28.946 19.2988 29.0155 19.5948 28.9968C19.8909 28.978 20.1747 28.872 20.4105 28.6919C20.6463 28.5119 20.8234 28.266 20.9194 27.9853C21.0154 27.7046 21.0261 27.4018 20.95 27.1151C20.8995 26.9246 20.8119 26.746 20.6923 26.5894C20.5728 26.4328 20.4235 26.3013 20.2531 26.2024C20.0827 26.1035 19.8945 26.0392 19.6992 26.013C19.5039 25.9869 19.3054 25.9995 19.115 26.0501V26.0501Z" fill="white"/>
<path d="M24.5 12.007C22.89 11.951 21.2852 12.2198 19.7813 12.7973C18.2773 13.3748 16.9051 14.2492 15.7464 15.3684C14.5876 16.4876 13.6661 17.8286 13.0367 19.3116C12.4073 20.7945 12.083 22.389 12.083 24C12.0867 27.1815 13.3522 30.2316 15.6018 32.4812C17.8514 34.7308 20.9015 35.9963 24.083 36C24.421 36 24.753 35.978 25.083 35.95C25.3334 35.9289 25.5667 35.8143 25.7364 35.629C25.9061 35.4437 25.9999 35.2013 25.999 34.95L25.967 31.362C25.9589 30.653 26.1623 29.9576 26.5512 29.3647C26.9402 28.7718 27.497 28.3083 28.1506 28.0334C28.8042 27.7584 29.5249 27.6845 30.2207 27.821C30.9165 27.9576 31.5558 28.2984 32.057 28.8L32.157 28.9C32.384 29.129 32.6652 29.2968 32.9745 29.3879C33.2838 29.479 33.6111 29.4904 33.926 29.421C34.2358 29.356 34.5243 29.2141 34.7649 29.0084C35.0055 28.8028 35.1905 28.5399 35.303 28.244C35.8551 26.7943 36.119 25.2508 36.08 23.7C35.9675 20.654 34.7146 17.7615 32.5698 15.5957C30.425 13.43 27.5447 12.1491 24.5 12.007V12.007ZM33.482 27.407L33.468 27.393C32.6863 26.6126 31.6902 26.0824 30.6064 25.8698C29.5225 25.6572 28.3999 25.7719 27.3814 26.1991C26.3629 26.6264 25.4944 27.3469 24.8866 28.2691C24.2788 29.1914 23.959 30.2735 23.968 31.378L23.992 34C21.3398 33.9881 18.801 32.9231 16.9341 31.0393C15.0672 29.1554 14.0251 26.6072 14.037 23.955C14.0489 21.3028 15.1139 18.764 16.9977 16.8971C18.8815 15.0302 21.4298 13.9881 24.082 14C24.199 14 24.317 14 24.435 14.006C26.9714 14.1251 29.3705 15.1927 31.1568 16.9973C32.9432 18.8018 33.9865 21.2115 34.08 23.749C34.113 24.9926 33.9111 26.2312 33.485 27.4L33.482 27.407Z" fill="white"/>
</g>
<defs>
<clipPath id="clip0_653_2590">
<rect width="24" height="24" fill="white" transform="translate(12 12)"/>
</clipPath>
</defs>
</svg>
