<svg width="48" height="48" viewBox="0 0 48 48" fill="none" xmlns="http://www.w3.org/2000/svg">
<rect width="48" height="48" rx="5" fill="#42175B"/>
<g clip-path="url(#clip0_1307_2199)">
<path d="M34.3777 31.6816L27.5764 28.2618L34.3777 24.8421C34.696 24.682 34.8968 24.3562 34.8968 23.9999C34.8968 23.6436 34.696 23.3178 34.3776 23.1577L27.5762 19.738L34.3776 16.3183C34.6959 16.1582 34.8968 15.8325 34.8968 15.4761C34.8968 15.1198 34.696 14.7941 34.3776 14.634L24.3668 9.60041C24.099 9.46588 23.7831 9.46651 23.516 9.60244L13.6207 14.636C13.3046 14.7968 13.1055 15.1215 13.1055 15.4761C13.1055 15.8308 13.3046 16.1555 13.6207 16.3163L20.3474 19.7381L13.6207 23.1598C13.3046 23.3206 13.1055 23.6453 13.1055 24C13.1055 24.3547 13.3046 24.6794 13.6207 24.8402L20.3474 28.262L13.6207 31.6837C13.3046 31.8445 13.1055 32.1691 13.1055 32.5238C13.1055 32.8785 13.3046 33.2032 13.6207 33.364L23.5159 38.3976C23.7838 38.5337 24.0994 38.5339 24.3667 38.3995L34.3776 33.366C34.696 33.2059 34.8969 32.8802 34.8969 32.5238C34.8969 32.1676 34.696 31.8417 34.3777 31.6816ZM16.1272 15.4761L23.9457 11.4989L31.8558 15.4761L23.9457 19.4533L16.1272 15.4761ZM16.1272 23.9999L22.4264 20.7956L23.5159 21.3497C23.7753 21.4816 24.0937 21.489 24.3667 21.3517C24.6197 21.2245 25.2285 20.9184 25.4779 20.793L31.8558 23.9999L23.9457 27.9772L16.1272 23.9999ZM23.9457 36.501L16.1272 32.5238L22.4264 29.3194L23.5159 29.8736C23.7904 30.0131 24.1082 30.0055 24.3667 29.8755L25.4779 29.3169L31.8557 32.5238L23.9457 36.501Z" fill="white"/>
</g>
<defs>
<clipPath id="clip0_1307_2199">
<rect width="29" height="29" fill="white" transform="translate(9.5 9.5)"/>
</clipPath>
</defs>
</svg>
