<svg enable-background="new 0 0 512 512" height="512" viewBox="0 0 512 512" width="512" xmlns="http://www.w3.org/2000/svg"><g id="_x30_6_GYM"><g><g><path d="m503.885 143.132c4.398 0 7.996-3.518 7.996-7.996v-56.054c0-4.398-3.598-7.996-7.996-7.996h-93.397v-35.344c0-4.398-3.598-7.996-7.996-7.996h-293.064c-4.398 0-7.996 3.598-7.996 7.996v35.344h-93.317c-4.398 0-7.996 3.598-7.996 7.996v56.054c0 4.478 3.598 7.996 7.996 7.996h9.595v325.129h-9.595c-4.398 0-7.996 3.518-7.996 7.996 0 4.398 3.598 7.996 7.996 7.996h495.77c4.398 0 7.996-3.598 7.996-7.996 0-4.478-3.598-7.996-7.996-7.996h-9.675v-325.129zm-386.461-99.394h277.072v126.822h-277.072zm113.787 347.759c0 4.398-3.598 7.996-7.996 7.996s-7.996-3.598-7.996-7.996v-50.936c0-4.398 3.598-7.996 7.996-7.996s7.996 3.598 7.996 7.996zm65.57 0c0 4.398-3.598 7.996-7.996 7.996-4.478 0-7.996-3.598-7.996-7.996v-50.936c0-4.398 3.518-7.996 7.996-7.996 4.398 0 7.996 3.598 7.996 7.996zm181.436 76.765h-116.266v-212.462c0-4.398-3.598-7.996-7.996-7.996h-195.91c-4.478 0-7.996 3.598-7.996 7.996v212.462h-116.346v-325.05h67.729v35.344c0 4.398 3.598 7.996 7.996 7.996h293.064c4.398 0 7.996-3.598 7.996-7.996v-35.344h67.729z"/><path d="m202.186 90.229c4.416 0 7.996-3.58 7.996-7.996s-3.58-7.996-7.996-7.996h-49.731c-4.416 0-7.996 3.58-7.996 7.996v49.809c0 4.416 3.58 7.996 7.996 7.996h49.731c4.416 0 7.996-3.58 7.996-7.996v-24.903c0-4.416-3.58-7.996-7.996-7.996h-14.974c-4.416 0-7.996 3.58-7.996 7.996s3.58 7.996 7.996 7.996h6.977v8.91h-33.738v-33.816z"/><path d="m275.238 76.521-19.292 18.901-19.241-18.894c-3.155-3.1-8.215-3.053-11.307.102-3.096 3.151-3.049 8.215.102 11.307l22.447 22.041v22.064c0 4.416 3.58 7.996 7.996 7.996s7.996-3.58 7.996-7.996v-22.059l22.49-22.038c3.155-3.092 3.206-8.156.117-11.307-3.097-3.163-8.161-3.206-11.308-.117z"/><path d="m362.511 74.834c-3.003-1.222-6.462-.523-8.734 1.812l-19.151 19.577-19.171-19.581c-2.276-2.327-5.732-3.03-8.734-1.808-3.006 1.226-4.974 4.154-4.974 7.403v49.805c0 4.416 3.58 7.996 7.996 7.996s7.996-3.58 7.996-7.996v-30.205l11.175 11.413c3.01 3.073 8.426 3.069 11.428-.004l11.155-11.401-.004 30.197c0 4.416 3.58 7.996 7.996 7.996s7.996-3.58 7.996-7.996l.004-49.805c0-3.249-1.968-6.177-4.978-7.403z"/></g></g></g></svg>