<svg width="44" height="44" viewBox="0 0 44 44" fill="none" xmlns="http://www.w3.org/2000/svg">
<rect width="44" height="44" rx="10" fill="#42175B"/>
<g clip-path="url(#clip0_1463_4511)">
<path d="M13.3952 17.1561H15.4223V17.8771C14.3565 18.1174 13.5571 19.0735 13.5571 20.2124C13.5571 21.529 14.6281 22.6052 15.9447 22.6052C17.2613 22.6052 18.3375 21.5342 18.3375 20.2124C18.3375 19.9251 18.1024 19.69 17.8151 19.69C17.5277 19.69 17.2926 19.9251 17.2926 20.2124C17.2926 20.9543 16.6866 21.5603 15.9447 21.5603C15.2028 21.5603 14.602 20.9543 14.602 20.2124C14.602 19.4706 15.2028 18.8645 15.9447 18.8645C16.2321 18.8645 16.4672 18.6294 16.4672 18.3421V17.1561H19.0585V22.0776C19.0585 22.3649 19.2936 22.6 19.581 22.6C19.8683 22.6 20.1034 22.3649 20.1034 22.0776V17.1561H21.258C21.5454 17.1561 21.7805 16.921 21.7805 16.6337C21.7805 16.3463 21.5454 16.1112 21.258 16.1112H19.9623L17.3658 14.1781C17.1045 13.9535 16.7441 13.9012 16.4306 14.0475C16.1171 14.1938 15.9186 14.4968 15.9186 14.8469C15.9186 14.8834 15.9238 14.92 15.929 14.9566L16.1746 16.1164H13.4004C13.113 16.1164 12.8779 16.3515 12.8779 16.6389C12.8779 16.9262 13.1026 17.1561 13.3952 17.1561V17.1561ZM17.0523 15.2544L18.2069 16.1112H17.2352L17.0523 15.2544Z" fill="white"/>
<path d="M11.4306 25.0395H11.7963V27.4114C11.7963 27.6204 11.9217 27.8137 12.1202 27.8921C12.1829 27.9182 12.2508 27.9339 12.3187 27.9339C12.4546 27.9339 12.5904 27.8816 12.6897 27.7824L15.4273 25.0447H20.4324V27.8137C20.4324 29.0415 21.4302 30.0393 22.658 30.0393H29.3558L31.7016 32.3851C31.8008 32.4844 31.9367 32.5366 32.0725 32.5366C32.1404 32.5366 32.2084 32.5262 32.271 32.4949C32.4644 32.4165 32.595 32.2232 32.595 32.0142V30.0393H32.8353C34.0631 30.0393 35.0609 29.0415 35.0609 27.8137V20.4472C35.0609 19.2194 34.0631 18.2215 32.8353 18.2215H25.7091V14.0263C25.7091 12.6522 24.5911 11.5342 23.217 11.5342H11.4306C10.0565 11.529 8.93848 12.647 8.93848 14.0211V22.5474C8.93848 23.9215 10.0565 25.0395 11.4306 25.0395V25.0395ZM32.8353 19.2612C33.4884 19.2612 34.016 19.7889 34.016 20.442V27.8085C34.016 28.4615 33.4884 28.9892 32.8353 28.9892H32.0725C31.7852 28.9892 31.5501 29.2243 31.5501 29.5117V30.7499L29.9409 29.1407C29.8417 29.0415 29.7111 28.9892 29.57 28.9892H22.658C22.0049 28.9892 21.4773 28.4615 21.4773 27.8085V25.0395H23.2118C24.5858 25.0395 25.7039 23.9215 25.7039 22.5474V19.2612H32.8353ZM9.98337 14.0211C9.98337 13.2217 10.6312 12.5739 11.4306 12.5739H23.2118C24.0111 12.5739 24.659 13.2217 24.659 14.0211V22.5474C24.659 23.3468 24.0111 23.9946 23.2118 23.9946H15.2079C15.0668 23.9946 14.9362 24.0521 14.8369 24.1461L12.8359 26.1471V24.5171C12.8359 24.2297 12.6008 23.9946 12.3135 23.9946H11.4253C10.6312 23.9946 9.98337 23.3468 9.98337 22.5474V14.0211Z" fill="white"/>
<path d="M27.4378 22.6211H28.8484V26.1528C28.8484 26.4402 29.0835 26.6753 29.3709 26.6753C29.6582 26.6753 29.8933 26.4402 29.8933 26.1528V22.6211H31.304C31.5913 22.6211 31.8264 22.386 31.8264 22.0986C31.8264 21.8113 31.5913 21.5762 31.304 21.5762H27.4326C27.1453 21.5762 26.9102 21.8113 26.9102 22.0986C26.9102 22.386 27.1505 22.6211 27.4378 22.6211V22.6211Z" fill="white"/>
</g>
<defs>
<clipPath id="clip0_1463_4511">
<rect width="26.1429" height="21" fill="white" transform="translate(8.92871 11.5)"/>
</clipPath>
</defs>
</svg>
