<svg width="31" height="31" viewBox="0 0 31 31" fill="none" xmlns="http://www.w3.org/2000/svg">
<g clip-path="url(#clip0_157_1259)">
<g clip-path="url(#clip1_157_1259)">
<path d="M9.39372 7.25969C9.32428 7.08872 9.20554 6.94228 9.05262 6.839C8.8997 6.73571 8.71951 6.68026 8.53498 6.67969V6.67969C8.34702 6.68024 8.16358 6.73742 8.00861 6.84378C7.85364 6.95015 7.73432 7.10075 7.66622 7.27594L5.19498 13.7597C5.15838 13.8556 5.14106 13.9578 5.144 14.0605C5.14694 14.1631 5.17008 14.2642 5.21211 14.3579C5.25413 14.4516 5.31422 14.536 5.38892 14.6065C5.46363 14.6769 5.55149 14.732 5.64748 14.7684C5.73621 14.8018 5.83017 14.8192 5.92497 14.8197C6.0829 14.8197 6.23714 14.772 6.36743 14.6828C6.49772 14.5935 6.59796 14.467 6.65497 14.3197L7.07873 13.2084H9.96747L10.3862 14.3172C10.4224 14.4132 10.4772 14.5012 10.5474 14.576C10.6176 14.6509 10.7018 14.7112 10.7953 14.7535C10.8888 14.7958 10.9897 14.8193 11.0923 14.8226C11.1949 14.8259 11.2971 14.809 11.3931 14.7728C11.4891 14.7366 11.5771 14.6819 11.652 14.6117C11.7268 14.5415 11.7871 14.4572 11.8294 14.3637C11.8718 14.2702 11.8952 14.1693 11.8985 14.0668C11.9018 13.9642 11.8849 13.862 11.8487 13.7659L9.39372 7.25969ZM7.67372 11.6422L8.52872 9.39219L9.37747 11.6422H7.67372Z" fill="black"/>
<path d="M14.04 6.67969C13.8329 6.68002 13.6344 6.76243 13.488 6.90888C13.3415 7.05532 13.2591 7.25384 13.2588 7.46094V14.0384C13.2588 14.2456 13.3411 14.4444 13.4876 14.5909C13.6341 14.7374 13.8328 14.8197 14.04 14.8197C14.2472 14.8197 14.446 14.7374 14.5925 14.5909C14.739 14.4444 14.8213 14.2456 14.8213 14.0384V7.46094C14.8213 7.25374 14.739 7.05502 14.5925 6.90851C14.446 6.762 14.2472 6.67969 14.04 6.67969V6.67969Z" fill="black"/>
<path d="M23.75 1H6.25C4.59301 1.00198 3.00445 1.6611 1.83278 2.83278C0.661103 4.00445 0.00198482 5.59301 0 7.25L0 24.75C0.00198482 26.407 0.661103 27.9956 1.83278 29.1672C3.00445 30.3389 4.59301 30.998 6.25 31H20.4288C21.2499 31.0023 22.0633 30.8418 22.822 30.5277C23.5807 30.2136 24.2696 29.7521 24.8488 29.17L28.1688 25.8475C28.7509 25.2686 29.2126 24.58 29.5269 23.8215C29.8412 23.063 30.002 22.2498 30 21.4288V7.25C29.998 5.59301 29.3389 4.00445 28.1672 2.83278C26.9956 1.6611 25.407 1.00198 23.75 1V1ZM2.5 24.75V7.25C2.5 6.25544 2.89509 5.30161 3.59835 4.59835C4.30161 3.89509 5.25544 3.5 6.25 3.5H23.75C24.7446 3.5 25.6984 3.89509 26.4017 4.59835C27.1049 5.30161 27.5 6.25544 27.5 7.25V19.75H22.5C21.5054 19.75 20.5516 20.1451 19.8484 20.8484C19.1451 21.5516 18.75 22.5054 18.75 23.5V28.5H6.25C5.25544 28.5 4.30161 28.1049 3.59835 27.4017C2.89509 26.6984 2.5 25.7446 2.5 24.75ZM23.0813 27.4025C22.5788 27.9038 21.9433 28.2508 21.25 28.4025V23.5C21.25 23.1685 21.3817 22.8505 21.6161 22.6161C21.8505 22.3817 22.1685 22.25 22.5 22.25H27.4063C27.2516 22.9419 26.905 23.5762 26.4063 24.08L23.0813 27.4025Z" fill="black"/>
</g>
</g>
<defs>
<clipPath id="clip0_157_1259">
<rect width="29.9631" height="29.9631" fill="white" transform="translate(0.428955 0.888672)"/>
</clipPath>
<clipPath id="clip1_157_1259">
<rect width="30" height="30" fill="white" transform="translate(0 1)"/>
</clipPath>
</defs>
</svg>
