<svg width="49" height="49" viewBox="0 0 49 49" fill="none" xmlns="http://www.w3.org/2000/svg">
<rect y="0.0527344" width="48.0123" height="48.0123" rx="11.5692" fill="#42175B"/>
<g clip-path="url(#clip0_653_2536)">
<g clip-path="url(#clip1_653_2536)">
<path d="M13.614 26.0834C13.5169 25.5134 13.4677 24.9284 13.4677 24.3447C13.4677 18.693 18.0656 14.0951 23.7173 14.0951C27.3165 14.0951 30.6949 16.0169 32.5343 19.1106C32.7527 19.4779 33.1894 19.654 33.6015 19.5407C34.0135 19.4275 34.2991 19.0529 34.2991 18.6256V14.8543C34.2991 14.3302 33.8742 13.9053 33.35 13.9053C32.8259 13.9053 32.401 14.3302 32.401 14.8543V15.8471C31.6355 15.0651 30.7654 14.386 29.8149 13.834C27.9711 12.7631 25.8626 12.197 23.7173 12.197C20.4691 12.197 17.4173 13.4605 15.1242 15.7547C12.832 18.048 11.5696 21.0987 11.5696 24.3447C11.5696 25.0349 11.6279 25.7271 11.7428 26.4021C11.8216 26.8649 12.223 27.192 12.6773 27.192C12.7301 27.192 12.7838 27.1876 12.8377 27.1784C13.3544 27.0904 13.702 26.6002 13.614 26.0834ZM22.7682 23.3957H24.6663C25.1905 23.3957 25.6153 22.9708 25.6153 22.4466C25.6153 21.9225 25.1905 21.4976 24.6663 21.4976H22.7682C22.2441 21.4976 21.8192 21.9225 21.8192 22.4466C21.8192 22.9708 22.2441 23.3957 22.7682 23.3957ZM18.9721 17.7014C18.4479 17.7014 18.023 18.1263 18.023 18.6505V30.0389C18.023 30.5631 18.4479 30.988 18.9721 30.988H28.4625C28.9866 30.988 29.4115 30.5631 29.4115 30.0389V18.6505C29.4115 18.1263 28.9866 17.7014 28.4625 17.7014H18.9721ZM27.5134 29.0899H19.9211V19.5995H27.5134V29.0899ZM35.6917 22.2873C35.6037 21.7706 35.1138 21.4231 34.5969 21.5111C34.0801 21.5991 33.7326 22.0893 33.8206 22.606C33.9177 23.176 33.9669 23.761 33.9669 24.3447C33.9669 29.9964 29.3689 34.5943 23.7173 34.5943C20.1181 34.5943 16.7396 32.6725 14.9003 29.5788C14.6819 29.2115 14.2451 29.0355 13.833 29.1487C13.421 29.2619 13.1355 29.6366 13.1355 30.0638V33.8351C13.1355 34.3593 13.5604 34.7841 14.0845 34.7841C14.6087 34.7841 15.0336 34.3593 15.0336 33.8351V32.8424C15.799 33.6243 16.6692 34.3034 17.6196 34.8555C19.4634 35.9264 21.5719 36.4924 23.7173 36.4924C26.9655 36.4924 30.0172 35.2289 32.3104 32.9347C34.6026 30.6414 35.865 27.5908 35.865 24.3447C35.865 23.6545 35.8066 22.9623 35.6917 22.2873ZM22.7682 27.1918H24.6663C25.1905 27.1918 25.6153 26.7669 25.6153 26.2428C25.6153 25.7186 25.1905 25.2938 24.6663 25.2938H22.7682C22.2441 25.2938 21.8192 25.7186 21.8192 26.2428C21.8192 26.7669 22.2441 27.1918 22.7682 27.1918Z" fill="white"/>
</g>
</g>
<defs>
<clipPath id="clip0_653_2536">
<rect width="24.8738" height="24.8738" fill="white" transform="translate(11.5692 11.6217)"/>
</clipPath>
<clipPath id="clip1_653_2536">
<rect width="24.2954" height="24.2954" fill="white" transform="translate(11.5692 12.2008)"/>
</clipPath>
</defs>
</svg>
