<svg width="227" height="174" viewBox="0 0 227 174" fill="none" xmlns="http://www.w3.org/2000/svg">
<rect x="1.1534" y="1.05013" width="224.529" height="171.459" rx="15.3088" fill="#ECE7EE" stroke="#42175B" stroke-width="2.04118"/>
<g clip-path="url(#clip0_720_5588)">
<path d="M136.211 58.5429H132.468C131.679 54.7035 129.59 51.2537 126.553 48.7749C123.517 46.2961 119.718 44.94 115.799 44.9351L108.995 44.9351C105.075 44.94 101.277 46.2961 98.2404 48.7749C95.2039 51.2537 93.1148 54.7035 92.3252 58.5429H88.583C84.0734 58.5483 79.7501 60.3421 76.5613 63.5309C73.3725 66.7197 71.5786 71.0431 71.5732 75.5527V85.7586H153.22V75.5527C153.215 71.0431 151.421 66.7197 148.232 63.5309C145.044 60.3421 140.72 58.5483 136.211 58.5429V58.5429ZM99.4149 58.5429C100.116 56.5599 101.413 54.8419 103.127 53.624C104.842 52.4061 106.892 51.7477 108.995 51.739H115.799C117.902 51.7477 119.951 52.4061 121.666 53.624C123.381 54.8419 124.678 56.5599 125.379 58.5429H99.4149Z" fill="#42175B"/>
<path d="M115.799 95.9645C115.799 96.8667 115.44 97.732 114.802 98.37C114.164 99.008 113.299 99.3664 112.397 99.3664C111.495 99.3664 110.629 99.008 109.991 98.37C109.353 97.732 108.995 96.8667 108.995 95.9645V92.5625H71.5732V109.572C71.5786 114.082 73.3725 118.405 76.5613 121.594C79.7501 124.783 84.0734 126.577 88.583 126.582H136.211C140.72 126.577 145.044 124.783 148.232 121.594C151.421 118.405 153.215 114.082 153.22 109.572V92.5625H115.799V95.9645Z" fill="#42175B"/>
</g>
<defs>
<clipPath id="clip0_720_5588">
<rect width="81.6471" height="81.6471" fill="white" transform="translate(71.5732 44.9351)"/>
</clipPath>
</defs>
</svg>
