<svg width="31" height="30" viewBox="0 0 31 30" fill="none" xmlns="http://www.w3.org/2000/svg">
<g clip-path="url(#clip0_158_1791)">
<path d="M23.8629 1.24902H6.3844C4.72944 1.25101 3.14284 1.90931 1.97261 3.07954C0.802379 4.24977 0.144072 5.83638 0.14209 7.49133L0.14209 22.4729C0.144072 24.1278 0.802379 25.7144 1.97261 26.8847C3.14284 28.0549 4.72944 28.7132 6.3844 28.7152H23.8629C25.5178 28.7132 27.1044 28.0549 28.2747 26.8847C29.4449 25.7144 30.1032 24.1278 30.1052 22.4729V7.49133C30.1032 5.83638 29.4449 4.24977 28.2747 3.07954C27.1044 1.90931 25.5178 1.25101 23.8629 1.24902ZM6.3844 3.74595H23.8629C24.8562 3.74595 25.8089 4.14055 26.5113 4.84295C27.2136 5.54534 27.6082 6.49799 27.6082 7.49133V8.73979H2.63901V7.49133C2.63901 6.49799 3.03362 5.54534 3.73601 4.84295C4.43841 4.14055 5.39106 3.74595 6.3844 3.74595ZM23.8629 26.2183H6.3844C5.39106 26.2183 4.43841 25.8237 3.73601 25.1213C3.03362 24.4189 2.63901 23.4662 2.63901 22.4729V11.2367H27.6082V22.4729C27.6082 23.4662 27.2136 24.4189 26.5113 25.1213C25.8089 25.8237 24.8562 26.2183 23.8629 26.2183ZM23.8629 16.2306C23.8629 16.5617 23.7313 16.8792 23.4972 17.1134C23.2631 17.3475 22.9455 17.479 22.6144 17.479H7.63286C7.30175 17.479 6.9842 17.3475 6.75007 17.1134C6.51593 16.8792 6.3844 16.5617 6.3844 16.2306C6.3844 15.8995 6.51593 15.5819 6.75007 15.3478C6.9842 15.1136 7.30175 14.9821 7.63286 14.9821H22.6144C22.9455 14.9821 23.2631 15.1136 23.4972 15.3478C23.7313 15.5819 23.8629 15.8995 23.8629 16.2306ZM18.869 21.2244C18.869 21.5555 18.7375 21.8731 18.5034 22.1072C18.2692 22.3413 17.9517 22.4729 17.6206 22.4729H7.63286C7.30175 22.4729 6.9842 22.3413 6.75007 22.1072C6.51593 21.8731 6.3844 21.5555 6.3844 21.2244C6.3844 20.8933 6.51593 20.5757 6.75007 20.3416C6.9842 20.1075 7.30175 19.976 7.63286 19.976H17.6206C17.9517 19.976 18.2692 20.1075 18.5034 20.3416C18.7375 20.5757 18.869 20.8933 18.869 21.2244ZM3.88748 6.24287C3.88748 5.99595 3.9607 5.75457 4.09788 5.54926C4.23506 5.34395 4.43004 5.18394 4.65817 5.08944C4.8863 4.99495 5.13732 4.97023 5.3795 5.0184C5.62168 5.06657 5.84413 5.18547 6.01873 5.36007C6.19333 5.53468 6.31224 5.75713 6.36041 5.99931C6.40858 6.24149 6.38386 6.49251 6.28937 6.72064C6.19487 6.94876 6.03485 7.14375 5.82955 7.28093C5.62424 7.41811 5.38286 7.49133 5.13594 7.49133C4.80482 7.49133 4.48727 7.3598 4.25314 7.12567C4.01901 6.89153 3.88748 6.57398 3.88748 6.24287ZM7.63286 6.24287C7.63286 5.99595 7.70608 5.75457 7.84326 5.54926C7.98045 5.34395 8.17543 5.18394 8.40356 5.08944C8.63168 4.99495 8.88271 4.97023 9.12489 5.0184C9.36706 5.06657 9.58952 5.18547 9.76412 5.36007C9.93872 5.53468 10.0576 5.75713 10.1058 5.99931C10.154 6.24149 10.1292 6.49251 10.0348 6.72064C9.94026 6.94876 9.78024 7.14375 9.57493 7.28093C9.36962 7.41811 9.12825 7.49133 8.88132 7.49133C8.55021 7.49133 8.23266 7.3598 7.99853 7.12567C7.7644 6.89153 7.63286 6.57398 7.63286 6.24287ZM11.3782 6.24287C11.3782 5.99595 11.4515 5.75457 11.5887 5.54926C11.7258 5.34395 11.9208 5.18394 12.1489 5.08944C12.3771 4.99495 12.6281 4.97023 12.8703 5.0184C13.1124 5.06657 13.3349 5.18547 13.5095 5.36007C13.6841 5.53468 13.803 5.75713 13.8512 5.99931C13.8994 6.24149 13.8746 6.49251 13.7801 6.72064C13.6856 6.94876 13.5256 7.14375 13.3203 7.28093C13.115 7.41811 12.8736 7.49133 12.6267 7.49133C12.2956 7.49133 11.978 7.3598 11.7439 7.12567C11.5098 6.89153 11.3782 6.57398 11.3782 6.24287Z" fill="#42175B"/>
</g>
<defs>
<clipPath id="clip0_158_1791">
<rect width="29.9631" height="29.9631" fill="white" transform="translate(0.142578)"/>
</clipPath>
</defs>
</svg>
