<svg width="30" height="30" viewBox="0 0 30 30" fill="none" xmlns="http://www.w3.org/2000/svg">
<g clip-path="url(#clip0_656_196)">
<path d="M29.3762 18.8637L23.9119 16.9622V4.07422H25.3181C25.5668 4.07422 25.8052 3.97545 25.981 3.79963C26.1568 3.62382 26.2556 3.38536 26.2556 3.13672C26.2556 2.88808 26.1568 2.64962 25.981 2.47381C25.8052 2.29799 25.5668 2.19922 25.3181 2.19922H23.9119V0.792969C23.9119 0.544328 23.8131 0.305871 23.6373 0.130056C23.4615 -0.0457592 23.223 -0.144531 22.9744 -0.144531C22.7257 -0.144531 22.4873 -0.0457592 22.3115 0.130056C22.1356 0.305871 22.0369 0.544328 22.0369 0.792969V2.19922H4.22437V0.792969C4.22437 0.544328 4.12559 0.305871 3.94978 0.130056C3.77396 -0.0457592 3.53551 -0.144531 3.28687 -0.144531C3.03822 -0.144531 2.79977 -0.0457592 2.62395 0.130056C2.44814 0.305871 2.34937 0.544328 2.34937 0.792969V2.19922H0.943115C0.694475 2.19922 0.456018 2.29799 0.280203 2.47381C0.104387 2.64962 0.00561523 2.88808 0.00561523 3.13672C0.00561523 3.38536 0.104387 3.62382 0.280203 3.79963C0.456018 3.97545 0.694475 4.07422 0.943115 4.07422H2.34937V21.8867H0.943115C0.694475 21.8867 0.456018 21.9855 0.280203 22.1613C0.104387 22.3371 0.00561523 22.5756 0.00561523 22.8242C0.00561523 23.0729 0.104387 23.3113 0.280203 23.4871C0.456018 23.6629 0.694475 23.7617 0.943115 23.7617H2.34937V25.168C2.34937 25.4166 2.44814 25.6551 2.62395 25.8309C2.79977 26.0067 3.03822 26.1055 3.28687 26.1055C3.53551 26.1055 3.77396 26.0067 3.94978 25.8309C4.12559 25.6551 4.22437 25.4166 4.22437 25.168V23.7617H17.1123L19.0138 29.226C19.0807 29.4083 19.2023 29.5654 19.3618 29.676C19.5214 29.7865 19.7112 29.8452 19.9053 29.8439C20.0994 29.8426 20.2884 29.7815 20.4465 29.6688C20.6045 29.5562 20.724 29.3975 20.7885 29.2144L22.9327 22.7824L29.3647 20.6384C29.5478 20.5738 29.7065 20.4543 29.8191 20.2962C29.9317 20.1381 29.9928 19.9492 29.9941 19.755C29.9953 19.5609 29.9366 19.3712 29.8261 19.2117C29.7155 19.0521 29.5584 18.9306 29.3762 18.8637ZM13.1306 21.8867H4.22437V4.07422H22.0369V16.3097L19.8549 15.5504L21.7622 13.6433C21.9367 13.4668 22.0346 13.2287 22.0346 12.9805C22.0346 12.7323 21.9367 12.4941 21.7622 12.3176L13.7935 4.34888C13.7064 4.2618 13.6031 4.19273 13.4894 4.1456C13.3756 4.09848 13.2537 4.07422 13.1306 4.07422C13.0075 4.07422 12.8856 4.09848 12.7719 4.1456C12.6581 4.19273 12.5548 4.2618 12.4678 4.34888L4.49902 12.3176C4.41195 12.4047 4.34288 12.508 4.29575 12.6217C4.24862 12.7355 4.22437 12.8574 4.22437 12.9805C4.22437 13.1036 4.24862 13.2255 4.29575 13.3392C4.34288 13.453 4.41195 13.5563 4.49902 13.6433L12.4678 21.6121C12.5548 21.6991 12.6581 21.7682 12.7719 21.8153C12.8856 21.8625 13.0075 21.8867 13.1306 21.8867C13.2537 21.8867 13.3756 21.8625 13.4894 21.8153C13.6031 21.7682 13.7064 21.6991 13.7935 21.6121L15.7006 19.705L16.4598 21.8867L13.1306 21.8867ZM15.3137 13.9702C15.1475 13.9149 14.9692 13.9069 14.7987 13.9472C14.6282 13.9875 14.4723 14.0744 14.3484 14.1983C14.2246 14.3222 14.1376 14.4781 14.0973 14.6485C14.057 14.819 14.065 14.9973 14.1203 15.1635L15.0162 17.7381L13.1306 19.6233L6.48755 12.9805L13.1306 6.33764L19.7737 12.9805L17.888 14.866L15.3137 13.9702ZM21.8949 21.1518C21.7569 21.1979 21.6315 21.2755 21.5286 21.3784C21.4257 21.4813 21.3482 21.6068 21.3021 21.7448L19.8799 26.0107L16.5281 16.378L26.1609 19.73L21.8949 21.1518Z" fill="#42175B"/>
<path d="M12.6619 13.4492C13.1796 13.4492 13.5994 13.0295 13.5994 12.5117C13.5994 11.994 13.1796 11.5742 12.6619 11.5742C12.1441 11.5742 11.7244 11.994 11.7244 12.5117C11.7244 13.0295 12.1441 13.4492 12.6619 13.4492Z" fill="#42175B"/>
</g>
<defs>
<clipPath id="clip0_656_196">
<rect width="30" height="30" fill="white" transform="translate(0 -0.150391)"/>
</clipPath>
</defs>
</svg>
