<svg width="380" height="61" viewBox="0 0 380 61" fill="none" xmlns="http://www.w3.org/2000/svg">
<g clip-path="url(#clip0_1484_19462)">
<path d="M12.5 25.0836C10.8219 25.0836 9.23854 24.3888 8.10729 23.1877C6.46354 23.2325 4.84792 22.6096 3.66042 21.4231C2.47396 20.2356 1.84687 18.6252 1.89479 16.9763C0.694792 15.845 0 14.2627 0 12.5836C0 10.9044 0.694792 9.32314 1.89479 8.19085C1.84687 6.54189 2.47396 4.93148 3.66042 3.74398C4.84896 2.55648 6.45833 1.91898 8.10729 1.97835C9.23854 0.777311 10.8208 0.0825195 12.5 0.0825195C14.1792 0.0825195 15.7615 0.777311 16.8927 1.97835C18.5292 1.91898 20.151 2.55648 21.3396 3.74294C22.526 4.93044 23.1531 6.54085 23.1052 8.18981C24.3052 9.32106 25 10.9034 25 12.5825C25 14.2617 24.3052 15.8429 23.1052 16.9752C23.1531 18.6242 22.526 20.2346 21.3396 21.4221C20.151 22.6096 18.5312 23.2325 16.8927 23.1877C15.7615 24.3888 14.1792 25.0836 12.5 25.0836ZM9.50521 19.8138L10.0844 20.6721C10.6271 21.4773 11.5312 21.9586 12.5 21.9586C13.4688 21.9586 14.3729 21.4773 14.9156 20.6721L15.4948 19.8138L16.5104 20.0117C17.4688 20.1971 18.4448 19.8992 19.1302 19.2127C19.8146 18.5273 20.1135 17.5481 19.9292 16.5929L19.7333 15.5784L20.5896 15.0002C21.3948 14.4575 21.876 13.5534 21.876 12.5836C21.876 11.6138 21.3948 10.7106 20.5896 10.1669L19.7333 9.58877L19.9292 8.57419C20.1146 7.61898 19.8156 6.63981 19.1302 5.9544C18.4448 5.26898 17.4688 4.97106 16.5104 5.15544L15.4948 5.35335L14.9156 4.49502C14.3729 3.68981 13.4688 3.20856 12.5 3.20856C11.5312 3.20856 10.6271 3.68981 10.0844 4.49502L9.50521 5.35335L8.48958 5.15544C7.53229 4.97002 6.55625 5.26898 5.86979 5.9544C5.18542 6.63981 4.88646 7.61898 5.07083 8.57419L5.26667 9.58877L4.41042 10.1669C3.60521 10.7096 3.12396 11.6138 3.12396 12.5836C3.12396 13.5534 3.60521 14.4565 4.41042 15.0002L5.26667 15.5784L5.07083 16.5929C4.88542 17.5481 5.18437 18.5273 5.86979 19.2127C6.55625 19.8981 7.53229 20.1971 8.48958 20.0117L9.50521 19.8138ZM10.9406 16.7502C10.2729 16.7502 9.60521 16.4961 9.09583 15.9877L6.20417 13.1856L8.37917 10.9419L10.9344 13.419L16.0917 8.34606L18.2833 10.5742L12.7698 15.9981C12.2687 16.5002 11.6052 16.7523 10.9406 16.7523V16.7502Z" fill="#FBBA18"/>
</g>
<path d="M39.908 16.789C40.2766 16.789 40.587 16.747 40.839 16.663C41.0956 16.5743 41.3033 16.4553 41.462 16.306C41.6253 16.1567 41.742 15.9817 41.812 15.781C41.8866 15.5757 41.924 15.3563 41.924 15.123C41.924 14.647 41.7606 14.2737 41.434 14.003C41.112 13.7277 40.601 13.59 39.901 13.59H37.878V16.789H39.908ZM37.878 9.28498V12.435H39.516C40.216 12.435 40.7386 12.2997 41.084 12.029C41.4293 11.7583 41.602 11.3687 41.602 10.86C41.602 10.3047 41.4386 9.90332 41.112 9.65598C40.79 9.40865 40.2836 9.28498 39.593 9.28498H37.878ZM39.593 8.00398C40.237 8.00398 40.7876 8.06698 41.245 8.19298C41.7023 8.31432 42.078 8.48932 42.372 8.71798C42.666 8.94665 42.8806 9.22665 43.016 9.55798C43.156 9.88465 43.226 10.2533 43.226 10.664C43.226 10.902 43.1886 11.133 43.114 11.357C43.044 11.5763 42.932 11.784 42.778 11.98C42.6286 12.1713 42.4396 12.344 42.211 12.498C41.9823 12.652 41.7116 12.7803 41.399 12.883C42.827 13.1863 43.541 13.9447 43.541 15.158C43.541 15.5873 43.4593 15.9817 43.296 16.341C43.1373 16.6957 42.904 17.0037 42.596 17.265C42.2926 17.5217 41.917 17.7223 41.469 17.867C41.021 18.0117 40.51 18.084 39.936 18.084H36.24V8.00398H39.593ZM49.6801 13.709C49.6801 13.457 49.6427 13.2237 49.5681 13.009C49.4981 12.7897 49.3931 12.6007 49.2531 12.442C49.1131 12.2787 48.9381 12.1527 48.7281 12.064C48.5227 11.9707 48.2847 11.924 48.0141 11.924C47.4681 11.924 47.0387 12.0803 46.7261 12.393C46.4134 12.7057 46.2151 13.1443 46.1311 13.709H49.6801ZM46.0891 14.633C46.1077 15.039 46.1707 15.3913 46.2781 15.69C46.3854 15.984 46.5277 16.229 46.7051 16.425C46.8871 16.621 47.1017 16.768 47.3491 16.866C47.6011 16.9593 47.8811 17.006 48.1891 17.006C48.4831 17.006 48.7374 16.9733 48.9521 16.908C49.1667 16.838 49.3534 16.7633 49.5121 16.684C49.6707 16.6 49.8061 16.5253 49.9181 16.46C50.0301 16.39 50.1327 16.355 50.2261 16.355C50.3474 16.355 50.4407 16.4017 50.5061 16.495L50.9331 17.048C50.7557 17.258 50.5551 17.4353 50.3311 17.58C50.1071 17.7247 49.8691 17.8437 49.6171 17.937C49.3651 18.0257 49.1061 18.0887 48.8401 18.126C48.5741 18.168 48.3151 18.189 48.0631 18.189C47.5684 18.189 47.1087 18.1073 46.6841 17.944C46.2641 17.776 45.8977 17.531 45.5851 17.209C45.2771 16.887 45.0344 16.488 44.8571 16.012C44.6844 15.536 44.5981 14.9877 44.5981 14.367C44.5981 13.8723 44.6751 13.4103 44.8291 12.981C44.9877 12.5517 45.2117 12.1783 45.5011 11.861C45.7951 11.5437 46.1497 11.294 46.5651 11.112C46.9851 10.9253 47.4587 10.832 47.9861 10.832C48.4247 10.832 48.8307 10.9043 49.2041 11.049C49.5774 11.189 49.8994 11.3967 50.1701 11.672C50.4407 11.9473 50.6507 12.2857 50.8001 12.687C50.9541 13.0837 51.0311 13.5363 51.0311 14.045C51.0311 14.2783 51.0054 14.4347 50.9541 14.514C50.9027 14.5933 50.8094 14.633 50.6741 14.633H46.0891ZM56.6976 12.239C56.6602 12.3043 56.6182 12.351 56.5716 12.379C56.5249 12.407 56.4666 12.421 56.3966 12.421C56.3172 12.421 56.2309 12.3977 56.1376 12.351C56.0442 12.2997 55.9346 12.2437 55.8086 12.183C55.6826 12.1223 55.5332 12.0687 55.3606 12.022C55.1926 11.9707 54.9942 11.945 54.7656 11.945C54.5789 11.945 54.4086 11.9683 54.2546 12.015C54.1052 12.057 53.9769 12.12 53.8696 12.204C53.7669 12.2833 53.6876 12.379 53.6316 12.491C53.5756 12.5983 53.5476 12.715 53.5476 12.841C53.5476 13.009 53.5989 13.149 53.7016 13.261C53.8042 13.373 53.9396 13.471 54.1076 13.555C54.2756 13.6343 54.4669 13.7067 54.6816 13.772C54.8962 13.8373 55.1156 13.9073 55.3396 13.982C55.5636 14.0567 55.7829 14.143 55.9976 14.241C56.2122 14.339 56.4036 14.4603 56.5716 14.605C56.7396 14.745 56.8749 14.9177 56.9776 15.123C57.0802 15.3237 57.1316 15.5687 57.1316 15.858C57.1316 16.194 57.0709 16.5043 56.9496 16.789C56.8282 17.0737 56.6509 17.321 56.4176 17.531C56.1842 17.741 55.8926 17.9043 55.5426 18.021C55.1972 18.1377 54.8006 18.196 54.3526 18.196C54.1052 18.196 53.8649 18.1727 53.6316 18.126C53.4029 18.084 53.1836 18.0257 52.9736 17.951C52.7682 17.8717 52.5746 17.7783 52.3926 17.671C52.2152 17.5637 52.0566 17.447 51.9166 17.321L52.2666 16.747C52.3086 16.677 52.3599 16.6233 52.4206 16.586C52.4859 16.544 52.5652 16.523 52.6586 16.523C52.7566 16.523 52.8522 16.5557 52.9456 16.621C53.0436 16.6817 53.1556 16.7493 53.2816 16.824C53.4122 16.8987 53.5686 16.9687 53.7506 17.034C53.9326 17.0947 54.1589 17.125 54.4296 17.125C54.6536 17.125 54.8472 17.0993 55.0106 17.048C55.1739 16.992 55.3092 16.9173 55.4166 16.824C55.5239 16.7307 55.6032 16.6257 55.6546 16.509C55.7059 16.3877 55.7316 16.2593 55.7316 16.124C55.7316 15.942 55.6802 15.7927 55.5776 15.676C55.4749 15.5593 55.3372 15.459 55.1646 15.375C54.9966 15.291 54.8029 15.2163 54.5836 15.151C54.3689 15.0857 54.1496 15.0157 53.9256 14.941C53.7016 14.8663 53.4799 14.78 53.2606 14.682C53.0459 14.584 52.8522 14.4603 52.6796 14.311C52.5116 14.157 52.3762 13.9727 52.2736 13.758C52.1709 13.5387 52.1196 13.2727 52.1196 12.96C52.1196 12.6753 52.1756 12.4047 52.2876 12.148C52.4042 11.8913 52.5722 11.665 52.7916 11.469C53.0156 11.273 53.2886 11.119 53.6106 11.007C53.9372 10.8903 54.3129 10.832 54.7376 10.832C55.2182 10.832 55.6546 10.909 56.0466 11.063C56.4386 11.217 56.7676 11.427 57.0336 11.693L56.6976 12.239ZM60.8349 18.196C60.2422 18.196 59.7849 18.0303 59.4629 17.699C59.1456 17.363 58.9869 16.8917 58.9869 16.285V12.127H58.2029C58.1189 12.127 58.0466 12.1013 57.9859 12.05C57.9252 11.994 57.8949 11.9123 57.8949 11.805V11.196L59.0499 11.028L59.3789 8.96298C59.4022 8.88365 59.4419 8.82065 59.4979 8.77398C59.5539 8.72265 59.6286 8.69698 59.7219 8.69698H60.4919V11.042H62.4729V12.127H60.4919V16.18C60.4919 16.4367 60.5549 16.6327 60.6809 16.768C60.8069 16.9033 60.9749 16.971 61.1849 16.971C61.3016 16.971 61.4019 16.957 61.4859 16.929C61.5699 16.8963 61.6422 16.8637 61.7029 16.831C61.7636 16.7937 61.8149 16.761 61.8569 16.733C61.9036 16.7003 61.9479 16.684 61.9899 16.684C62.0739 16.684 62.1416 16.7307 62.1929 16.824L62.6409 17.559C62.4076 17.7643 62.1322 17.923 61.8149 18.035C61.4976 18.1423 61.1709 18.196 60.8349 18.196ZM68.7135 10.944V18.084H67.2085V10.944H68.7135ZM68.9655 8.78798C68.9655 8.92332 68.9375 9.05165 68.8815 9.17298C68.8302 9.29432 68.7578 9.40165 68.6645 9.49498C68.5712 9.58365 68.4615 9.65598 68.3355 9.71198C68.2142 9.76332 68.0835 9.78898 67.9435 9.78898C67.8082 9.78898 67.6798 9.76332 67.5585 9.71198C67.4418 9.65598 67.3392 9.58365 67.2505 9.49498C67.1618 9.40165 67.0895 9.29432 67.0335 9.17298C66.9822 9.05165 66.9565 8.92332 66.9565 8.78798C66.9565 8.64798 66.9822 8.51732 67.0335 8.39598C67.0895 8.27465 67.1618 8.16965 67.2505 8.08098C67.3392 7.98765 67.4418 7.91532 67.5585 7.86398C67.6798 7.80798 67.8082 7.77998 67.9435 7.77998C68.0835 7.77998 68.2142 7.80798 68.3355 7.86398C68.4615 7.91532 68.5712 7.98765 68.6645 8.08098C68.7578 8.16965 68.8302 8.27465 68.8815 8.39598C68.9375 8.51732 68.9655 8.64798 68.9655 8.78798ZM72.0115 11.889C72.1655 11.7303 72.3242 11.588 72.4875 11.462C72.6555 11.3313 72.8328 11.2193 73.0195 11.126C73.2062 11.0327 73.4045 10.9603 73.6145 10.909C73.8245 10.8577 74.0532 10.832 74.3005 10.832C74.6925 10.832 75.0355 10.8973 75.3295 11.028C75.6282 11.1587 75.8778 11.343 76.0785 11.581C76.2838 11.819 76.4378 12.106 76.5405 12.442C76.6432 12.7733 76.6945 13.1397 76.6945 13.541V18.084H75.1965V13.541C75.1965 13.0603 75.0845 12.687 74.8605 12.421C74.6412 12.155 74.3052 12.022 73.8525 12.022C73.5165 12.022 73.2038 12.099 72.9145 12.253C72.6298 12.407 72.3615 12.617 72.1095 12.883V18.084H70.6045V10.944H71.5145C71.7198 10.944 71.8505 11.0397 71.9065 11.231L72.0115 11.889ZM86.9855 12.344C86.9388 12.4047 86.8945 12.4513 86.8525 12.484C86.8105 12.5167 86.7498 12.533 86.6705 12.533C86.5912 12.533 86.5072 12.505 86.4185 12.449C86.3345 12.393 86.2318 12.3323 86.1105 12.267C85.9938 12.197 85.8515 12.134 85.6835 12.078C85.5155 12.022 85.3055 11.994 85.0535 11.994C84.7268 11.994 84.4398 12.0523 84.1925 12.169C83.9498 12.2857 83.7445 12.4537 83.5765 12.673C83.4132 12.8877 83.2895 13.1513 83.2055 13.464C83.1262 13.772 83.0865 14.1197 83.0865 14.507C83.0865 14.9083 83.1308 15.2653 83.2195 15.578C83.3082 15.8907 83.4342 16.1543 83.5975 16.369C83.7655 16.5837 83.9662 16.747 84.1995 16.859C84.4375 16.971 84.7035 17.027 84.9975 17.027C85.2868 17.027 85.5225 16.992 85.7045 16.922C85.8865 16.852 86.0382 16.775 86.1595 16.691C86.2808 16.607 86.3835 16.53 86.4675 16.46C86.5562 16.39 86.6495 16.355 86.7475 16.355C86.8688 16.355 86.9622 16.4017 87.0275 16.495L87.4545 17.048C87.2818 17.258 87.0905 17.4353 86.8805 17.58C86.6705 17.7247 86.4488 17.8437 86.2155 17.937C85.9822 18.0257 85.7395 18.0887 85.4875 18.126C85.2355 18.168 84.9812 18.189 84.7245 18.189C84.2812 18.189 83.8658 18.1073 83.4785 17.944C83.0958 17.776 82.7598 17.5357 82.4705 17.223C82.1858 16.9057 81.9595 16.5207 81.7915 16.068C81.6282 15.6107 81.5465 15.0903 81.5465 14.507C81.5465 13.9797 81.6212 13.492 81.7705 13.044C81.9198 12.5913 82.1368 12.2017 82.4215 11.875C82.7108 11.5483 83.0678 11.294 83.4925 11.112C83.9172 10.9253 84.4072 10.832 84.9625 10.832C85.4805 10.832 85.9355 10.916 86.3275 11.084C86.7242 11.252 87.0765 11.49 87.3845 11.798L86.9855 12.344ZM90.198 7.72398V18.084H88.693V7.72398H90.198ZM95.8707 14.962C95.334 14.9807 94.8813 15.025 94.5127 15.095C94.144 15.1603 93.8453 15.2467 93.6167 15.354C93.388 15.4567 93.2223 15.5803 93.1197 15.725C93.0217 15.8697 92.9727 16.0283 92.9727 16.201C92.9727 16.369 92.9983 16.5137 93.0497 16.635C93.1057 16.7517 93.1803 16.8497 93.2737 16.929C93.3717 17.0037 93.4837 17.0597 93.6097 17.097C93.7403 17.1297 93.8827 17.146 94.0367 17.146C94.4287 17.146 94.7647 17.0737 95.0447 16.929C95.3293 16.7797 95.6047 16.565 95.8707 16.285V14.962ZM91.8807 11.938C92.688 11.1867 93.6493 10.811 94.7647 10.811C95.1753 10.811 95.5393 10.8787 95.8567 11.014C96.1787 11.1447 96.447 11.3313 96.6617 11.574C96.881 11.8167 97.0467 12.106 97.1587 12.442C97.2753 12.7733 97.3337 13.142 97.3337 13.548V18.084H96.6617C96.517 18.084 96.4073 18.063 96.3327 18.021C96.258 17.9743 96.195 17.8833 96.1437 17.748L95.9967 17.167C95.8147 17.3303 95.635 17.4773 95.4577 17.608C95.2803 17.734 95.096 17.8413 94.9047 17.93C94.718 18.0187 94.515 18.084 94.2957 18.126C94.081 18.1727 93.843 18.196 93.5817 18.196C93.2923 18.196 93.0217 18.1563 92.7697 18.077C92.5223 17.9977 92.3077 17.8787 92.1257 17.72C91.9437 17.5567 91.799 17.356 91.6917 17.118C91.589 16.88 91.5377 16.6 91.5377 16.278C91.5377 16.0027 91.61 15.7343 91.7547 15.473C91.904 15.2117 92.1467 14.9783 92.4827 14.773C92.8233 14.563 93.269 14.3903 93.8197 14.255C94.375 14.1197 95.0587 14.0427 95.8707 14.024V13.548C95.8707 13.0347 95.761 12.652 95.5417 12.4C95.3223 12.148 95.0003 12.022 94.5757 12.022C94.2863 12.022 94.0437 12.0593 93.8477 12.134C93.6517 12.204 93.4813 12.281 93.3367 12.365C93.192 12.449 93.0637 12.5283 92.9517 12.603C92.8397 12.673 92.7207 12.708 92.5947 12.708C92.492 12.708 92.4033 12.6823 92.3287 12.631C92.2587 12.575 92.2003 12.5073 92.1537 12.428L91.8807 11.938ZM103.36 12.239C103.322 12.3043 103.28 12.351 103.234 12.379C103.187 12.407 103.129 12.421 103.059 12.421C102.979 12.421 102.893 12.3977 102.8 12.351C102.706 12.2997 102.597 12.2437 102.471 12.183C102.345 12.1223 102.195 12.0687 102.023 12.022C101.855 11.9707 101.656 11.945 101.428 11.945C101.241 11.945 101.071 11.9683 100.917 12.015C100.767 12.057 100.639 12.12 100.532 12.204C100.429 12.2833 100.35 12.379 100.294 12.491C100.238 12.5983 100.21 12.715 100.21 12.841C100.21 13.009 100.261 13.149 100.364 13.261C100.466 13.373 100.602 13.471 100.77 13.555C100.938 13.6343 101.129 13.7067 101.344 13.772C101.558 13.8373 101.778 13.9073 102.002 13.982C102.226 14.0567 102.445 14.143 102.66 14.241C102.874 14.339 103.066 14.4603 103.234 14.605C103.402 14.745 103.537 14.9177 103.64 15.123C103.742 15.3237 103.794 15.5687 103.794 15.858C103.794 16.194 103.733 16.5043 103.612 16.789C103.49 17.0737 103.313 17.321 103.08 17.531C102.846 17.741 102.555 17.9043 102.205 18.021C101.859 18.1377 101.463 18.196 101.015 18.196C100.767 18.196 100.527 18.1727 100.294 18.126C100.065 18.084 99.8457 18.0257 99.6357 17.951C99.4304 17.8717 99.2367 17.7783 99.0547 17.671C98.8774 17.5637 98.7187 17.447 98.5787 17.321L98.9287 16.747C98.9707 16.677 99.022 16.6233 99.0827 16.586C99.148 16.544 99.2274 16.523 99.3207 16.523C99.4187 16.523 99.5144 16.5557 99.6077 16.621C99.7057 16.6817 99.8177 16.7493 99.9437 16.824C100.074 16.8987 100.231 16.9687 100.413 17.034C100.595 17.0947 100.821 17.125 101.092 17.125C101.316 17.125 101.509 17.0993 101.673 17.048C101.836 16.992 101.971 16.9173 102.079 16.824C102.186 16.7307 102.265 16.6257 102.317 16.509C102.368 16.3877 102.394 16.2593 102.394 16.124C102.394 15.942 102.342 15.7927 102.24 15.676C102.137 15.5593 101.999 15.459 101.827 15.375C101.659 15.291 101.465 15.2163 101.246 15.151C101.031 15.0857 100.812 15.0157 100.588 14.941C100.364 14.8663 100.142 14.78 99.9227 14.682C99.708 14.584 99.5144 14.4603 99.3417 14.311C99.1737 14.157 99.0384 13.9727 98.9357 13.758C98.833 13.5387 98.7817 13.2727 98.7817 12.96C98.7817 12.6753 98.8377 12.4047 98.9497 12.148C99.0664 11.8913 99.2344 11.665 99.4537 11.469C99.6777 11.273 99.9507 11.119 100.273 11.007C100.599 10.8903 100.975 10.832 101.4 10.832C101.88 10.832 102.317 10.909 102.709 11.063C103.101 11.217 103.43 11.427 103.696 11.693L103.36 12.239ZM109.471 12.239C109.434 12.3043 109.392 12.351 109.345 12.379C109.298 12.407 109.24 12.421 109.17 12.421C109.091 12.421 109.004 12.3977 108.911 12.351C108.818 12.2997 108.708 12.2437 108.582 12.183C108.456 12.1223 108.307 12.0687 108.134 12.022C107.966 11.9707 107.768 11.945 107.539 11.945C107.352 11.945 107.182 11.9683 107.028 12.015C106.879 12.057 106.75 12.12 106.643 12.204C106.54 12.2833 106.461 12.379 106.405 12.491C106.349 12.5983 106.321 12.715 106.321 12.841C106.321 13.009 106.372 13.149 106.475 13.261C106.578 13.373 106.713 13.471 106.881 13.555C107.049 13.6343 107.24 13.7067 107.455 13.772C107.67 13.8373 107.889 13.9073 108.113 13.982C108.337 14.0567 108.556 14.143 108.771 14.241C108.986 14.339 109.177 14.4603 109.345 14.605C109.513 14.745 109.648 14.9177 109.751 15.123C109.854 15.3237 109.905 15.5687 109.905 15.858C109.905 16.194 109.844 16.5043 109.723 16.789C109.602 17.0737 109.424 17.321 109.191 17.531C108.958 17.741 108.666 17.9043 108.316 18.021C107.971 18.1377 107.574 18.196 107.126 18.196C106.879 18.196 106.638 18.1727 106.405 18.126C106.176 18.084 105.957 18.0257 105.747 17.951C105.542 17.8717 105.348 17.7783 105.166 17.671C104.989 17.5637 104.83 17.447 104.69 17.321L105.04 16.747C105.082 16.677 105.133 16.6233 105.194 16.586C105.259 16.544 105.339 16.523 105.432 16.523C105.53 16.523 105.626 16.5557 105.719 16.621C105.817 16.6817 105.929 16.7493 106.055 16.824C106.186 16.8987 106.342 16.9687 106.524 17.034C106.706 17.0947 106.932 17.125 107.203 17.125C107.427 17.125 107.621 17.0993 107.784 17.048C107.947 16.992 108.083 16.9173 108.19 16.824C108.297 16.7307 108.377 16.6257 108.428 16.509C108.479 16.3877 108.505 16.2593 108.505 16.124C108.505 15.942 108.454 15.7927 108.351 15.676C108.248 15.5593 108.111 15.459 107.938 15.375C107.77 15.291 107.576 15.2163 107.357 15.151C107.142 15.0857 106.923 15.0157 106.699 14.941C106.475 14.8663 106.253 14.78 106.034 14.682C105.819 14.584 105.626 14.4603 105.453 14.311C105.285 14.157 105.15 13.9727 105.047 13.758C104.944 13.5387 104.893 13.2727 104.893 12.96C104.893 12.6753 104.949 12.4047 105.061 12.148C105.178 11.8913 105.346 11.665 105.565 11.469C105.789 11.273 106.062 11.119 106.384 11.007C106.711 10.8903 107.086 10.832 107.511 10.832C107.992 10.832 108.428 10.909 108.82 11.063C109.212 11.217 109.541 11.427 109.807 11.693L109.471 12.239ZM119.363 12.701C119.153 12.435 118.922 12.2483 118.67 12.141C118.418 12.029 118.145 11.973 117.851 11.973C117.263 11.973 116.803 12.19 116.472 12.624C116.14 13.0533 115.975 13.6903 115.975 14.535C115.975 14.9737 116.012 15.3493 116.087 15.662C116.161 15.97 116.269 16.222 116.409 16.418C116.549 16.614 116.719 16.7563 116.92 16.845C117.12 16.9337 117.347 16.978 117.599 16.978C117.981 16.978 118.31 16.8963 118.586 16.733C118.866 16.565 119.125 16.3293 119.363 16.026V12.701ZM120.868 10.944V20.457H119.363V17.111C119.069 17.433 118.737 17.6943 118.369 17.895C118.005 18.091 117.58 18.189 117.095 18.189C116.693 18.189 116.329 18.1097 116.003 17.951C115.676 17.7877 115.396 17.552 115.163 17.244C114.929 16.936 114.747 16.5557 114.617 16.103C114.491 15.6457 114.428 15.123 114.428 14.535C114.428 14.003 114.498 13.5107 114.638 13.058C114.782 12.6053 114.988 12.2133 115.254 11.882C115.52 11.546 115.842 11.2847 116.22 11.098C116.602 10.9067 117.029 10.811 117.501 10.811C117.729 10.811 117.937 10.832 118.124 10.874C118.315 10.9113 118.49 10.9697 118.649 11.049C118.812 11.1237 118.961 11.217 119.097 11.329C119.232 11.4363 119.36 11.56 119.482 11.7L119.573 11.231C119.629 11.0397 119.757 10.944 119.958 10.944H120.868ZM128.728 10.944V18.084H127.818C127.617 18.084 127.489 17.9883 127.433 17.797L127.321 17.132C127.172 17.2907 127.013 17.4353 126.845 17.566C126.682 17.6967 126.507 17.8087 126.32 17.902C126.133 17.9953 125.933 18.0677 125.718 18.119C125.508 18.1703 125.282 18.196 125.039 18.196C124.647 18.196 124.302 18.1307 124.003 18C123.704 17.8693 123.452 17.685 123.247 17.447C123.046 17.209 122.895 16.9243 122.792 16.593C122.689 16.257 122.638 15.8883 122.638 15.487V10.944H124.143V15.487C124.143 15.9677 124.253 16.341 124.472 16.607C124.696 16.873 125.034 17.006 125.487 17.006C125.818 17.006 126.126 16.9313 126.411 16.782C126.7 16.628 126.971 16.418 127.223 16.152V10.944H128.728ZM134.371 14.962C133.834 14.9807 133.381 15.025 133.013 15.095C132.644 15.1603 132.345 15.2467 132.117 15.354C131.888 15.4567 131.722 15.5803 131.62 15.725C131.522 15.8697 131.473 16.0283 131.473 16.201C131.473 16.369 131.498 16.5137 131.55 16.635C131.606 16.7517 131.68 16.8497 131.774 16.929C131.872 17.0037 131.984 17.0597 132.11 17.097C132.24 17.1297 132.383 17.146 132.537 17.146C132.929 17.146 133.265 17.0737 133.545 16.929C133.829 16.7797 134.105 16.565 134.371 16.285V14.962ZM130.381 11.938C131.188 11.1867 132.149 10.811 133.265 10.811C133.675 10.811 134.039 10.8787 134.357 11.014C134.679 11.1447 134.947 11.3313 135.162 11.574C135.381 11.8167 135.547 12.106 135.659 12.442C135.775 12.7733 135.834 13.142 135.834 13.548V18.084H135.162C135.017 18.084 134.907 18.063 134.833 18.021C134.758 17.9743 134.695 17.8833 134.644 17.748L134.497 17.167C134.315 17.3303 134.135 17.4773 133.958 17.608C133.78 17.734 133.596 17.8413 133.405 17.93C133.218 18.0187 133.015 18.084 132.796 18.126C132.581 18.1727 132.343 18.196 132.082 18.196C131.792 18.196 131.522 18.1563 131.27 18.077C131.022 17.9977 130.808 17.8787 130.626 17.72C130.444 17.5567 130.299 17.356 130.192 17.118C130.089 16.88 130.038 16.6 130.038 16.278C130.038 16.0027 130.11 15.7343 130.255 15.473C130.404 15.2117 130.647 14.9783 130.983 14.773C131.323 14.563 131.769 14.3903 132.32 14.255C132.875 14.1197 133.559 14.0427 134.371 14.024V13.548C134.371 13.0347 134.261 12.652 134.042 12.4C133.822 12.148 133.5 12.022 133.076 12.022C132.786 12.022 132.544 12.0593 132.348 12.134C132.152 12.204 131.981 12.281 131.837 12.365C131.692 12.449 131.564 12.5283 131.452 12.603C131.34 12.673 131.221 12.708 131.095 12.708C130.992 12.708 130.903 12.6823 130.829 12.631C130.759 12.575 130.7 12.5073 130.654 12.428L130.381 11.938ZM139.13 7.72398V18.084H137.625V7.72398H139.13ZM142.555 10.944V18.084H141.05V10.944H142.555ZM142.807 8.78798C142.807 8.92332 142.779 9.05165 142.723 9.17298C142.672 9.29432 142.6 9.40165 142.506 9.49498C142.413 9.58365 142.303 9.65598 142.177 9.71198C142.056 9.76332 141.925 9.78898 141.785 9.78898C141.65 9.78898 141.522 9.76332 141.4 9.71198C141.284 9.65598 141.181 9.58365 141.092 9.49498C141.004 9.40165 140.931 9.29432 140.875 9.17298C140.824 9.05165 140.798 8.92332 140.798 8.78798C140.798 8.64798 140.824 8.51732 140.875 8.39598C140.931 8.27465 141.004 8.16965 141.092 8.08098C141.181 7.98765 141.284 7.91532 141.4 7.86398C141.522 7.80798 141.65 7.77998 141.785 7.77998C141.925 7.77998 142.056 7.80798 142.177 7.86398C142.303 7.91532 142.413 7.98765 142.506 8.08098C142.6 8.16965 142.672 8.27465 142.723 8.39598C142.779 8.51732 142.807 8.64798 142.807 8.78798ZM146.735 18.196C146.143 18.196 145.685 18.0303 145.363 17.699C145.046 17.363 144.887 16.8917 144.887 16.285V12.127H144.103C144.019 12.127 143.947 12.1013 143.886 12.05C143.826 11.994 143.795 11.9123 143.795 11.805V11.196L144.95 11.028L145.279 8.96298C145.303 8.88365 145.342 8.82065 145.398 8.77398C145.454 8.72265 145.529 8.69698 145.622 8.69698H146.392V11.042H148.373V12.127H146.392V16.18C146.392 16.4367 146.455 16.6327 146.581 16.768C146.707 16.9033 146.875 16.971 147.085 16.971C147.202 16.971 147.302 16.957 147.386 16.929C147.47 16.8963 147.543 16.8637 147.603 16.831C147.664 16.7937 147.715 16.761 147.757 16.733C147.804 16.7003 147.848 16.684 147.89 16.684C147.974 16.684 148.042 16.7307 148.093 16.824L148.541 17.559C148.308 17.7643 148.033 17.923 147.715 18.035C147.398 18.1423 147.071 18.196 146.735 18.196ZM155.895 10.944L151.961 20.114C151.909 20.2213 151.846 20.3053 151.772 20.366C151.702 20.4267 151.592 20.457 151.443 20.457H150.33L151.646 17.601L148.734 10.944H150.043C150.169 10.944 150.264 10.9743 150.33 11.035C150.4 11.091 150.451 11.1587 150.484 11.238L152.185 15.291C152.227 15.4077 152.264 15.5243 152.297 15.641C152.334 15.753 152.369 15.8697 152.402 15.991C152.439 15.8697 152.476 15.7507 152.514 15.634C152.551 15.5173 152.593 15.4007 152.64 15.284L154.271 11.238C154.303 11.154 154.357 11.084 154.432 11.028C154.511 10.972 154.597 10.944 154.691 10.944H155.895Z" fill="black"/>
<g clip-path="url(#clip1_1484_19462)">
<path d="M207.5 25.0836C205.822 25.0836 204.239 24.3888 203.107 23.1877C201.464 23.2325 199.848 22.6096 198.66 21.4231C197.474 20.2356 196.847 18.6252 196.895 16.9763C195.695 15.845 195 14.2627 195 12.5836C195 10.9044 195.695 9.32314 196.895 8.19085C196.847 6.54189 197.474 4.93148 198.66 3.74398C199.849 2.55648 201.458 1.91898 203.107 1.97835C204.239 0.777311 205.821 0.0825195 207.5 0.0825195C209.179 0.0825195 210.761 0.777311 211.893 1.97835C213.529 1.91898 215.151 2.55648 216.34 3.74294C217.526 4.93044 218.153 6.54085 218.105 8.18981C219.305 9.32106 220 10.9034 220 12.5825C220 14.2617 219.305 15.8429 218.105 16.9752C218.153 18.6242 217.526 20.2346 216.34 21.4221C215.151 22.6096 213.531 23.2325 211.893 23.1877C210.761 24.3888 209.179 25.0836 207.5 25.0836ZM204.505 19.8138L205.084 20.6721C205.627 21.4773 206.531 21.9586 207.5 21.9586C208.469 21.9586 209.373 21.4773 209.916 20.6721L210.495 19.8138L211.51 20.0117C212.469 20.1971 213.445 19.8992 214.13 19.2127C214.815 18.5273 215.114 17.5481 214.929 16.5929L214.733 15.5784L215.59 15.0002C216.395 14.4575 216.876 13.5534 216.876 12.5836C216.876 11.6138 216.395 10.7106 215.59 10.1669L214.733 9.58877L214.929 8.57419C215.115 7.61898 214.816 6.63981 214.13 5.9544C213.445 5.26898 212.469 4.97106 211.51 5.15544L210.495 5.35335L209.916 4.49502C209.373 3.68981 208.469 3.20856 207.5 3.20856C206.531 3.20856 205.627 3.68981 205.084 4.49502L204.505 5.35335L203.49 5.15544C202.532 4.97002 201.556 5.26898 200.87 5.9544C200.185 6.63981 199.886 7.61898 200.071 8.57419L200.267 9.58877L199.41 10.1669C198.605 10.7096 198.124 11.6138 198.124 12.5836C198.124 13.5534 198.605 14.4565 199.41 15.0002L200.267 15.5784L200.071 16.5929C199.885 17.5481 200.184 18.5273 200.87 19.2127C201.556 19.8981 202.532 20.1971 203.49 20.0117L204.505 19.8138ZM205.941 16.7502C205.273 16.7502 204.605 16.4961 204.096 15.9877L201.204 13.1856L203.379 10.9419L205.934 13.419L211.092 8.34606L213.283 10.5742L207.77 15.9981C207.269 16.5002 206.605 16.7523 205.941 16.7523V16.7502Z" fill="#FBBA18"/>
</g>
<path d="M239.825 13.121V17.111C238.822 17.8343 237.655 18.196 236.325 18.196C235.508 18.196 234.769 18.07 234.106 17.818C233.448 17.5613 232.886 17.2067 232.419 16.754C231.952 16.2967 231.593 15.753 231.341 15.123C231.089 14.493 230.963 13.8 230.963 13.044C230.963 12.2833 231.084 11.588 231.327 10.958C231.57 10.3233 231.917 9.77965 232.37 9.32698C232.823 8.86965 233.369 8.51732 234.008 8.26998C234.647 8.01798 235.366 7.89198 236.164 7.89198C236.57 7.89198 236.946 7.92465 237.291 7.98998C237.641 8.05065 237.965 8.13698 238.264 8.24898C238.563 8.36098 238.838 8.49632 239.09 8.65498C239.342 8.81365 239.573 8.99098 239.783 9.18698L239.314 9.93598C239.239 10.0527 239.144 10.125 239.027 10.153C238.91 10.181 238.784 10.153 238.649 10.069C238.514 9.98965 238.369 9.90565 238.215 9.81698C238.066 9.72832 237.893 9.64665 237.697 9.57198C237.501 9.49265 237.275 9.42965 237.018 9.38298C236.761 9.33165 236.458 9.30598 236.108 9.30598C235.576 9.30598 235.095 9.39465 234.666 9.57198C234.241 9.74465 233.877 9.99432 233.574 10.321C233.271 10.643 233.037 11.035 232.874 11.497C232.711 11.959 232.629 12.4747 232.629 13.044C232.629 13.646 232.715 14.185 232.888 14.661C233.061 15.1323 233.306 15.5337 233.623 15.865C233.94 16.1917 234.323 16.4413 234.771 16.614C235.224 16.7867 235.728 16.873 236.283 16.873C236.698 16.873 237.067 16.8287 237.389 16.74C237.716 16.6513 238.035 16.5277 238.348 16.369V14.367H236.941C236.834 14.367 236.75 14.339 236.689 14.283C236.628 14.2223 236.598 14.1453 236.598 14.052V13.121H239.825ZM246.079 13.709C246.079 13.457 246.041 13.2237 245.967 13.009C245.897 12.7897 245.792 12.6007 245.652 12.442C245.512 12.2787 245.337 12.1527 245.127 12.064C244.921 11.9707 244.683 11.924 244.413 11.924C243.867 11.924 243.437 12.0803 243.125 12.393C242.812 12.7057 242.614 13.1443 242.53 13.709H246.079ZM242.488 14.633C242.506 15.039 242.569 15.3913 242.677 15.69C242.784 15.984 242.926 16.229 243.104 16.425C243.286 16.621 243.5 16.768 243.748 16.866C244 16.9593 244.28 17.006 244.588 17.006C244.882 17.006 245.136 16.9733 245.351 16.908C245.565 16.838 245.752 16.7633 245.911 16.684C246.069 16.6 246.205 16.5253 246.317 16.46C246.429 16.39 246.531 16.355 246.625 16.355C246.746 16.355 246.839 16.4017 246.905 16.495L247.332 17.048C247.154 17.258 246.954 17.4353 246.73 17.58C246.506 17.7247 246.268 17.8437 246.016 17.937C245.764 18.0257 245.505 18.0887 245.239 18.126C244.973 18.168 244.714 18.189 244.462 18.189C243.967 18.189 243.507 18.1073 243.083 17.944C242.663 17.776 242.296 17.531 241.984 17.209C241.676 16.887 241.433 16.488 241.256 16.012C241.083 15.536 240.997 14.9877 240.997 14.367C240.997 13.8723 241.074 13.4103 241.228 12.981C241.386 12.5517 241.61 12.1783 241.9 11.861C242.194 11.5437 242.548 11.294 242.964 11.112C243.384 10.9253 243.857 10.832 244.385 10.832C244.823 10.832 245.229 10.9043 245.603 11.049C245.976 11.189 246.298 11.3967 246.569 11.672C246.839 11.9473 247.049 12.2857 247.199 12.687C247.353 13.0837 247.43 13.5363 247.43 14.045C247.43 14.2783 247.404 14.4347 247.353 14.514C247.301 14.5933 247.208 14.633 247.073 14.633H242.488ZM251.054 18.196C250.461 18.196 250.004 18.0303 249.682 17.699C249.364 17.363 249.206 16.8917 249.206 16.285V12.127H248.422C248.338 12.127 248.265 12.1013 248.205 12.05C248.144 11.994 248.114 11.9123 248.114 11.805V11.196L249.269 11.028L249.598 8.96298C249.621 8.88365 249.661 8.82065 249.717 8.77398C249.773 8.72265 249.847 8.69698 249.941 8.69698H250.711V11.042H252.692V12.127H250.711V16.18C250.711 16.4367 250.774 16.6327 250.9 16.768C251.026 16.9033 251.194 16.971 251.404 16.971C251.52 16.971 251.621 16.957 251.705 16.929C251.789 16.8963 251.861 16.8637 251.922 16.831C251.982 16.7937 252.034 16.761 252.076 16.733C252.122 16.7003 252.167 16.684 252.209 16.684C252.293 16.684 252.36 16.7307 252.412 16.824L252.86 17.559C252.626 17.7643 252.351 17.923 252.034 18.035C251.716 18.1423 251.39 18.196 251.054 18.196ZM262.047 13.709C262.047 13.457 262.01 13.2237 261.935 13.009C261.865 12.7897 261.76 12.6007 261.62 12.442C261.48 12.2787 261.305 12.1527 261.095 12.064C260.89 11.9707 260.652 11.924 260.381 11.924C259.835 11.924 259.406 12.0803 259.093 12.393C258.781 12.7057 258.582 13.1443 258.498 13.709H262.047ZM258.456 14.633C258.475 15.039 258.538 15.3913 258.645 15.69C258.753 15.984 258.895 16.229 259.072 16.425C259.254 16.621 259.469 16.768 259.716 16.866C259.968 16.9593 260.248 17.006 260.556 17.006C260.85 17.006 261.105 16.9733 261.319 16.908C261.534 16.838 261.721 16.7633 261.879 16.684C262.038 16.6 262.173 16.5253 262.285 16.46C262.397 16.39 262.5 16.355 262.593 16.355C262.715 16.355 262.808 16.4017 262.873 16.495L263.3 17.048C263.123 17.258 262.922 17.4353 262.698 17.58C262.474 17.7247 262.236 17.8437 261.984 17.937C261.732 18.0257 261.473 18.0887 261.207 18.126C260.941 18.168 260.682 18.189 260.43 18.189C259.936 18.189 259.476 18.1073 259.051 17.944C258.631 17.776 258.265 17.531 257.952 17.209C257.644 16.887 257.402 16.488 257.224 16.012C257.052 15.536 256.965 14.9877 256.965 14.367C256.965 13.8723 257.042 13.4103 257.196 12.981C257.355 12.5517 257.579 12.1783 257.868 11.861C258.162 11.5437 258.517 11.294 258.932 11.112C259.352 10.9253 259.826 10.832 260.353 10.832C260.792 10.832 261.198 10.9043 261.571 11.049C261.945 11.189 262.267 11.3967 262.537 11.672C262.808 11.9473 263.018 12.2857 263.167 12.687C263.321 13.0837 263.398 13.5363 263.398 14.045C263.398 14.2783 263.373 14.4347 263.321 14.514C263.27 14.5933 263.177 14.633 263.041 14.633H258.456ZM270.838 18.084H269.396C269.279 18.084 269.186 18.0537 269.116 17.993C269.051 17.9323 268.997 17.8647 268.955 17.79L267.31 15.151C267.268 15.3097 267.212 15.4473 267.142 15.564L265.651 17.79C265.6 17.8647 265.541 17.9323 265.476 17.993C265.415 18.0537 265.334 18.084 265.231 18.084H263.887L266.358 14.402L263.985 10.944H265.427C265.544 10.944 265.628 10.9627 265.679 11C265.735 11.0327 265.784 11.084 265.826 11.154L267.443 13.674C267.485 13.52 267.55 13.373 267.639 13.233L269.004 11.182C269.097 11.0233 269.216 10.944 269.361 10.944H270.74L268.367 14.339L270.838 18.084ZM273.361 16.292C273.571 16.5627 273.8 16.754 274.047 16.866C274.299 16.9733 274.577 17.027 274.88 17.027C275.468 17.027 275.926 16.8123 276.252 16.383C276.584 15.9537 276.749 15.3143 276.749 14.465C276.749 14.0263 276.712 13.653 276.637 13.345C276.563 13.0323 276.455 12.778 276.315 12.582C276.175 12.386 276.005 12.2437 275.804 12.155C275.604 12.0663 275.377 12.022 275.125 12.022C274.743 12.022 274.411 12.106 274.131 12.274C273.856 12.4373 273.599 12.673 273.361 12.981V16.292ZM273.284 11.98C273.583 11.63 273.921 11.3477 274.299 11.133C274.682 10.9183 275.125 10.811 275.629 10.811C276.031 10.811 276.395 10.8927 276.721 11.056C277.048 11.2147 277.328 11.448 277.561 11.756C277.795 12.064 277.974 12.4467 278.1 12.904C278.231 13.3567 278.296 13.877 278.296 14.465C278.296 14.9923 278.224 15.4847 278.079 15.942C277.939 16.3947 277.736 16.789 277.47 17.125C277.204 17.4563 276.882 17.7177 276.504 17.909C276.126 18.0957 275.699 18.189 275.223 18.189C274.803 18.189 274.446 18.1213 274.152 17.986C273.863 17.8507 273.599 17.664 273.361 17.426V20.457H271.856V10.944H272.766C272.972 10.944 273.102 11.0397 273.158 11.231L273.284 11.98ZM284.442 13.709C284.442 13.457 284.404 13.2237 284.33 13.009C284.26 12.7897 284.155 12.6007 284.015 12.442C283.875 12.2787 283.7 12.1527 283.49 12.064C283.284 11.9707 283.046 11.924 282.776 11.924C282.23 11.924 281.8 12.0803 281.488 12.393C281.175 12.7057 280.977 13.1443 280.893 13.709H284.442ZM280.851 14.633C280.869 15.039 280.932 15.3913 281.04 15.69C281.147 15.984 281.289 16.229 281.467 16.425C281.649 16.621 281.863 16.768 282.111 16.866C282.363 16.9593 282.643 17.006 282.951 17.006C283.245 17.006 283.499 16.9733 283.714 16.908C283.928 16.838 284.115 16.7633 284.274 16.684C284.432 16.6 284.568 16.5253 284.68 16.46C284.792 16.39 284.894 16.355 284.988 16.355C285.109 16.355 285.202 16.4017 285.268 16.495L285.695 17.048C285.517 17.258 285.317 17.4353 285.093 17.58C284.869 17.7247 284.631 17.8437 284.379 17.937C284.127 18.0257 283.868 18.0887 283.602 18.126C283.336 18.168 283.077 18.189 282.825 18.189C282.33 18.189 281.87 18.1073 281.446 17.944C281.026 17.776 280.659 17.531 280.347 17.209C280.039 16.887 279.796 16.488 279.619 16.012C279.446 15.536 279.36 14.9877 279.36 14.367C279.36 13.8723 279.437 13.4103 279.591 12.981C279.749 12.5517 279.973 12.1783 280.263 11.861C280.557 11.5437 280.911 11.294 281.327 11.112C281.747 10.9253 282.22 10.832 282.748 10.832C283.186 10.832 283.592 10.9043 283.966 11.049C284.339 11.189 284.661 11.3967 284.932 11.672C285.202 11.9473 285.412 12.2857 285.562 12.687C285.716 13.0837 285.793 13.5363 285.793 14.045C285.793 14.2783 285.767 14.4347 285.716 14.514C285.664 14.5933 285.571 14.633 285.436 14.633H280.851ZM288.617 12.267C288.841 11.8143 289.112 11.4597 289.429 11.203C289.747 10.9417 290.127 10.811 290.57 10.811C290.724 10.811 290.869 10.8297 291.004 10.867C291.14 10.8997 291.261 10.951 291.368 11.021L291.263 12.155C291.245 12.2343 291.214 12.2903 291.172 12.323C291.135 12.351 291.084 12.365 291.018 12.365C290.948 12.365 290.848 12.3533 290.717 12.33C290.587 12.302 290.449 12.288 290.304 12.288C290.094 12.288 289.908 12.3183 289.744 12.379C289.586 12.4397 289.441 12.5283 289.31 12.645C289.184 12.7617 289.072 12.904 288.974 13.072C288.876 13.24 288.785 13.4313 288.701 13.646V18.084H287.196V10.944H288.071C288.23 10.944 288.34 10.9743 288.4 11.035C288.461 11.091 288.503 11.1913 288.526 11.336L288.617 12.267ZM294.653 18.196C294.061 18.196 293.603 18.0303 293.281 17.699C292.964 17.363 292.805 16.8917 292.805 16.285V12.127H292.021C291.937 12.127 291.865 12.1013 291.804 12.05C291.744 11.994 291.713 11.9123 291.713 11.805V11.196L292.868 11.028L293.197 8.96298C293.221 8.88365 293.26 8.82065 293.316 8.77398C293.372 8.72265 293.447 8.69698 293.54 8.69698H294.31V11.042H296.291V12.127H294.31V16.18C294.31 16.4367 294.373 16.6327 294.499 16.768C294.625 16.9033 294.793 16.971 295.003 16.971C295.12 16.971 295.22 16.957 295.304 16.929C295.388 16.8963 295.461 16.8637 295.521 16.831C295.582 16.7937 295.633 16.761 295.675 16.733C295.722 16.7003 295.766 16.684 295.808 16.684C295.892 16.684 295.96 16.7307 296.011 16.824L296.459 17.559C296.226 17.7643 295.951 17.923 295.633 18.035C295.316 18.1423 294.989 18.196 294.653 18.196ZM302.469 11.791C302.763 11.5017 303.085 11.2707 303.435 11.098C303.785 10.9207 304.193 10.832 304.66 10.832C305.052 10.832 305.395 10.8973 305.689 11.028C305.988 11.1587 306.237 11.343 306.438 11.581C306.643 11.819 306.797 12.106 306.9 12.442C307.003 12.7733 307.054 13.1397 307.054 13.541V18.084H305.556V13.541C305.556 13.0603 305.444 12.687 305.22 12.421C305.001 12.155 304.665 12.022 304.212 12.022C303.876 12.022 303.563 12.099 303.274 12.253C302.989 12.407 302.721 12.617 302.469 12.883V18.084H300.964V7.72398H302.469V11.791ZM313.495 13.709C313.495 13.457 313.457 13.2237 313.383 13.009C313.313 12.7897 313.208 12.6007 313.068 12.442C312.928 12.2787 312.753 12.1527 312.543 12.064C312.337 11.9707 312.099 11.924 311.829 11.924C311.283 11.924 310.853 12.0803 310.541 12.393C310.228 12.7057 310.03 13.1443 309.946 13.709H313.495ZM309.904 14.633C309.922 15.039 309.985 15.3913 310.093 15.69C310.2 15.984 310.342 16.229 310.52 16.425C310.702 16.621 310.916 16.768 311.164 16.866C311.416 16.9593 311.696 17.006 312.004 17.006C312.298 17.006 312.552 16.9733 312.767 16.908C312.981 16.838 313.168 16.7633 313.327 16.684C313.485 16.6 313.621 16.5253 313.733 16.46C313.845 16.39 313.947 16.355 314.041 16.355C314.162 16.355 314.255 16.4017 314.321 16.495L314.748 17.048C314.57 17.258 314.37 17.4353 314.146 17.58C313.922 17.7247 313.684 17.8437 313.432 17.937C313.18 18.0257 312.921 18.0887 312.655 18.126C312.389 18.168 312.13 18.189 311.878 18.189C311.383 18.189 310.923 18.1073 310.499 17.944C310.079 17.776 309.712 17.531 309.4 17.209C309.092 16.887 308.849 16.488 308.672 16.012C308.499 15.536 308.413 14.9877 308.413 14.367C308.413 13.8723 308.49 13.4103 308.644 12.981C308.802 12.5517 309.026 12.1783 309.316 11.861C309.61 11.5437 309.964 11.294 310.38 11.112C310.8 10.9253 311.273 10.832 311.801 10.832C312.239 10.832 312.645 10.9043 313.019 11.049C313.392 11.189 313.714 11.3967 313.985 11.672C314.255 11.9473 314.465 12.2857 314.615 12.687C314.769 13.0837 314.846 13.5363 314.846 14.045C314.846 14.2783 314.82 14.4347 314.769 14.514C314.717 14.5933 314.624 14.633 314.489 14.633H309.904ZM317.782 7.72398V18.084H316.277V7.72398H317.782ZM321.145 16.292C321.355 16.5627 321.583 16.754 321.831 16.866C322.083 16.9733 322.36 17.027 322.664 17.027C323.252 17.027 323.709 16.8123 324.036 16.383C324.367 15.9537 324.533 15.3143 324.533 14.465C324.533 14.0263 324.495 13.653 324.421 13.345C324.346 13.0323 324.239 12.778 324.099 12.582C323.959 12.386 323.788 12.2437 323.588 12.155C323.387 12.0663 323.161 12.022 322.909 12.022C322.526 12.022 322.195 12.106 321.915 12.274C321.639 12.4373 321.383 12.673 321.145 12.981V16.292ZM321.068 11.98C321.366 11.63 321.705 11.3477 322.083 11.133C322.465 10.9183 322.909 10.811 323.413 10.811C323.814 10.811 324.178 10.8927 324.505 11.056C324.831 11.2147 325.111 11.448 325.345 11.756C325.578 12.064 325.758 12.4467 325.884 12.904C326.014 13.3567 326.08 13.877 326.08 14.465C326.08 14.9923 326.007 15.4847 325.863 15.942C325.723 16.3947 325.52 16.789 325.254 17.125C324.988 17.4563 324.666 17.7177 324.288 17.909C323.91 18.0957 323.483 18.189 323.007 18.189C322.587 18.189 322.23 18.1213 321.936 17.986C321.646 17.8507 321.383 17.664 321.145 17.426V20.457H319.64V10.944H320.55C320.755 10.944 320.886 11.0397 320.942 11.231L321.068 11.98Z" fill="black"/>
<g clip-path="url(#clip2_1484_19462)">
<path d="M12.5 60.0841C10.8219 60.0841 9.23854 59.3893 8.10729 58.1882C6.46354 58.233 4.84792 57.6101 3.66042 56.4236C2.47396 55.2361 1.84687 53.6257 1.89479 51.9768C0.694792 50.8455 0 49.2632 0 47.5841C0 45.9049 0.694792 44.3236 1.89479 43.1913C1.84687 41.5424 2.47396 39.932 3.66042 38.7445C4.84896 37.557 6.45833 36.9195 8.10729 36.9788C9.23854 35.7778 10.8208 35.083 12.5 35.083C14.1792 35.083 15.7615 35.7778 16.8927 36.9788C18.5292 36.9195 20.151 37.557 21.3396 38.7434C22.526 39.9309 23.1531 41.5413 23.1052 43.1903C24.3052 44.3216 25 45.9038 25 47.583C25 49.2622 24.3052 50.8434 23.1052 51.9757C23.1531 53.6247 22.526 55.2351 21.3396 56.4226C20.151 57.6101 18.5312 58.233 16.8927 58.1882C15.7615 59.3893 14.1792 60.0841 12.5 60.0841ZM9.50521 54.8143L10.0844 55.6726C10.6271 56.4778 11.5312 56.9591 12.5 56.9591C13.4688 56.9591 14.3729 56.4778 14.9156 55.6726L15.4948 54.8143L16.5104 55.0122C17.4688 55.1976 18.4448 54.8997 19.1302 54.2132C19.8146 53.5278 20.1135 52.5486 19.9292 51.5934L19.7333 50.5788L20.5896 50.0007C21.3948 49.458 21.876 48.5538 21.876 47.5841C21.876 46.6143 21.3948 45.7111 20.5896 45.1674L19.7333 44.5893L19.9292 43.5747C20.1146 42.6195 19.8156 41.6403 19.1302 40.9549C18.4448 40.2695 17.4688 39.9715 16.5104 40.1559L15.4948 40.3538L14.9156 39.4955C14.3729 38.6903 13.4688 38.209 12.5 38.209C11.5312 38.209 10.6271 38.6903 10.0844 39.4955L9.50521 40.3538L8.48958 40.1559C7.53229 39.9705 6.55625 40.2695 5.86979 40.9549C5.18542 41.6403 4.88646 42.6195 5.07083 43.5747L5.26667 44.5893L4.41042 45.1674C3.60521 45.7101 3.12396 46.6143 3.12396 47.5841C3.12396 48.5538 3.60521 49.457 4.41042 50.0007L5.26667 50.5788L5.07083 51.5934C4.88542 52.5486 5.18437 53.5278 5.86979 54.2132C6.55625 54.8986 7.53229 55.1976 8.48958 55.0122L9.50521 54.8143ZM10.9406 51.7507C10.2729 51.7507 9.60521 51.4966 9.09583 50.9882L6.20417 48.1861L8.37917 45.9424L10.9344 48.4195L16.0917 43.3465L18.2833 45.5747L12.7698 50.9986C12.2687 51.5007 11.6052 51.7528 10.9406 51.7528V51.7507Z" fill="#FBBA18"/>
</g>
<path d="M41.6672 44.726C41.6159 44.81 41.5622 44.873 41.5062 44.915C41.4502 44.9523 41.3802 44.971 41.2962 44.971C41.2076 44.971 41.1072 44.9337 40.9952 44.859C40.8879 44.7843 40.7526 44.7027 40.5892 44.614C40.4306 44.5207 40.2416 44.4367 40.0222 44.362C39.8029 44.2827 39.5416 44.243 39.2382 44.243C38.9582 44.243 38.7109 44.278 38.4962 44.348C38.2862 44.418 38.1089 44.516 37.9642 44.642C37.8196 44.768 37.7099 44.9173 37.6352 45.09C37.5652 45.258 37.5302 45.4423 37.5302 45.643C37.5302 45.8997 37.5979 46.1143 37.7332 46.287C37.8686 46.455 38.0459 46.5997 38.2652 46.721C38.4892 46.8423 38.7436 46.9497 39.0282 47.043C39.3129 47.1317 39.6022 47.2273 39.8962 47.33C40.1949 47.4327 40.4866 47.5493 40.7712 47.68C41.0559 47.8107 41.3079 47.9763 41.5272 48.177C41.7512 48.3777 41.9309 48.6227 42.0662 48.912C42.2016 49.2013 42.2692 49.5537 42.2692 49.969C42.2692 50.417 42.1922 50.837 42.0382 51.229C41.8842 51.621 41.6602 51.964 41.3662 52.258C41.0769 52.5473 40.7176 52.776 40.2882 52.944C39.8636 53.112 39.3782 53.196 38.8322 53.196C38.5102 53.196 38.1952 53.1633 37.8872 53.098C37.5839 53.0373 37.2922 52.951 37.0122 52.839C36.7369 52.7223 36.4779 52.5823 36.2352 52.419C35.9926 52.2557 35.7756 52.0737 35.5842 51.873L36.0602 51.089C36.1022 51.0237 36.1559 50.9723 36.2212 50.935C36.2866 50.8977 36.3589 50.879 36.4382 50.879C36.5456 50.879 36.6646 50.9303 36.7952 51.033C36.9259 51.131 37.0822 51.2407 37.2642 51.362C37.4509 51.4787 37.6749 51.5883 37.9362 51.691C38.1976 51.789 38.5102 51.838 38.8742 51.838C39.4669 51.838 39.9242 51.6933 40.2462 51.404C40.5729 51.1147 40.7362 50.7157 40.7362 50.207C40.7362 49.9223 40.6686 49.6913 40.5332 49.514C40.3979 49.332 40.2182 49.1803 39.9942 49.059C39.7749 48.9377 39.5229 48.835 39.2382 48.751C38.9536 48.667 38.6642 48.5783 38.3702 48.485C38.0762 48.387 37.7869 48.275 37.5022 48.149C37.2176 48.0183 36.9632 47.8503 36.7392 47.645C36.5199 47.435 36.3426 47.1783 36.2072 46.875C36.0719 46.567 36.0042 46.1843 36.0042 45.727C36.0042 45.363 36.0742 45.0107 36.2142 44.67C36.3589 44.3293 36.5666 44.0283 36.8372 43.767C37.1126 43.501 37.4509 43.2887 37.8522 43.13C38.2536 42.9713 38.7109 42.892 39.2242 42.892C39.8029 42.892 40.3326 42.983 40.8132 43.165C41.2986 43.347 41.7162 43.606 42.0662 43.942L41.6672 44.726ZM49.6421 45.944V53.084H48.7321C48.5314 53.084 48.4031 52.9883 48.3471 52.797L48.2351 52.132C48.0857 52.2907 47.9271 52.4353 47.7591 52.566C47.5957 52.6967 47.4207 52.8087 47.2341 52.902C47.0474 52.9953 46.8467 53.0677 46.6321 53.119C46.4221 53.1703 46.1957 53.196 45.9531 53.196C45.5611 53.196 45.2157 53.1307 44.9171 53C44.6184 52.8693 44.3664 52.685 44.1611 52.447C43.9604 52.209 43.8087 51.9243 43.7061 51.593C43.6034 51.257 43.5521 50.8883 43.5521 50.487V45.944H45.0571V50.487C45.0571 50.9677 45.1667 51.341 45.3861 51.607C45.6101 51.873 45.9484 52.006 46.4011 52.006C46.7324 52.006 47.0404 51.9313 47.3251 51.782C47.6144 51.628 47.8851 51.418 48.1371 51.152V45.944H49.6421ZM52.9747 51.292C53.1847 51.5627 53.4134 51.754 53.6607 51.866C53.9127 51.9733 54.1857 52.027 54.4797 52.027C55.0724 52.027 55.5344 51.8123 55.8657 51.383C56.1971 50.9537 56.3627 50.2887 56.3627 49.388C56.3627 48.5667 56.2181 47.967 55.9287 47.589C55.6441 47.211 55.2357 47.022 54.7037 47.022C54.3351 47.022 54.0131 47.106 53.7377 47.274C53.4671 47.4373 53.2127 47.673 52.9747 47.981V51.292ZM52.9747 46.889C53.2687 46.567 53.5977 46.3103 53.9617 46.119C54.3257 45.9277 54.7411 45.832 55.2077 45.832C55.6231 45.832 55.9964 45.9137 56.3277 46.077C56.6637 46.2357 56.9484 46.4667 57.1817 46.77C57.4151 47.0733 57.5947 47.442 57.7207 47.876C57.8467 48.3053 57.9097 48.7907 57.9097 49.332C57.9097 49.9107 57.8374 50.438 57.6927 50.914C57.5527 51.3853 57.3497 51.7913 57.0837 52.132C56.8177 52.468 56.4957 52.7293 56.1177 52.916C55.7397 53.098 55.3174 53.189 54.8507 53.189C54.6221 53.189 54.4144 53.1657 54.2277 53.119C54.0411 53.077 53.8684 53.014 53.7097 52.93C53.5511 52.846 53.4041 52.7457 53.2687 52.629C53.1381 52.5123 53.0121 52.3793 52.8907 52.23L52.8277 52.783C52.8044 52.8903 52.7624 52.9673 52.7017 53.014C52.6411 53.0607 52.5571 53.084 52.4497 53.084H51.4697V42.724H52.9747V46.889ZM60.9401 45.944V53.455C60.9401 53.7537 60.9004 54.0337 60.8211 54.295C60.7417 54.561 60.6157 54.792 60.4431 54.988C60.2704 55.184 60.0464 55.338 59.7711 55.45C59.5004 55.562 59.1714 55.618 58.7841 55.618C58.6207 55.618 58.4737 55.6063 58.3431 55.583C58.2124 55.5597 58.0794 55.527 57.9441 55.485L58.0001 54.666C58.0141 54.5727 58.0537 54.519 58.1191 54.505C58.1797 54.491 58.2987 54.484 58.4761 54.484C58.8307 54.484 59.0781 54.4047 59.2181 54.246C59.3627 54.092 59.4351 53.8283 59.4351 53.455V45.944H60.9401ZM61.1851 43.788C61.1851 43.9233 61.1571 44.0517 61.1011 44.173C61.0497 44.2943 60.9774 44.4017 60.8841 44.495C60.7907 44.5837 60.6834 44.656 60.5621 44.712C60.4407 44.7633 60.3101 44.789 60.1701 44.789C60.0347 44.789 59.9064 44.7633 59.7851 44.712C59.6684 44.656 59.5634 44.5837 59.4701 44.495C59.3814 44.4017 59.3114 44.2943 59.2601 44.173C59.2087 44.0517 59.1831 43.9233 59.1831 43.788C59.1831 43.648 59.2087 43.5173 59.2601 43.396C59.3114 43.2747 59.3814 43.1697 59.4701 43.081C59.5634 42.9877 59.6684 42.9153 59.7851 42.864C59.9064 42.808 60.0347 42.78 60.1701 42.78C60.3101 42.78 60.4407 42.808 60.5621 42.864C60.6834 42.9153 60.7907 42.9877 60.8841 43.081C60.9774 43.1697 61.0497 43.2747 61.1011 43.396C61.1571 43.5173 61.1851 43.648 61.1851 43.788ZM67.5141 48.709C67.5141 48.457 67.4767 48.2237 67.4021 48.009C67.3321 47.7897 67.2271 47.6007 67.0871 47.442C66.9471 47.2787 66.7721 47.1527 66.5621 47.064C66.3567 46.9707 66.1187 46.924 65.8481 46.924C65.3021 46.924 64.8727 47.0803 64.5601 47.393C64.2474 47.7057 64.0491 48.1443 63.9651 48.709H67.5141ZM63.9231 49.633C63.9417 50.039 64.0047 50.3913 64.1121 50.69C64.2194 50.984 64.3617 51.229 64.5391 51.425C64.7211 51.621 64.9357 51.768 65.1831 51.866C65.4351 51.9593 65.7151 52.006 66.0231 52.006C66.3171 52.006 66.5714 51.9733 66.7861 51.908C67.0007 51.838 67.1874 51.7633 67.3461 51.684C67.5047 51.6 67.6401 51.5253 67.7521 51.46C67.8641 51.39 67.9667 51.355 68.0601 51.355C68.1814 51.355 68.2747 51.4017 68.3401 51.495L68.7671 52.048C68.5897 52.258 68.3891 52.4353 68.1651 52.58C67.9411 52.7247 67.7031 52.8437 67.4511 52.937C67.1991 53.0257 66.9401 53.0887 66.6741 53.126C66.4081 53.168 66.1491 53.189 65.8971 53.189C65.4024 53.189 64.9427 53.1073 64.5181 52.944C64.0981 52.776 63.7317 52.531 63.4191 52.209C63.1111 51.887 62.8684 51.488 62.6911 51.012C62.5184 50.536 62.4321 49.9877 62.4321 49.367C62.4321 48.8723 62.5091 48.4103 62.6631 47.981C62.8217 47.5517 63.0457 47.1783 63.3351 46.861C63.6291 46.5437 63.9837 46.294 64.3991 46.112C64.8191 45.9253 65.2927 45.832 65.8201 45.832C66.2587 45.832 66.6647 45.9043 67.0381 46.049C67.4114 46.189 67.7334 46.3967 68.0041 46.672C68.2747 46.9473 68.4847 47.2857 68.6341 47.687C68.7881 48.0837 68.8651 48.5363 68.8651 49.045C68.8651 49.2783 68.8394 49.4347 68.7881 49.514C68.7367 49.5933 68.6434 49.633 68.5081 49.633H63.9231ZM75.3156 47.344C75.2689 47.4047 75.2246 47.4513 75.1826 47.484C75.1406 47.5167 75.0799 47.533 75.0006 47.533C74.9212 47.533 74.8372 47.505 74.7486 47.449C74.6646 47.393 74.5619 47.3323 74.4406 47.267C74.3239 47.197 74.1816 47.134 74.0136 47.078C73.8456 47.022 73.6356 46.994 73.3836 46.994C73.0569 46.994 72.7699 47.0523 72.5226 47.169C72.2799 47.2857 72.0746 47.4537 71.9066 47.673C71.7432 47.8877 71.6196 48.1513 71.5356 48.464C71.4562 48.772 71.4166 49.1197 71.4166 49.507C71.4166 49.9083 71.4609 50.2653 71.5496 50.578C71.6382 50.8907 71.7642 51.1543 71.9276 51.369C72.0956 51.5837 72.2962 51.747 72.5296 51.859C72.7676 51.971 73.0336 52.027 73.3276 52.027C73.6169 52.027 73.8526 51.992 74.0346 51.922C74.2166 51.852 74.3682 51.775 74.4896 51.691C74.6109 51.607 74.7136 51.53 74.7976 51.46C74.8862 51.39 74.9796 51.355 75.0776 51.355C75.1989 51.355 75.2922 51.4017 75.3576 51.495L75.7846 52.048C75.6119 52.258 75.4206 52.4353 75.2106 52.58C75.0006 52.7247 74.7789 52.8437 74.5456 52.937C74.3122 53.0257 74.0696 53.0887 73.8176 53.126C73.5656 53.168 73.3112 53.189 73.0546 53.189C72.6112 53.189 72.1959 53.1073 71.8086 52.944C71.4259 52.776 71.0899 52.5357 70.8006 52.223C70.5159 51.9057 70.2896 51.5207 70.1216 51.068C69.9582 50.6107 69.8766 50.0903 69.8766 49.507C69.8766 48.9797 69.9512 48.492 70.1006 48.044C70.2499 47.5913 70.4669 47.2017 70.7516 46.875C71.0409 46.5483 71.3979 46.294 71.8226 46.112C72.2472 45.9253 72.7372 45.832 73.2926 45.832C73.8106 45.832 74.2656 45.916 74.6576 46.084C75.0542 46.252 75.4066 46.49 75.7146 46.798L75.3156 47.344ZM79.2841 53.196C78.6915 53.196 78.2341 53.0303 77.9121 52.699C77.5948 52.363 77.4361 51.8917 77.4361 51.285V47.127H76.6521C76.5681 47.127 76.4958 47.1013 76.4351 47.05C76.3745 46.994 76.3441 46.9123 76.3441 46.805V46.196L77.4991 46.028L77.8281 43.963C77.8515 43.8837 77.8911 43.8207 77.9471 43.774C78.0031 43.7227 78.0778 43.697 78.1711 43.697H78.9411V46.042H80.9221V47.127H78.9411V51.18C78.9411 51.4367 79.0041 51.6327 79.1301 51.768C79.2561 51.9033 79.4241 51.971 79.6341 51.971C79.7508 51.971 79.8511 51.957 79.9351 51.929C80.0191 51.8963 80.0915 51.8637 80.1521 51.831C80.2128 51.7937 80.2641 51.761 80.3061 51.733C80.3528 51.7003 80.3971 51.684 80.4391 51.684C80.5231 51.684 80.5908 51.7307 80.6421 51.824L81.0901 52.559C80.8568 52.7643 80.5815 52.923 80.2641 53.035C79.9468 53.1423 79.6201 53.196 79.2841 53.196ZM85.5947 53.084V45.944H86.5047C86.7101 45.944 86.8407 46.0397 86.8967 46.231L86.9947 46.854C87.1254 46.7047 87.2607 46.5693 87.4007 46.448C87.5407 46.322 87.6901 46.2147 87.8487 46.126C88.0121 46.0327 88.1847 45.9603 88.3667 45.909C88.5534 45.8577 88.7541 45.832 88.9687 45.832C89.1974 45.832 89.4074 45.8647 89.5987 45.93C89.7901 45.9953 89.9581 46.0887 90.1027 46.21C90.2521 46.3313 90.3804 46.4783 90.4877 46.651C90.5951 46.8237 90.6837 47.0173 90.7537 47.232C90.8611 46.9847 90.9964 46.7723 91.1597 46.595C91.3231 46.4177 91.5051 46.273 91.7057 46.161C91.9064 46.049 92.1187 45.9673 92.3427 45.916C92.5714 45.86 92.8024 45.832 93.0357 45.832C93.4184 45.832 93.7591 45.8927 94.0577 46.014C94.3611 46.1353 94.6154 46.3127 94.8207 46.546C95.0307 46.7747 95.1894 47.057 95.2967 47.393C95.4041 47.729 95.4577 48.1117 95.4577 48.541V53.084H93.9527V48.541C93.9527 48.037 93.8431 47.659 93.6237 47.407C93.4091 47.1503 93.0894 47.022 92.6647 47.022C92.4734 47.022 92.2937 47.0547 92.1257 47.12C91.9577 47.1853 91.8107 47.281 91.6847 47.407C91.5587 47.533 91.4584 47.6917 91.3837 47.883C91.3137 48.0697 91.2787 48.289 91.2787 48.541V53.084H89.7737V48.541C89.7737 48.0183 89.6687 47.6357 89.4587 47.393C89.2487 47.1457 88.9407 47.022 88.5347 47.022C88.2547 47.022 87.9957 47.0943 87.7577 47.239C87.5197 47.379 87.3004 47.5727 87.0997 47.82V53.084H85.5947ZM101.031 49.962C100.494 49.9807 100.041 50.025 99.6728 50.095C99.3042 50.1603 99.0055 50.2467 98.7768 50.354C98.5482 50.4567 98.3825 50.5803 98.2798 50.725C98.1818 50.8697 98.1328 51.0283 98.1328 51.201C98.1328 51.369 98.1585 51.5137 98.2098 51.635C98.2658 51.7517 98.3405 51.8497 98.4338 51.929C98.5318 52.0037 98.6438 52.0597 98.7698 52.097C98.9005 52.1297 99.0428 52.146 99.1968 52.146C99.5888 52.146 99.9248 52.0737 100.205 51.929C100.489 51.7797 100.765 51.565 101.031 51.285V49.962ZM97.0408 46.938C97.8482 46.1867 98.8095 45.811 99.9248 45.811C100.335 45.811 100.699 45.8787 101.017 46.014C101.339 46.1447 101.607 46.3313 101.822 46.574C102.041 46.8167 102.207 47.106 102.319 47.442C102.435 47.7733 102.494 48.142 102.494 48.548V53.084H101.822C101.677 53.084 101.567 53.063 101.493 53.021C101.418 52.9743 101.355 52.8833 101.304 52.748L101.157 52.167C100.975 52.3303 100.795 52.4773 100.618 52.608C100.44 52.734 100.256 52.8413 100.065 52.93C99.8782 53.0187 99.6752 53.084 99.4558 53.126C99.2412 53.1727 99.0032 53.196 98.7418 53.196C98.4525 53.196 98.1818 53.1563 97.9298 53.077C97.6825 52.9977 97.4678 52.8787 97.2858 52.72C97.1038 52.5567 96.9592 52.356 96.8518 52.118C96.7492 51.88 96.6978 51.6 96.6978 51.278C96.6978 51.0027 96.7702 50.7343 96.9148 50.473C97.0642 50.2117 97.3068 49.9783 97.6428 49.773C97.9835 49.563 98.4292 49.3903 98.9798 49.255C99.5352 49.1197 100.219 49.0427 101.031 49.024V48.548C101.031 48.0347 100.921 47.652 100.702 47.4C100.482 47.148 100.16 47.022 99.7358 47.022C99.4465 47.022 99.2038 47.0593 99.0078 47.134C98.8118 47.204 98.6415 47.281 98.4968 47.365C98.3522 47.449 98.2238 47.5283 98.1118 47.603C97.9998 47.673 97.8808 47.708 97.7548 47.708C97.6522 47.708 97.5635 47.6823 97.4888 47.631C97.4188 47.575 97.3605 47.5073 97.3138 47.428L97.0408 46.938ZM106.45 53.196C105.857 53.196 105.4 53.0303 105.078 52.699C104.761 52.363 104.602 51.8917 104.602 51.285V47.127H103.818C103.734 47.127 103.662 47.1013 103.601 47.05C103.54 46.994 103.51 46.9123 103.51 46.805V46.196L104.665 46.028L104.994 43.963C105.017 43.8837 105.057 43.8207 105.113 43.774C105.169 43.7227 105.244 43.697 105.337 43.697H106.107V46.042H109.257L109.593 43.963C109.612 43.8837 109.649 43.8207 109.705 43.774C109.761 43.7227 109.836 43.697 109.929 43.697H110.699V46.042H112.68V47.127H110.699V51.18C110.699 51.4367 110.762 51.6327 110.888 51.768C111.014 51.9033 111.182 51.971 111.392 51.971C111.509 51.971 111.609 51.957 111.693 51.929C111.782 51.8963 111.856 51.8637 111.917 51.831C111.978 51.7937 112.029 51.761 112.071 51.733C112.118 51.7003 112.16 51.684 112.197 51.684C112.248 51.684 112.288 51.6957 112.316 51.719C112.344 51.7377 112.374 51.7727 112.407 51.824L112.855 52.559C112.617 52.7643 112.339 52.923 112.022 53.035C111.709 53.1423 111.385 53.196 111.049 53.196C110.452 53.196 109.994 53.0303 109.677 52.699C109.36 52.363 109.201 51.8917 109.201 51.285V47.127H106.107V51.18C106.107 51.4367 106.17 51.6327 106.296 51.768C106.422 51.9033 106.59 51.971 106.8 51.971C106.917 51.971 107.017 51.957 107.101 51.929C107.185 51.8963 107.257 51.8637 107.318 51.831C107.379 51.7937 107.43 51.761 107.472 51.733C107.519 51.7003 107.563 51.684 107.605 51.684C107.689 51.684 107.757 51.7307 107.808 51.824L108.256 52.559C108.023 52.7643 107.747 52.923 107.43 53.035C107.113 53.1423 106.786 53.196 106.45 53.196ZM118.496 48.709C118.496 48.457 118.459 48.2237 118.384 48.009C118.314 47.7897 118.209 47.6007 118.069 47.442C117.929 47.2787 117.754 47.1527 117.544 47.064C117.339 46.9707 117.101 46.924 116.83 46.924C116.284 46.924 115.855 47.0803 115.542 47.393C115.23 47.7057 115.031 48.1443 114.947 48.709H118.496ZM114.905 49.633C114.924 50.039 114.987 50.3913 115.094 50.69C115.202 50.984 115.344 51.229 115.521 51.425C115.703 51.621 115.918 51.768 116.165 51.866C116.417 51.9593 116.697 52.006 117.005 52.006C117.299 52.006 117.554 51.9733 117.768 51.908C117.983 51.838 118.17 51.7633 118.328 51.684C118.487 51.6 118.622 51.5253 118.734 51.46C118.846 51.39 118.949 51.355 119.042 51.355C119.164 51.355 119.257 51.4017 119.322 51.495L119.749 52.048C119.572 52.258 119.371 52.4353 119.147 52.58C118.923 52.7247 118.685 52.8437 118.433 52.937C118.181 53.0257 117.922 53.0887 117.656 53.126C117.39 53.168 117.131 53.189 116.879 53.189C116.385 53.189 115.925 53.1073 115.5 52.944C115.08 52.776 114.714 52.531 114.401 52.209C114.093 51.887 113.851 51.488 113.673 51.012C113.501 50.536 113.414 49.9877 113.414 49.367C113.414 48.8723 113.491 48.4103 113.645 47.981C113.804 47.5517 114.028 47.1783 114.317 46.861C114.611 46.5437 114.966 46.294 115.381 46.112C115.801 45.9253 116.275 45.832 116.802 45.832C117.241 45.832 117.647 45.9043 118.02 46.049C118.394 46.189 118.716 46.3967 118.986 46.672C119.257 46.9473 119.467 47.2857 119.616 47.687C119.77 48.0837 119.847 48.5363 119.847 49.045C119.847 49.2783 119.822 49.4347 119.77 49.514C119.719 49.5933 119.626 49.633 119.49 49.633H114.905ZM122.672 47.267C122.896 46.8143 123.167 46.4597 123.484 46.203C123.801 45.9417 124.182 45.811 124.625 45.811C124.779 45.811 124.924 45.8297 125.059 45.867C125.194 45.8997 125.316 45.951 125.423 46.021L125.318 47.155C125.299 47.2343 125.269 47.2903 125.227 47.323C125.19 47.351 125.138 47.365 125.073 47.365C125.003 47.365 124.903 47.3533 124.772 47.33C124.641 47.302 124.504 47.288 124.359 47.288C124.149 47.288 123.962 47.3183 123.799 47.379C123.64 47.4397 123.496 47.5283 123.365 47.645C123.239 47.7617 123.127 47.904 123.029 48.072C122.931 48.24 122.84 48.4313 122.756 48.646V53.084H121.251V45.944H122.126C122.285 45.944 122.394 45.9743 122.455 46.035C122.516 46.091 122.558 46.1913 122.581 46.336L122.672 47.267ZM134.288 48.709C134.288 48.457 134.25 48.2237 134.176 48.009C134.106 47.7897 134.001 47.6007 133.861 47.442C133.721 47.2787 133.546 47.1527 133.336 47.064C133.13 46.9707 132.892 46.924 132.622 46.924C132.076 46.924 131.646 47.0803 131.334 47.393C131.021 47.7057 130.823 48.1443 130.739 48.709H134.288ZM130.697 49.633C130.715 50.039 130.778 50.3913 130.886 50.69C130.993 50.984 131.135 51.229 131.313 51.425C131.495 51.621 131.709 51.768 131.957 51.866C132.209 51.9593 132.489 52.006 132.797 52.006C133.091 52.006 133.345 51.9733 133.56 51.908C133.774 51.838 133.961 51.7633 134.12 51.684C134.278 51.6 134.414 51.5253 134.526 51.46C134.638 51.39 134.74 51.355 134.834 51.355C134.955 51.355 135.048 51.4017 135.114 51.495L135.541 52.048C135.363 52.258 135.163 52.4353 134.939 52.58C134.715 52.7247 134.477 52.8437 134.225 52.937C133.973 53.0257 133.714 53.0887 133.448 53.126C133.182 53.168 132.923 53.189 132.671 53.189C132.176 53.189 131.716 53.1073 131.292 52.944C130.872 52.776 130.505 52.531 130.193 52.209C129.885 51.887 129.642 51.488 129.465 51.012C129.292 50.536 129.206 49.9877 129.206 49.367C129.206 48.8723 129.283 48.4103 129.437 47.981C129.595 47.5517 129.819 47.1783 130.109 46.861C130.403 46.5437 130.757 46.294 131.173 46.112C131.593 45.9253 132.066 45.832 132.594 45.832C133.032 45.832 133.438 45.9043 133.812 46.049C134.185 46.189 134.507 46.3967 134.778 46.672C135.048 46.9473 135.258 47.2857 135.408 47.687C135.562 48.0837 135.639 48.5363 135.639 49.045C135.639 49.2783 135.613 49.4347 135.562 49.514C135.51 49.5933 135.417 49.633 135.282 49.633H130.697ZM143.078 53.084H141.636C141.52 53.084 141.426 53.0537 141.356 52.993C141.291 52.9323 141.237 52.8647 141.195 52.79L139.55 50.151C139.508 50.3097 139.452 50.4473 139.382 50.564L137.891 52.79C137.84 52.8647 137.782 52.9323 137.716 52.993C137.656 53.0537 137.574 53.084 137.471 53.084H136.127L138.598 49.402L136.225 45.944H137.667C137.784 45.944 137.868 45.9627 137.919 46C137.975 46.0327 138.024 46.084 138.066 46.154L139.683 48.674C139.725 48.52 139.791 48.373 139.879 48.233L141.244 46.182C141.338 46.0233 141.457 45.944 141.601 45.944H142.98L140.607 49.339L143.078 53.084ZM145.602 51.292C145.812 51.5627 146.04 51.754 146.288 51.866C146.54 51.9733 146.817 52.027 147.121 52.027C147.709 52.027 148.166 51.8123 148.493 51.383C148.824 50.9537 148.99 50.3143 148.99 49.465C148.99 49.0263 148.952 48.653 148.878 48.345C148.803 48.0323 148.696 47.778 148.556 47.582C148.416 47.386 148.245 47.2437 148.045 47.155C147.844 47.0663 147.618 47.022 147.366 47.022C146.983 47.022 146.652 47.106 146.372 47.274C146.096 47.4373 145.84 47.673 145.602 47.981V51.292ZM145.525 46.98C145.823 46.63 146.162 46.3477 146.54 46.133C146.922 45.9183 147.366 45.811 147.87 45.811C148.271 45.811 148.635 45.8927 148.962 46.056C149.288 46.2147 149.568 46.448 149.802 46.756C150.035 47.064 150.215 47.4467 150.341 47.904C150.471 48.3567 150.537 48.877 150.537 49.465C150.537 49.9923 150.464 50.4847 150.32 50.942C150.18 51.3947 149.977 51.789 149.711 52.125C149.445 52.4563 149.123 52.7177 148.745 52.909C148.367 53.0957 147.94 53.189 147.464 53.189C147.044 53.189 146.687 53.1213 146.393 52.986C146.103 52.8507 145.84 52.664 145.602 52.426V55.457H144.097V45.944H145.007C145.212 45.944 145.343 46.0397 145.399 46.231L145.525 46.98ZM156.682 48.709C156.682 48.457 156.645 48.2237 156.57 48.009C156.5 47.7897 156.395 47.6007 156.255 47.442C156.115 47.2787 155.94 47.1527 155.73 47.064C155.525 46.9707 155.287 46.924 155.016 46.924C154.47 46.924 154.041 47.0803 153.728 47.393C153.415 47.7057 153.217 48.1443 153.133 48.709H156.682ZM153.091 49.633C153.11 50.039 153.173 50.3913 153.28 50.69C153.387 50.984 153.53 51.229 153.707 51.425C153.889 51.621 154.104 51.768 154.351 51.866C154.603 51.9593 154.883 52.006 155.191 52.006C155.485 52.006 155.739 51.9733 155.954 51.908C156.169 51.838 156.355 51.7633 156.514 51.684C156.673 51.6 156.808 51.5253 156.92 51.46C157.032 51.39 157.135 51.355 157.228 51.355C157.349 51.355 157.443 51.4017 157.508 51.495L157.935 52.048C157.758 52.258 157.557 52.4353 157.333 52.58C157.109 52.7247 156.871 52.8437 156.619 52.937C156.367 53.0257 156.108 53.0887 155.842 53.126C155.576 53.168 155.317 53.189 155.065 53.189C154.57 53.189 154.111 53.1073 153.686 52.944C153.266 52.776 152.9 52.531 152.587 52.209C152.279 51.887 152.036 51.488 151.859 51.012C151.686 50.536 151.6 49.9877 151.6 49.367C151.6 48.8723 151.677 48.4103 151.831 47.981C151.99 47.5517 152.214 47.1783 152.503 46.861C152.797 46.5437 153.152 46.294 153.567 46.112C153.987 45.9253 154.461 45.832 154.988 45.832C155.427 45.832 155.833 45.9043 156.206 46.049C156.579 46.189 156.901 46.3967 157.172 46.672C157.443 46.9473 157.653 47.2857 157.802 47.687C157.956 48.0837 158.033 48.5363 158.033 49.045C158.033 49.2783 158.007 49.4347 157.956 49.514C157.905 49.5933 157.811 49.633 157.676 49.633H153.091ZM160.858 47.267C161.082 46.8143 161.352 46.4597 161.67 46.203C161.987 45.9417 162.367 45.811 162.811 45.811C162.965 45.811 163.109 45.8297 163.245 45.867C163.38 45.8997 163.501 45.951 163.609 46.021L163.504 47.155C163.485 47.2343 163.455 47.2903 163.413 47.323C163.375 47.351 163.324 47.365 163.259 47.365C163.189 47.365 163.088 47.3533 162.958 47.33C162.827 47.302 162.689 47.288 162.545 47.288C162.335 47.288 162.148 47.3183 161.985 47.379C161.826 47.4397 161.681 47.5283 161.551 47.645C161.425 47.7617 161.313 47.904 161.215 48.072C161.117 48.24 161.026 48.4313 160.942 48.646V53.084H159.437V45.944H160.312C160.47 45.944 160.58 45.9743 160.641 46.035C160.701 46.091 160.743 46.1913 160.767 46.336L160.858 47.267ZM166.894 53.196C166.301 53.196 165.844 53.0303 165.522 52.699C165.204 52.363 165.046 51.8917 165.046 51.285V47.127H164.262C164.178 47.127 164.105 47.1013 164.045 47.05C163.984 46.994 163.954 46.9123 163.954 46.805V46.196L165.109 46.028L165.438 43.963C165.461 43.8837 165.501 43.8207 165.557 43.774C165.613 43.7227 165.687 43.697 165.781 43.697H166.551V46.042H168.532V47.127H166.551V51.18C166.551 51.4367 166.614 51.6327 166.74 51.768C166.866 51.9033 167.034 51.971 167.244 51.971C167.36 51.971 167.461 51.957 167.544 51.929C167.629 51.8963 167.701 51.8637 167.762 51.831C167.822 51.7937 167.874 51.761 167.916 51.733C167.962 51.7003 168.007 51.684 168.049 51.684C168.133 51.684 168.2 51.7307 168.252 51.824L168.7 52.559C168.466 52.7643 168.191 52.923 167.874 53.035C167.556 53.1423 167.23 53.196 166.894 53.196Z" fill="black"/>
<g clip-path="url(#clip3_1484_19462)">
<path d="M207.5 60.0831C205.822 60.0831 204.239 59.3883 203.107 58.1872C201.464 58.232 199.848 57.6091 198.66 56.4227C197.474 55.2352 196.847 53.6247 196.895 51.9758C195.695 50.8445 195 49.2622 195 47.5831C195 45.9039 195.695 44.3227 196.895 43.1904C196.847 41.5414 197.474 39.931 198.66 38.7435C199.849 37.556 201.458 36.9185 203.107 36.9779C204.239 35.7768 205.821 35.082 207.5 35.082C209.179 35.082 210.761 35.7768 211.893 36.9779C213.529 36.9185 215.151 37.556 216.34 38.7424C217.526 39.9299 218.153 41.5404 218.105 43.1893C219.305 44.3206 220 45.9029 220 47.582C220 49.2612 219.305 50.8424 218.105 51.9747C218.153 53.6237 217.526 55.2341 216.34 56.4216C215.151 57.6091 213.531 58.232 211.893 58.1872C210.761 59.3883 209.179 60.0831 207.5 60.0831ZM204.505 54.8133L205.084 55.6716C205.627 56.4768 206.531 56.9581 207.5 56.9581C208.469 56.9581 209.373 56.4768 209.916 55.6716L210.495 54.8133L211.51 55.0112C212.469 55.1966 213.445 54.8987 214.13 54.2122C214.815 53.5268 215.114 52.5477 214.929 51.5924L214.733 50.5779L215.59 49.9997C216.395 49.457 216.876 48.5529 216.876 47.5831C216.876 46.6133 216.395 45.7102 215.59 45.1664L214.733 44.5883L214.929 43.5737C215.115 42.6185 214.816 41.6393 214.13 40.9539C213.445 40.2685 212.469 39.9706 211.51 40.1549L210.495 40.3529L209.916 39.4945C209.373 38.6893 208.469 38.2081 207.5 38.2081C206.531 38.2081 205.627 38.6893 205.084 39.4945L204.505 40.3529L203.49 40.1549C202.532 39.9695 201.556 40.2685 200.87 40.9539C200.185 41.6393 199.886 42.6185 200.071 43.5737L200.267 44.5883L199.41 45.1664C198.605 45.7091 198.124 46.6133 198.124 47.5831C198.124 48.5529 198.605 49.456 199.41 49.9997L200.267 50.5779L200.071 51.5924C199.885 52.5477 200.184 53.5268 200.87 54.2122C201.556 54.8977 202.532 55.1966 203.49 55.0112L204.505 54.8133ZM205.941 51.7497C205.273 51.7497 204.605 51.4956 204.096 50.9872L201.204 48.1852L203.379 45.9414L205.934 48.4185L211.092 43.3456L213.283 45.5737L207.77 50.9977C207.269 51.4997 206.605 51.7518 205.941 51.7518V51.7497Z" fill="#FBBA18"/>
</g>
<path d="M232.303 48.044C232.303 48.6273 232.382 49.15 232.541 49.612C232.7 50.074 232.926 50.466 233.22 50.788C233.514 51.1053 233.869 51.3503 234.284 51.523C234.699 51.691 235.164 51.775 235.677 51.775C236.195 51.775 236.662 51.691 237.077 51.523C237.492 51.3503 237.845 51.1053 238.134 50.788C238.428 50.466 238.652 50.074 238.806 49.612C238.965 49.15 239.044 48.6273 239.044 48.044C239.044 47.4653 238.965 46.945 238.806 46.483C238.652 46.021 238.428 45.629 238.134 45.307C237.845 44.985 237.492 44.7377 237.077 44.565C236.662 44.3923 236.195 44.306 235.677 44.306C235.164 44.306 234.699 44.3923 234.284 44.565C233.869 44.7377 233.514 44.985 233.22 45.307C232.926 45.629 232.7 46.021 232.541 46.483C232.382 46.945 232.303 47.4653 232.303 48.044ZM241.214 55.1H239.87C239.669 55.1 239.492 55.072 239.338 55.016C239.184 54.9647 239.042 54.869 238.911 54.729L237.301 52.958C236.797 53.112 236.256 53.189 235.677 53.189C234.926 53.189 234.24 53.0607 233.619 52.804C233.003 52.5473 232.473 52.1927 232.03 51.74C231.587 51.2827 231.244 50.739 231.001 50.109C230.758 49.479 230.637 48.7907 230.637 48.044C230.637 47.2973 230.758 46.609 231.001 45.979C231.244 45.349 231.587 44.8053 232.03 44.348C232.473 43.8907 233.003 43.5337 233.619 43.277C234.24 43.0203 234.926 42.892 235.677 42.892C236.433 42.892 237.119 43.0203 237.735 43.277C238.356 43.5337 238.885 43.8907 239.324 44.348C239.767 44.8053 240.11 45.349 240.353 45.979C240.596 46.609 240.717 47.2973 240.717 48.044C240.717 48.506 240.67 48.947 240.577 49.367C240.484 49.7823 240.348 50.172 240.171 50.536C239.994 50.8953 239.777 51.2267 239.52 51.53C239.263 51.8287 238.972 52.09 238.645 52.314L241.214 55.1ZM248.149 45.944V53.084H247.239C247.038 53.084 246.91 52.9883 246.854 52.797L246.742 52.132C246.593 52.2907 246.434 52.4353 246.266 52.566C246.103 52.6967 245.928 52.8087 245.741 52.902C245.554 52.9953 245.354 53.0677 245.139 53.119C244.929 53.1703 244.703 53.196 244.46 53.196C244.068 53.196 243.723 53.1307 243.424 53C243.125 52.8693 242.873 52.685 242.668 52.447C242.467 52.209 242.316 51.9243 242.213 51.593C242.11 51.257 242.059 50.8883 242.059 50.487V45.944H243.564V50.487C243.564 50.9677 243.674 51.341 243.893 51.607C244.117 51.873 244.455 52.006 244.908 52.006C245.239 52.006 245.547 51.9313 245.832 51.782C246.121 51.628 246.392 51.418 246.644 51.152V45.944H248.149ZM251.545 45.944V53.084H250.04V45.944H251.545ZM251.797 43.788C251.797 43.9233 251.769 44.0517 251.713 44.173C251.661 44.2943 251.589 44.4017 251.496 44.495C251.402 44.5837 251.293 44.656 251.167 44.712C251.045 44.7633 250.915 44.789 250.775 44.789C250.639 44.789 250.511 44.7633 250.39 44.712C250.273 44.656 250.17 44.5837 250.082 44.495C249.993 44.4017 249.921 44.2943 249.865 44.173C249.813 44.0517 249.788 43.9233 249.788 43.788C249.788 43.648 249.813 43.5173 249.865 43.396C249.921 43.2747 249.993 43.1697 250.082 43.081C250.17 42.9877 250.273 42.9153 250.39 42.864C250.511 42.808 250.639 42.78 250.775 42.78C250.915 42.78 251.045 42.808 251.167 42.864C251.293 42.9153 251.402 42.9877 251.496 43.081C251.589 43.1697 251.661 43.2747 251.713 43.396C251.769 43.5173 251.797 43.648 251.797 43.788ZM258.483 47.344C258.436 47.4047 258.392 47.4513 258.35 47.484C258.308 47.5167 258.247 47.533 258.168 47.533C258.088 47.533 258.004 47.505 257.916 47.449C257.832 47.393 257.729 47.3323 257.608 47.267C257.491 47.197 257.349 47.134 257.181 47.078C257.013 47.022 256.803 46.994 256.551 46.994C256.224 46.994 255.937 47.0523 255.69 47.169C255.447 47.2857 255.242 47.4537 255.074 47.673C254.91 47.8877 254.787 48.1513 254.703 48.464C254.623 48.772 254.584 49.1197 254.584 49.507C254.584 49.9083 254.628 50.2653 254.717 50.578C254.805 50.8907 254.931 51.1543 255.095 51.369C255.263 51.5837 255.463 51.747 255.697 51.859C255.935 51.971 256.201 52.027 256.495 52.027C256.784 52.027 257.02 51.992 257.202 51.922C257.384 51.852 257.535 51.775 257.657 51.691C257.778 51.607 257.881 51.53 257.965 51.46C258.053 51.39 258.147 51.355 258.245 51.355C258.366 51.355 258.459 51.4017 258.525 51.495L258.952 52.048C258.779 52.258 258.588 52.4353 258.378 52.58C258.168 52.7247 257.946 52.8437 257.713 52.937C257.479 53.0257 257.237 53.0887 256.985 53.126C256.733 53.168 256.478 53.189 256.222 53.189C255.778 53.189 255.363 53.1073 254.976 52.944C254.593 52.776 254.257 52.5357 253.968 52.223C253.683 51.9057 253.457 51.5207 253.289 51.068C253.125 50.6107 253.044 50.0903 253.044 49.507C253.044 48.9797 253.118 48.492 253.268 48.044C253.417 47.5913 253.634 47.2017 253.919 46.875C254.208 46.5483 254.565 46.294 254.99 46.112C255.414 45.9253 255.904 45.832 256.46 45.832C256.978 45.832 257.433 45.916 257.825 46.084C258.221 46.252 258.574 46.49 258.882 46.798L258.483 47.344ZM261.667 42.724V48.73H261.989C262.092 48.73 262.176 48.716 262.241 48.688C262.306 48.66 262.374 48.6017 262.444 48.513L264.446 46.224C264.516 46.1307 264.593 46.0607 264.677 46.014C264.761 45.9673 264.868 45.944 264.999 45.944H266.364L263.956 48.66C263.816 48.842 263.662 48.9867 263.494 49.094C263.587 49.1593 263.669 49.234 263.739 49.318C263.809 49.3973 263.877 49.4883 263.942 49.591L266.511 53.084H265.167C265.046 53.084 264.941 53.0653 264.852 53.028C264.768 52.986 264.693 52.9113 264.628 52.804L262.563 50.004C262.493 49.8967 262.423 49.829 262.353 49.801C262.283 49.7683 262.178 49.752 262.038 49.752H261.667V53.084H260.162V42.724H261.667ZM273.252 53.196C272.659 53.196 272.202 53.0303 271.88 52.699C271.563 52.363 271.404 51.8917 271.404 51.285V47.127H270.62C270.536 47.127 270.464 47.1013 270.403 47.05C270.342 46.994 270.312 46.9123 270.312 46.805V46.196L271.467 46.028L271.796 43.963C271.819 43.8837 271.859 43.8207 271.915 43.774C271.971 43.7227 272.046 43.697 272.139 43.697H272.909V46.042H274.89V47.127H272.909V51.18C272.909 51.4367 272.972 51.6327 273.098 51.768C273.224 51.9033 273.392 51.971 273.602 51.971C273.719 51.971 273.819 51.957 273.903 51.929C273.987 51.8963 274.059 51.8637 274.12 51.831C274.181 51.7937 274.232 51.761 274.274 51.733C274.321 51.7003 274.365 51.684 274.407 51.684C274.491 51.684 274.559 51.7307 274.61 51.824L275.058 52.559C274.825 52.7643 274.549 52.923 274.232 53.035C273.915 53.1423 273.588 53.196 273.252 53.196ZM282.096 45.944V53.084H281.186C280.986 53.084 280.857 52.9883 280.801 52.797L280.689 52.132C280.54 52.2907 280.381 52.4353 280.213 52.566C280.05 52.6967 279.875 52.8087 279.688 52.902C279.502 52.9953 279.301 53.0677 279.086 53.119C278.876 53.1703 278.65 53.196 278.407 53.196C278.015 53.196 277.67 53.1307 277.371 53C277.073 52.8693 276.821 52.685 276.615 52.447C276.415 52.209 276.263 51.9243 276.16 51.593C276.058 51.257 276.006 50.8883 276.006 50.487V45.944H277.511V50.487C277.511 50.9677 277.621 51.341 277.84 51.607C278.064 51.873 278.403 52.006 278.855 52.006C279.187 52.006 279.495 51.9313 279.779 51.782C280.069 51.628 280.339 51.418 280.591 51.152V45.944H282.096ZM285.345 47.267C285.569 46.8143 285.84 46.4597 286.157 46.203C286.474 45.9417 286.855 45.811 287.298 45.811C287.452 45.811 287.597 45.8297 287.732 45.867C287.867 45.8997 287.989 45.951 288.096 46.021L287.991 47.155C287.972 47.2343 287.942 47.2903 287.9 47.323C287.863 47.351 287.811 47.365 287.746 47.365C287.676 47.365 287.576 47.3533 287.445 47.33C287.314 47.302 287.177 47.288 287.032 47.288C286.822 47.288 286.635 47.3183 286.472 47.379C286.313 47.4397 286.169 47.5283 286.038 47.645C285.912 47.7617 285.8 47.904 285.702 48.072C285.604 48.24 285.513 48.4313 285.429 48.646V53.084H283.924V45.944H284.799C284.958 45.944 285.067 45.9743 285.128 46.035C285.189 46.091 285.231 46.1913 285.254 46.336L285.345 47.267ZM290.499 46.889C290.653 46.7303 290.811 46.588 290.975 46.462C291.143 46.3313 291.32 46.2193 291.507 46.126C291.693 46.0327 291.892 45.9603 292.102 45.909C292.312 45.8577 292.54 45.832 292.788 45.832C293.18 45.832 293.523 45.8973 293.817 46.028C294.115 46.1587 294.365 46.343 294.566 46.581C294.771 46.819 294.925 47.106 295.028 47.442C295.13 47.7733 295.182 48.1397 295.182 48.541V53.084H293.684V48.541C293.684 48.0603 293.572 47.687 293.348 47.421C293.128 47.155 292.792 47.022 292.34 47.022C292.004 47.022 291.691 47.099 291.402 47.253C291.117 47.407 290.849 47.617 290.597 47.883V53.084H289.092V45.944H290.002C290.207 45.944 290.338 46.0397 290.394 46.231L290.499 46.889ZM300.754 49.962C300.218 49.9807 299.765 50.025 299.396 50.095C299.028 50.1603 298.729 50.2467 298.5 50.354C298.272 50.4567 298.106 50.5803 298.003 50.725C297.905 50.8697 297.856 51.0283 297.856 51.201C297.856 51.369 297.882 51.5137 297.933 51.635C297.989 51.7517 298.064 51.8497 298.157 51.929C298.255 52.0037 298.367 52.0597 298.493 52.097C298.624 52.1297 298.766 52.146 298.92 52.146C299.312 52.146 299.648 52.0737 299.928 51.929C300.213 51.7797 300.488 51.565 300.754 51.285V49.962ZM296.764 46.938C297.572 46.1867 298.533 45.811 299.648 45.811C300.059 45.811 300.423 45.8787 300.74 46.014C301.062 46.1447 301.331 46.3313 301.545 46.574C301.765 46.8167 301.93 47.106 302.042 47.442C302.159 47.7733 302.217 48.142 302.217 48.548V53.084H301.545C301.401 53.084 301.291 53.063 301.216 53.021C301.142 52.9743 301.079 52.8833 301.027 52.748L300.88 52.167C300.698 52.3303 300.519 52.4773 300.341 52.608C300.164 52.734 299.98 52.8413 299.788 52.93C299.602 53.0187 299.399 53.084 299.179 53.126C298.965 53.1727 298.727 53.196 298.465 53.196C298.176 53.196 297.905 53.1563 297.653 53.077C297.406 52.9977 297.191 52.8787 297.009 52.72C296.827 52.5567 296.683 52.356 296.575 52.118C296.473 51.88 296.421 51.6 296.421 51.278C296.421 51.0027 296.494 50.7343 296.638 50.473C296.788 50.2117 297.03 49.9783 297.366 49.773C297.707 49.563 298.153 49.3903 298.703 49.255C299.259 49.1197 299.942 49.0427 300.754 49.024V48.548C300.754 48.0347 300.645 47.652 300.425 47.4C300.206 47.148 299.884 47.022 299.459 47.022C299.17 47.022 298.927 47.0593 298.731 47.134C298.535 47.204 298.365 47.281 298.22 47.365C298.076 47.449 297.947 47.5283 297.835 47.603C297.723 47.673 297.604 47.708 297.478 47.708C297.376 47.708 297.287 47.6823 297.212 47.631C297.142 47.575 297.084 47.5073 297.037 47.428L296.764 46.938ZM305.401 47.267C305.625 46.8143 305.896 46.4597 306.213 46.203C306.531 45.9417 306.911 45.811 307.354 45.811C307.508 45.811 307.653 45.8297 307.788 45.867C307.924 45.8997 308.045 45.951 308.152 46.021L308.047 47.155C308.029 47.2343 307.998 47.2903 307.956 47.323C307.919 47.351 307.868 47.365 307.802 47.365C307.732 47.365 307.632 47.3533 307.501 47.33C307.371 47.302 307.233 47.288 307.088 47.288C306.878 47.288 306.692 47.3183 306.528 47.379C306.37 47.4397 306.225 47.5283 306.094 47.645C305.968 47.7617 305.856 47.904 305.758 48.072C305.66 48.24 305.569 48.4313 305.485 48.646V53.084H303.98V45.944H304.855C305.014 45.944 305.124 45.9743 305.184 46.035C305.245 46.091 305.287 46.1913 305.31 46.336L305.401 47.267ZM311.989 45.832C312.517 45.832 312.993 45.9183 313.417 46.091C313.847 46.2637 314.211 46.5087 314.509 46.826C314.813 47.1433 315.046 47.5283 315.209 47.981C315.373 48.4337 315.454 48.9423 315.454 49.507C315.454 50.0717 315.373 50.5803 315.209 51.033C315.046 51.4857 314.813 51.873 314.509 52.195C314.211 52.5123 313.847 52.7573 313.417 52.93C312.993 53.1027 312.517 53.189 311.989 53.189C311.457 53.189 310.977 53.1027 310.547 52.93C310.123 52.7573 309.759 52.5123 309.455 52.195C309.152 51.873 308.919 51.4857 308.755 51.033C308.592 50.5803 308.51 50.0717 308.51 49.507C308.51 48.9423 308.592 48.4337 308.755 47.981C308.919 47.5283 309.152 47.1433 309.455 46.826C309.759 46.5087 310.123 46.2637 310.547 46.091C310.977 45.9183 311.457 45.832 311.989 45.832ZM311.989 52.013C312.633 52.013 313.112 51.7983 313.424 51.369C313.742 50.935 313.9 50.3167 313.9 49.514C313.9 48.7113 313.742 48.093 313.424 47.659C313.112 47.2203 312.633 47.001 311.989 47.001C311.336 47.001 310.851 47.2203 310.533 47.659C310.216 48.093 310.057 48.7113 310.057 49.514C310.057 50.3167 310.216 50.935 310.533 51.369C310.851 51.7983 311.336 52.013 311.989 52.013ZM322.92 45.944V53.084H322.01C321.81 53.084 321.681 52.9883 321.625 52.797L321.513 52.132C321.364 52.2907 321.205 52.4353 321.037 52.566C320.874 52.6967 320.699 52.8087 320.512 52.902C320.326 52.9953 320.125 53.0677 319.91 53.119C319.7 53.1703 319.474 53.196 319.231 53.196C318.839 53.196 318.494 53.1307 318.195 53C317.897 52.8693 317.645 52.685 317.439 52.447C317.239 52.209 317.087 51.9243 316.984 51.593C316.882 51.257 316.83 50.8883 316.83 50.487V45.944H318.335V50.487C318.335 50.9677 318.445 51.341 318.664 51.607C318.888 51.873 319.227 52.006 319.679 52.006C320.011 52.006 320.319 51.9313 320.603 51.782C320.893 51.628 321.163 51.418 321.415 51.152V45.944H322.92ZM326.155 46.889C326.309 46.7303 326.468 46.588 326.631 46.462C326.799 46.3313 326.976 46.2193 327.163 46.126C327.35 46.0327 327.548 45.9603 327.758 45.909C327.968 45.8577 328.197 45.832 328.444 45.832C328.836 45.832 329.179 45.8973 329.473 46.028C329.772 46.1587 330.021 46.343 330.222 46.581C330.427 46.819 330.581 47.106 330.684 47.442C330.787 47.7733 330.838 48.1397 330.838 48.541V53.084H329.34V48.541C329.34 48.0603 329.228 47.687 329.004 47.421C328.785 47.155 328.449 47.022 327.996 47.022C327.66 47.022 327.347 47.099 327.058 47.253C326.773 47.407 326.505 47.617 326.253 47.883V53.084H324.748V45.944H325.658C325.863 45.944 325.994 46.0397 326.05 46.231L326.155 46.889ZM337.153 47.701C336.943 47.4303 336.712 47.2413 336.46 47.134C336.208 47.0267 335.935 46.973 335.641 46.973C335.053 46.973 334.593 47.19 334.262 47.624C333.93 48.0533 333.765 48.6903 333.765 49.535C333.765 49.9737 333.802 50.3493 333.877 50.662C333.951 50.97 334.059 51.222 334.199 51.418C334.339 51.614 334.509 51.7563 334.71 51.845C334.91 51.9337 335.137 51.978 335.389 51.978C335.771 51.978 336.1 51.8963 336.376 51.733C336.656 51.565 336.915 51.3293 337.153 51.026V47.701ZM338.658 42.724V53.084H337.748C337.547 53.084 337.419 52.9883 337.363 52.797L337.23 52.02C336.931 52.37 336.59 52.6523 336.208 52.867C335.83 53.0817 335.389 53.189 334.885 53.189C334.483 53.189 334.119 53.1097 333.793 52.951C333.466 52.7877 333.186 52.552 332.953 52.244C332.719 51.936 332.537 51.5557 332.407 51.103C332.281 50.6457 332.218 50.123 332.218 49.535C332.218 49.003 332.288 48.5107 332.428 48.058C332.572 47.6053 332.778 47.2133 333.044 46.882C333.31 46.546 333.632 46.2847 334.01 46.098C334.392 45.9067 334.819 45.811 335.291 45.811C335.711 45.811 336.068 45.8787 336.362 46.014C336.656 46.1447 336.919 46.329 337.153 46.567V42.724H338.658ZM350.914 53.084H349.409V47.127H345.93V51.18C345.93 51.4367 345.993 51.6327 346.119 51.768C346.245 51.9033 346.413 51.971 346.623 51.971C346.74 51.971 346.84 51.957 346.924 51.929C347.008 51.8963 347.081 51.8637 347.141 51.831C347.202 51.7937 347.253 51.761 347.295 51.733C347.342 51.7003 347.386 51.684 347.428 51.684C347.512 51.684 347.58 51.7307 347.631 51.824L348.079 52.559C347.846 52.7643 347.571 52.923 347.253 53.035C346.936 53.1423 346.609 53.196 346.273 53.196C345.681 53.196 345.223 53.0303 344.901 52.699C344.584 52.363 344.425 51.8917 344.425 51.285V47.127H343.641C343.557 47.127 343.485 47.1013 343.424 47.05C343.364 46.994 343.333 46.9123 343.333 46.805V46.196L344.488 46.028L344.817 43.963C344.841 43.8837 344.88 43.8207 344.936 43.774C344.992 43.7227 345.067 43.697 345.16 43.697H345.93V46.042H350.914V53.084ZM351.222 43.753C351.222 43.8883 351.194 44.0167 351.138 44.138C351.087 44.2547 351.015 44.3597 350.921 44.453C350.828 44.5417 350.718 44.614 350.592 44.67C350.471 44.7213 350.343 44.747 350.207 44.747C350.072 44.747 349.944 44.7213 349.822 44.67C349.706 44.614 349.601 44.5417 349.507 44.453C349.419 44.3597 349.346 44.2547 349.29 44.138C349.239 44.0167 349.213 43.8883 349.213 43.753C349.213 43.613 349.239 43.4823 349.29 43.361C349.346 43.235 349.419 43.1277 349.507 43.039C349.601 42.9457 349.706 42.8733 349.822 42.822C349.944 42.766 350.072 42.738 350.207 42.738C350.343 42.738 350.471 42.766 350.592 42.822C350.718 42.8733 350.828 42.9457 350.921 43.039C351.015 43.1277 351.087 43.235 351.138 43.361C351.194 43.4823 351.222 43.613 351.222 43.753ZM352.816 53.084V45.944H353.726C353.932 45.944 354.062 46.0397 354.118 46.231L354.216 46.854C354.347 46.7047 354.482 46.5693 354.622 46.448C354.762 46.322 354.912 46.2147 355.07 46.126C355.234 46.0327 355.406 45.9603 355.588 45.909C355.775 45.8577 355.976 45.832 356.19 45.832C356.419 45.832 356.629 45.8647 356.82 45.93C357.012 45.9953 357.18 46.0887 357.324 46.21C357.474 46.3313 357.602 46.4783 357.709 46.651C357.817 46.8237 357.905 47.0173 357.975 47.232C358.083 46.9847 358.218 46.7723 358.381 46.595C358.545 46.4177 358.727 46.273 358.927 46.161C359.128 46.049 359.34 45.9673 359.564 45.916C359.793 45.86 360.024 45.832 360.257 45.832C360.64 45.832 360.981 45.8927 361.279 46.014C361.583 46.1353 361.837 46.3127 362.042 46.546C362.252 46.7747 362.411 47.057 362.518 47.393C362.626 47.729 362.679 48.1117 362.679 48.541V53.084H361.174V48.541C361.174 48.037 361.065 47.659 360.845 47.407C360.631 47.1503 360.311 47.022 359.886 47.022C359.695 47.022 359.515 47.0547 359.347 47.12C359.179 47.1853 359.032 47.281 358.906 47.407C358.78 47.533 358.68 47.6917 358.605 47.883C358.535 48.0697 358.5 48.289 358.5 48.541V53.084H356.995V48.541C356.995 48.0183 356.89 47.6357 356.68 47.393C356.47 47.1457 356.162 47.022 355.756 47.022C355.476 47.022 355.217 47.0943 354.979 47.239C354.741 47.379 354.522 47.5727 354.321 47.82V53.084H352.816ZM369.121 48.709C369.121 48.457 369.083 48.2237 369.009 48.009C368.939 47.7897 368.834 47.6007 368.694 47.442C368.554 47.2787 368.379 47.1527 368.169 47.064C367.963 46.9707 367.725 46.924 367.455 46.924C366.909 46.924 366.479 47.0803 366.167 47.393C365.854 47.7057 365.656 48.1443 365.572 48.709H369.121ZM365.53 49.633C365.548 50.039 365.611 50.3913 365.719 50.69C365.826 50.984 365.968 51.229 366.146 51.425C366.328 51.621 366.542 51.768 366.79 51.866C367.042 51.9593 367.322 52.006 367.63 52.006C367.924 52.006 368.178 51.9733 368.393 51.908C368.607 51.838 368.794 51.7633 368.953 51.684C369.111 51.6 369.247 51.5253 369.359 51.46C369.471 51.39 369.573 51.355 369.667 51.355C369.788 51.355 369.881 51.4017 369.947 51.495L370.374 52.048C370.196 52.258 369.996 52.4353 369.772 52.58C369.548 52.7247 369.31 52.8437 369.058 52.937C368.806 53.0257 368.547 53.0887 368.281 53.126C368.015 53.168 367.756 53.189 367.504 53.189C367.009 53.189 366.549 53.1073 366.125 52.944C365.705 52.776 365.338 52.531 365.026 52.209C364.718 51.887 364.475 51.488 364.298 51.012C364.125 50.536 364.039 49.9877 364.039 49.367C364.039 48.8723 364.116 48.4103 364.27 47.981C364.428 47.5517 364.652 47.1783 364.942 46.861C365.236 46.5437 365.59 46.294 366.006 46.112C366.426 45.9253 366.899 45.832 367.427 45.832C367.865 45.832 368.271 45.9043 368.645 46.049C369.018 46.189 369.34 46.3967 369.611 46.672C369.881 46.9473 370.091 47.2857 370.241 47.687C370.395 48.0837 370.472 48.5363 370.472 49.045C370.472 49.2783 370.446 49.4347 370.395 49.514C370.343 49.5933 370.25 49.633 370.115 49.633H365.53Z" fill="black"/>
<defs>
<clipPath id="clip0_1484_19462">
<rect width="25" height="25" fill="white" transform="translate(0 0.0839844)"/>
</clipPath>
<clipPath id="clip1_1484_19462">
<rect width="25" height="25" fill="white" transform="translate(195 0.0839844)"/>
</clipPath>
<clipPath id="clip2_1484_19462">
<rect width="25" height="25" fill="white" transform="translate(0 35.084)"/>
</clipPath>
<clipPath id="clip3_1484_19462">
<rect width="25" height="25" fill="white" transform="translate(195 35.084)"/>
</clipPath>
</defs>
</svg>
