<svg width="390" height="190" viewBox="0 0 390 190" fill="none" xmlns="http://www.w3.org/2000/svg">
<g filter="url(#filter0_d_1434_2160)">
<rect x="5" y="3" width="120" height="40" rx="5" fill="white" shape-rendering="crispEdges"/>
<path d="M39.0477 18.124V28.2302H35.5228V26.9771C34.8036 27.9687 33.7685 28.5353 32.2921 28.5353C29.9276 28.5353 28.5547 27.1569 28.5547 24.629V18.124H32.0796V23.8935C32.0796 25.2283 32.6298 25.7731 33.7304 25.7731C34.8908 25.7731 35.5282 25.1302 35.5282 23.79V18.124H39.0477ZM52.1557 23.1689C52.1557 24.3403 51.9433 25.2937 51.5837 26.0837C50.8428 27.6037 49.4263 28.5135 47.4867 28.5135C46.1138 28.5135 45.0569 28.0667 44.316 27.1133V32.3162H40.7911V18.124H44.2397V19.3389C45.0024 18.3038 46.0757 17.8189 47.4922 17.8189C49.4371 17.8189 50.8482 18.7342 51.5891 20.2706C51.9433 21.0605 52.1557 22.0139 52.1557 23.1689ZM48.402 23.1689C48.402 22.4607 48.3148 21.954 48.146 21.589C47.83 20.9189 47.198 20.5756 46.3317 20.5756C45.0024 20.5756 44.2833 21.382 44.2833 22.8802V23.425C44.2833 24.9232 45.0024 25.7295 46.3317 25.7295C47.198 25.7295 47.83 25.3863 48.146 24.7162C48.3148 24.3621 48.402 23.8717 48.402 23.1689ZM69.911 18.124H73.4196V19.0338C73.9698 18.1839 74.5582 17.8407 75.4081 17.8407C76.6721 17.8407 77.4784 18.6307 77.4784 19.802C77.4784 20.9352 76.6557 21.7688 75.4517 21.7688C74.7108 21.7688 74.0788 21.3983 73.8009 20.8535C73.5067 20.9734 73.4414 21.1368 73.4414 21.845V28.2193H69.9165L69.911 18.124ZM88.636 22.4171V28.2302H85.1111V27.0371C84.4138 27.9687 83.3351 28.5135 81.6244 28.5135C79.9572 28.5135 78.7096 27.9469 78.1866 26.8137C77.9742 26.4105 77.8924 25.942 77.8924 25.3754C77.8924 24.8306 77.9742 24.3839 78.143 23.997C78.9058 22.4171 80.9488 22.0521 83.5257 22.0521H85.1111V21.8886C85.1111 21.2839 85.073 21.0605 84.9422 20.7936C84.7352 20.3523 84.2449 20.1235 83.4876 20.1235C82.6649 20.1235 82.2019 20.3305 81.9894 20.7718C81.9077 20.9734 81.8859 21.115 81.8641 21.382H78.2738C78.2956 20.8317 78.4046 20.3686 78.5898 19.9655C79.2871 18.4836 81.085 17.8189 83.4495 17.8189C85.9992 17.8189 87.5028 18.4618 88.2002 19.9219C88.4889 20.5974 88.636 21.4255 88.636 22.4171ZM84.9204 25.1902C85.0675 24.9069 85.1111 24.6236 85.1111 24.0788V23.9371H83.76C82.7467 23.9371 81.924 24.0406 81.6952 24.5691C81.6298 24.6889 81.5917 24.8306 81.5917 25.0104C81.5917 25.1902 81.6135 25.3373 81.6952 25.4953C81.9077 25.942 82.4579 26.1 83.0953 26.1C84.0324 26.1 84.6426 25.7786 84.9204 25.1902ZM101.444 13.9399V28.2302H98.0067V27.0153C97.244 28.0286 96.1871 28.5135 94.7542 28.5135C92.8093 28.5135 91.3982 27.62 90.6573 26.0837C90.2977 25.2937 90.0852 24.3403 90.0852 23.1689C90.0852 22.0194 90.2977 21.066 90.6573 20.276C91.371 18.7396 92.8093 17.8244 94.7542 17.8244C96.1271 17.8244 97.1623 18.2711 97.9195 19.2191V13.9399H101.444V13.9399ZM97.9577 22.8856C97.9577 21.3874 97.2385 20.5811 95.9092 20.5811C95.043 20.5811 94.411 20.9243 94.095 21.5944C93.9261 21.9595 93.8389 22.4661 93.8389 23.1744C93.8389 23.9044 93.9261 24.3893 94.095 24.7761C94.411 25.4408 95.043 25.7895 95.9092 25.7895C97.2385 25.7895 97.9577 24.9777 97.9577 23.4849V22.8856ZM61.9459 20.6247V23.2289H64.2232L64.1415 23.5721C63.8582 24.7053 62.4471 25.4626 61.3031 25.4626C59.7177 25.4626 57.6637 24.7325 57.6637 21.2403C57.6637 18.3474 58.9822 16.969 61.0089 16.969C62.1148 16.969 62.9647 17.2196 63.4768 17.9551C63.6893 18.282 63.8854 18.7233 63.9127 19.0938H67.9497C67.9497 19.0938 68.0478 17.2959 66.5223 15.7378C66.4951 15.7105 66.4733 15.6887 66.4515 15.6669C65.2202 14.3921 63.3733 13.6838 61.0906 13.6838C56.427 13.6838 53.4142 16.6585 53.4142 21.2621C53.4142 26.5849 57.2279 28.4754 60.4967 28.4754C62.3327 28.4754 63.9781 27.9469 64.9859 26.9172L65.035 28.2302H68.1949V20.6247H61.9459Z" fill="#42175B"/>
<rect x="5.1" y="3.1" width="119.8" height="39.8" rx="4.9" stroke="black" stroke-width="0.2" shape-rendering="crispEdges"/>
</g>
<g filter="url(#filter1_d_1434_2160)">
<rect x="135" y="3" width="120" height="40" rx="5" fill="white" shape-rendering="crispEdges"/>
<path d="M219.294 23.0343C219.294 22.7522 219.279 22.4701 219.263 22.2032C219.248 21.9363 219.202 21.6542 219.172 21.3873H215.359H211.547L210.388 23.2021L209.229 25.0169H215.108C214.765 26.2064 214.086 27.2281 213.179 27.9449C212.271 28.6693 211.127 29.1039 209.793 29.1039C208.131 29.1039 206.659 28.4176 205.576 27.3044C204.494 26.1911 203.838 24.6737 203.838 22.9962C203.838 21.3492 204.494 19.8471 205.592 18.7491C206.674 17.6511 208.176 16.9648 209.839 16.9648C210.563 16.9648 211.234 17.0716 211.859 17.2927C212.485 17.4986 213.049 17.8112 213.552 18.1848L214.574 16.5531L215.596 14.9213C214.81 14.3723 213.933 13.93 212.965 13.6479C212.012 13.3505 210.96 13.2057 209.862 13.2057C208.39 13.2057 207.056 13.4725 205.881 13.9605C204.707 14.4485 203.655 15.15 202.778 16.0269C200.696 18.1086 200.094 20.2283 199.69 22.1575C199.263 24.1018 199.034 25.8709 197.608 27.2815C197.013 27.8762 196.373 28.3337 195.649 28.6311C194.924 28.9285 194.162 29.0886 193.331 29.0886C191.623 29.0886 190.082 28.3795 188.954 27.2739C187.841 26.1606 187.154 24.6432 187.154 22.9962C187.154 21.3797 187.841 19.8776 188.954 18.7643C190.067 17.6511 191.6 16.9496 193.331 16.9267C194.055 16.9419 194.711 17.0487 195.321 17.2393C195.931 17.4299 196.495 17.7273 196.998 18.1009L198.035 16.4692L199.072 14.8374C198.287 14.2884 197.41 13.869 196.457 13.5869C195.504 13.3048 194.451 13.1599 193.353 13.1599C191.661 13.1599 190.075 13.564 188.695 14.2884C187.314 15.0128 186.14 16.0269 185.248 17.2546C184.905 16.1718 184.18 15.2492 183.197 14.6087C182.206 13.9529 180.955 13.5717 179.544 13.5717H175.122H170.707V23.0267V32.4513H180.429C181.649 32.4513 182.747 32.1539 183.654 31.6506C184.562 31.1474 185.286 30.4306 185.789 29.5843C186.697 30.5908 187.795 31.399 189.053 31.9633C190.311 32.5275 191.699 32.8401 193.209 32.8401C194.962 32.8401 196.579 32.436 197.974 31.6964C199.37 30.9568 200.544 29.9121 201.451 28.6082C202.313 29.8969 203.487 30.9415 204.898 31.6811C206.293 32.4208 207.94 32.8401 209.694 32.8401C212.408 32.8401 214.803 31.7421 216.526 29.9579C218.249 28.2041 219.294 25.7489 219.294 23.0343ZM174.794 21.2348V17.1097H179.453C180.048 17.1097 180.566 17.3308 180.94 17.6892C181.313 18.0476 181.55 18.5661 181.55 19.1608C181.55 19.7556 181.313 20.2741 180.94 20.6325C180.566 21.0061 180.032 21.2272 179.453 21.2272H177.127H174.794V21.2348ZM174.794 28.959V24.6814H180.376C181.001 24.6814 181.55 24.9177 181.962 25.2914C182.366 25.665 182.617 26.1987 182.617 26.8087C182.617 27.4187 182.366 27.9525 181.962 28.3414C181.557 28.7303 181.008 28.9666 180.376 28.9666H177.585H174.794V28.959Z" fill="#42175B"/>
<rect x="135.1" y="3.1" width="119.8" height="39.8" rx="4.9" stroke="black" stroke-width="0.2" shape-rendering="crispEdges"/>
</g>
<g filter="url(#filter2_d_1434_2160)">
<rect x="265" y="3" width="120" height="40" rx="5" fill="white" shape-rendering="crispEdges"/>
<path d="M314.556 30.2391H318.026L320.747 20.1326H317.277L314.556 30.2391Z" fill="#42175B"/>
<path d="M332.353 30.2391H335.823L338.544 20.1326H335.074L332.353 30.2391Z" fill="#42175B"/>
<path d="M350.151 30.2391H353.622L356.343 20.1326H352.872L350.151 30.2391Z" fill="#42175B"/>
<path d="M329.132 23.5755H332.602C333.074 21.2987 331.603 20.1326 328.188 20.1326C324.245 20.1326 321.58 22.0484 320.691 25.408C319.886 28.4344 321.496 30.2669 325.189 30.2669C328.937 30.2669 331.131 29.1007 332.075 26.4908H328.604C328.132 27.6292 327.216 28.24 325.967 28.24C324.301 28.24 323.634 27.1849 324.134 25.2414C324.662 23.2423 325.939 22.1317 327.632 22.1317C328.715 22.1594 329.215 22.6314 329.132 23.5755Z" fill="#42175B"/>
<path d="M346.93 23.5755H350.4C350.872 21.2987 349.401 20.1326 345.986 20.1326C342.043 20.1326 339.377 22.0484 338.489 25.408C337.684 28.4344 339.294 30.2669 342.987 30.2669C346.735 30.2669 348.929 29.1007 349.873 26.4908H346.402C345.93 27.6292 345.014 28.24 343.764 28.24C342.098 28.24 341.432 27.1849 341.932 25.2414C342.459 23.2423 343.737 22.1317 345.43 22.1317C346.513 22.1594 347.013 22.6314 346.93 23.5755Z" fill="#42175B"/>
<path d="M298.952 17.2727C303.589 12.6915 309.197 11.4976 311.446 14.635C313.695 17.7725 311.724 24.0752 307.087 28.6842C302.45 33.2655 296.842 34.4594 294.593 31.3219C292.344 28.1845 294.287 21.8818 298.952 17.2727Z" fill="#42175B"/>
<path d="M302.006 14.8293C301.506 15.218 300.979 15.6345 300.479 16.1343C296.398 20.1325 294.732 25.63 296.731 28.3787C298.785 31.1275 303.811 30.1279 307.948 26.0742C310.169 23.9085 311.669 21.3819 312.307 19.0496C312.501 17.3282 312.252 15.8011 311.474 14.635C309.642 12.1916 305.838 12.386 302.006 14.8293Z" fill="#42175B"/>
<path d="M307.587 14.6903C308.114 15.2178 307.809 16.4117 306.865 17.3557C305.921 18.272 304.727 18.6052 304.199 18.0776C303.644 17.5501 303.977 16.3562 304.893 15.4122C305.865 14.4404 307.059 14.1627 307.587 14.6903ZM304.31 30.9329C302.145 32.5711 299.896 33.3763 297.702 33.0431C298.618 33.0986 299.368 32.0713 299.979 30.7108C300.59 29.3225 300.978 28.0176 301.256 26.7959C301.7 24.8801 301.728 23.4918 301.506 23.1864C301.145 22.6867 300.284 22.8255 299.34 23.3808C298.896 23.6307 298.285 23.4641 299.007 22.6034C299.729 21.7149 302.617 19.6047 303.672 19.2715C304.81 18.9383 306.115 19.3826 305.671 20.632C305.338 21.5483 301.339 32.0435 304.31 30.9329Z" fill="white"/>
<rect x="265.1" y="3.1" width="119.8" height="39.8" rx="4.9" stroke="black" stroke-width="0.2" shape-rendering="crispEdges"/>
</g>
<g filter="url(#filter3_d_1434_2160)">
<rect x="5" y="73" width="120" height="40" rx="5" fill="white" shape-rendering="crispEdges"/>
<path fill-rule="evenodd" clip-rule="evenodd" d="M57.1175 89.9025C56.7741 89.2444 56.3306 88.6006 55.7869 87.9996C54.5421 86.6547 52.7823 85.5387 50.7077 84.7661C48.6188 83.9935 46.2151 83.5786 43.7972 83.5786C41.3649 83.5786 38.9755 83.9935 36.8866 84.7661C34.7977 85.5387 33.0379 86.6547 31.7931 87.9996C31.2352 88.6006 30.7916 89.2301 30.4482 89.9025C33.1524 89.2587 37.788 88.3859 42.0803 88.3001C42.4952 88.2858 42.7813 88.4289 42.9673 88.6578C43.1963 88.9439 43.1819 89.9884 43.1676 90.4462L43.0389 102.407C43.2821 102.422 43.5253 102.422 43.7686 102.422C44.0118 102.422 44.255 102.422 44.4982 102.407L44.3695 90.4462C44.3695 89.9884 44.3409 88.9439 44.5698 88.6578C44.7558 88.4146 45.0419 88.2858 45.4568 88.3001C49.792 88.3859 54.4134 89.2444 57.1175 89.9025Z" fill="#42175B"/>
<path fill-rule="evenodd" clip-rule="evenodd" d="M57.6902 91.4619C53.7413 90.5605 51.0944 90.4031 48.4761 90.2601C46.2012 90.1313 46.1726 90.9468 46.4015 92.492C46.4158 92.5922 46.4301 92.7067 46.4587 92.8354C47.217 97.3566 48.1756 101.248 48.333 101.906C53.8843 100.633 57.8761 97.1277 57.8761 92.9928C57.8761 92.4777 57.8189 91.9627 57.6902 91.4619Z" fill="#42175B"/>
<path fill-rule="evenodd" clip-rule="evenodd" d="M41.166 92.492C41.395 90.9468 41.3664 90.1313 39.0915 90.2601C36.4732 90.4031 33.8406 90.5748 29.8774 91.4619C29.7629 91.9627 29.6914 92.4777 29.6914 93.0071C29.6914 94.7956 30.4211 96.5125 31.7946 98.0004C33.0394 99.3453 34.7992 100.461 36.8738 101.234C37.6321 101.52 38.419 101.735 39.2345 101.921C39.3919 101.305 40.3648 97.328 41.1374 92.7353C41.1517 92.6351 41.166 92.5636 41.166 92.492Z" fill="#42175B"/>
<path fill-rule="evenodd" clip-rule="evenodd" d="M62.6943 88.3145H71.751V91.0615H69.147V97.6859H65.3698V91.0615H62.6943V88.3145Z" fill="#42175B"/>
<path fill-rule="evenodd" clip-rule="evenodd" d="M76.3293 92.1059L74.4264 97.6859H70.8066L74.3549 88.3145H78.2895L81.9379 97.6859H78.2609L76.3293 92.1059Z" fill="#42175B"/>
<path fill-rule="evenodd" clip-rule="evenodd" d="M81.0654 88.3145H90.1221V91.0615H87.5324V97.6859H83.7552V91.0615H81.0654V88.3145Z" fill="#42175B"/>
<path fill-rule="evenodd" clip-rule="evenodd" d="M94.7147 92.1059L92.7975 97.6859H89.1777L92.7403 88.3145H96.6749L100.309 97.6859H96.6463L94.7147 92.1059Z" fill="#42175B"/>
<rect x="5.1" y="73.1" width="119.8" height="39.8" rx="4.9" stroke="black" stroke-width="0.2" shape-rendering="crispEdges"/>
</g>
<g filter="url(#filter4_d_1434_2160)">
<rect x="135" y="73" width="120" height="40" rx="5" fill="white" shape-rendering="crispEdges"/>
<path d="M191.353 99.0412C191.582 101.194 190.143 102.73 188.377 102.936C187.458 103.033 186.611 102.742 185.898 102.15C185.184 101.557 184.821 100.771 184.724 99.8274C184.204 99.8879 183.684 99.9242 183.188 99.9968C182.729 100.057 182.269 100.094 181.809 100.166C181.483 100.227 181.386 100.106 181.313 99.8032C180.926 98.1704 180.491 96.5617 180.14 94.9046C179.814 93.3323 179.62 91.7599 179.62 90.1996C179.62 89.6069 179.717 88.9901 179.85 88.3974C180.007 87.5023 180.564 86.8371 181.35 86.4138C182.463 85.7969 183.636 85.3736 184.845 85.0712C186.672 84.6116 188.534 84.1882 190.409 83.8979C192.139 83.6077 193.905 83.4383 195.671 83.2811C197.376 83.148 199.069 83.0513 200.775 83.0513C202.601 83.0513 204.403 83.1843 206.23 83.2811C206.883 83.3174 207.403 83.7044 207.863 84.2003C208.746 85.1438 209.241 86.2928 209.629 87.5386C210.245 89.4981 210.511 91.5543 210.378 93.6225C210.318 94.699 210.149 95.7755 209.689 96.7915C209.629 96.9608 209.52 97.0213 209.326 97.0576C208.407 97.1544 207.5 97.2511 206.58 97.3479C206.447 97.3842 206.29 97.3842 206.121 97.4084C206.484 98.5816 206.351 99.6944 205.564 100.65C205.008 101.364 204.258 101.763 203.375 101.859C201.476 102.089 199.481 100.614 199.65 98.0978C196.88 98.4123 194.134 98.7388 191.353 99.0412ZM180.37 90.3447C180.503 91.5543 180.564 92.6307 180.757 93.7072C181.084 95.4731 181.543 97.1786 181.93 98.9324C181.991 99.2952 182.16 99.2952 182.45 99.2589C183.067 99.1622 183.72 99.0896 184.349 99.0291C184.615 98.9929 184.736 98.9324 184.773 98.6663C185.063 97.3963 186.309 96.3077 187.579 96.2109C189.115 96.0779 190.228 96.731 190.978 98.0373C191.074 98.2067 191.147 98.2671 191.34 98.2308C191.994 98.1704 192.647 98.0978 193.3 98.001C194.316 97.868 195.296 97.7712 196.312 97.6382C197.388 97.5051 198.465 97.3721 199.577 97.2753C199.771 97.239 199.843 97.1786 199.94 97.0092C201.017 94.7474 203.992 94.4208 205.564 96.3924C205.698 96.5617 205.794 96.5859 205.988 96.5859C206.931 96.4891 207.851 96.3561 208.794 96.2593C208.987 96.223 209.121 96.1626 209.157 95.969C209.326 95.1466 209.544 94.3725 209.58 93.5137C209.713 91.4212 209.411 89.3892 208.758 87.4298C208.431 86.4863 208.044 85.6034 207.355 84.8414C206.992 84.4543 206.605 84.1277 206.085 84.0552C204.742 83.9584 203.399 83.8254 202.069 83.8254C199.976 83.8254 197.884 83.9221 195.828 84.0552C194.195 84.1519 192.562 84.3455 190.953 84.5753C188.692 84.9018 186.442 85.3615 184.289 86.0509C183.345 86.3412 182.366 86.704 181.507 87.2604C181.12 87.5265 180.818 87.8168 180.721 88.2764C180.564 89.0021 180.467 89.7158 180.37 90.3447ZM202.988 101.061C204.391 101.061 205.504 99.9484 205.504 98.5816C205.504 97.1786 204.355 96.0658 202.952 96.0658C201.549 96.0658 200.472 97.1786 200.472 98.5816C200.472 99.9484 201.585 101.061 202.988 101.061ZM190.566 99.6581C190.566 98.3155 189.683 97.1786 188.244 97.0697C186.865 96.9729 185.631 98.0494 185.559 99.392C185.498 100.831 186.539 102.005 187.942 102.101C189.321 102.21 190.566 101.061 190.566 99.6581Z" fill="#42175B"/>
<path d="M195.042 87.4297C196.082 87.4297 197.098 87.333 198.114 87.466C199.324 87.6354 199.457 88.9658 199.058 89.6915C198.888 89.9576 198.562 90.1149 198.368 90.3084C198.501 90.3689 198.658 90.4415 198.828 90.5382C199.384 90.9011 199.65 91.4212 199.481 92.1711C199.348 92.8605 198.925 93.3806 198.235 93.4774C197.183 93.6104 196.106 93.5741 195.066 93.6104C195.042 91.4575 195.042 89.4255 195.042 87.4297ZM196.36 92.5339C196.723 92.5339 197.074 92.5702 197.437 92.5339C197.933 92.4735 198.15 92.1711 198.15 91.651C198.15 91.1309 197.921 90.7317 197.461 90.6713C197.098 90.635 196.711 90.6713 196.348 90.6713C196.36 91.2881 196.36 91.8808 196.36 92.5339ZM196.36 88.3732C196.36 88.9658 196.36 89.4859 196.36 90.0786C196.651 90.0786 196.917 90.0786 197.207 90.0786C197.667 90.0786 197.896 89.7883 197.921 89.365C197.957 88.8086 197.691 88.4457 197.268 88.4215C196.941 88.349 196.687 88.3732 196.36 88.3732Z" fill="#42175B"/>
<path d="M193.965 93.5138C193.542 93.4775 193.046 93.7436 192.816 93.1267C192.647 93.1872 192.55 93.2598 192.429 93.3202C191.45 93.8403 190.397 93.5138 189.974 92.4978C189.611 91.6753 189.611 90.8649 190.034 90.0787C190.555 89.1595 191.51 88.9659 192.49 89.1595C192.587 89.1958 192.659 89.2199 192.816 89.2562C192.816 88.8934 192.816 88.6031 192.816 88.3128C192.816 88.0225 192.816 87.7201 192.816 87.3936C193.203 87.3936 193.603 87.3936 193.965 87.3936C193.965 89.4256 193.965 91.4576 193.965 93.5138ZM192.792 91.2519C192.792 90.9859 192.792 90.7319 192.792 90.502C192.792 90.4053 192.756 90.3085 192.732 90.2359C192.272 89.8489 191.232 89.8489 191.063 90.623C191.002 90.9133 190.966 91.2399 191.002 91.5664C191.063 92.4131 191.788 92.8122 192.538 92.4131C192.732 92.3163 192.865 92.1833 192.828 91.9535C192.756 91.7116 192.792 91.4818 192.792 91.2519Z" fill="#42175B"/>
<path d="M189.296 91.5781C188.184 91.5781 187.143 91.5781 186.127 91.5781C186.164 92.1345 186.551 92.5941 187.143 92.5578C187.663 92.5215 188.196 92.4248 188.74 92.328C188.74 92.5578 188.74 92.8239 188.74 93.1142C188.74 93.1747 188.679 93.2835 188.643 93.3077C187.7 93.7673 185.934 93.8278 185.172 92.5578C184.712 91.7353 184.785 90.5258 185.341 89.8122C185.934 89.0623 186.914 88.7599 187.857 89.0623C188.571 89.2921 188.97 89.8485 189.163 90.5621C189.224 90.9008 189.224 91.191 189.296 91.5781ZM188.087 90.9975C188.147 90.5016 187.663 89.9815 187.143 89.9815C186.527 89.9452 186.091 90.3444 186.091 90.9975C186.744 90.9975 187.434 90.9975 188.087 90.9975Z" fill="#42175B"/>
<path d="M203.157 93.5498C203.121 93.3805 203.121 93.2595 203.121 93.0902C202.952 93.1869 202.794 93.2595 202.661 93.32C202.274 93.5135 201.839 93.6828 201.391 93.5861C200.774 93.453 200.375 93.0902 200.351 92.437C200.315 91.3847 200.351 90.3445 200.351 89.2681C200.714 89.2681 201.065 89.2681 201.5 89.2681C201.5 89.3648 201.5 89.4616 201.5 89.5946C201.5 90.3083 201.5 90.9977 201.5 91.7234C201.5 92.3403 201.863 92.6426 202.48 92.5096C203 92.4128 203.169 92.183 203.169 91.6266C203.169 90.8405 203.169 90.0905 203.169 89.2681C203.556 89.2681 203.919 89.2681 204.318 89.2681C204.318 89.3648 204.355 89.4979 204.355 89.5946C204.355 90.8042 204.355 92.0137 204.355 93.1869C204.355 93.453 204.294 93.5498 203.992 93.5498C203.677 93.5135 203.411 93.5498 203.157 93.5498Z" fill="#42175B"/>
<path d="M205.153 93.3442C205.153 92.9208 205.153 92.5943 205.153 92.3282C205.673 92.4249 206.206 92.5217 206.726 92.5943C206.859 92.6306 207.016 92.5943 207.113 92.5338C207.246 92.437 207.439 92.2677 207.476 92.1467C207.476 92.0137 207.306 91.7839 207.149 91.7597C206.822 91.6629 206.46 91.6267 206.133 91.5662C205.214 91.3726 204.887 90.2599 205.516 89.5705C205.879 89.1471 206.339 88.9778 206.895 88.9778C207.282 88.9778 207.681 89.0383 208.068 89.1108C208.129 89.1108 208.226 89.2439 208.226 89.3044C208.262 89.5946 208.226 89.8607 208.226 90.151C207.802 90.0905 207.379 90.018 206.956 89.9575C206.822 89.9575 206.689 89.9575 206.593 90.018C206.46 90.0785 206.302 90.2478 206.327 90.3446C206.327 90.4413 206.496 90.6348 206.617 90.6711C206.883 90.7679 207.173 90.7679 207.464 90.8405C208.02 90.9372 208.407 91.2033 208.576 91.7597C208.746 92.3161 208.48 92.9329 208.02 93.2958C207.56 93.6587 207.004 93.6828 206.448 93.6224C206 93.5498 205.577 93.4168 205.153 93.3442Z" fill="#42175B"/>
<path d="M181.676 89.2318C182.063 89.1955 182.462 89.1714 182.849 89.1351C182.849 89.2681 182.885 89.3649 182.885 89.5221C183.055 89.4254 183.176 89.3891 183.273 89.2923C183.635 89.0625 183.986 89.002 184.422 89.0625C184.518 89.0625 184.615 89.1955 184.615 89.2923C184.651 89.6552 184.615 90.0059 184.615 90.3083C184.228 90.272 183.829 90.2116 183.442 90.272C182.946 90.3325 182.825 90.5381 182.825 91.0219C182.825 91.8444 182.825 92.6185 182.825 93.5015C182.462 93.5015 182.136 93.5015 181.809 93.5015C181.749 93.5015 181.64 93.3079 181.64 93.2354C181.64 92.0863 181.64 90.9736 181.64 89.8366C181.676 89.6552 181.676 89.4616 181.676 89.2318Z" fill="#42175B"/>
<rect x="135.1" y="73.1" width="119.8" height="39.8" rx="4.9" stroke="black" stroke-width="0.2" shape-rendering="crispEdges"/>
</g>
<g filter="url(#filter5_d_1434_2160)">
<rect x="265" y="73" width="120" height="40" rx="5" fill="white" shape-rendering="crispEdges"/>
<path d="M324.002 93L315.351 84.3481V101.588L324.002 93ZM306.763 93L315.415 84.3481H298.111L306.763 93ZM289.459 93L298.111 101.652V84.3481L289.459 93ZM306.763 93L298.111 101.652H315.351L306.763 93Z" fill="#42175B"/>
<path d="M333.046 93.6408H329.137V97.4861H327.214V88.5138H329.137V92.2309H333.046V88.5138H334.969V97.4861H333.046V93.6408ZM339.711 97.6784C337.788 97.6784 336.186 96.9093 336.122 94.7303H338.045C338.045 95.6917 338.622 96.2684 339.711 96.2684C340.48 96.2684 341.377 95.8839 341.377 94.9867C341.377 94.2817 340.801 94.0895 339.775 93.769L339.134 93.5767C337.724 93.1922 336.314 92.6154 336.314 91.0132C336.314 89.0265 338.173 88.3215 339.903 88.3215C341.634 88.3215 343.172 88.8983 343.172 90.9491H341.249C341.185 90.116 340.672 89.6674 339.775 89.6674C339.07 89.6674 338.365 90.0519 338.365 90.8851C338.365 91.5259 338.942 91.7182 340.224 92.1668L340.929 92.3591C342.467 92.8718 343.428 93.3845 343.428 94.8585C343.428 96.9093 341.441 97.6784 339.711 97.6784ZM344.518 88.5138H347.658C348.235 88.5138 348.876 88.5138 349.452 88.642C350.542 88.8983 351.375 89.6033 351.375 90.821C351.375 91.9745 350.67 92.5513 349.581 92.8718C350.798 93.1281 351.695 93.7049 351.695 95.0508C351.695 97.1016 349.645 97.5502 348.107 97.5502H344.582L344.518 88.5138ZM347.658 92.295C348.491 92.295 349.388 92.1027 349.388 91.0773C349.388 90.116 348.555 89.8596 347.786 89.8596H346.44V92.2309L347.658 92.295ZM347.85 96.1403C348.747 96.1403 349.645 95.948 349.645 94.8585C349.645 93.769 348.876 93.5767 347.978 93.5767H346.44V96.2044L347.85 96.1403ZM356.758 97.6784C353.874 97.6784 352.593 95.8198 352.593 93.064C352.593 90.3083 354.003 88.3215 356.887 88.3215C358.681 88.3215 360.411 89.1547 360.476 91.1414H358.425C358.297 90.2442 357.72 89.7956 356.887 89.7956C355.092 89.7956 354.579 91.7182 354.579 93.1281C354.579 94.5381 355.092 96.2044 356.823 96.2044C357.72 96.2044 358.361 95.6917 358.489 94.7944H360.54C360.219 96.9093 358.617 97.6784 356.758 97.6784Z" fill="#42175B"/>
<rect x="265.1" y="73.1" width="119.8" height="39.8" rx="4.9" stroke="black" stroke-width="0.2" shape-rendering="crispEdges"/>
</g>
<g filter="url(#filter6_d_1434_2160)">
<rect x="70" y="143" width="120" height="40" rx="5" fill="white" shape-rendering="crispEdges"/>
<path d="M148.442 157.254C147.883 157.06 147.421 156.89 147.421 156.525C147.421 156.112 147.713 155.918 148.32 155.918C148.806 155.918 149.413 156.088 149.924 156.38H149.948L150.24 155.481C149.729 155.14 148.855 154.897 148.028 154.897C146.619 154.897 145.769 155.553 145.769 156.671C145.769 157.837 146.741 158.178 147.543 158.518C148.126 158.761 148.709 159.052 148.709 159.49C148.709 159.951 148.369 160.121 147.713 160.121C147.129 160.121 146.473 159.927 145.963 159.611H145.939L145.623 160.534C146.133 160.899 147.081 161.166 147.907 161.166C148.684 161.166 149.292 160.996 149.705 160.632C150.118 160.291 150.312 159.781 150.312 159.149C150.312 157.959 149.268 157.57 148.442 157.254Z" fill="#42175B"/>
<path d="M144.798 159.052V157.546C144.798 156.647 144.579 155.991 144.142 155.553C143.656 155.067 143.121 154.849 142.344 154.849C141.542 154.849 140.594 155.14 139.963 155.578L140.23 156.477H140.254C140.765 156.161 141.348 155.966 141.882 155.966C142.344 155.966 142.733 156.088 142.927 156.306C143.146 156.549 143.243 156.768 143.243 157.376C142.878 157.205 142.417 157.23 141.979 157.23C141.907 157.23 141.858 157.23 141.785 157.23C140.4 157.23 139.525 157.983 139.525 159.222C139.525 159.805 139.72 160.291 140.084 160.631C140.449 160.972 140.983 161.166 141.615 161.166C142.174 161.166 142.854 160.947 143.389 160.583C143.413 160.753 143.462 160.874 143.51 161.02H144.895V160.996C144.822 160.364 144.798 159.951 144.798 159.052ZM143.243 158.275V159.708C142.83 159.951 142.417 160.194 142.125 160.194C141.518 160.194 141.178 159.854 141.178 159.222C141.178 158.542 141.542 158.153 142.198 158.153C142.247 158.153 142.295 158.153 142.32 158.153C142.368 158.153 142.417 158.153 142.49 158.153C142.684 158.153 142.976 158.153 143.243 158.275Z" fill="#42175B"/>
<path d="M109.688 153.682H112.045V161.02H113.819V153.682H116.176V152.419H109.688V153.682Z" fill="#42175B"/>
<path d="M118.557 161.02V156.428C118.897 156.185 119.334 156.039 119.698 156.039C120.354 156.039 120.67 156.477 120.67 157.4V161.02H122.323V157.424C122.323 156.574 122.128 155.942 121.715 155.505C121.326 155.092 120.913 154.922 120.306 154.922C119.698 154.922 119.067 155.092 118.557 155.408V152.419H116.904V160.996L118.557 161.02Z" fill="#42175B"/>
<path d="M137.096 161.02H138.749V157.424C138.749 156.501 138.579 155.894 138.19 155.481C137.825 155.092 137.388 154.897 136.805 154.897C136.124 154.897 135.396 155.165 134.764 155.651C134.74 155.626 134.715 155.578 134.691 155.553C134.667 155.529 134.667 155.529 134.642 155.505C134.278 155.116 133.816 154.922 133.257 154.922C132.626 154.922 131.97 155.14 131.411 155.553C131.362 155.408 131.338 155.335 131.314 155.262C131.289 155.213 131.289 155.14 131.265 155.092H129.929V160.996H131.581V157.74C131.581 157.473 131.581 157.206 131.581 156.963C131.581 156.768 131.581 156.574 131.581 156.404C131.994 156.088 132.407 156.015 132.674 156.015C132.917 156.015 133.112 156.088 133.257 156.234C133.452 156.477 133.549 156.793 133.549 157.376V160.996H135.201V157.4C135.201 157.206 135.201 157.036 135.201 156.841C135.201 156.671 135.201 156.501 135.201 156.355C135.614 156.039 135.979 155.991 136.246 155.991C136.489 155.991 136.683 156.064 136.829 156.21C137.023 156.452 137.121 156.768 137.121 157.351L137.096 161.02Z" fill="#42175B"/>
<path d="M126.09 161.166C127.038 161.166 127.815 160.875 128.35 160.34C128.884 159.805 129.151 159.028 129.151 158.105C129.151 157.157 128.884 156.38 128.35 155.796C127.815 155.213 127.038 154.897 126.09 154.897C124.219 154.897 123.077 156.064 123.077 158.032C123.101 159.976 124.219 161.166 126.09 161.166ZM126.09 155.869C126.94 155.869 127.378 156.598 127.378 158.032C127.378 159.465 126.94 160.194 126.09 160.194C125.24 160.194 124.802 159.465 124.802 158.032C124.802 156.598 125.24 155.869 126.09 155.869Z" fill="#42175B"/>
<path d="M122.714 172.002C122.058 172.269 121.208 172.39 120.722 172.39C120.042 172.39 119.556 172.22 119.191 171.904C118.584 171.346 118.316 170.495 118.316 169.232C118.316 167.725 118.754 166.948 119.143 166.559C119.483 166.219 119.969 166.049 120.576 166.049C121.135 166.049 121.985 166.195 122.666 166.535H122.69L123.006 165.514C122.228 165.053 121.183 164.883 120.455 164.883C119.288 164.883 118.365 165.223 117.685 165.927C116.907 166.729 116.494 167.871 116.494 169.232C116.494 170.738 116.931 171.929 117.758 172.658C118.414 173.265 119.337 173.557 120.479 173.557C121.208 173.557 122.228 173.411 123.006 173.046L122.714 172.002Z" fill="#42175B"/>
<path d="M126.358 167.312C124.487 167.312 123.345 168.479 123.345 170.447C123.345 172.415 124.462 173.581 126.358 173.581C128.228 173.581 129.37 172.415 129.37 170.447C129.37 168.479 128.253 167.312 126.358 167.312ZM126.358 172.585C125.507 172.585 125.07 171.856 125.07 170.422C125.07 168.989 125.507 168.26 126.358 168.26C127.208 168.26 127.645 168.989 127.645 170.422C127.67 171.856 127.232 172.585 126.358 172.585Z" fill="#42175B"/>
<path d="M142.274 167.458H140.549L138.338 169.645V164.81H136.686V173.411H138.338V170.836L140.403 173.387V173.411H142.322L139.601 170.058L142.274 167.458Z" fill="#42175B"/>
<path d="M132.919 167.312C131.048 167.312 129.906 168.479 129.906 170.447C129.906 172.415 131.024 173.581 132.919 173.581C134.79 173.581 135.908 172.415 135.908 170.447C135.908 168.479 134.79 167.312 132.919 167.312ZM132.919 172.585C132.069 172.585 131.631 171.856 131.631 170.422C131.631 168.989 132.069 168.26 132.919 168.26C133.77 168.26 134.207 168.989 134.207 170.422C134.207 171.856 133.77 172.585 132.919 172.585Z" fill="#42175B"/>
<rect x="70.1" y="143.1" width="119.8" height="39.8" rx="4.9" stroke="black" stroke-width="0.2" shape-rendering="crispEdges"/>
</g>
<g filter="url(#filter7_d_1434_2160)">
<rect x="200" y="143" width="120" height="40" rx="5" fill="white" shape-rendering="crispEdges"/>
<path d="M223.587 154.556C223.587 154.635 223.646 154.684 223.695 154.743C225.017 156.721 226.349 158.7 227.672 160.669C227.76 160.806 227.75 160.865 227.623 160.963C224.547 163.323 221.471 165.684 218.395 168.045C218.307 168.113 218.199 168.153 218.082 168.153C217.278 168.153 216.475 168.153 215.672 168.153C215.662 168.064 215.721 168.016 215.75 167.957C218.317 163.549 220.883 159.131 223.459 154.723C223.499 154.664 223.518 154.605 223.548 154.547H223.587V154.556Z" fill="#42175B"/>
<path d="M220.267 168.231L233.295 158.21C233.265 158.563 233.236 158.886 233.216 159.21C233.138 160.14 233.06 161.071 232.971 162.001C232.883 163.049 232.785 164.098 232.697 165.146C232.619 166.047 232.54 166.958 232.472 167.859C232.442 168.221 232.452 168.221 232.09 168.221H220.267V168.231Z" fill="#42175B"/>
<path d="M223.657 169.357C226.507 169.357 229.358 169.357 232.208 169.357C232.365 169.357 232.424 169.396 232.424 169.563C232.414 170.121 232.414 170.689 232.424 171.258C232.424 171.414 232.375 171.453 232.218 171.453C229.211 171.453 226.204 171.444 223.196 171.453C220.483 171.453 217.779 171.453 215.066 171.453C214.9 171.453 214.851 171.414 214.851 171.248C214.86 170.689 214.86 170.121 214.851 169.553C214.851 169.387 214.9 169.357 215.056 169.357C217.926 169.357 220.796 169.357 223.657 169.357Z" fill="#42175B"/>
<path d="M214.096 157.985C214.164 158.034 214.213 158.054 214.243 158.083C215.585 159.033 216.927 159.983 218.278 160.934C218.367 160.992 218.416 161.041 218.347 161.159C217.211 163.089 216.094 165.028 214.968 166.968C214.948 166.997 214.928 167.026 214.889 167.095C214.625 164.039 214.36 161.032 214.096 157.985Z" fill="#42175B"/>
<path d="M237.334 158.924C238.392 158.924 239.45 158.954 240.498 158.915C240.919 158.905 241.056 159.061 241.145 159.434C241.664 161.638 242.202 163.832 242.761 166.153C242.849 165.909 242.898 165.781 242.937 165.654C243.495 163.567 244.064 161.481 244.612 159.394C244.71 159.032 244.857 158.895 245.239 158.915C245.935 158.954 246.62 158.944 247.316 158.915C247.629 158.905 247.757 159.003 247.845 159.316C248.413 161.471 249.001 163.626 249.588 165.771C249.608 165.83 249.627 165.889 249.676 166.036C249.921 165.536 249.98 165.066 250.088 164.616C250.519 162.872 250.95 161.128 251.351 159.375C251.43 159.042 251.538 158.885 251.929 158.905C252.86 158.944 253.8 158.924 254.731 158.915C255.084 158.905 255.133 159.003 255.025 159.326C253.869 162.999 252.723 166.682 251.587 170.365C251.498 170.65 251.371 170.748 251.087 170.738C250.274 170.718 249.461 170.718 248.648 170.738C248.315 170.748 248.207 170.61 248.129 170.317C247.502 167.946 246.865 165.585 246.228 163.215C246.042 163.293 246.072 163.45 246.032 163.577C245.464 165.781 244.886 167.995 244.338 170.209C244.24 170.591 244.083 170.699 243.701 170.689C242.937 170.659 242.173 170.659 241.419 170.689C241.017 170.708 240.851 170.581 240.743 170.189C239.685 166.663 238.607 163.146 237.53 159.63C237.481 159.453 237.481 159.257 237.314 159.12L237.334 158.924Z" fill="#42175B"/>
<path d="M305.903 170.659C304.552 170.669 303.2 170.669 301.858 170.689C301.593 170.689 301.505 170.512 301.397 170.346L299.34 167.172C299.154 167.172 299.125 167.339 299.056 167.437C298.42 168.406 297.783 169.376 297.166 170.356C297.019 170.581 296.872 170.699 296.588 170.689C295.432 170.669 294.266 170.689 293.11 170.679C292.983 170.679 292.817 170.757 292.738 170.591C292.66 170.424 292.817 170.336 292.885 170.228C294.188 168.436 295.481 166.643 296.803 164.87C297.078 164.508 297.048 164.283 296.794 163.94C295.677 162.441 294.59 160.923 293.502 159.404C293.404 159.267 293.257 159.159 293.248 158.905C294.58 158.905 295.902 158.905 297.225 158.905C297.469 158.905 297.518 159.12 297.607 159.277C298.155 160.159 298.684 161.04 299.272 161.99C299.84 161.07 300.398 160.217 300.888 159.336C301.094 158.973 301.319 158.875 301.711 158.885C302.906 158.905 304.101 158.895 305.316 158.895C305.326 159.13 305.159 159.248 305.051 159.385C303.905 160.952 302.759 162.51 301.603 164.067C301.466 164.263 301.349 164.41 301.535 164.655C302.955 166.555 304.356 168.455 305.776 170.366C305.805 170.405 305.854 170.415 305.903 170.444V170.659V170.659Z" fill="#42175B"/>
<path d="M264.829 160.129C264.868 158.905 264.868 158.905 265.945 158.905C266.602 158.905 267.258 158.915 267.914 158.905C268.189 158.895 268.316 158.944 268.316 159.267C268.306 162.95 268.306 166.634 268.316 170.327C268.316 170.64 268.198 170.699 267.924 170.699C267.091 170.689 266.259 170.669 265.436 170.709C264.956 170.728 264.77 170.581 264.848 170.111C264.858 169.945 264.858 169.778 264.848 169.611C264.574 169.905 264.388 170.15 264.163 170.346C263.134 171.247 261.89 171.335 260.636 171.149C257.57 170.699 255.415 168.191 255.327 165.047C255.239 161.902 257.247 159.316 260.303 158.66C261.087 158.484 261.89 158.474 262.674 158.631C263.545 158.807 264.241 159.277 264.829 160.129ZM261.821 167.77C263.477 167.78 264.848 166.428 264.838 164.792C264.829 163.195 263.496 161.844 261.9 161.834C260.264 161.795 258.893 163.088 258.853 164.723C258.814 166.359 260.107 167.731 261.743 167.77C261.772 167.77 261.792 167.77 261.821 167.77Z" fill="#42175B"/>
<path d="M274.968 161.559C273.391 161.559 271.922 161.55 270.453 161.569C270.08 161.569 269.924 161.501 269.953 161.089C269.992 160.482 269.973 159.875 269.953 159.277C269.943 159.013 270.031 158.915 270.306 158.915C272.99 158.924 275.674 158.924 278.358 158.915C278.632 158.915 278.72 158.993 278.71 159.267C278.691 159.992 278.691 160.717 278.71 161.452C278.72 161.706 278.593 161.873 278.465 162.059L274.586 167.446C274.469 167.613 274.351 167.78 274.234 167.946C274.341 168.122 274.498 168.054 274.625 168.054C275.86 168.064 277.084 168.073 278.309 168.054C278.632 168.054 278.73 168.142 278.72 168.465C278.7 169.073 278.691 169.68 278.72 170.277C278.74 170.64 278.593 170.708 278.269 170.699C275.634 170.689 273.009 170.689 270.374 170.699C270.071 170.699 269.914 170.62 269.963 170.297C269.973 170.258 269.973 170.228 269.963 170.189C269.767 168.877 270.198 167.819 271.05 166.79C272.304 165.291 273.411 163.675 274.576 162.108C274.684 161.951 274.802 161.794 274.968 161.559Z" fill="#42175B"/>
<path d="M289.692 160.071C290.358 159.16 291.161 158.68 292.17 158.543C292.523 158.494 292.709 158.523 292.689 158.964C292.66 159.865 292.67 160.766 292.689 161.658C292.689 161.942 292.621 162.079 292.317 162.059C292.18 162.059 292.043 162.079 291.906 162.118C290.534 162.314 289.937 162.98 289.937 164.371C289.927 166.271 289.917 168.172 289.946 170.082C289.956 170.533 289.868 170.719 289.359 170.699C288.497 170.65 287.625 170.679 286.763 170.689C286.469 170.689 286.371 170.601 286.371 170.307C286.381 166.624 286.381 162.941 286.371 159.258C286.371 158.984 286.469 158.905 286.734 158.905C287.566 158.915 288.399 158.935 289.222 158.895C289.633 158.876 289.741 159.023 289.692 159.395C289.682 159.62 289.682 159.846 289.692 160.071Z" fill="#42175B"/>
<path d="M283.862 164.841C283.862 166.624 283.853 168.407 283.872 170.19C283.872 170.562 283.804 170.709 283.392 170.699C282.491 170.67 281.59 170.679 280.689 170.699C280.395 170.699 280.307 170.601 280.307 170.307C280.316 166.634 280.316 162.97 280.307 159.297C280.307 158.954 280.434 158.905 280.738 158.905C281.639 158.925 282.54 158.925 283.441 158.905C283.784 158.895 283.882 159.003 283.882 159.346C283.862 161.178 283.862 163.009 283.862 164.841Z" fill="#42175B"/>
<path d="M283.587 156.319C283.597 157.132 282.951 157.798 282.147 157.808C282.118 157.808 282.098 157.808 282.069 157.808C281.236 157.808 280.561 157.132 280.561 156.289C280.561 156.289 280.561 156.289 280.561 156.28C280.58 155.447 281.256 154.781 282.098 154.771C282.931 154.791 283.597 155.476 283.587 156.319C283.587 156.309 283.587 156.309 283.587 156.319Z" fill="#42175B"/>
<rect x="200.1" y="143.1" width="119.8" height="39.8" rx="4.9" stroke="black" stroke-width="0.2" shape-rendering="crispEdges"/>
</g>
<defs>
<filter id="filter0_d_1434_2160" x="0" y="0" width="130" height="50" filterUnits="userSpaceOnUse" color-interpolation-filters="sRGB">
<feFlood flood-opacity="0" result="BackgroundImageFix"/>
<feColorMatrix in="SourceAlpha" type="matrix" values="0 0 0 0 0 0 0 0 0 0 0 0 0 0 0 0 0 0 127 0" result="hardAlpha"/>
<feOffset dy="2"/>
<feGaussianBlur stdDeviation="2.5"/>
<feComposite in2="hardAlpha" operator="out"/>
<feColorMatrix type="matrix" values="0 0 0 0 0 0 0 0 0 0 0 0 0 0 0 0 0 0 0.1 0"/>
<feBlend mode="normal" in2="BackgroundImageFix" result="effect1_dropShadow_1434_2160"/>
<feBlend mode="normal" in="SourceGraphic" in2="effect1_dropShadow_1434_2160" result="shape"/>
</filter>
<filter id="filter1_d_1434_2160" x="130" y="0" width="130" height="50" filterUnits="userSpaceOnUse" color-interpolation-filters="sRGB">
<feFlood flood-opacity="0" result="BackgroundImageFix"/>
<feColorMatrix in="SourceAlpha" type="matrix" values="0 0 0 0 0 0 0 0 0 0 0 0 0 0 0 0 0 0 127 0" result="hardAlpha"/>
<feOffset dy="2"/>
<feGaussianBlur stdDeviation="2.5"/>
<feComposite in2="hardAlpha" operator="out"/>
<feColorMatrix type="matrix" values="0 0 0 0 0 0 0 0 0 0 0 0 0 0 0 0 0 0 0.1 0"/>
<feBlend mode="normal" in2="BackgroundImageFix" result="effect1_dropShadow_1434_2160"/>
<feBlend mode="normal" in="SourceGraphic" in2="effect1_dropShadow_1434_2160" result="shape"/>
</filter>
<filter id="filter2_d_1434_2160" x="260" y="0" width="130" height="50" filterUnits="userSpaceOnUse" color-interpolation-filters="sRGB">
<feFlood flood-opacity="0" result="BackgroundImageFix"/>
<feColorMatrix in="SourceAlpha" type="matrix" values="0 0 0 0 0 0 0 0 0 0 0 0 0 0 0 0 0 0 127 0" result="hardAlpha"/>
<feOffset dy="2"/>
<feGaussianBlur stdDeviation="2.5"/>
<feComposite in2="hardAlpha" operator="out"/>
<feColorMatrix type="matrix" values="0 0 0 0 0 0 0 0 0 0 0 0 0 0 0 0 0 0 0.1 0"/>
<feBlend mode="normal" in2="BackgroundImageFix" result="effect1_dropShadow_1434_2160"/>
<feBlend mode="normal" in="SourceGraphic" in2="effect1_dropShadow_1434_2160" result="shape"/>
</filter>
<filter id="filter3_d_1434_2160" x="0" y="70" width="130" height="50" filterUnits="userSpaceOnUse" color-interpolation-filters="sRGB">
<feFlood flood-opacity="0" result="BackgroundImageFix"/>
<feColorMatrix in="SourceAlpha" type="matrix" values="0 0 0 0 0 0 0 0 0 0 0 0 0 0 0 0 0 0 127 0" result="hardAlpha"/>
<feOffset dy="2"/>
<feGaussianBlur stdDeviation="2.5"/>
<feComposite in2="hardAlpha" operator="out"/>
<feColorMatrix type="matrix" values="0 0 0 0 0 0 0 0 0 0 0 0 0 0 0 0 0 0 0.1 0"/>
<feBlend mode="normal" in2="BackgroundImageFix" result="effect1_dropShadow_1434_2160"/>
<feBlend mode="normal" in="SourceGraphic" in2="effect1_dropShadow_1434_2160" result="shape"/>
</filter>
<filter id="filter4_d_1434_2160" x="130" y="70" width="130" height="50" filterUnits="userSpaceOnUse" color-interpolation-filters="sRGB">
<feFlood flood-opacity="0" result="BackgroundImageFix"/>
<feColorMatrix in="SourceAlpha" type="matrix" values="0 0 0 0 0 0 0 0 0 0 0 0 0 0 0 0 0 0 127 0" result="hardAlpha"/>
<feOffset dy="2"/>
<feGaussianBlur stdDeviation="2.5"/>
<feComposite in2="hardAlpha" operator="out"/>
<feColorMatrix type="matrix" values="0 0 0 0 0 0 0 0 0 0 0 0 0 0 0 0 0 0 0.1 0"/>
<feBlend mode="normal" in2="BackgroundImageFix" result="effect1_dropShadow_1434_2160"/>
<feBlend mode="normal" in="SourceGraphic" in2="effect1_dropShadow_1434_2160" result="shape"/>
</filter>
<filter id="filter5_d_1434_2160" x="260" y="70" width="130" height="50" filterUnits="userSpaceOnUse" color-interpolation-filters="sRGB">
<feFlood flood-opacity="0" result="BackgroundImageFix"/>
<feColorMatrix in="SourceAlpha" type="matrix" values="0 0 0 0 0 0 0 0 0 0 0 0 0 0 0 0 0 0 127 0" result="hardAlpha"/>
<feOffset dy="2"/>
<feGaussianBlur stdDeviation="2.5"/>
<feComposite in2="hardAlpha" operator="out"/>
<feColorMatrix type="matrix" values="0 0 0 0 0 0 0 0 0 0 0 0 0 0 0 0 0 0 0.1 0"/>
<feBlend mode="normal" in2="BackgroundImageFix" result="effect1_dropShadow_1434_2160"/>
<feBlend mode="normal" in="SourceGraphic" in2="effect1_dropShadow_1434_2160" result="shape"/>
</filter>
<filter id="filter6_d_1434_2160" x="65" y="140" width="130" height="50" filterUnits="userSpaceOnUse" color-interpolation-filters="sRGB">
<feFlood flood-opacity="0" result="BackgroundImageFix"/>
<feColorMatrix in="SourceAlpha" type="matrix" values="0 0 0 0 0 0 0 0 0 0 0 0 0 0 0 0 0 0 127 0" result="hardAlpha"/>
<feOffset dy="2"/>
<feGaussianBlur stdDeviation="2.5"/>
<feComposite in2="hardAlpha" operator="out"/>
<feColorMatrix type="matrix" values="0 0 0 0 0 0 0 0 0 0 0 0 0 0 0 0 0 0 0.1 0"/>
<feBlend mode="normal" in2="BackgroundImageFix" result="effect1_dropShadow_1434_2160"/>
<feBlend mode="normal" in="SourceGraphic" in2="effect1_dropShadow_1434_2160" result="shape"/>
</filter>
<filter id="filter7_d_1434_2160" x="195" y="140" width="130" height="50" filterUnits="userSpaceOnUse" color-interpolation-filters="sRGB">
<feFlood flood-opacity="0" result="BackgroundImageFix"/>
<feColorMatrix in="SourceAlpha" type="matrix" values="0 0 0 0 0 0 0 0 0 0 0 0 0 0 0 0 0 0 127 0" result="hardAlpha"/>
<feOffset dy="2"/>
<feGaussianBlur stdDeviation="2.5"/>
<feComposite in2="hardAlpha" operator="out"/>
<feColorMatrix type="matrix" values="0 0 0 0 0 0 0 0 0 0 0 0 0 0 0 0 0 0 0.1 0"/>
<feBlend mode="normal" in2="BackgroundImageFix" result="effect1_dropShadow_1434_2160"/>
<feBlend mode="normal" in="SourceGraphic" in2="effect1_dropShadow_1434_2160" result="shape"/>
</filter>
</defs>
</svg>
