<svg width="44" height="44" viewBox="0 0 44 44" fill="none" xmlns="http://www.w3.org/2000/svg">
<rect width="44" height="44" rx="10" fill="#42175B"/>
<g clip-path="url(#clip0_1463_4481)">
<path d="M18.4277 19.9219C18.0049 19.9219 17.6621 20.2646 17.6621 20.6875C17.6621 21.1104 18.0049 21.4531 18.4277 21.4531H21.4902C21.9131 21.4531 22.2559 21.1104 22.2559 20.6875C22.2559 20.2646 21.9131 19.9219 21.4902 19.9219H18.4277Z" fill="white"/>
<path d="M17.6621 23.75C17.6621 23.3271 18.0049 22.9844 18.4277 22.9844H26.084C26.5068 22.9844 26.8496 23.3271 26.8496 23.75C26.8496 24.1729 26.5068 24.5156 26.084 24.5156H18.4277C18.0049 24.5156 17.6621 24.1729 17.6621 23.75Z" fill="white"/>
<path fill-rule="evenodd" clip-rule="evenodd" d="M16.1309 11.5C14.8623 11.5 13.834 12.5283 13.834 13.7969V30.6406C13.834 31.9092 14.8623 32.9375 16.1309 32.9375H26.8496C28.9638 32.9375 30.6777 31.2236 30.6777 29.1094V15.3281C30.6777 13.2139 28.9638 11.5 26.8496 11.5H16.1309ZM29.1465 26.8125V15.3281C29.1465 14.0596 28.1182 13.0312 26.8496 13.0312H16.1309C15.708 13.0312 15.3652 13.374 15.3652 13.7969V26.8125H29.1465ZM15.3652 28.3438H29.1465V29.1094C29.1465 30.3779 28.1182 31.4062 26.8496 31.4062H16.1309C15.708 31.4062 15.3652 31.0635 15.3652 30.6406V28.3438Z" fill="white"/>
</g>
<defs>
<clipPath id="clip0_1463_4481">
<rect width="21" height="21" fill="white" transform="translate(11.5 11.5)"/>
</clipPath>
</defs>
</svg>
