<svg width="49" height="45" viewBox="0 0 49 45" fill="none" xmlns="http://www.w3.org/2000/svg">
<rect x="0.5" y="0.233398" width="48.5" height="44.5" rx="10" fill="#42175B"/>
<g clip-path="url(#clip0_661_504)">
<g clip-path="url(#clip1_661_504)">
<path d="M29.9039 12H15.1537C14.7913 12 14.5 12.2964 14.5 12.6588V29.8854C14.5 31.616 15.8992 33 17.6146 33H32.3802C34.1909 33 35.5 31.5291 35.5 29.8854V23.1588C35.5 22.7944 35.2056 22.495 34.8412 22.5H30.5781V12.6588C30.5781 12.3127 30.2999 12 29.9039 12V12ZM15.8125 13.3125H29.2656C29.2557 18.891 29.2508 24.6798 29.2656 29.8854C29.2656 30.5576 29.4752 31.1774 29.8399 31.6875H17.6146C16.6034 31.6875 15.8125 30.8704 15.8125 29.8854V13.3125ZM18.4388 16.5925C17.5629 16.5925 17.5629 17.9062 18.4388 17.9062H26.6394C27.5152 17.9062 27.5152 16.5925 26.6394 16.5925H18.4388ZM18.4388 21.1901H26.6394C27.5173 21.1901 27.5173 19.8776 26.6394 19.8776H18.4388C17.567 19.8776 17.567 21.1901 18.4388 21.1901V21.1901ZM18.4388 24.47H26.6394C27.5173 24.47 27.5173 23.1562 26.6394 23.1562H18.4388C17.567 23.1562 17.567 24.47 18.4388 24.47V24.47ZM30.5781 23.8125H34.1875V29.8854C34.1875 30.896 33.3734 31.6875 32.3802 31.6875C31.3871 31.6875 30.5781 30.896 30.5781 29.8854V23.8125ZM18.4388 26.4362C17.567 26.4362 17.567 27.7487 18.4388 27.7487H26.6394C27.5173 27.7487 27.5173 26.4362 26.6394 26.4362H18.4388Z" fill="white"/>
</g>
</g>
<defs>
<clipPath id="clip0_661_504">
<rect width="21.5" height="21.5" fill="white" transform="translate(14 11.7334)"/>
</clipPath>
<clipPath id="clip1_661_504">
<rect width="21" height="21" fill="white" transform="translate(14.5 12)"/>
</clipPath>
</defs>
</svg>
