<svg width="44" height="44" viewBox="0 0 44 44" fill="none" xmlns="http://www.w3.org/2000/svg">
<rect width="44" height="44" rx="10" fill="#42175B"/>
<g clip-path="url(#clip0_1242_2147)">
<g clip-path="url(#clip1_1242_2147)">
<path d="M27.1539 11.5166H12.4037C12.0413 11.5166 11.75 11.813 11.75 12.1754V29.402C11.75 31.1326 13.1492 32.5166 14.8646 32.5166H29.6302C31.4409 32.5166 32.75 31.0457 32.75 29.402V22.6754C32.75 22.311 32.4556 22.0116 32.0912 22.0166H27.8281V12.1754C27.8281 11.8293 27.5499 11.5166 27.1539 11.5166V11.5166ZM13.0625 12.8291H26.5156C26.5057 18.4076 26.5008 24.1964 26.5156 29.402C26.5156 30.0742 26.7252 30.694 27.0899 31.2041H14.8646C13.8534 31.2041 13.0625 30.387 13.0625 29.402V12.8291ZM15.6888 16.1091C14.8129 16.1091 14.8129 17.4229 15.6888 17.4229H23.8894C24.7652 17.4229 24.7652 16.1091 23.8894 16.1091H15.6888ZM15.6888 20.7067H23.8894C24.7673 20.7067 24.7673 19.3942 23.8894 19.3942H15.6888C14.817 19.3942 14.817 20.7067 15.6888 20.7067V20.7067ZM15.6888 23.9866H23.8894C24.7673 23.9866 24.7673 22.6728 23.8894 22.6728H15.6888C14.817 22.6728 14.817 23.9866 15.6888 23.9866V23.9866ZM27.8281 23.3291H31.4375V29.402C31.4375 30.4126 30.6234 31.2041 29.6302 31.2041C28.6371 31.2041 27.8281 30.4126 27.8281 29.402V23.3291ZM15.6888 25.9528C14.817 25.9528 14.817 27.2653 15.6888 27.2653H23.8894C24.7673 27.2653 24.7673 25.9528 23.8894 25.9528H15.6888Z" fill="white"/>
</g>
</g>
<defs>
<clipPath id="clip0_1242_2147">
<rect width="21.5" height="21.5" fill="white" transform="translate(11.25 11.25)"/>
</clipPath>
<clipPath id="clip1_1242_2147">
<rect width="21" height="21" fill="white" transform="translate(11.75 11.5166)"/>
</clipPath>
</defs>
</svg>
