<svg width="44" height="44" viewBox="0 0 44 44" fill="none" xmlns="http://www.w3.org/2000/svg">
<rect width="44" height="44" rx="10" fill="#42175B"/>
<g clip-path="url(#clip0_1242_2114)">
<path d="M28.5972 11.415H14.5071C13.0503 11.415 11.8652 12.6005 11.8652 14.0569V16.1704C11.8652 16.4621 12.1019 16.6988 12.3936 16.6988H28.5972C28.8889 16.6988 29.1256 16.4621 29.1256 16.1704C29.1256 15.8787 28.8889 15.6421 28.5972 15.6421H12.922V14.0569C12.922 13.1832 13.633 12.4718 14.5071 12.4718H28.5972C29.4713 12.4718 30.1823 13.1832 30.1823 14.0569V29.556C30.1823 30.4297 29.4713 31.1411 28.5972 31.1411H14.5071C13.633 31.1411 12.922 30.4297 12.922 29.556V18.2839C12.922 17.9922 12.6853 17.7556 12.3936 17.7556C12.1019 17.7556 11.8652 17.9922 11.8652 18.2839V29.556C11.8652 31.0125 13.0503 32.1979 14.5071 32.1979H28.5972C30.054 32.1979 31.2391 31.0125 31.2391 29.556V14.0569C31.2391 12.6005 30.054 11.415 28.5972 11.415Z" fill="white"/>
<path d="M15.211 14.5851C15.5028 14.5851 15.7394 14.3485 15.7394 14.0567C15.7394 13.7649 15.5028 13.5283 15.211 13.5283C14.9192 13.5283 14.6826 13.7649 14.6826 14.0567C14.6826 14.3485 14.9192 14.5851 15.211 14.5851Z" fill="white"/>
<path d="M17.3243 14.5851C17.6161 14.5851 17.8527 14.3485 17.8527 14.0567C17.8527 13.7649 17.6161 13.5283 17.3243 13.5283C17.0325 13.5283 16.7959 13.7649 16.7959 14.0567C16.7959 14.3485 17.0325 14.5851 17.3243 14.5851Z" fill="white"/>
<path d="M19.4376 14.5851C19.7294 14.5851 19.9659 14.3485 19.9659 14.0567C19.9659 13.7649 19.7294 13.5283 19.4376 13.5283C19.1457 13.5283 18.9092 13.7649 18.9092 14.0567C18.9092 14.3485 19.1457 14.5851 19.4376 14.5851Z" fill="white"/>
<path d="M22.2053 17.7554H17.3261C16.258 17.7554 15.3887 18.6243 15.3887 19.6928V27.4423C15.3887 28.5107 16.258 29.3797 17.3261 29.3797H22.2053C22.7406 29.3797 23.2545 29.1561 23.615 28.766C23.8131 28.552 23.8001 28.2177 23.5858 28.0195C23.3718 27.8228 23.0374 27.8344 22.8389 28.0491C22.6779 28.2232 22.4468 28.3229 22.2053 28.3229H17.3261C16.8403 28.3229 16.4454 27.928 16.4454 27.4423V19.6928C16.4454 19.207 16.8403 18.8121 17.3261 18.8121H22.2053C22.5431 18.8121 22.8472 19.0041 22.9992 19.313C23.1282 19.5751 23.445 19.6838 23.7065 19.5538C23.9683 19.4251 24.0763 19.1087 23.9473 18.8465C23.6164 18.1737 22.9487 17.7554 22.2053 17.7554V17.7554Z" fill="white"/>
<path d="M18.0303 27.2665H20.7961C20.827 27.2665 23.3196 26.8207 23.3196 26.8207C23.4245 26.8014 23.5212 26.7519 23.5969 26.6769L27.2508 23.0753C27.9838 22.3426 27.9656 21.1317 27.2102 20.3763C26.4555 19.6216 25.2446 19.6023 24.5136 20.333L20.8628 23.9318C20.785 24.0082 20.7327 24.1073 20.7135 24.2146L20.3542 26.2098H18.0303C17.7386 26.2098 17.502 26.4464 17.502 26.7381C17.502 27.0299 17.7386 27.2665 18.0303 27.2665V27.2665ZM21.7238 24.5668L25.258 21.0829C25.579 20.7616 26.1201 20.7815 26.463 21.1234C26.8063 21.4668 26.8246 22.0068 26.5064 22.3254L22.9715 25.8094L21.4507 26.0832L21.7238 24.5668Z" fill="white"/>
<path d="M18.0303 20.9259H21.5006C21.7923 20.9259 22.0289 20.6892 22.0289 20.3975C22.0289 20.1058 21.7923 19.8691 21.5006 19.8691H18.0303C17.7386 19.8691 17.502 20.1058 17.502 20.3975C17.502 20.6892 17.7386 20.9259 18.0303 20.9259Z" fill="white"/>
<path d="M18.0303 23.0392H19.387C19.6788 23.0392 19.9154 22.8025 19.9154 22.5108C19.9154 22.2191 19.6788 21.9824 19.387 21.9824H18.0303C17.7386 21.9824 17.502 22.2191 17.502 22.5108C17.502 22.8025 17.7386 23.0392 18.0303 23.0392Z" fill="white"/>
<path d="M18.0303 25.1529H19.387C19.6788 25.1529 19.9154 24.9163 19.9154 24.6246C19.9154 24.3329 19.6788 24.0962 19.387 24.0962H18.0303C17.7386 24.0962 17.502 24.3329 17.502 24.6246C17.502 24.9163 17.7386 25.1529 18.0303 25.1529Z" fill="white"/>
</g>
<defs>
<clipPath id="clip0_1242_2114">
<rect width="21.5" height="21.5" fill="white" transform="translate(11.25 11.25)"/>
</clipPath>
</defs>
</svg>
