<svg width="49" height="45" viewBox="0 0 49 45" fill="none" xmlns="http://www.w3.org/2000/svg">
<rect x="0.5" y="0.233398" width="48.5" height="44.5" rx="10" fill="#42175B"/>
<g clip-path="url(#clip0_661_472)">
<path d="M31.3467 11.8984H17.2566C15.7998 11.8984 14.6147 13.0838 14.6147 14.5403V16.6538C14.6147 16.9455 14.8514 17.1822 15.1431 17.1822H31.3467C31.6384 17.1822 31.8751 16.9455 31.8751 16.6538C31.8751 16.3621 31.6384 16.1255 31.3467 16.1255H15.6715V14.5403C15.6715 13.6666 16.3825 12.9552 17.2566 12.9552H31.3467C32.2208 12.9552 32.9318 13.6666 32.9318 14.5403V30.0394C32.9318 30.9131 32.2208 31.6245 31.3467 31.6245H17.2566C16.3825 31.6245 15.6715 30.9131 15.6715 30.0394V18.7673C15.6715 18.4756 15.4348 18.239 15.1431 18.239C14.8514 18.239 14.6147 18.4756 14.6147 18.7673V30.0394C14.6147 31.4959 15.7998 32.6813 17.2566 32.6813H31.3467C32.8035 32.6813 33.9886 31.4959 33.9886 30.0394V14.5403C33.9886 13.0838 32.8035 11.8984 31.3467 11.8984Z" fill="white"/>
<path d="M17.96 15.0685C18.2518 15.0685 18.4884 14.8319 18.4884 14.5401C18.4884 14.2483 18.2518 14.0117 17.96 14.0117C17.6682 14.0117 17.4316 14.2483 17.4316 14.5401C17.4316 14.8319 17.6682 15.0685 17.96 15.0685Z" fill="white"/>
<path d="M20.0733 15.0685C20.3651 15.0685 20.6017 14.8319 20.6017 14.5401C20.6017 14.2483 20.3651 14.0117 20.0733 14.0117C19.7815 14.0117 19.5449 14.2483 19.5449 14.5401C19.5449 14.8319 19.7815 15.0685 20.0733 15.0685Z" fill="white"/>
<path d="M22.1871 15.0685C22.4789 15.0685 22.7154 14.8319 22.7154 14.5401C22.7154 14.2483 22.4789 14.0117 22.1871 14.0117C21.8953 14.0117 21.6587 14.2483 21.6587 14.5401C21.6587 14.8319 21.8953 15.0685 22.1871 15.0685Z" fill="white"/>
<path d="M24.9548 18.2393H20.0756C19.0075 18.2393 18.1382 19.1082 18.1382 20.1766V27.9262C18.1382 28.9946 19.0075 29.8636 20.0756 29.8636H24.9548C25.4901 29.8636 26.004 29.64 26.3645 29.2499C26.5626 29.0359 26.5496 28.7015 26.3353 28.5034C26.1213 28.3066 25.7869 28.3183 25.5884 28.533C25.4275 28.707 25.1963 28.8068 24.9548 28.8068H20.0756C19.5898 28.8068 19.1949 28.4119 19.1949 27.9262V20.1766C19.1949 19.6909 19.5898 19.296 20.0756 19.296H24.9548C25.2926 19.296 25.5967 19.488 25.7487 19.7969C25.8777 20.059 26.1946 20.1677 26.456 20.0377C26.7178 19.909 26.8258 19.5925 26.6968 19.3304C26.3659 18.6576 25.6982 18.2393 24.9548 18.2393Z" fill="white"/>
<path d="M20.7798 27.7494H23.5456C23.5765 27.7494 26.0691 27.3036 26.0691 27.3036C26.174 27.2844 26.2707 27.2348 26.3464 27.1598L30.0003 23.5582C30.7334 22.8255 30.7151 21.6146 29.9597 20.8592C29.205 20.1045 27.9941 20.0852 27.2631 20.8159L23.6123 24.4148C23.5345 24.4911 23.4823 24.5902 23.463 24.6975L23.1038 26.6927H20.7798C20.4881 26.6927 20.2515 26.9293 20.2515 27.2211C20.2515 27.5128 20.4881 27.7494 20.7798 27.7494ZM24.4733 25.0498L28.0075 21.5658C28.3285 21.2445 28.8696 21.2644 29.2126 21.6064C29.5559 21.9497 29.5741 22.4897 29.2559 22.8083L25.721 26.2923L24.2002 26.5661L24.4733 25.0498Z" fill="white"/>
<path d="M20.7798 21.4093H24.2501C24.5418 21.4093 24.7784 21.1726 24.7784 20.8809C24.7784 20.5892 24.5418 20.3525 24.2501 20.3525H20.7798C20.4881 20.3525 20.2515 20.5892 20.2515 20.8809C20.2515 21.1726 20.4881 21.4093 20.7798 21.4093Z" fill="white"/>
<path d="M20.7798 23.5226H22.1366C22.4283 23.5226 22.6649 23.2859 22.6649 22.9942C22.6649 22.7025 22.4283 22.4658 22.1366 22.4658H20.7798C20.4881 22.4658 20.2515 22.7025 20.2515 22.9942C20.2515 23.2859 20.4881 23.5226 20.7798 23.5226Z" fill="white"/>
<path d="M20.7798 25.6359H22.1366C22.4283 25.6359 22.6649 25.3992 22.6649 25.1075C22.6649 24.8158 22.4283 24.5791 22.1366 24.5791H20.7798C20.4881 24.5791 20.2515 24.8158 20.2515 25.1075C20.2515 25.3992 20.4881 25.6359 20.7798 25.6359Z" fill="white"/>
</g>
<defs>
<clipPath id="clip0_661_472">
<rect width="21.5" height="21.5" fill="white" transform="translate(14 11.7334)"/>
</clipPath>
</defs>
</svg>
