<svg width="44" height="44" viewBox="0 0 44 44" fill="none" xmlns="http://www.w3.org/2000/svg">
<rect width="44" height="44" rx="10" fill="#42175B"/>
<g clip-path="url(#clip0_1242_2141)">
<g clip-path="url(#clip1_1242_2141)">
<path d="M24.751 13.4775H20.6494C20.3096 13.4775 20.0342 13.753 20.0342 14.0928C20.0342 14.4325 20.3096 14.708 20.6494 14.708H24.751C25.0908 14.708 25.3662 14.4325 25.3662 14.0928C25.3662 13.753 25.0908 13.4775 24.751 13.4775Z" fill="white"/>
<path d="M32.1342 27.5049H30.2885V11.6318C30.2885 11.2921 30.013 11.0166 29.6732 11.0166H15.7279C15.3882 11.0166 15.1127 11.2921 15.1127 11.6318V16.6033C14.0616 17.4691 13.3903 18.7802 13.3903 20.2451C13.3903 21.3081 13.7438 22.29 14.3394 23.0795L11.9969 27.1368C11.4881 28.0181 11.7911 29.1492 12.6725 29.6581C12.9624 29.8255 13.2792 29.905 13.5922 29.905C14.1831 29.905 14.7594 29.6208 15.1127 29.1094V29.7607C15.1127 31.0046 16.1247 32.0166 17.3686 32.0166H30.4936C31.7374 32.0166 32.7494 31.0046 32.7494 29.7607V28.1201C32.7494 27.7803 32.474 27.5049 32.1342 27.5049V27.5049ZM18.107 16.7588C20.0294 16.7588 21.5934 18.3228 21.5934 20.2451C21.5934 22.1675 20.0294 23.7314 18.107 23.7314C16.1847 23.7314 14.6207 22.1675 14.6207 20.2451C14.6207 18.3228 16.1847 16.7588 18.107 16.7588ZM14.1281 28.3672C14.046 28.5096 13.9133 28.6114 13.7546 28.6539C13.5958 28.6963 13.43 28.6746 13.2877 28.5924C13.1454 28.5103 13.0436 28.3776 13.0011 28.2188C12.9585 28.0601 12.9803 27.8943 13.0625 27.752L15.2371 23.9855C15.5614 24.235 15.9189 24.4432 16.3017 24.6025L14.1281 28.3672ZM18.394 28.1201V29.7607C18.394 30.3261 17.934 30.7861 17.3686 30.7861C16.8032 30.7861 16.3432 30.3261 16.3432 29.7607V26.9916L17.5351 24.9271C17.7226 24.9499 17.9135 24.9619 18.107 24.9619C18.7916 24.9619 19.4424 24.8151 20.0301 24.5517H26.9249C27.2647 24.5517 27.5401 24.2763 27.5401 23.9365C27.5401 23.5967 27.2647 23.3212 26.9249 23.3212H21.6798C21.9952 22.9555 22.2554 22.541 22.4476 22.0908H26.9249C27.2647 22.0908 27.5401 21.8153 27.5401 21.4755C27.5401 21.1358 27.2647 20.8603 26.9249 20.8603H22.7837C22.8371 20.4591 22.8371 20.0311 22.7837 19.6298H26.9249C27.2646 19.6298 27.5401 19.3544 27.5401 19.0146C27.5401 18.6748 27.2646 18.3994 26.9249 18.3994H22.4476C22.2554 17.9491 21.9951 17.5346 21.6798 17.1689H27.2123C27.5521 17.1689 27.8275 16.8934 27.8275 16.5537C27.8275 16.2139 27.5521 15.9384 27.2123 15.9384H20.0301C19.4424 15.675 18.7916 15.5283 18.107 15.5283C17.4837 15.5283 16.8884 15.6501 16.3432 15.8707V12.2471H29.058V27.5049H19.0092C18.6694 27.5049 18.394 27.7803 18.394 28.1201V28.1201ZM31.519 29.7607C31.519 30.3261 31.059 30.7861 30.4936 30.7861H19.3776C19.5354 30.4783 19.6244 30.1297 19.6244 29.7607V28.7354H31.519V29.7607Z" fill="white"/>
</g>
</g>
<defs>
<clipPath id="clip0_1242_2141">
<rect width="21.5" height="21.5" fill="white" transform="translate(11.25 11.25)"/>
</clipPath>
<clipPath id="clip1_1242_2141">
<rect width="21" height="21" fill="white" transform="translate(11.75 11.0166)"/>
</clipPath>
</defs>
</svg>
