<svg width="31" height="31" viewBox="0 0 31 31" fill="none" xmlns="http://www.w3.org/2000/svg">
<g clip-path="url(#clip0_158_1807)">
<path d="M27.168 5.82812H26.5757C26.1065 5.82812 25.7261 6.20852 25.7261 6.67773C25.7261 7.14695 26.1065 7.52734 26.5757 7.52734H27.168C27.7926 7.52734 28.3008 8.03552 28.3008 8.66016V19.456C28.3008 19.804 28.143 20.1159 27.8952 20.3238C27.3825 17.9532 25.269 16.1717 22.7472 16.1717C20.7705 16.1717 19.0446 17.2665 18.1439 18.8815C17.4744 18.1894 16.5366 17.7586 15.4999 17.7586C14.4621 17.7586 13.5233 18.1904 12.8536 18.8838C11.9534 17.2675 10.2268 16.1717 8.24898 16.1717C5.72813 16.1717 3.61527 17.9519 3.10154 20.3212C2.85566 20.1133 2.69922 19.8026 2.69922 19.456V8.66016C2.69922 8.03552 3.2074 7.52734 3.83203 7.52734H4.42432C4.89353 7.52734 5.27393 7.14695 5.27393 6.67773C5.27393 6.20852 4.89353 5.82812 4.42432 5.82812H3.83203C2.27045 5.82812 1 7.09857 1 8.66016V19.456C1 20.7404 1.85946 21.8278 3.03351 22.1734C3.39216 24.7307 5.5944 26.7051 8.24909 26.7051C11.1531 26.7051 13.5158 24.3425 13.5158 21.4384H13.5194C13.5194 20.3463 14.4079 19.4578 15.5 19.4578C16.5921 19.4578 17.4806 20.3463 17.4806 21.4384C17.4806 24.3424 19.8432 26.7051 22.7472 26.7051C25.4015 26.7051 27.6035 24.7314 27.9626 22.1745C29.1387 21.8302 30 20.7418 30 19.456V8.66016C30 7.09857 28.7296 5.82812 27.168 5.82812ZM8.24909 25.0058C6.28196 25.0058 4.68164 23.4055 4.68164 21.4384C4.68164 19.4713 6.28196 17.8709 8.24909 17.8709C10.2162 17.8709 11.8165 19.4713 11.8165 21.4384C11.8165 23.4055 10.2162 25.0058 8.24909 25.0058ZM22.7472 25.0058C20.7802 25.0058 19.1798 23.4055 19.1798 21.4384C19.1798 19.4713 20.7802 17.8709 22.7472 17.8709C24.7143 17.8709 26.3147 19.4713 26.3147 21.4384C26.3147 23.4055 24.7144 25.0058 22.7472 25.0058Z" fill="#42175B"/>
</g>
<defs>
<clipPath id="clip0_158_1807">
<rect width="29.9631" height="29.9631" fill="white" transform="translate(0.428711 0.888672)"/>
</clipPath>
</defs>
</svg>
