<svg height="480pt" viewBox="0 0 480 480" width="480pt" xmlns="http://www.w3.org/2000/svg"><path d="m440 48h-16v-8c0-4.417969-3.582031-8-8-8h-24v-24c0-4.417969-3.582031-8-8-8h-112c-12.640625.0351562-24.511719 6.0625-32 16.246094-7.488281-10.183594-19.359375-16.2109378-32-16.246094h-112c-4.417969 0-8 3.582031-8 8v24h-24c-4.417969 0-8 3.582031-8 8v8h-16c-22.082031.027344-39.9726562 17.917969-40 40v256c.0273438 22.082031 17.917969 39.972656 40 40h150.9375l-6 48h-24.9375c-4.417969 0-8 3.582031-8 8v32c0 4.417969 3.582031 8 8 8h160c4.417969 0 8-3.582031 8-8v-32c0-4.417969-3.582031-8-8-8h-24.9375l-6-48h150.9375c22.082031-.027344 39.972656-17.917969 40-40v-256c-.027344-22.082031-17.917969-39.972656-40-40zm-32 0v192h-16v-192zm-158.632812 192c3.402343-9.582031 12.464843-15.988281 22.632812-16h104v16zm22.632812-224h104v192h-104c-8.683594.03125-17.117188 2.914062-24 8.207031v-176.207031c0-13.253906 10.746094-24 24-24zm-168 0h104c13.253906 0 24 10.746094 24 24v176.207031c-6.882812-5.292969-15.316406-8.175781-24-8.207031h-104zm0 208h104c10.167969.011719 19.230469 6.417969 22.632812 16h-126.632812zm-32-176h16v192h-16zm-32 16h16v184c0 4.417969 3.582031 8 8 8h352c4.417969 0 8-3.582031 8-8v-184h16c13.253906 0 24 10.746094 24 24v216h-448v-216c0-13.253906 10.746094-24 24-24zm272 400h-144v-16h144zm-33.0625-32h-77.875l6-48h65.875zm161.0625-64h-400c-13.253906 0-24-10.746094-24-24v-24h448v24c0 13.253906-10.746094 24-24 24zm0 0"/><path d="m429.679688 338.320312c-.75-.742187-1.652344-1.3125-2.640626-1.679687-1.945312-.808594-4.132812-.808594-6.078124 0-.980469.386719-1.875.957031-2.640626 1.679687-.707031.777344-1.273437 1.671876-1.679687 2.640626-1.277344 2.976562-.613281 6.429687 1.679687 8.71875 2.289063 2.292968 5.742188 2.957031 8.71875 1.679687.96875-.40625 1.863282-.972656 2.640626-1.679687 2.289062-2.289063 2.957031-5.742188 1.679687-8.71875-.40625-.96875-.972656-1.863282-1.679687-2.640626zm0 0"/><path d="m280 56h64v16h-64zm0 0"/><path d="m280 104h64v16h-64zm0 0"/><path d="m280 152h64v16h-64zm0 0"/><path d="m136 56h64v16h-64zm0 0"/><path d="m136 104h64v16h-64zm0 0"/><path d="m136 152h64v16h-64zm0 0"/></svg>