<svg width="49" height="49" viewBox="0 0 49 49" fill="none" xmlns="http://www.w3.org/2000/svg">
<rect y="0.0650635" width="48.0123" height="48.0123" rx="11.5692" fill="#42175B"/>
<g clip-path="url(#clip0_653_2580)">
<path d="M30.581 14.14L24.316 12.051C24.1109 11.9827 23.8891 11.9827 23.684 12.051L17.419 14.14C16.4229 14.4709 15.5564 15.1073 14.9426 15.9587C14.3289 16.8102 13.999 17.8334 14 18.883V24C14 31.563 23.2 35.74 23.594 35.914C23.7218 35.9708 23.8601 36.0001 24 36.0001C24.1399 36.0001 24.2782 35.9708 24.406 35.914C24.8 35.74 34 31.563 34 24V18.883C34.001 17.8334 33.6711 16.8102 33.0574 15.9587C32.4436 15.1073 31.5771 14.4709 30.581 14.14V14.14ZM32 24C32 29.455 25.681 33.033 24 33.889C22.317 33.036 16 29.469 16 24V18.883C16.0001 18.2533 16.1983 17.6395 16.5666 17.1287C16.9349 16.6179 17.4545 16.236 18.052 16.037L24 14.054L29.948 16.037C30.5455 16.236 31.0651 16.6179 31.4334 17.1287C31.8017 17.6395 31.9999 18.2533 32 18.883V24Z" fill="white"/>
<path d="M27.3 20.3001L23.112 24.5001L20.868 22.1601C20.7779 22.0616 20.6691 21.9822 20.5478 21.9264C20.4266 21.8707 20.2954 21.8398 20.1621 21.8355C20.0287 21.8312 19.8958 21.8537 19.7713 21.9016C19.6467 21.9494 19.533 22.0217 19.4368 22.1142C19.3407 22.2067 19.264 22.3176 19.2113 22.4402C19.1586 22.5627 19.131 22.6946 19.1301 22.8281C19.1292 22.9615 19.155 23.0938 19.206 23.2171C19.2569 23.3404 19.3321 23.4523 19.427 23.5461L21.733 25.9461C21.905 26.1318 22.1128 26.2808 22.344 26.3839C22.5752 26.487 22.8249 26.5422 23.078 26.5461H23.111C23.359 26.5469 23.6048 26.4984 23.834 26.4035C24.0631 26.3086 24.2712 26.1691 24.446 25.9931L28.718 21.7211C28.8113 21.628 28.8853 21.5174 28.9359 21.3957C28.9865 21.2739 29.0126 21.1434 29.0127 21.0116C29.0129 20.8798 28.987 20.7493 28.9367 20.6274C28.8864 20.5056 28.8126 20.3949 28.7195 20.3016C28.6264 20.2083 28.5158 20.1342 28.3941 20.0836C28.2723 20.0331 28.1419 20.007 28.01 20.0068C27.8782 20.0067 27.7477 20.0325 27.6258 20.0828C27.504 20.1331 27.3933 20.207 27.3 20.3001V20.3001Z" fill="white"/>
</g>
<defs>
<clipPath id="clip0_653_2580">
<rect width="24" height="24" fill="white" transform="translate(12 12)"/>
</clipPath>
</defs>
</svg>
