<svg width="44" height="44" viewBox="0 0 44 44" fill="none" xmlns="http://www.w3.org/2000/svg">
<rect width="44" height="44" rx="10" fill="#42175B"/>
<g clip-path="url(#clip0_1242_2111)">
<path d="M29.1239 24.5139H22.4201C20.8028 24.5139 19.4872 25.8295 19.4872 27.4468C19.4872 29.0641 20.8028 30.3797 22.4201 30.3797H29.1239C30.7412 30.3797 32.0568 29.0641 32.0568 27.4468C32.0568 25.8295 30.7412 24.5139 29.1239 24.5139ZM21.1631 27.4468C21.1631 26.7538 21.7271 26.1899 22.4201 26.1899H23.677V28.7038H22.4201C21.7271 28.7038 21.1631 28.1398 21.1631 27.4468ZM29.1239 28.7038H25.353V26.1899H29.1239C29.8169 26.1899 30.3808 26.7538 30.3808 27.4468C30.3808 28.1398 29.8169 28.7038 29.1239 28.7038ZM22.4201 19.4861H29.1239C30.7412 19.4861 32.0568 18.1705 32.0568 16.5532C32.0568 14.9359 30.7412 13.6203 29.1239 13.6203H22.4201C20.8028 13.6203 19.4872 14.9359 19.4872 16.5532C19.4872 18.1705 20.8028 19.4861 22.4201 19.4861ZM30.3808 16.5532C30.3808 17.2462 29.8169 17.8101 29.1239 17.8101H27.8669V15.2962H29.1239C29.8169 15.2962 30.3808 15.8602 30.3808 16.5532ZM22.4201 15.2962H26.191V17.8101H22.4201C21.7271 17.8101 21.1631 17.2462 21.1631 16.5532C21.1631 15.8602 21.7271 15.2962 22.4201 15.2962ZM15.2973 16.9722C16.6833 16.9722 17.8112 15.8443 17.8112 14.4583C17.8112 13.0722 16.6833 11.9443 15.2973 11.9443C13.9113 11.9443 12.7834 13.0722 12.7834 14.4583C12.7834 15.8443 13.9113 16.9722 15.2973 16.9722ZM18.5964 20.0299C18.759 20.4632 18.5394 20.9458 18.1062 21.1084C18.009 21.1444 17.9101 21.1612 17.8121 21.1612C17.4727 21.1612 17.1534 20.9542 17.0269 20.6173C16.773 19.9403 16.0783 19.4852 15.2982 19.4852C14.518 19.4852 13.8225 19.9403 13.5694 20.6173C13.4077 21.0523 12.9234 21.2701 12.4901 21.1084C12.0569 20.9458 11.8373 20.4623 11.9999 20.0299C12.4977 18.7017 13.8233 17.8101 15.299 17.8101C16.7747 17.8101 18.1003 18.7017 18.5981 20.0299H18.5964ZM17.8112 25.3519C17.8112 23.9659 16.6833 22.838 15.2973 22.838C13.9113 22.838 12.7834 23.9659 12.7834 25.3519C12.7834 26.7379 13.9113 27.8658 15.2973 27.8658C16.6833 27.8658 17.8112 26.7379 17.8112 25.3519ZM18.5964 30.9236C18.759 31.3568 18.5394 31.8395 18.1062 32.002C18.009 32.0381 17.9101 32.0548 17.8121 32.0548C17.4727 32.0548 17.1534 31.8478 17.0269 31.511C16.773 30.8339 16.0783 30.3789 15.2982 30.3789C14.518 30.3789 13.8225 30.8339 13.5694 31.511C13.4077 31.9459 12.9234 32.1638 12.4901 32.002C12.0569 31.8395 11.8373 31.356 11.9999 30.9236C12.4977 29.5954 13.8233 28.7038 15.299 28.7038C16.7747 28.7038 18.1003 29.5954 18.5981 30.9236H18.5964Z" fill="white"/>
</g>
<defs>
<clipPath id="clip0_1242_2111">
<rect width="20.1113" height="20.1113" fill="white" transform="translate(11.9443 11.9443)"/>
</clipPath>
</defs>
</svg>
