<svg width="31" height="31" viewBox="0 0 31 31" fill="none" xmlns="http://www.w3.org/2000/svg">
<g clip-path="url(#clip0_158_1817)">
<path d="M26.4521 19.6156H16.4644C14.0548 19.6156 12.0948 21.5757 12.0948 23.9852C12.0948 26.3947 14.0548 28.3548 16.4644 28.3548H26.4521C28.8616 28.3548 30.8217 26.3947 30.8217 23.9852C30.8217 21.5757 28.8616 19.6156 26.4521 19.6156ZM14.5917 23.9852C14.5917 22.9527 15.4319 22.1125 16.4644 22.1125H18.3371V25.8579H16.4644C15.4319 25.8579 14.5917 25.0177 14.5917 23.9852ZM26.4521 25.8579H20.834V22.1125H26.4521C27.4845 22.1125 28.3248 22.9527 28.3248 23.9852C28.3248 25.0177 27.4845 25.8579 26.4521 25.8579ZM16.4644 12.1248H26.4521C28.8616 12.1248 30.8217 10.1647 30.8217 7.75521C30.8217 5.34568 28.8616 3.3856 26.4521 3.3856H16.4644C14.0548 3.3856 12.0948 5.34568 12.0948 7.75521C12.0948 10.1647 14.0548 12.1248 16.4644 12.1248ZM28.3248 7.75521C28.3248 8.78769 27.4845 9.6279 26.4521 9.6279H24.5794V5.88252H26.4521C27.4845 5.88252 28.3248 6.72273 28.3248 7.75521ZM16.4644 5.88252H22.0825V9.6279H16.4644C15.4319 9.6279 14.5917 8.78769 14.5917 7.75521C14.5917 6.72273 15.4319 5.88252 16.4644 5.88252ZM5.85245 8.37944C7.9174 8.37944 9.59783 6.69901 9.59783 4.63406C9.59783 2.5691 7.9174 0.888672 5.85245 0.888672C3.78749 0.888672 2.10706 2.5691 2.10706 4.63406C2.10706 6.69901 3.78749 8.37944 5.85245 8.37944ZM10.7676 12.9351C11.0098 13.5805 10.6827 14.2996 10.0373 14.5419C9.89247 14.5955 9.74515 14.6205 9.59908 14.6205C9.09345 14.6205 8.61779 14.3121 8.42927 13.8103C8.05099 12.8015 7.01601 12.1236 5.85369 12.1236C4.69138 12.1236 3.65515 12.8015 3.27812 13.8103C3.03716 14.4582 2.31555 14.7828 1.6701 14.5419C1.02464 14.2996 0.697546 13.5793 0.939748 12.9351C1.68133 10.9563 3.6564 9.6279 5.85494 9.6279C8.05348 9.6279 10.0286 10.9563 10.7701 12.9351H10.7676ZM9.59783 20.8641C9.59783 18.7991 7.9174 17.1187 5.85245 17.1187C3.78749 17.1187 2.10706 18.7991 2.10706 20.8641C2.10706 22.929 3.78749 24.6094 5.85245 24.6094C7.9174 24.6094 9.59783 22.929 9.59783 20.8641ZM10.7676 29.1651C11.0098 29.8105 10.6827 30.5297 10.0373 30.7719C9.89247 30.8255 9.74515 30.8505 9.59908 30.8505C9.09345 30.8505 8.61779 30.5421 8.42927 30.0403C8.05099 29.0315 7.01601 28.3536 5.85369 28.3536C4.69138 28.3536 3.65515 29.0315 3.27812 30.0403C3.03716 30.6882 2.31555 31.0128 1.6701 30.7719C1.02464 30.5297 0.697546 29.8093 0.939748 29.1651C1.68133 27.1863 3.6564 25.8579 5.85494 25.8579C8.05348 25.8579 10.0286 27.1863 10.7701 29.1651H10.7676Z" fill="#42175B"/>
</g>
<defs>
<clipPath id="clip0_158_1817">
<rect width="29.9631" height="29.9631" fill="white" transform="translate(0.856934 0.888672)"/>
</clipPath>
</defs>
</svg>
