<?xml version="1.0"?>
<svg xmlns="http://www.w3.org/2000/svg" viewBox="0 0 512 512" width="512" height="512"><g id="Outline"><path d="M459.983,297.15l-57.56-15.37-12.4-14.174A7.983,7.983,0,0,0,384,264.882V239.957A80.626,80.626,0,0,0,393.059,232H440a8,8,0,0,0,7.761-9.94L440,191.016V165.127a31.91,31.91,0,0,0,0-42.264s-.082-33.6-.161-35.015l-.013-.238A74.538,74.538,0,0,0,429.133,53.3a70.656,70.656,0,0,0-11.476-14.955A75.829,75.829,0,0,0,363.68,16H308.32a75.829,75.829,0,0,0-53.977,22.343A70.656,70.656,0,0,0,242.867,53.3a74.557,74.557,0,0,0-10.694,34.338l-.012.212c-.079,1.417-.161,35.015-.161,35.015a31.91,31.91,0,0,0,0,42.264v25.889l-7.761,31.044A8,8,0,0,0,232,232h46.941A80.626,80.626,0,0,0,288,239.957v24.924a7.985,7.985,0,0,0-6.021,2.725l-12.521,14.311-50.889,15.889a55.867,55.867,0,0,0-30.651,23.622l-7.445-18.614A23.563,23.563,0,1,0,137.521,322.1l1.535,3.069H115.331a40.2,40.2,0,0,1-17.889-4.223l-7.971-3.985A17.6,17.6,0,0,0,64,332.705v33.406a23.868,23.868,0,0,0,13.267,21.466l13.021,6.511A56.284,56.284,0,0,0,115.331,400h4.03l-7.338,95.387,15.954,1.226L132.331,440H176v56h25l31-73.024V496h16V384l-15.354-3.151L192,475.69V350.546l6.626-15.218a39.85,39.85,0,0,1,24.719-22.251l45.94-14.344,16.864,45.832a8,8,0,0,0,12.766,3.267l21.432-18.692c4.8.922,14.736,1.5,14.773,1.5H336a82.77,82.77,0,0,0,15.652-1.5l21.433,18.692a8,8,0,0,0,12.766-3.267l16.969-46.118,53.045,14.164A32.514,32.514,0,0,1,480,344V496h16V344A48.528,48.528,0,0,0,459.983,297.15ZM97.443,379.777l-13.021-6.51A7.958,7.958,0,0,1,80,366.111V332.705a1.53,1.53,0,0,1,.759-1.36,1.59,1.59,0,0,1,.836-.25,1.619,1.619,0,0,1,.721.179l7.971,3.986a56.275,56.275,0,0,0,25.044,5.912H152a8,8,0,0,0,7.155-11.578l-7.324-14.647a7.563,7.563,0,1,1,13.786-6.19L176,334.713V384H115.331A40.2,40.2,0,0,1,97.443,379.777ZM133.562,424l1.846-24H176v24ZM286.093,216h24.018A36.748,36.748,0,0,0,336,205.448,36.744,36.744,0,0,0,361.889,216h24.018a63.89,63.89,0,0,1-99.814,0ZM240,144a16.019,16.019,0,0,1,16-16v32A16.019,16.019,0,0,1,240,144Zm16.064-42.207c-.04.733-.064,1.47-.064,2.212v8a31.94,31.94,0,0,0-8,1.013V99.1Zm4.087-15.5-11.311-3.77a58.682,58.682,0,0,1,3.736-13.058l12.429,9.294A40.1,40.1,0,0,0,260.151,86.284ZM272,176V104a24.028,24.028,0,0,1,24-24h80a24.028,24.028,0,0,1,24,24v72a63.827,63.827,0,0,1-2.357,17.166A48.077,48.077,0,0,0,352,160H320a48.077,48.077,0,0,0-45.643,33.166A63.827,63.827,0,0,1,272,176ZM370.584,64h-9.14l5.321-31.921A60.316,60.316,0,0,1,382.224,34.9Zm-25.361,0H326.777l-5.333-32h29.112Zm-34.667,0h-9.14l-11.64-29.1a60.316,60.316,0,0,1,15.459-2.822Zm108.869,5.456a58.674,58.674,0,0,1,3.736,13.057l-11.312,3.771A40.1,40.1,0,0,0,407,78.75ZM416,160V128a16,16,0,0,1,0,32Zm0-48v-8c0-.742-.024-1.479-.064-2.212L424,99.1v13.908A31.94,31.94,0,0,0,416,112ZM382.987,200h-21.1a20.833,20.833,0,0,1-18.734-11.577,8,8,0,0,0-14.31,0A20.833,20.833,0,0,1,310.111,200h-21.1A32.056,32.056,0,0,1,320,176h32A32.056,32.056,0,0,1,382.987,200Zm22.25,16A79.486,79.486,0,0,0,416,176v0a31.94,31.94,0,0,0,8-1.013V192a7.977,7.977,0,0,0,.239,1.94L429.754,216Zm6.18-160.537L394.152,68.374a39.719,39.719,0,0,0-6.976-2.773l9.516-23.791a60.789,60.789,0,0,1,9.651,7.847A56.915,56.915,0,0,1,411.417,55.463ZM275.308,41.81,284.824,65.6a39.719,39.719,0,0,0-6.976,2.773L260.583,55.463a56.915,56.915,0,0,1,5.074-5.806A60.789,60.789,0,0,1,275.308,41.81ZM242.246,216l5.515-22.06A7.977,7.977,0,0,0,248,192V174.982A31.94,31.94,0,0,0,256,176v0a79.486,79.486,0,0,0,10.763,40ZM336,256a79.517,79.517,0,0,0,32-6.7v24.626L336,295.26l-32-21.334V249.3A79.517,79.517,0,0,0,336,256Zm-38.847,72.139-13.878-37.717,6.125-7,33.454,22.3Zm77.694,0-25.7-22.414,33.454-22.3,6.125,7Z"/><rect x="424" y="384" width="16" height="112"/><path d="M300,152a12,12,0,1,0-12-12A12.013,12.013,0,0,0,300,152Z"/><path d="M372,128a12,12,0,1,0,12,12A12.013,12.013,0,0,0,372,128Z"/><rect x="288" y="96" width="96" height="16"/><path d="M116,192.762A12.766,12.766,0,1,0,102.9,180,12.951,12.951,0,0,0,116,192.762Z"/><path d="M17.1,214.71c-2.463,9.2-.279,15.632,1.989,19.408,3.773,6.286,12.071,12.832,30.251,12.832,5.058,0,25.219-3.158,29.2-4.162,1.071,3.743,2.235,7.335,3.5,10.728C90.361,275.753,102.423,288,116,288s25.639-12.247,33.964-34.484c1.27-3.393,2.434-6.985,3.5-10.728,3.976,1,24.136,4.162,29.195,4.162,18.177,0,26.478-6.547,30.251-12.832,2.268-3.776,4.452-10.208,1.989-19.408-2.8-10.47-11.195-22.52-23.644-34.71,12.449-12.19,20.841-24.24,23.644-34.71,2.463-9.2.279-15.632-1.989-19.408-4.822-8.035-17.038-16.5-47.835-11.165-3.752.649-7.635,1.491-11.611,2.5-1.071-3.743-2.235-7.335-3.5-10.728C141.639,84.247,129.577,72,116,72S90.361,84.247,82.036,106.484c-1.27,3.393-2.434,6.985-3.5,10.728-3.976-1-7.859-1.846-11.611-2.5-30.8-5.329-43.012,3.131-47.835,11.165-2.268,3.776-4.452,10.208-1.989,19.408,2.8,10.47,11.2,22.52,23.644,34.71C28.291,192.19,19.9,204.24,17.1,214.71ZM116,272c-7.031,0-15.921-12.313-22.083-33.79,7.206-2.448,14.606-5.365,22.083-8.715,7.477,3.35,14.877,6.267,22.083,8.715C131.921,259.687,123.031,272,116,272ZM86.564,180c0-5.47.17-10.74.48-15.81q6.666-4.216,14.121-8.373,7.575-4.2,14.835-7.683,7.251,3.491,14.835,7.683,7.463,4.144,14.121,8.373c.31,5.07.48,10.34.48,15.81s-.17,10.74-.48,15.81q-6.666,4.216-14.121,8.373-7.577,4.206-14.835,7.68-7.251-3.49-14.835-7.68-7.463-4.144-14.121-8.373C86.734,190.74,86.564,185.47,86.564,180Zm-15.958,4.5Q67.6,182.239,64.82,180q2.775-2.237,5.786-4.5c-.024,1.5-.042,2.993-.042,4.5S70.582,183,70.606,184.5Zm18.52-40.247c.35-2.329.724-4.608,1.134-6.811q3.289,1.143,6.7,2.45c-1.189.64-2.379,1.28-3.566,1.939Q91.241,143.027,89.126,144.251Zm45.909-4.362q3.416-1.311,6.705-2.449c.41,2.2.784,4.482,1.134,6.811q-2.118-1.221-4.273-2.422C137.414,141.17,136.224,140.529,135.035,139.889ZM161.394,175.5q3.007,2.259,5.786,4.5-2.775,2.237-5.786,4.5c.024-1.5.042-2.993.042-4.5S161.418,177,161.394,175.5Zm-18.52,40.247c-.35,2.329-.724,4.608-1.134,6.811q-3.282-1.14-6.7-2.455c1.186-.638,2.373-1.277,3.557-1.934Q140.76,216.973,142.874,215.749ZM93.4,218.171c1.184.657,2.371,1.3,3.557,1.934q-3.408,1.308-6.7,2.455c-.41-2.2-.784-4.482-1.134-6.811Q91.244,216.97,93.4,218.171Zm106.049.678c.814,3.036.729,5.4-.25,7.033-3.541,5.9-19.3,7.106-42.042,1.334,1.369-7.1,2.428-14.583,3.146-22.336,6.852-4.626,13.226-9.384,19.036-14.186C190.827,201.807,197.557,211.786,199.448,218.849Zm-16.5-89.829c8.572,0,14.286,1.831,16.248,5.1.979,1.631,1.064,4,.25,7.033-1.891,7.063-8.621,17.042-20.11,28.155-5.81-4.8-12.184-9.56-19.036-14.186-.718-7.753-1.777-15.233-3.146-22.336C167.3,130.211,176.053,129.02,182.95,129.02ZM116,88c7.031,0,15.921,12.313,22.083,33.79-7.206,2.448-14.606,5.365-22.083,8.715-7.477-3.35-14.877-6.267-22.083-8.715C100.079,100.313,108.969,88,116,88ZM32.552,141.151c-.814-3.036-.729-5.4.25-7.033,1.963-3.268,7.674-5.1,16.248-5.1,6.9,0,15.654,1.191,25.794,3.764-1.369,7.1-2.428,14.583-3.146,22.336-6.852,4.626-13.226,9.384-19.036,14.186C41.173,158.193,34.443,148.214,32.552,141.151ZM71.7,204.88c.718,7.752,1.777,15.233,3.146,22.335-22.744,5.772-38.5,4.564-42.042-1.333-.979-1.631-1.064-4-.25-7.033,1.891-7.063,8.621-17.042,20.11-28.155C58.472,195.5,64.846,200.254,71.7,204.88Z"/></g></svg>
