<svg width="49" height="49" viewBox="0 0 49 49" fill="none" xmlns="http://www.w3.org/2000/svg">
<rect y="0.0650635" width="48.0123" height="48.0123" rx="11.5692" fill="#42175B"/>
<g clip-path="url(#clip0_653_2571)">
<g clip-path="url(#clip1_653_2571)">
<path d="M19.4787 22.667L18.2161 21.4044L16.835 22.7855L19.4787 25.4292L24.0755 20.8324L22.6944 19.4513L19.4787 22.667ZM25.3381 25.0247H31.1974V19.1653H25.3381V25.0247ZM27.2912 21.1184H29.2443V23.0715H27.2912V21.1184ZM19.4787 30.4795L18.2161 29.2169L16.835 30.598L19.4787 33.2416L24.0755 28.6449L22.6944 27.2638L19.4787 30.4795ZM32.174 11.7434H16.549C14.9336 11.7434 13.6193 13.0577 13.6193 14.6731V33.8137C13.6193 35.4291 14.9336 36.7434 16.549 36.7434H32.174C33.7894 36.7434 35.1037 35.4291 35.1037 33.8137V14.6731C35.1037 13.0577 33.7894 11.7434 32.174 11.7434ZM21.4318 13.6965H27.2912V14.6731C27.2912 15.2116 26.8531 15.6497 26.3146 15.6497H22.4084C21.8699 15.6497 21.4318 15.2116 21.4318 14.6731V13.6965ZM33.1506 33.8137C33.1506 34.3522 32.7125 34.7903 32.174 34.7903H16.549C16.0105 34.7903 15.5724 34.3522 15.5724 33.8137V14.6731C15.5724 14.1346 16.0105 13.6965 16.549 13.6965H19.4787V14.6731C19.4787 16.2885 20.793 17.6028 22.4084 17.6028H26.3146C27.9301 17.6028 29.2443 16.2885 29.2443 14.6731V13.6965H32.174C32.7125 13.6965 33.1506 14.1346 33.1506 14.6731V33.8137ZM25.3381 32.8372H31.1974V26.9778H25.3381V32.8372ZM27.2912 28.9309H29.2443V30.884H27.2912V28.9309Z" fill="white"/>
</g>
</g>
<defs>
<clipPath id="clip0_653_2571">
<rect width="24.8738" height="24.8738" fill="white" transform="translate(11.5693 11.634)"/>
</clipPath>
<clipPath id="clip1_653_2571">
<rect width="25" height="25" fill="white" transform="translate(11.8615 11.7434)"/>
</clipPath>
</defs>
</svg>
