<svg width="44" height="44" viewBox="0 0 44 44" fill="none" xmlns="http://www.w3.org/2000/svg">
<rect width="44" height="44" rx="10" fill="#42175B"/>
<g clip-path="url(#clip0_1462_4305)">
<path d="M17.188 14.1255C16.9459 14.1255 16.749 14.3224 16.749 14.5645C16.749 14.8065 16.9459 15.0034 17.188 15.0034C17.43 15.0034 17.6269 14.8065 17.6269 14.5645C17.6269 14.3224 17.43 14.1255 17.188 14.1255Z" fill="white"/>
<path d="M15.436 14.1255C15.194 14.1255 14.9971 14.3224 14.9971 14.5645C14.9971 14.8065 15.194 15.0034 15.436 15.0034C15.6781 15.0034 15.875 14.8065 15.875 14.5645C15.875 14.3224 15.6781 14.1255 15.436 14.1255Z" fill="white"/>
<path d="M13.6851 14.1255C13.443 14.1255 13.2461 14.3224 13.2461 14.5645C13.2461 14.8065 13.443 15.0034 13.6851 15.0034C13.9271 15.0034 14.124 14.8065 14.124 14.5645C14.124 14.3224 13.9271 14.1255 13.6851 14.1255Z" fill="white"/>
<path d="M26.3777 21.1245C25.4095 21.1245 24.626 21.9122 24.626 22.8763V23.7501C24.626 24.7183 25.4095 25.5018 26.3777 25.5018C27.3418 25.5018 28.1295 24.7183 28.1295 23.7501V22.8763C28.1295 21.9122 27.3459 21.1245 26.3777 21.1245ZM27.2474 23.7501C27.2474 24.2342 26.8536 24.6239 26.3736 24.6239C25.8895 24.6239 25.4998 24.2301 25.4998 23.7501V22.8763C25.4998 22.3922 25.8936 22.0024 26.3736 22.0024C26.8577 22.0024 27.2474 22.3963 27.2474 22.8763V23.7501Z" fill="white"/>
<path d="M30.316 12.374H13.6847C12.4785 12.374 11.498 13.3545 11.498 14.5606V29.4403C11.498 30.6464 12.4785 31.6269 13.6847 31.6269H30.3119C31.518 31.6269 32.4985 30.6464 32.4985 29.4403V14.5647C32.5026 13.3586 31.5222 12.374 30.316 12.374ZM12.3719 14.5647C12.3719 13.8427 12.9626 13.2519 13.6847 13.2519H30.3119C31.034 13.2519 31.6247 13.8427 31.6247 14.5647V15.8775H12.3719V14.5647ZM30.316 30.753H13.6847C12.9626 30.753 12.3719 30.1623 12.3719 29.4403V16.7513H31.6247V29.4403H31.6288C31.6288 30.1623 31.0381 30.753 30.316 30.753Z" fill="white"/>
<path d="M18.5011 22.0022C19.018 22.0022 19.3585 22.2484 19.379 22.4248C19.4037 22.6627 19.6088 22.8473 19.8549 22.8186C20.097 22.794 20.2734 22.5807 20.2488 22.3427C20.1831 21.6494 19.4324 21.1284 18.5011 21.1284C17.5206 21.1284 16.7494 21.7069 16.7494 22.4412C16.7494 23.1222 17.2909 23.5612 18.3657 23.7335L18.497 23.754C19.2231 23.873 19.3749 24.0576 19.3749 24.1889C19.3749 24.3612 19.0262 24.6278 18.497 24.6278C17.9801 24.6278 17.6396 24.3817 17.6191 24.2053C17.5945 23.9673 17.3852 23.7827 17.1432 23.8114C16.9012 23.836 16.7247 24.0494 16.7494 24.2873C16.815 24.9806 17.5658 25.5016 18.497 25.5016C19.4775 25.5016 20.2488 24.9232 20.2488 24.1889C20.2488 23.5037 19.7072 23.0689 18.6365 22.8925L18.5052 22.872C17.7381 22.7448 17.6232 22.5479 17.6232 22.4412C17.6232 22.2689 17.9719 22.0022 18.5011 22.0022Z" fill="white"/>
<path d="M23.7525 22.0024C23.9946 22.0024 24.1915 21.8055 24.1915 21.5635C24.1915 21.3214 23.9946 21.1245 23.7525 21.1245H21.5659C21.3239 21.1245 21.127 21.3214 21.127 21.5635V25.0629C21.127 25.309 21.3198 25.5018 21.5618 25.5018H23.7484C23.9905 25.5018 24.1874 25.3049 24.1874 25.0629C24.1874 24.8208 23.9905 24.6239 23.7484 24.6239H22.0008V23.7501H23.3136C23.5556 23.7501 23.7525 23.5532 23.7525 23.3111C23.7525 23.0691 23.5556 22.8722 23.3136 22.8722H22.0008V22.0024H23.7525Z" fill="white"/>
</g>
<defs>
<clipPath id="clip0_1462_4305">
<rect width="21.0005" height="21.0005" fill="white" transform="translate(11.5 11.5)"/>
</clipPath>
</defs>
</svg>
