<svg width="45" height="45" viewBox="0 0 45 45" fill="none" xmlns="http://www.w3.org/2000/svg">
<g clip-path="url(#clip0_714_563)">
<g clip-path="url(#clip1_714_563)">
<path d="M29.9285 11.7662C30.4153 11.7662 30.8821 11.9596 31.2262 12.3038C31.5704 12.6479 31.7638 13.1147 31.7638 13.6015C31.7638 14.0882 31.5704 14.555 31.2262 14.8992C30.8821 15.2433 30.4153 15.4367 29.9285 15.4367H15.2467C14.76 15.4367 14.2932 15.2433 13.949 14.8992C13.6048 14.555 13.4115 14.0882 13.4115 13.6015C13.4115 13.1147 13.6048 12.6479 13.949 12.3038C14.2932 11.9596 14.76 11.7662 15.2467 11.7662H29.9285ZM44.0726 44.2626C43.7285 44.6067 43.2617 44.7999 42.7751 44.7999C42.2885 44.7999 41.8218 44.6067 41.4776 44.2626L37.0602 39.8452C35.752 40.6802 34.2333 41.1257 32.6814 41.1299C31.048 41.1299 29.4513 40.6455 28.0932 39.7381C26.7351 38.8306 25.6766 37.5408 25.0515 36.0317C24.4264 34.5227 24.2629 32.8622 24.5815 31.2602C24.9002 29.6582 25.6867 28.1867 26.8417 27.0317C27.9967 25.8767 29.4682 25.0902 31.0702 24.7715C32.6722 24.4529 34.3327 24.6164 35.8418 25.2415C37.3508 25.8665 38.6406 26.9251 39.5481 28.2832C40.4555 29.6413 40.9399 31.238 40.9399 32.8713C40.9357 34.4233 40.4902 35.942 39.6552 37.2502L44.0726 41.6676C44.4167 42.0117 44.6099 42.4785 44.6099 42.9651C44.6099 43.4517 44.4167 43.9184 44.0726 44.2626ZM32.6814 37.4594C33.5888 37.4594 34.4759 37.1903 35.2304 36.6862C35.9849 36.182 36.5729 35.4655 36.9202 34.6271C37.2674 33.7888 37.3583 32.8663 37.1813 31.9763C37.0042 31.0863 36.5673 30.2687 35.9256 29.6271C35.284 28.9854 34.4665 28.5485 33.5765 28.3714C32.6865 28.1944 31.7639 28.2853 30.9256 28.6325C30.0872 28.9798 29.3707 29.5679 28.8665 30.3224C28.3624 31.0769 28.0933 31.9639 28.0933 32.8713C28.0933 34.0882 28.5767 35.2552 29.4371 36.1156C30.2975 36.976 31.4645 37.4594 32.6814 37.4594ZM24.4228 41.1299H13.4115C11.9513 41.1299 10.5509 40.5498 9.51838 39.5173C8.48587 38.4848 7.9058 37.0844 7.9058 35.6242V9.93102C7.9058 8.47082 8.48587 7.07043 9.51838 6.03791C10.5509 5.0054 11.9513 4.42534 13.4115 4.42534H35.4342C35.9209 4.42534 36.3877 4.61869 36.7319 4.96286C37.0761 5.30703 37.2694 5.77383 37.2694 6.26056V20.9424C37.2694 21.4291 37.4628 21.8959 37.807 22.2401C38.1511 22.5842 38.6179 22.7776 39.1047 22.7776C39.5914 22.7776 40.0582 22.5842 40.4024 22.2401C40.7465 21.8959 40.9399 21.4291 40.9399 20.9424V6.26056C40.9399 4.80037 40.3598 3.39997 39.3273 2.36746C38.2948 1.33494 36.8944 0.754883 35.4342 0.754883L13.4115 0.754883C10.9787 0.757797 8.64642 1.7255 6.9262 3.44573C5.20597 5.16596 4.23827 7.49825 4.23535 9.93102V35.6242C4.23827 38.057 5.20597 40.3893 6.9262 42.1095C8.64642 43.8297 10.9787 44.7974 13.4115 44.8003H24.4228C24.9096 44.8003 25.3764 44.607 25.7205 44.2628C26.0647 43.9186 26.2581 43.4518 26.2581 42.9651C26.2581 42.4784 26.0647 42.0116 25.7205 41.6674C25.3764 41.3232 24.9096 41.1299 24.4228 41.1299Z" fill="black"/>
</g>
</g>
<defs>
<clipPath id="clip0_714_563">
<rect width="44.0454" height="44.0454" fill="white" transform="translate(0.568359 0.324219)"/>
</clipPath>
<clipPath id="clip1_714_563">
<rect width="44.0454" height="44.0454" fill="white" transform="translate(0.566406 0.755371)"/>
</clipPath>
</defs>
</svg>
