<svg width="44" height="44" viewBox="0 0 44 44" fill="none" xmlns="http://www.w3.org/2000/svg">
<g clip-path="url(#clip0_714_571)">
<path d="M22.1363 29.3806C20.6967 29.3806 19.2895 28.9537 18.0926 28.1539C16.8956 27.3542 15.9627 26.2174 15.4118 24.8875C14.8609 23.5575 14.7168 22.094 14.9976 20.6821C15.2785 19.2702 15.9717 17.9733 16.9896 16.9554C18.0075 15.9375 19.3044 15.2443 20.7163 14.9635C22.1282 14.6826 23.5917 14.8267 24.9216 15.3776C26.2516 15.9285 27.3883 16.8614 28.1881 18.0584C28.9879 19.2553 29.4148 20.6625 29.4148 22.1021C29.4148 24.0325 28.6479 25.8838 27.2829 27.2488C25.918 28.6137 24.0666 29.3806 22.1363 29.3806ZM22.1363 18.4628C21.4165 18.4628 20.7129 18.6763 20.1144 19.0762C19.5159 19.4761 19.0495 20.0444 18.774 20.7094C18.4986 21.3744 18.4265 22.1061 18.5669 22.8121C18.7074 23.518 19.054 24.1665 19.5629 24.6754C20.0719 25.1844 20.7203 25.531 21.4263 25.6714C22.1322 25.8118 22.864 25.7398 23.5289 25.4643C24.1939 25.1889 24.7623 24.7224 25.1622 24.1239C25.5621 23.5255 25.7755 22.8219 25.7755 22.1021C25.7755 21.1369 25.3921 20.2112 24.7096 19.5288C24.0271 18.8463 23.1015 18.4628 22.1363 18.4628ZM33.054 42.118C33.054 39.2224 31.9038 36.4454 29.8563 34.3979C27.8088 32.3505 25.0318 31.2002 22.1363 31.2002C19.2407 31.2002 16.4637 32.3505 14.4163 34.3979C12.3688 36.4454 11.2185 39.2224 11.2185 42.118C11.2185 42.6006 11.4102 43.0634 11.7515 43.4046C12.0927 43.7459 12.5556 43.9376 13.0381 43.9376C13.5207 43.9376 13.9836 43.7459 14.3248 43.4046C14.6661 43.0634 14.8578 42.6006 14.8578 42.118C14.8578 40.1876 15.6246 38.3363 16.9896 36.9713C18.3546 35.6063 20.2059 34.8395 22.1363 34.8395C24.0666 34.8395 25.918 35.6063 27.2829 36.9713C28.6479 38.3363 29.4148 40.1876 29.4148 42.118C29.4148 42.6006 29.6065 43.0634 29.9477 43.4046C30.289 43.7459 30.7518 43.9376 31.2344 43.9376C31.717 43.9376 32.1798 43.7459 32.5211 43.4046C32.8623 43.0634 33.054 42.6006 33.054 42.118ZM33.054 14.8236C31.6145 14.8236 30.2072 14.3967 29.0103 13.5969C27.8134 12.7972 26.8805 11.6604 26.3296 10.3305C25.7787 9.00049 25.6345 7.53703 25.9154 6.12514C26.1962 4.71325 26.8894 3.41634 27.9073 2.39843C28.9253 1.38051 30.2222 0.687301 31.634 0.406459C33.0459 0.125617 34.5094 0.269755 35.8394 0.820647C37.1693 1.37154 38.3061 2.30444 39.1059 3.50138C39.9056 4.69833 40.3325 6.10555 40.3325 7.5451C40.3325 9.47548 39.5657 11.3268 38.2007 12.6918C36.8357 14.0568 34.9844 14.8236 33.054 14.8236ZM33.054 3.90585C32.3342 3.90585 31.6306 4.11929 31.0322 4.51918C30.4337 4.91906 29.9672 5.48744 29.6918 6.15242C29.4163 6.81741 29.3443 7.54914 29.4847 8.25508C29.6251 8.96103 29.9717 9.60948 30.4807 10.1184C30.9896 10.6274 31.6381 10.974 32.344 11.1144C33.05 11.2548 33.7817 11.1828 34.4467 10.9073C35.1117 10.6319 35.68 10.1654 36.0799 9.56696C36.4798 8.96849 36.6933 8.26488 36.6933 7.5451C36.6933 6.57991 36.3098 5.65425 35.6273 4.97176C34.9449 4.28927 34.0192 3.90585 33.054 3.90585ZM43.9718 27.561C43.9689 24.6663 42.8177 21.891 40.7708 19.8441C38.724 17.7973 35.9487 16.6461 33.054 16.6432C32.5714 16.6432 32.1086 16.8349 31.7673 17.1762C31.4261 17.5174 31.2344 17.9802 31.2344 18.4628C31.2344 18.9454 31.4261 19.4083 31.7673 19.7495C32.1086 20.0908 32.5714 20.2825 33.054 20.2825C34.9844 20.2825 36.8357 21.0493 38.2007 22.4143C39.5657 23.7793 40.3325 25.6306 40.3325 27.561C40.3325 28.0436 40.5242 28.5064 40.8655 28.8476C41.2067 29.1889 41.6695 29.3806 42.1521 29.3806C42.6347 29.3806 43.0976 29.1889 43.4388 28.8476C43.78 28.5064 43.9718 28.0436 43.9718 27.561ZM11.2185 14.8236C9.77897 14.8236 8.37175 14.3967 7.17481 13.5969C5.97787 12.7972 5.04496 11.6604 4.49407 10.3305C3.94318 9.00049 3.79904 7.53703 4.07988 6.12514C4.36073 4.71325 5.05394 3.41634 6.07185 2.39843C7.08977 1.38051 8.38667 0.687301 9.79856 0.406459C11.2105 0.125617 12.6739 0.269755 14.0039 0.820647C15.3339 1.37154 16.4706 2.30444 17.2704 3.50138C18.0701 4.69833 18.497 6.10555 18.497 7.5451C18.497 9.47548 17.7302 11.3268 16.3652 12.6918C15.0002 14.0568 13.1489 14.8236 11.2185 14.8236ZM11.2185 3.90585C10.4987 3.90585 9.79514 4.11929 9.19667 4.51918C8.5982 4.91906 8.13174 5.48744 7.8563 6.15242C7.58085 6.81741 7.50878 7.54914 7.6492 8.25508C7.78963 8.96103 8.13623 9.60948 8.64519 10.1184C9.15415 10.6274 9.8026 10.974 10.5085 11.1144C11.2145 11.2548 11.9462 11.1828 12.6112 10.9073C13.2762 10.6319 13.8446 10.1654 14.2444 9.56696C14.6443 8.96849 14.8578 8.26488 14.8578 7.5451C14.8578 6.57991 14.4744 5.65425 13.7919 4.97176C13.1094 4.28927 12.1837 3.90585 11.2185 3.90585ZM3.94003 27.561C3.94003 25.6306 4.70687 23.7793 6.07185 22.4143C7.43683 21.0493 9.28815 20.2825 11.2185 20.2825C11.7011 20.2825 12.1639 20.0908 12.5052 19.7495C12.8464 19.4083 13.0381 18.9454 13.0381 18.4628C13.0381 17.9802 12.8464 17.5174 12.5052 17.1762C12.1639 16.8349 11.7011 16.6432 11.2185 16.6432C8.32385 16.6461 5.54855 17.7973 3.50171 19.8441C1.45486 21.891 0.303672 24.6663 0.300781 27.561C0.300781 28.0436 0.492491 28.5064 0.833737 28.8476C1.17498 29.1889 1.63781 29.3806 2.12041 29.3806C2.603 29.3806 3.06583 29.1889 3.40707 28.8476C3.74832 28.5064 3.94003 28.0436 3.94003 27.561Z" fill="black"/>
</g>
<defs>
<clipPath id="clip0_714_571">
<rect width="43.671" height="43.671" fill="white" transform="translate(0.298828 0.266113)"/>
</clipPath>
</defs>
</svg>
