<?xml version="1.0"?>
<svg xmlns="http://www.w3.org/2000/svg" viewBox="0 0 64 64" width="512" height="512"><g id="fitness_shop-fitness_equipment-fitness_store-sportsware-fitness_center" data-name="fitness shop-fitness equipment-fitness store-sportsware-fitness center"><rect x="20" y="47" width="2" height="2"/><path d="M59,56H57V28.9A5.017,5.017,0,0,0,61,24a.808.808,0,0,0-.01-.16L59.26,13.51A2.978,2.978,0,0,0,56.31,11H49V5a3.009,3.009,0,0,0-3-3H18a3.009,3.009,0,0,0-3,3v6H7.69a2.978,2.978,0,0,0-2.95,2.51L3.01,23.84A.808.808,0,0,0,3,24a5.017,5.017,0,0,0,4,4.9V56H5a3,3,0,0,0,0,6H59a3,3,0,0,0,0-6ZM53,13h3.31a.989.989,0,0,1,.98.84L59,24.08A3,3,0,0,1,53,24Zm-4,8V13h2V24a3,3,0,0,1-6,0h1A3.009,3.009,0,0,0,49,21ZM17,5a1,1,0,0,1,1-1H46a1,1,0,0,1,1,1V21a1,1,0,0,1-1,1H18a1,1,0,0,1-1-1ZM43,24a3,3,0,0,1-6,0Zm-8,0a3,3,0,0,1-6,0Zm-8,0a3,3,0,0,1-6,0ZM13,13h2v8a3.009,3.009,0,0,0,3,3h1a3,3,0,0,1-6,0ZM12,27a5,5,0,0,0,8,0,5,5,0,0,0,8,0,5,5,0,0,0,8,0,5,5,0,0,0,8,0,5,5,0,0,0,8,0,4.994,4.994,0,0,0,3,1.89V56H25V43a7,7,0,0,0-14,0V56H9V28.89A4.994,4.994,0,0,0,12,27ZM23,43V56H13V43a5,5,0,0,1,10,0ZM5,24.08,6.71,13.84A.989.989,0,0,1,7.69,13H11V24a3,3,0,0,1-6,.08ZM59,60H5a1,1,0,0,1,0-2H59a1,1,0,0,1,0,2Z"/><path d="M44,8H41V7a1,1,0,0,0-1-1H36a1,1,0,0,0-1,1v3H29V7a1,1,0,0,0-1-1H24a1,1,0,0,0-1,1V8H20a1,1,0,0,0-1,1v8a1,1,0,0,0,1,1h3v1a1,1,0,0,0,1,1h4a1,1,0,0,0,1-1V16h6v3a1,1,0,0,0,1,1h4a1,1,0,0,0,1-1V18h3a1,1,0,0,0,1-1V9A1,1,0,0,0,44,8ZM23,16H21V10h2Zm4,2H25V8h2Zm8-4H29V12h6Zm4,4H37V8h2Zm4-2H41V10h2Z"/><path d="M50,32H30a3.009,3.009,0,0,0-3,3V51a3.009,3.009,0,0,0,3,3H50a3.009,3.009,0,0,0,3-3V35A3.009,3.009,0,0,0,50,32Zm1,19a1,1,0,0,1-1,1H30a1,1,0,0,1-1-1V35a1,1,0,0,1,1-1H50a1,1,0,0,1,1,1Z"/><path d="M47,40H44V38H42v4H38V38H36v2H33a1,1,0,0,0-1,1v4a1,1,0,0,0,1,1h3v2h2V44h4v4h2V46h3a1,1,0,0,0,1-1V41A1,1,0,0,0,47,40ZM36,44H34V42h2Zm10,0H44V42h2Z"/></g></svg>
