<svg width="49" height="49" viewBox="0 0 49 49" fill="none" xmlns="http://www.w3.org/2000/svg">
<rect y="0.0527344" width="48.0123" height="48.0123" rx="11.5692" fill="#42175B"/>
<g clip-path="url(#clip0_653_2529)">
<g clip-path="url(#clip1_653_2529)">
<path d="M15.5018 26.962C15.664 27.0705 15.8473 27.1224 16.0287 27.1224C16.3348 27.1224 16.6353 26.9745 16.8183 26.7011C18.3518 24.4095 20.9153 23.0415 23.6757 23.0415C26.4278 23.0415 28.9871 24.4033 30.5217 26.6843C30.8143 27.1192 31.404 27.2346 31.8389 26.942C32.2738 26.6494 32.3891 26.0597 32.0965 25.6248C30.8704 23.8024 29.1125 22.4576 27.1037 21.7383C28.3084 20.7542 29.0789 19.2577 29.0789 17.5845C29.0789 14.6278 26.6735 12.2224 23.7168 12.2224C20.7602 12.2224 18.3548 14.6278 18.3548 17.5845C18.3548 19.2457 19.1141 20.7328 20.3039 21.7171C18.2637 22.4338 16.4793 23.7948 15.2409 25.6455C14.9494 26.0811 15.0662 26.6705 15.5018 26.962ZM23.7168 14.1205C25.6269 14.1205 27.1808 15.6744 27.1808 17.5845C27.1808 19.4945 25.6269 21.0485 23.7168 21.0485C21.8068 21.0485 20.2529 19.4945 20.2529 17.5845C20.2529 15.6744 21.8068 14.1205 23.7168 14.1205ZM27.5015 29.0266L26.0867 30.0472C25.8762 30.1991 25.7881 30.4682 25.8685 30.714L26.4383 32.3654C26.4623 32.4389 26.4716 32.5108 26.4685 32.5793C26.4483 33.0228 25.8924 33.3262 25.4847 33.0321L24.0699 32.0112C23.9647 31.9353 23.8408 31.8973 23.7169 31.8973C23.593 31.8973 23.4691 31.9353 23.3638 32.0112L21.9491 33.0321C21.5414 33.3262 20.9828 33.0228 20.9652 32.5793C20.9625 32.5108 20.9719 32.4389 20.996 32.3654L21.5652 30.714C21.6457 30.4682 21.5575 30.1991 21.347 30.0472L19.9322 29.0266C19.4615 28.687 19.7034 27.8815 20.2853 27.8815H22.0341C22.2943 27.8815 22.5249 27.7814 22.6053 27.5357L23.1457 25.8736C23.2356 25.5989 23.4762 25.4615 23.7169 25.4615C23.9576 25.4615 24.1982 25.5989 24.2881 25.8736L24.8285 27.5357C24.9089 27.7814 25.1395 27.8815 25.3997 27.8815H27.1485C27.7303 27.8815 27.9722 28.687 27.5015 29.0266ZM35.6158 32.3482L34.201 33.3688C33.9905 33.5207 33.9024 33.7899 33.9828 34.0356L34.5525 35.687C34.5766 35.7606 34.5858 35.8324 34.5828 35.9009C34.5626 36.3445 34.0067 36.6479 33.599 36.3538L32.1842 35.3328C32.079 35.2569 31.9551 35.2189 31.8312 35.2189C31.7073 35.2189 31.5834 35.2569 31.4781 35.3328L30.0633 36.3538C29.6556 36.6479 29.0971 36.3445 29.0794 35.9009C29.0767 35.8324 29.0862 35.7605 29.1103 35.687L29.6795 34.0356C29.7599 33.7899 29.6718 33.5207 29.4613 33.3688L28.0465 32.3482C27.5758 32.0086 27.8177 31.2032 28.3995 31.2032H30.1483C30.4086 31.2032 30.6392 31.103 30.7196 30.8573L31.2599 29.1952C31.3499 28.9205 31.5905 28.7831 31.8312 28.7831C32.0718 28.7831 32.3125 28.9205 32.4024 29.1952L32.9428 30.8573C33.0232 31.103 33.2538 31.2032 33.514 31.2032H35.2628C35.8446 31.2032 36.0865 32.0086 35.6158 32.3482ZM19.3872 32.3482L17.9724 33.3688C17.7619 33.5207 17.6738 33.7899 17.7542 34.0356L18.324 35.687C18.348 35.7606 18.3573 35.8324 18.3542 35.9009C18.334 36.3445 17.7781 36.6479 17.3704 36.3538L15.9556 35.3328C15.8504 35.2569 15.7265 35.2189 15.6026 35.2189C15.4787 35.2189 15.3548 35.2569 15.2495 35.3328L13.8347 36.3538C13.427 36.6479 12.8685 36.3445 12.8508 35.9009C12.8481 35.8324 12.8576 35.7605 12.8817 35.687L13.4509 34.0356C13.5313 33.7899 13.4432 33.5207 13.2327 33.3688L11.8179 32.3482C11.3472 32.0086 11.5891 31.2032 12.1709 31.2032H13.9197C14.18 31.2032 14.4106 31.103 14.491 30.8573L15.0313 29.1952C15.1213 28.9205 15.3619 28.7831 15.6026 28.7831C15.8432 28.7831 16.0839 28.9205 16.1738 29.1952L16.7142 30.8573C16.7946 31.103 17.0252 31.2032 17.2854 31.2032H19.0342C19.616 31.2032 19.858 32.0086 19.3872 32.3482Z" fill="white"/>
</g>
</g>
<defs>
<clipPath id="clip0_653_2529">
<rect width="24.8738" height="24.8738" fill="white" transform="translate(11.5693 11.6217)"/>
</clipPath>
<clipPath id="clip1_653_2529">
<rect width="24.2954" height="24.2954" fill="white" transform="translate(11.5692 12.2008)"/>
</clipPath>
</defs>
</svg>
