<svg id="Capa_1" enable-background="new 0 0 512 512" height="512" viewBox="0 0 512 512" width="512" xmlns="http://www.w3.org/2000/svg"><g><g id="Page-1_30_"><g id="_x30_31---Garden-Tools"><path id="Shape_58_" d="m452.267 105.933 21.641-21.641c8.026-7.983 12.525-18.845 12.493-30.165v-28.527c0-14.138-11.462-25.6-25.6-25.6h-68.267c-14.138 0-25.6 11.462-25.6 25.6v28.527c-.032 11.32 4.467 22.182 12.493 30.165l21.641 21.641v270.387c-19.852 4.083-34.108 21.546-34.133 41.813v85.333c0 4.713 3.821 8.533 8.533 8.533 4.713 0 8.533-3.82 8.533-8.533v-59.733c0-4.713 3.82-8.533 8.533-8.533s8.533 3.821 8.533 8.533v59.733c0 4.713 3.821 8.533 8.533 8.533s8.533-3.82 8.533-8.533v-59.733c0-4.713 3.82-8.533 8.533-8.533s8.533 3.821 8.533 8.533v59.733c0 4.713 3.82 8.533 8.533 8.533s8.533-3.82 8.533-8.533v-59.733c0-4.713 3.821-8.533 8.533-8.533 4.713 0 8.533 3.821 8.533 8.533v59.733c0 4.713 3.82 8.533 8.533 8.533s8.533-3.82 8.533-8.533v-85.333c-.026-20.268-14.281-37.731-34.133-41.813v-270.387zm-17.067 269.534h-17.067v-34.133h17.067zm0-51.2h-17.067v-213.334h17.067zm-42.667-307.2h68.267c4.713 0 8.533 3.821 8.533 8.533s-3.821 8.533-8.533 8.533h-68.267c-4.713 0-8.533-3.821-8.533-8.533s3.82-8.533 8.533-8.533zm-8.533 37.06v-4.497c2.733 1.011 5.62 1.542 8.533 1.57h68.267c2.914-.028 5.801-.559 8.533-1.57v4.497c-.018 6.784-2.71 13.287-7.492 18.099l-21.641 21.641h-27.068l-21.641-21.641c-4.781-4.812-7.473-11.315-7.491-18.099zm85.333 364.006v1.57c-8.814-3.283-18.727-1.3-25.6 5.12-9.647-8.875-24.486-8.875-34.133 0-6.873-6.42-16.786-8.403-25.6-5.12v-1.57c0-14.138 11.462-25.6 25.6-25.6h34.133c14.139 0 25.6 11.462 25.6 25.6z"/><path id="Shape_57_" d="m34.133 512c4.713 0 8.533-3.82 8.533-8.533v-25.6h17.067v25.6c0 4.713 3.821 8.533 8.533 8.533s8.533-3.82 8.533-8.533v-25.6h17.067v25.6c0 4.713 3.821 8.533 8.533 8.533 4.713 0 8.533-3.82 8.533-8.533v-25.6h17.068v25.6c0 4.713 3.821 8.533 8.533 8.533 4.713 0 8.533-3.82 8.533-8.533v-25.6h17.067v25.6c0 4.713 3.821 8.533 8.533 8.533 4.713 0 8.533-3.82 8.533-8.533v-25.6h17.067v25.6c0 4.713 3.821 8.533 8.533 8.533s8.533-3.82 8.533-8.533v-25.6h17.068v25.6c0 4.713 3.82 8.533 8.533 8.533s8.533-3.82 8.533-8.533v-59.733c0-14.138-11.462-25.6-25.6-25.6h-59.733v-312.201l21.641-21.641c8.026-7.983 12.525-18.845 12.493-30.165v-28.527c0-14.138-11.462-25.6-25.6-25.6h-68.267c-14.139 0-25.6 11.462-25.6 25.6v28.527c-.032 11.32 4.467 22.182 12.493 30.165l21.641 21.641v312.201h-59.734c-14.138 0-25.6 11.462-25.6 25.6v59.733c0 4.713 3.82 8.533 8.533 8.533zm93.867-401.067h17.067v213.333h-17.067zm-25.6-93.866h68.267c4.713 0 8.533 3.821 8.533 8.533s-3.821 8.533-8.533 8.533h-68.267c-4.713 0-8.533-3.821-8.533-8.533s3.82-8.533 8.533-8.533zm-8.533 37.06v-4.497c2.733 1.011 5.62 1.542 8.533 1.57h68.267c2.914-.028 5.8-.559 8.533-1.57v4.497c-.018 6.784-2.71 13.287-7.492 18.099l-21.641 21.641h-27.068l-21.641-21.641c-4.782-4.812-7.474-11.315-7.491-18.099zm34.133 287.206h17.067v76.8h-17.067zm-85.333 102.4c0-4.713 3.821-8.533 8.533-8.533h170.667c4.713 0 8.533 3.821 8.533 8.533v17.067h-187.733z"/><path id="Shape_56_" d="m307.2 180.762 24.055-6.903c11.006-3.123 18.603-13.17 18.611-24.61v-55.382c0-64.614-62.251-92.041-64.905-93.175h-.102c-.679-.231-1.384-.378-2.099-.435-.381-.11-.768-.196-1.16-.257-.313.043-.624.103-.93.179-.789.05-1.568.211-2.313.478h-.119c-2.611 1.169-64.905 28.595-64.905 93.21v55.381c.012 11.414 7.578 21.442 18.551 24.585l24.116 6.929v114.347l-21.641 21.641c-8.033 7.989-12.532 18.862-12.493 30.191v28.527c0 14.138 11.462 25.6 25.6 25.6h68.267c14.138 0 25.6-11.462 25.6-25.6v-28.528c.032-11.32-4.467-22.182-12.493-30.165l-21.64-21.641v-114.347zm-17.067 6.971h-17.067v-76.8c0-4.713 3.821-8.533 8.533-8.533 4.713 0 8.533 3.821 8.533 8.533v76.8zm-17.066 17.067h17.067v85.333h-17.067zm-36.532-47.386c-3.64-1.045-6.145-4.379-6.135-8.166v-55.381c0-46.08 39.253-69.743 51.2-75.861 11.947 6.118 51.2 29.73 51.2 75.861v55.381c-.011 3.806-2.542 7.144-6.204 8.183l-19.396 5.555v-52.053c0-14.138-11.461-25.6-25.6-25.6s-25.6 11.462-25.6 25.6v52.053zm79.198 226.586h-68.267c-4.713 0-8.533-3.821-8.533-8.533 0-4.713 3.821-8.533 8.533-8.533h68.267c4.713 0 8.533 3.821 8.533 8.533.001 4.713-3.82 8.533-8.533 8.533zm8.534-37.06v4.497c-2.733-1.011-5.62-1.542-8.533-1.57h-68.267c-2.914.028-5.8.559-8.533 1.57v-4.497c.018-6.784 2.71-13.287 7.492-18.099l21.641-21.641h27.068l21.641 21.641c4.781 4.811 7.473 11.315 7.491 18.099z"/></g></g></g></svg>