<svg width="34" height="34" viewBox="0 0 34 34" fill="none" xmlns="http://www.w3.org/2000/svg">
<g clip-path="url(#clip0_274_156)">
<path d="M25.25 12.5817H22.9781L20.3127 19.6386C17.8793 19.0744 15.5862 18.0207 13.5731 16.5417C15.9241 13.97 17.4898 10.7791 18.0852 7.34609H21.3916C21.7282 7.34609 22.051 7.21237 22.2891 6.97434C22.5271 6.73631 22.6608 6.41348 22.6608 6.07686C22.6608 5.74024 22.5271 5.41741 22.2891 5.17938C22.051 4.94135 21.7282 4.80763 21.3916 4.80763H12.9829V2.00263C12.9829 1.66601 12.8492 1.34317 12.6112 1.10515C12.3731 0.867121 12.0503 0.733398 11.7137 0.733398C11.3771 0.733398 11.0542 0.867121 10.8162 1.10515C10.5782 1.34317 10.4445 1.66601 10.4445 2.00263V4.80763H2.02945C1.69283 4.80763 1.37 4.94135 1.13197 5.17938C0.893946 5.41741 0.760223 5.74024 0.760223 6.07686C0.760223 6.41348 0.893946 6.73631 1.13197 6.97434C1.37 7.21237 1.69283 7.34609 2.02945 7.34609H5.34215C5.93478 10.7788 7.49839 13.9698 9.84792 16.5417C7.68308 18.127 5.20287 19.2286 2.57522 19.7719C2.2386 19.808 1.93014 19.9765 1.7177 20.2401C1.50527 20.5037 1.40625 20.8409 1.44243 21.1775C1.47862 21.5142 1.64705 21.8226 1.91066 22.0351C2.17428 22.2475 2.51149 22.3465 2.84811 22.3103C2.9422 22.3127 3.03617 22.302 3.12734 22.2786C6.25762 21.6381 9.19672 20.2804 11.7137 18.3122C13.9845 20.0931 16.6087 21.3695 19.4116 22.0565L14.9883 33.7334H18.2693L19.9827 28.8088H28.1946L29.9271 33.7334H33.2398L25.25 12.5817ZM15.5404 7.34609C15.013 10.1661 13.6921 12.7771 11.7327 14.8726C9.77187 12.7781 8.45072 10.1667 7.92503 7.34609H15.5404ZM21.0489 25.8451L24.1141 17.0684L27.1539 25.8451H21.0489Z" fill="#42175B"/>
</g>
<defs>
<clipPath id="clip0_274_156">
<rect width="33" height="33" fill="white" transform="translate(0.5 0.733398)"/>
</clipPath>
</defs>
</svg>
