<svg width="44" height="44" viewBox="0 0 44 44" fill="none" xmlns="http://www.w3.org/2000/svg">
<rect width="44" height="44" rx="10" fill="#42175B"/>
<g clip-path="url(#clip0_1462_4347)">
<path d="M14.9975 28.3C14.4405 28.3 13.9064 28.0788 13.5125 27.685C13.1187 27.2911 12.8975 26.757 12.8975 26.2V22C12.8975 21.8138 12.9714 21.6352 13.1031 21.5035C13.2348 21.3718 13.4134 21.2979 13.5996 21.2979H14.9975C15.5544 21.2979 16.0886 21.5191 16.4824 21.9129C16.8762 22.3068 17.0975 22.8409 17.0975 23.3979V26.2C17.0975 26.757 16.8762 27.2911 16.4824 27.685C16.0886 28.0788 15.5544 28.3 14.9975 28.3V28.3ZM14.2953 22.6957V26.2C14.3121 26.3737 14.393 26.5349 14.5222 26.6522C14.6514 26.7695 14.8197 26.8344 14.9942 26.8344C15.1687 26.8344 15.3369 26.7695 15.4661 26.6522C15.5953 26.5349 15.6762 26.3737 15.6931 26.2V23.3979C15.6931 23.2116 15.6191 23.033 15.4874 22.9013C15.3557 22.7696 15.1771 22.6957 14.9909 22.6957H14.2953Z" fill="white"/>
<path d="M13.7112 19.8931H13.5996C13.416 19.8626 13.2521 19.7604 13.1438 19.609C13.0355 19.4577 12.9917 19.2695 13.0221 19.0859C13.3004 17.4389 14.0266 15.9003 15.1211 14.6384C16.2157 13.3766 17.6363 12.4403 19.2275 11.9321C20.8186 11.4238 22.519 11.3632 24.1423 11.7569C25.7656 12.1506 27.2493 12.9834 28.4309 14.1641C29.7692 15.4968 30.6552 17.2161 30.964 19.0794C30.9899 19.1741 30.9956 19.2732 30.9808 19.3703C30.966 19.4674 30.931 19.5603 30.878 19.6431C30.825 19.7258 30.7553 19.7965 30.6733 19.8506C30.5914 19.9047 30.4989 19.9409 30.4021 19.9571C30.3052 19.9732 30.206 19.9689 30.1109 19.9443C30.0158 19.9197 29.9269 19.8755 29.85 19.8144C29.7731 19.7533 29.7098 19.6768 29.6643 19.5897C29.6188 19.5027 29.5921 19.4071 29.5859 19.3091C29.2819 17.5161 28.353 15.8887 26.9638 14.7152C25.5746 13.5417 23.8148 12.8978 21.9963 12.8978C20.1778 12.8978 18.418 13.5417 17.0288 14.7152C15.6396 15.8887 14.7107 17.5161 14.4068 19.3091C14.3788 19.473 14.2935 19.6218 14.1661 19.7287C14.0387 19.8357 13.8775 19.8939 13.7112 19.8931V19.8931Z" fill="white"/>
<path d="M19.1128 15.7001C18.96 15.6947 18.8132 15.6395 18.6946 15.543C18.576 15.4465 18.4921 15.314 18.4557 15.1655C18.4193 15.017 18.4324 14.8606 18.493 14.7202C18.5535 14.5798 18.6583 14.4631 18.7913 14.3876C19.7852 13.8853 20.8833 13.6235 21.997 13.6235C23.1107 13.6235 24.2089 13.8853 25.2028 14.3876C25.2882 14.4284 25.3644 14.4861 25.4269 14.5571C25.4894 14.6281 25.5369 14.711 25.5666 14.8008C25.5962 14.8907 25.6075 14.9856 25.5995 15.0799C25.5916 15.1741 25.5647 15.2658 25.5205 15.3494C25.4762 15.4331 25.4155 15.5069 25.3421 15.5665C25.2686 15.6261 25.1838 15.6702 25.0929 15.6962C25.0019 15.7222 24.9066 15.7296 24.8127 15.7178C24.7189 15.7061 24.6283 15.6755 24.5466 15.6279C23.7535 15.2214 22.8751 15.0093 21.9839 15.0093C21.0927 15.0093 20.2143 15.2214 19.4213 15.6279C19.3254 15.6754 19.2198 15.7001 19.1128 15.7001V15.7001Z" fill="white"/>
<path d="M30.4068 21.2979H29.0024C28.4454 21.2979 27.9113 21.5191 27.5175 21.9129C27.1236 22.3068 26.9024 22.8409 26.9024 23.3979V26.2C26.9024 26.757 27.1236 27.2911 27.5175 27.685C27.9113 28.0788 28.4454 28.3 29.0024 28.3C29.2074 28.2973 29.4109 28.2641 29.6061 28.2016C29.4789 28.6343 29.2153 29.0143 28.8547 29.2851C28.494 29.5559 28.0556 29.7029 27.6046 29.7044H23.969C23.8041 29.2372 23.4793 28.8433 23.052 28.5924C22.6247 28.3415 22.1225 28.2498 21.6341 28.3335C21.1458 28.4171 20.7027 28.6708 20.3833 29.0495C20.0639 29.4283 19.8887 29.9078 19.8887 30.4033C19.8887 30.8988 20.0639 31.3783 20.3833 31.7571C20.7027 32.1359 21.1458 32.3895 21.6341 32.4732C22.1225 32.5568 22.6247 32.4651 23.052 32.2142C23.4793 31.9633 23.8041 31.5695 23.969 31.1022H27.6046C28.5317 31.1005 29.4204 30.7314 30.076 30.0758C30.7316 29.4202 31.1007 28.5316 31.1024 27.6044V22C31.1024 21.8149 31.0293 21.6373 30.8991 21.5058C30.7688 21.3743 30.5919 21.2996 30.4068 21.2979V21.2979ZM22.0002 31.1022C21.8613 31.1022 21.7256 31.061 21.6101 30.9839C21.4946 30.9067 21.4046 30.7971 21.3515 30.6688C21.2983 30.5404 21.2844 30.3993 21.3115 30.263C21.3386 30.1268 21.4055 30.0017 21.5037 29.9035C21.6019 29.8053 21.727 29.7384 21.8632 29.7113C21.9994 29.6842 22.1406 29.6982 22.2689 29.7513C22.3972 29.8044 22.5069 29.8945 22.5841 30.0099C22.6612 30.1254 22.7024 30.2612 22.7024 30.4C22.7024 30.5863 22.6284 30.7649 22.4967 30.8966C22.365 31.0282 22.1864 31.1022 22.0002 31.1022V31.1022ZM29.7046 26.2C29.6877 26.3737 29.6068 26.5349 29.4776 26.6522C29.3484 26.7695 29.1802 26.8344 29.0057 26.8344C28.8312 26.8344 28.6629 26.7695 28.5337 26.6522C28.4045 26.5349 28.3236 26.3737 28.3068 26.2V23.3979C28.3068 23.2116 28.3807 23.033 28.5124 22.9013C28.6441 22.7696 28.8227 22.6957 29.009 22.6957H29.7111L29.7046 26.2Z" fill="white"/>
</g>
<defs>
<clipPath id="clip0_1462_4347">
<rect width="21" height="21" fill="white" transform="translate(11.5 11.5)"/>
</clipPath>
</defs>
</svg>
