<svg width="31" height="30" viewBox="0 0 31 30" fill="none" xmlns="http://www.w3.org/2000/svg">
<g clip-path="url(#clip0_157_1248)">
<g clip-path="url(#clip1_157_1248)">
<path d="M30.6504 15.9928C30.4357 15.8823 30.1773 15.9012 29.9808 16.0414L24.1872 20.1797V14.1328C24.1872 13.7769 23.8986 13.4883 23.5427 13.4883H1.64453C1.28857 13.4883 1 13.7769 1 14.1328V28.7316C1 29.0875 1.28857 29.3761 1.64453 29.3761H23.5427C23.8987 29.3761 24.1872 29.0875 24.1872 28.7316V22.6846L29.9809 26.8229C30.0923 26.9025 30.2236 26.943 30.3556 26.943C30.4564 26.943 30.5575 26.9194 30.6504 26.8716C30.8651 26.7611 31.0001 26.5399 31.0001 26.2985V16.5659C31 16.3245 30.8651 16.1033 30.6504 15.9928ZM22.8982 28.087H2.28906V14.7773H22.8982V28.087ZM29.7109 25.046L24.6516 21.4322L29.7109 17.8184V25.046Z" fill="#42175B"/>
<path d="M18.6765 12.3439C15.6378 12.3439 13.1656 9.8718 13.1656 6.83313C13.1656 3.79445 15.6378 1.32227 18.6765 1.32227C21.7151 1.32227 24.1873 3.79439 24.1873 6.83313C24.1873 9.8718 21.7151 12.3439 18.6765 12.3439ZM18.6765 2.61139C16.3486 2.61139 14.4547 4.50525 14.4547 6.83318C14.4547 9.16105 16.3486 11.0549 18.6765 11.0549C21.0043 11.0549 22.8982 9.16105 22.8982 6.83318C22.8982 4.50525 21.0043 2.61139 18.6765 2.61139Z" fill="#42175B"/>
<path d="M6.5108 12.3439C3.47213 12.3439 1 9.87174 1 6.83313C1 3.79439 3.47213 1.32227 6.5108 1.32227C9.54947 1.32227 12.0216 3.79439 12.0216 6.83313C12.0216 9.87174 9.54947 12.3439 6.5108 12.3439ZM6.5108 2.61133C4.18293 2.61133 2.28906 4.5052 2.28906 6.83313C2.28906 9.161 4.18293 11.0549 6.5108 11.0549C8.83867 11.0549 10.7325 9.161 10.7325 6.83313C10.7325 4.5052 8.83867 2.61133 6.5108 2.61133Z" fill="#42175B"/>
<path d="M18.6781 7.47963C18.3221 7.47963 18.0336 7.19105 18.0336 6.8351C18.0336 6.47914 18.3221 6.18945 18.6781 6.18945C19.0341 6.18945 19.3226 6.47697 19.3226 6.83293V6.83504C19.3226 7.19105 19.0341 7.47963 18.6781 7.47963Z" fill="#42175B"/>
<path d="M6.51245 7.47963C6.15649 7.47963 5.86792 7.19105 5.86792 6.8351C5.86792 6.47914 6.15649 6.18945 6.51245 6.18945C6.86841 6.18945 7.15698 6.47697 7.15698 6.83293V6.83504C7.15698 7.19105 6.86841 7.47963 6.51245 7.47963Z" fill="#42175B"/>
</g>
</g>
<defs>
<clipPath id="clip0_157_1248">
<rect width="29.9631" height="29.9631" fill="white" transform="translate(0.857056)"/>
</clipPath>
<clipPath id="clip1_157_1248">
<rect width="30" height="30" fill="white" transform="translate(1 0.349609)"/>
</clipPath>
</defs>
</svg>
