<svg width="44" height="44" viewBox="0 0 44 44" fill="none" xmlns="http://www.w3.org/2000/svg">
<rect width="44" height="44" rx="10" fill="#42175B"/>
<g clip-path="url(#clip0_1462_4226)">
<path d="M26.2088 22.875H15.6563C15.294 22.875 15 22.581 15 22.2188V18.2812C15 17.919 15.294 17.625 15.6563 17.625H28.3438C28.706 17.625 29 17.919 29 18.2812V20.25C29 20.6123 28.706 20.9062 28.3438 20.9062C27.9815 20.9062 27.6875 20.6123 27.6875 20.25V18.9375H16.3125V21.5625H26.2088C26.571 21.5625 26.865 21.8565 26.865 22.2188C26.865 22.581 26.571 22.875 26.2088 22.875V22.875Z" fill="white"/>
<path d="M23.5927 25.4912H15.7002C15.3379 25.4912 15.0439 25.1972 15.0439 24.835C15.0439 24.4727 15.3379 24.1787 15.7002 24.1787H23.5927C23.9549 24.1787 24.2489 24.4727 24.2489 24.835C24.2489 25.1972 23.9549 25.4912 23.5927 25.4912Z" fill="white"/>
<path d="M20.9852 28.1162H15.7002C15.3379 28.1162 15.0439 27.8222 15.0439 27.46C15.0439 27.0977 15.3379 26.8037 15.7002 26.8037H20.9852C21.3474 26.8037 21.6414 27.0977 21.6414 27.46C21.6414 27.8222 21.3474 28.1162 20.9852 28.1162Z" fill="white"/>
<path d="M22.4606 32.5C22.2882 32.5 22.1202 32.4317 21.9968 32.3075C21.8455 32.1561 21.7772 31.9408 21.8148 31.7291L22.2786 29.0997C22.3022 28.9676 22.3661 28.8451 22.4606 28.7497L28.9575 22.2537C29.234 21.9772 29.5271 21.8048 29.829 21.7418C30.2463 21.6543 30.6506 21.7812 30.9682 22.0997L32.0506 23.1821C32.6473 23.7788 32.6473 24.7501 32.0506 25.3477L25.5546 31.8446C25.4592 31.94 25.3367 32.0038 25.2046 32.0266L22.5752 32.4903C22.5367 32.4965 22.4991 32.5 22.4606 32.5V32.5ZM25.0908 31.38H25.0996H25.0908ZM23.5351 29.532L23.27 31.0343L24.7723 30.7692L31.1222 24.4185C31.2071 24.3327 31.2071 24.1945 31.1222 24.1087L30.0477 23.0342C30.039 23.0508 29.9733 23.0928 29.885 23.1803L23.5351 29.532Z" fill="white"/>
<path d="M20.1012 30.75H13.9062C12.5789 30.75 11.5 29.6711 11.5 28.3438V13.9062C11.5 12.5789 12.5789 11.5 13.9062 11.5H30.0938C31.4211 11.5 32.5 12.5789 32.5 13.9062V20.285C32.5 20.6472 32.206 20.9412 31.8438 20.9412C31.4815 20.9412 31.1875 20.6472 31.1875 20.285V13.9062C31.1875 13.3034 30.6966 12.8125 30.0938 12.8125H13.9062C13.3034 12.8125 12.8125 13.3034 12.8125 13.9062V28.3438C12.8125 28.9466 13.3034 29.4375 13.9062 29.4375H20.1012C20.4635 29.4375 20.7575 29.7315 20.7575 30.0938C20.7575 30.456 20.4635 30.75 20.1012 30.75Z" fill="white"/>
<path d="M31.8438 15.875H12.1562C11.794 15.875 11.5 15.581 11.5 15.2188C11.5 14.8565 11.794 14.5625 12.1562 14.5625H31.8438C32.206 14.5625 32.5 14.8565 32.5 15.2188C32.5 15.581 32.206 15.875 31.8438 15.875Z" fill="white"/>
</g>
<defs>
<clipPath id="clip0_1462_4226">
<rect width="21" height="21" fill="white" transform="translate(11.5 11.5)"/>
</clipPath>
</defs>
</svg>
