<svg width="44" height="44" viewBox="0 0 44 44" fill="none" xmlns="http://www.w3.org/2000/svg">
<rect width="44" height="44" rx="10" fill="#42175B"/>
<g clip-path="url(#clip0_1242_2093)">
<path d="M28.2708 12.146H15.7292C14.5417 12.1474 13.4032 12.6198 12.5635 13.4595C11.7238 14.2992 11.2514 15.4377 11.25 16.6252V27.3752C11.2514 28.5627 11.7238 29.7011 12.5635 30.5408C13.4032 31.3805 14.5417 31.8529 15.7292 31.8543H28.2708C29.4583 31.8529 30.5968 31.3805 31.4365 30.5408C32.2762 29.7011 32.7486 28.5627 32.75 27.3752V16.6252C32.7486 15.4377 32.2762 14.2992 31.4365 13.4595C30.5968 12.6198 29.4583 12.1474 28.2708 12.146ZM15.7292 13.9377H28.2708C28.9836 13.9377 29.6672 14.2208 30.1712 14.7248C30.6752 15.2288 30.9583 15.9124 30.9583 16.6252V17.521H13.0417V16.6252C13.0417 15.9124 13.3248 15.2288 13.8288 14.7248C14.3328 14.2208 15.0164 13.9377 15.7292 13.9377ZM28.2708 30.0627H15.7292C15.0164 30.0627 14.3328 29.7795 13.8288 29.2755C13.3248 28.7715 13.0417 28.0879 13.0417 27.3752V19.3127H30.9583V27.3752C30.9583 28.0879 30.6752 28.7715 30.1712 29.2755C29.6672 29.7795 28.9836 30.0627 28.2708 30.0627ZM28.2708 22.896C28.2708 23.1336 28.1765 23.3614 28.0084 23.5294C27.8404 23.6974 27.6126 23.7918 27.375 23.7918H16.625C16.3874 23.7918 16.1596 23.6974 15.9916 23.5294C15.8235 23.3614 15.7292 23.1336 15.7292 22.896C15.7292 22.6584 15.8235 22.4305 15.9916 22.2625C16.1596 22.0945 16.3874 22.0002 16.625 22.0002H27.375C27.6126 22.0002 27.8404 22.0945 28.0084 22.2625C28.1765 22.4305 28.2708 22.6584 28.2708 22.896ZM24.6875 26.4793C24.6875 26.7169 24.5931 26.9448 24.4251 27.1128C24.2571 27.2808 24.0293 27.3752 23.7917 27.3752H16.625C16.3874 27.3752 16.1596 27.2808 15.9916 27.1128C15.8235 26.9448 15.7292 26.7169 15.7292 26.4793C15.7292 26.2417 15.8235 26.0139 15.9916 25.8459C16.1596 25.6779 16.3874 25.5835 16.625 25.5835H23.7917C24.0293 25.5835 24.2571 25.6779 24.4251 25.8459C24.5931 26.0139 24.6875 26.2417 24.6875 26.4793ZM13.9375 15.7293C13.9375 15.5522 13.99 15.379 14.0885 15.2316C14.1869 15.0843 14.3268 14.9695 14.4905 14.9017C14.6542 14.8339 14.8343 14.8161 15.0081 14.8507C15.1819 14.8853 15.3415 14.9706 15.4668 15.0959C15.5921 15.2212 15.6774 15.3808 15.712 15.5546C15.7465 15.7283 15.7288 15.9085 15.661 16.0721C15.5932 16.2358 15.4784 16.3758 15.331 16.4742C15.1837 16.5726 15.0105 16.6252 14.8333 16.6252C14.5957 16.6252 14.3679 16.5308 14.1999 16.3628C14.0319 16.1948 13.9375 15.9669 13.9375 15.7293ZM16.625 15.7293C16.625 15.5522 16.6775 15.379 16.776 15.2316C16.8744 15.0843 17.0143 14.9695 17.178 14.9017C17.3417 14.8339 17.5218 14.8161 17.6956 14.8507C17.8694 14.8853 18.029 14.9706 18.1543 15.0959C18.2796 15.2212 18.3649 15.3808 18.3995 15.5546C18.434 15.7283 18.4163 15.9085 18.3485 16.0721C18.2807 16.2358 18.1659 16.3758 18.0185 16.4742C17.8712 16.5726 17.698 16.6252 17.5208 16.6252C17.2832 16.6252 17.0554 16.5308 16.8874 16.3628C16.7194 16.1948 16.625 15.9669 16.625 15.7293ZM19.3125 15.7293C19.3125 15.5522 19.365 15.379 19.4635 15.2316C19.5619 15.0843 19.7018 14.9695 19.8655 14.9017C20.0292 14.8339 20.2093 14.8161 20.3831 14.8507C20.5569 14.8853 20.7165 14.9706 20.8418 15.0959C20.9671 15.2212 21.0524 15.3808 21.087 15.5546C21.1215 15.7283 21.1038 15.9085 21.036 16.0721C20.9682 16.2358 20.8534 16.3758 20.706 16.4742C20.5587 16.5726 20.3855 16.6252 20.2083 16.6252C19.9707 16.6252 19.7429 16.5308 19.5749 16.3628C19.4069 16.1948 19.3125 15.9669 19.3125 15.7293Z" fill="white"/>
</g>
<defs>
<clipPath id="clip0_1242_2093">
<rect width="21.5" height="21.5" fill="white" transform="translate(11.25 11.25)"/>
</clipPath>
</defs>
</svg>
