<svg width="53" height="54" viewBox="0 0 53 54" fill="none" xmlns="http://www.w3.org/2000/svg">
<rect x="0.364746" y="0.77832" width="52.3643" height="52.3643" rx="7.27282" fill="#42175B"/>
<g clip-path="url(#clip0_661_575)">
<g clip-path="url(#clip1_661_575)">
<path d="M19.7946 17.3763C19.66 17.1503 19.4691 16.9631 19.2404 16.8331C19.0117 16.7031 18.7532 16.6348 18.4901 16.6348C18.2271 16.6348 17.9685 16.7031 17.7398 16.8331C17.5112 16.9631 17.3202 17.1503 17.1856 17.3763L9.16479 33.418C9.07742 33.5895 9.02486 33.7766 9.01013 33.9685C8.99541 34.1604 9.01882 34.3533 9.07901 34.5361C9.1392 34.7189 9.23499 34.888 9.36084 35.0336C9.4867 35.1793 9.64013 35.2985 9.8123 35.3846C9.98447 35.4706 10.172 35.5217 10.364 35.5349C10.556 35.5482 10.7487 35.5232 10.9311 35.4616C11.1134 35.4 11.2817 35.3029 11.4264 35.1759C11.571 35.0489 11.6891 34.8946 11.7738 34.7218L14.2806 29.6949H22.6865L25.2006 34.7218C25.2853 34.8946 25.4034 35.0489 25.548 35.1759C25.6926 35.3029 25.861 35.4 26.0433 35.4616C26.2257 35.5232 26.4184 35.5482 26.6104 35.5349C26.8024 35.5217 26.9899 35.4706 27.1621 35.3846C27.3342 35.2985 27.4877 35.1793 27.6135 35.0336C27.7394 34.888 27.8352 34.7189 27.8954 34.5361C27.9556 34.3533 27.979 34.1604 27.9642 33.9685C27.9495 33.7766 27.897 33.5895 27.8096 33.418L19.7946 17.3763ZM15.739 26.7782L18.4821 21.289L21.2281 26.7782H15.739Z" fill="white"/>
<path d="M42.5444 20.9453C42.1577 20.9453 41.7867 21.099 41.5132 21.3724C41.2397 21.6459 41.0861 22.0169 41.0861 22.4036V22.4416C39.8314 21.4764 38.2941 20.9507 36.7111 20.9453C34.7772 20.9453 32.9226 21.7135 31.5551 23.081C30.1877 24.4484 29.4194 26.3031 29.4194 28.237C29.4194 30.1708 30.1877 32.0255 31.5551 33.393C32.9226 34.7604 34.7772 35.5286 36.7111 35.5286C38.2941 35.5233 39.8314 34.9975 41.0861 34.0324V34.0703C41.0861 34.4571 41.2397 34.828 41.5132 35.1015C41.7867 35.375 42.1577 35.5286 42.5444 35.5286C42.9312 35.5286 43.3021 35.375 43.5756 35.1015C43.8491 34.828 44.0028 34.4571 44.0028 34.0703V22.4036C44.0028 22.0169 43.8491 21.6459 43.5756 21.3724C43.3021 21.099 42.9312 20.9453 42.5444 20.9453ZM36.7111 32.612C35.8458 32.612 34.9999 32.3554 34.2805 31.8747C33.561 31.3939 33.0003 30.7106 32.6691 29.9112C32.338 29.1118 32.2514 28.2321 32.4202 27.3835C32.589 26.5348 33.0057 25.7552 33.6175 25.1434C34.2294 24.5315 35.0089 24.1149 35.8576 23.946C36.7062 23.7772 37.5859 23.8639 38.3853 24.195C39.1848 24.5261 39.868 25.0869 40.3488 25.8064C40.8295 26.5258 41.0861 27.3717 41.0861 28.237C41.0861 29.3973 40.6252 30.5101 39.8047 31.3306C38.9842 32.151 37.8714 32.612 36.7111 32.612Z" fill="white"/>
</g>
</g>
<defs>
<clipPath id="clip0_661_575">
<rect width="34.9096" height="34.9096" fill="white" transform="translate(9.09277 9.50586)"/>
</clipPath>
<clipPath id="clip1_661_575">
<rect width="35" height="35" fill="white" transform="translate(9.00293 9.27832)"/>
</clipPath>
</defs>
</svg>
